<svg width="84" height="87" viewBox="0 0 84 87" fill="none" xmlns="http://www.w3.org/2000/svg">
<g clip-path="url(#clip0_2087_80505)">
<path d="M42 78C61.8823 78 78 61.8823 78 42C78 22.1177 61.8823 6 42 6C22.1177 6 6 22.1177 6 42C6 61.8823 22.1177 78 42 78Z" fill="#3D406F"/>
<path d="M42 9C61.88 9 78 25.12 78 45C78 64.88 61.88 81 42 81C22.12 81 6 64.88 6 45C6 25.12 22.12 9 42 9ZM42 3C18.84 3 0 21.84 0 45C0 68.16 18.84 87 42 87C65.16 87 84 68.16 84 45C84 21.84 65.16 3 42 3Z" fill="#171C4C"/>
<path d="M42 6C61.88 6 78 22.12 78 42C78 61.88 61.88 78 42 78C22.12 78 6 61.88 6 42C6 22.12 22.12 6 42 6ZM42 0C18.84 0 0 18.84 0 42C0 65.16 18.84 84 42 84C65.16 84 84 65.16 84 42C84 18.84 65.16 0 42 0Z" fill="#171C4C"/>
<path d="M42 10C60.75 10 76 25.25 76 44C76 62.75 60.75 78 42 78C23.25 78 8 62.75 8 44C8 25.25 23.25 10 42 10ZM42 8C22.12 8 6 24.12 6 44C6 63.88 22.12 80 42 80C61.88 80 78 63.88 78 44C78 24.12 61.88 8 42 8Z" fill="#171C4C"/>
<path d="M42 6C61.88 6 78 22.12 78 42C78 61.88 61.88 78 42 78C22.12 78 6 61.88 6 42C6 22.12 22.12 6 42 6ZM42 2C19.94 2 2 19.94 2 42C2 64.06 19.94 82 42 82C64.06 82 82 64.06 82 42C82 19.94 64.06 2 42 2Z" fill="#3F5060"/>
<mask id="mask0_2087_80505" style="mask-type:alpha" maskUnits="userSpaceOnUse" x="2" y="2" width="80" height="80">
<circle cx="42" cy="42" r="40" fill="#D9D9D9"/>
</mask>
<g mask="url(#mask0_2087_80505)">
<rect x="83.5" y="-65.5" width="137.179" height="157.685" transform="rotate(45 83.5 -65.5)" fill="#5D608B"/>
</g>
<path d="M42 78C61.8823 78 78 61.8823 78 42C78 22.1177 61.8823 6 42 6C22.1177 6 6 22.1177 6 42C6 61.8823 22.1177 78 42 78Z" fill="#2A2E5D" fill-opacity="0.65"/>
<path d="M42 10C60.75 10 75.5 24.25 75.5 43C75.5 61.75 60.75 76 42 76C23.25 76 9 62.75 9 44C9 25.25 23.25 10 42 10ZM42 6C22.12 6 6 22.12 6 42C6 61.88 22.12 78 42 78C61.88 78 78 61.88 78 42C78 22.12 61.88 6 42 6Z" fill="#171C4C"/>
<path d="M64.1813 73.2751C64.7007 74.2398 64.3446 75.4613 63.37 75.9819L59.3707 78.1469C58.406 78.6663 57.1845 78.3101 56.6639 77.3355C56.1433 76.3609 56.5006 75.1493 57.4753 74.6287L61.4746 72.4637C62.4393 71.9443 63.6608 72.3005 64.1813 73.2751Z" fill="#7778A0"/>
<path d="M26.3014 7.27725C26.8917 8.22577 26.4865 9.46239 25.3783 10.0183L20.8309 12.3284C19.734 12.8828 18.3453 12.5688 17.7537 11.6104C17.1621 10.6519 17.5686 9.42524 18.6768 8.86931L23.2242 6.5592C24.3211 6.00482 25.7098 6.31883 26.3014 7.27725Z" fill="#7778A0"/>
<circle opacity="0.2" cx="22.25" cy="9.5" r="2" fill="white"/>
<path d="M42 73C40.9 73 40 72.1 40 71V56C40 55.45 40.45 55 41 55H43C43.55 55 44 55.45 44 56V71C44 72.1 43.1 73 42 73Z" fill="#171C4C"/>
<path d="M35 71.8C33.9 71.8 33 70.9 33 69.8V56C33 55.45 33.45 55 34 55H36C36.55 55 37 55.45 37 56V69.8C37 70.9 36.1 71.8 35 71.8Z" fill="#171C4C"/>
<path d="M28 69.2C26.9 69.2 26 68.3 26 67.2V56C26 55.45 26.45 55 27 55H29C29.55 55 30 55.45 30 56V67.2C30 68.3 29.1 69.2 28 69.2Z" fill="#171C4C"/>
<path d="M56 69.2C54.9 69.2 54 68.3 54 67.2V56C54 55.45 54.45 55 55 55H57C57.55 55 58 55.45 58 56V67.2C58 68.3 57.1 69.2 56 69.2Z" fill="#171C4C"/>
<path d="M21 64.2C19.9 64.2 19 63.3 19 62.2V56C19 55.45 19.45 55 20 55H22C22.55 55 23 55.45 23 56V62.2C23 63.3 22.1 64.2 21 64.2Z" fill="#171C4C"/>
<path d="M63 64.2C61.9 64.2 61 63.3 61 62.2V56C61 55.45 61.45 55 62 55H64C64.55 55 65 55.45 65 56V62.2C65 63.3 64.1 64.2 63 64.2Z" fill="#171C4C"/>
<path d="M49 71.8C47.9 71.8 47 70.9 47 69.8V56C47 55.45 47.45 55 48 55H50C50.55 55 51 55.45 51 56V69.8C51 70.9 50.1 71.8 49 71.8Z" fill="#171C4C"/>
<path d="M42 13C40.9 13 40 13.9 40 15V30C40 30.55 40.45 31 41 31H43C43.55 31 44 30.55 44 30V15C44 13.9 43.1 13 42 13Z" fill="#171C4C"/>
<path d="M35 14.2C33.9 14.2 33 15.1 33 16.2V30C33 30.55 33.45 31 34 31H36C36.55 31 37 30.55 37 30V16.2C37 15.1 36.1 14.2 35 14.2Z" fill="#171C4C"/>
<path d="M28 16.8C26.9 16.8 26 17.7 26 18.8V30C26 30.55 26.45 31 27 31H29C29.55 31 30 30.55 30 30V18.8C30 17.7 29.1 16.8 28 16.8Z" fill="#171C4C"/>
<path d="M56 16.8C54.9 16.8 54 17.7 54 18.8V30C54 30.55 54.45 31 55 31H57C57.55 31 58 30.55 58 30V18.8C58 17.7 57.1 16.8 56 16.8Z" fill="#171C4C"/>
<path d="M21 21.8C19.9 21.8 19 22.7 19 23.8V30C19 30.55 19.45 31 20 31H22C22.55 31 23 30.55 23 30V23.8C23 22.7 22.1 21.8 21 21.8Z" fill="#171C4C"/>
<path d="M63 21.8C61.9 21.8 61 22.7 61 23.8V30C61 30.55 61.45 31 62 31H64C64.55 31 65 30.55 65 30V23.8C65 22.7 64.1 21.8 63 21.8Z" fill="#171C4C"/>
<path d="M49 14.2C47.9 14.2 47 15.1 47 16.2V30C47 30.55 47.45 31 48 31H50C50.55 31 51 30.55 51 30V16.2C51 15.1 50.1 14.2 49 14.2Z" fill="#171C4C"/>
</g>
<rect x="1" y="1" width="82" height="85" rx="41" stroke="#171C4C" stroke-width="2"/>
<defs>
<clipPath id="clip0_2087_80505">
<rect width="84" height="87" rx="42" fill="white"/>
</clipPath>
</defs>
</svg>
