<svg width="84" height="87" viewBox="0 0 84 87" fill="none" xmlns="http://www.w3.org/2000/svg">
<g clip-path="url(#clip0_2087_79973)">
<path d="M42 78C61.8823 78 78 61.8823 78 42C78 22.1177 61.8823 6 42 6C22.1177 6 6 22.1177 6 42C6 61.8823 22.1177 78 42 78Z" fill="#FFCC48"/>
<path d="M42 9C61.88 9 78 25.12 78 45C78 64.88 61.88 81 42 81C22.12 81 6 64.88 6 45C6 25.12 22.12 9 42 9ZM42 3C18.84 3 0 21.84 0 45C0 68.16 18.84 87 42 87C65.16 87 84 68.16 84 45C84 21.84 65.16 3 42 3Z" fill="#171C4C"/>
<path d="M42 5.05C61.88 5.05 78 21.3715 78 41.5C78 61.6285 61.88 77.95 42 77.95C22.12 77.95 6 61.6285 6 41.5C6 21.3715 22.12 5.05 42 5.05ZM42 1C19.94 1 2 19.1643 2 41.5C2 63.8358 19.94 82 42 82C64.06 82 82 63.8358 82 41.5C82 19.1643 64.06 1 42 1Z" fill="#FFCC48"/>
<mask id="mask0_2087_79973" style="mask-type:alpha" maskUnits="userSpaceOnUse" x="2" y="2" width="80" height="80">
<circle cx="42" cy="42" r="40" fill="#D9D9D9"/>
</mask>
<g mask="url(#mask0_2087_79973)">
<rect x="83.5" y="-65.5" width="137.179" height="157.685" transform="rotate(45 83.5 -65.5)" fill="#FFCC48"/>
</g>
<path d="M42 10C60.75 10 75.5 24.25 75.5 43C75.5 61.75 60.75 76 42 76C23.25 76 9 62.75 9 44C9 25.25 23.25 10 42 10ZM42 6C22.12 6 6 22.12 6 42C6 61.88 22.12 78 42 78C61.88 78 78 61.88 78 42C78 22.12 61.88 6 42 6Z" fill="#C56A18"/>
<path opacity="0.5" d="M64.1813 73.2749C64.7007 74.2396 64.3446 75.4611 63.37 75.9817L59.3707 78.1467C58.406 78.6661 57.1845 78.3099 56.6639 77.3353C56.1433 76.3607 56.5006 75.1491 57.4753 74.6285L61.4746 72.4635C62.4393 71.9441 63.6608 72.3003 64.1813 73.2749Z" fill="white"/>
<path opacity="0.5" d="M26.3014 7.27725C26.8917 8.22577 26.4865 9.46239 25.3783 10.0183L20.8309 12.3284C19.734 12.8828 18.3453 12.5688 17.7537 11.6104C17.1621 10.6519 17.5686 9.42524 18.6768 8.86931L23.2242 6.5592C24.3211 6.00482 25.7098 6.31883 26.3014 7.27725Z" fill="white"/>
<circle cx="22.25" cy="9.5" r="2" fill="white"/>
<ellipse cx="42.5" cy="44" rx="33.5" ry="34" fill="#C56A18" fill-opacity="0.3" style="mix-blend-mode:darken"/>
<path d="M39.8476 20.32C43.8567 19.9263 47.9685 20.6121 51.6213 22.3148C55.0927 23.9216 58.1441 26.422 60.41 29.5032C62.6942 32.5959 64.1748 36.2774 64.6531 40.0935C65.2284 44.5625 64.4464 49.1992 62.4031 53.2185C60.3746 57.2481 57.119 60.6465 53.1818 62.8502C49.4764 64.9409 45.1717 65.9417 40.9241 65.7215C37.3237 65.5491 33.7701 64.4981 30.656 62.6836C27.115 60.6329 24.1459 57.6098 22.1573 54.0344C20.1037 50.3655 19.1128 46.1168 19.3172 41.9195C19.4884 38.0428 20.6824 34.2198 22.7452 30.9343C25.1184 27.1318 28.6355 24.0528 32.7256 22.2155C34.9744 21.1987 37.391 20.5574 39.8476 20.32ZM37.7175 24.1305C34.1537 24.8608 30.8341 26.6981 28.3193 29.3252C25.575 31.9442 23.6778 35.4375 23.0157 39.1749C22.6801 40.9049 22.7144 42.6738 22.7429 44.4267C22.8913 48.2497 24.2977 52.0111 26.704 54.9873C27.357 55.8124 28.1104 56.5485 28.8592 57.2857C31.3523 59.6925 34.5578 61.3484 37.9641 61.9897C39.8282 62.3538 41.7391 62.3504 43.6295 62.2785C43.2163 60.1364 42.9628 57.9499 42.2654 55.8729C41.9286 54.9394 41.4423 54.0664 40.9024 53.2345C40.7837 53.0553 40.6615 52.8681 40.4754 52.7529C39.7882 52.3626 39.0736 52.01 38.3008 51.8274C37.2004 51.4245 35.9493 51.113 35.2073 50.1293C34.4539 49.343 34.3534 48.1972 34.3317 47.1644C34.3066 45.7037 34.8728 44.3354 35.2632 42.9545C34.0931 42.8735 32.9105 42.8085 31.7736 42.5038C30.8044 42.2721 29.906 41.8225 29.0236 41.3694C28.099 40.889 27.373 40.1301 26.7074 39.3438C26.0533 38.5586 25.8079 37.5361 25.5579 36.5684C25.5317 36.2523 25.3216 35.7022 25.7463 35.5721C26.8741 35.4009 28.0202 35.4238 29.1583 35.434C30.7485 35.4432 32.3112 35.7741 33.8546 36.1187C35.689 36.6038 37.4413 37.4962 38.8179 38.8143C39.2266 38.5061 39.6798 38.2631 40.1558 38.0736C40.1296 37.1823 40.3191 36.307 40.4275 35.4272C40.7585 33.0649 41.9206 30.9149 43.3156 29.0148C43.5233 28.7398 43.8681 28.4967 44.2288 28.6017C44.6443 28.7363 44.9811 29.0399 45.2585 29.3663C45.9365 30.2667 46.5963 31.2447 46.7927 32.3768C47.1979 34.1582 47.0221 36.0046 46.7139 37.7872C47.2596 37.9412 47.8383 38.0622 48.3006 38.4126C48.7104 38.7161 48.9045 39.2068 49.1294 39.6462C49.4342 39.6268 49.7196 39.766 49.9205 39.9897C50.4764 40.5888 50.7036 41.4287 50.7138 42.231C50.9513 42.3988 51.1944 42.5631 51.4718 42.6567C52.7903 43.0926 54.1613 43.3494 55.4786 43.7865C56.0745 44.0912 56.7308 43.7534 57.3621 43.831C57.8906 43.8618 58.6098 43.9919 58.7708 44.5899C58.8872 45.1593 58.91 45.8098 58.5573 46.3062C58.3062 46.6634 58.3952 47.1382 58.1772 47.5125C57.6646 48.6993 56.5025 49.3692 55.5425 50.1532C55.2845 50.4009 54.8256 50.41 54.6932 50.7797C54.3119 51.6037 53.6259 52.2222 52.9672 52.8225C52.2971 53.3269 51.4946 53.659 50.6693 53.7971C49.7641 53.9112 48.8474 53.8849 47.9399 53.8176C48.3965 56.1799 49.1522 58.4737 49.9136 60.7527C52.7252 59.5499 55.103 57.5174 57.0642 55.2007C60.2742 51.3161 61.8061 46.1168 61.3118 41.1104C61.0059 37.8956 59.8655 34.7653 58.039 32.1029C55.6898 28.6622 52.2149 25.9883 48.2595 24.6634C44.8829 23.5142 41.1935 23.3476 37.7175 24.1305Z" fill="#C56A18"/>
<circle cx="42" cy="43" r="28.25" stroke="#C56A18" stroke-width="3.5" stroke-dasharray="20 8"/>
</g>
<rect x="1" y="1" width="82" height="85" rx="41" stroke="#171C4C" stroke-width="2"/>
<defs>
<clipPath id="clip0_2087_79973">
<rect width="84" height="87" rx="42" fill="white"/>
</clipPath>
</defs>
</svg>
