<svg width="112" height="93" viewBox="0 0 112 93" fill="none" xmlns="http://www.w3.org/2000/svg">
<path d="M99.7946 58.6953L95.4942 56.5314C95.1867 56.3767 94.8212 56.391 94.5268 56.5693L55.1723 80.3957C55.0586 80.4645 54.9597 80.5554 54.8815 80.6629L51.2941 85.5956C51.109 85.8502 51.0545 86.177 51.147 86.4779L52.6891 91.4895C53.0344 92.6119 51.4971 93.3078 50.8816 92.3076L47.2271 86.3691C47.0822 86.1336 47.0413 85.8486 47.114 85.5819L48.3334 81.1108C48.4351 80.7378 48.3128 80.3396 48.0192 80.0882L23.5595 59.1372C23.3139 58.9269 22.9819 58.8482 22.6681 58.9261L15.8462 60.6194C15.6569 60.6664 15.458 60.657 15.274 60.5924L8.53529 58.2263C7.47355 57.8535 7.74129 56.2828 8.86658 56.2828H12.8353C13.3198 56.2828 13.7346 55.9354 13.8197 55.4584L14.894 49.4381C14.9877 48.9129 14.6526 48.4065 14.1324 48.2876L8.61001 47.0251C8.5369 47.0084 8.46214 47 8.38715 47H1.84186C0.717374 47 0.448785 45.4309 1.50925 45.0569L8.25754 42.6769C8.41659 42.6208 8.58725 42.6058 8.75364 42.6334L15.9738 43.8299C16.5339 43.9228 17.0588 43.5312 17.1295 42.9679L20.8984 12.9372C20.9576 12.4661 20.6773 12.0184 20.2278 11.8657L13.5703 9.60512C13.3063 9.51545 13.0916 9.31956 12.9782 9.06474L10.5207 3.54152C10.0769 2.54399 11.3247 1.65851 12.1197 2.4068L16.7112 6.7282C16.8967 6.90279 17.1418 7 17.3966 7H23.7451C24.3875 7 24.8633 6.40298 24.7199 5.7768L23.7777 1.66188C23.5697 0.753724 24.6073 0.0796615 25.3526 0.638757L28.4206 2.94046C28.4734 2.98006 28.53 3.01433 28.5895 3.04279L96.5 35.5L102.002 39.1159C102.163 39.2217 102.351 39.2788 102.544 39.2802L110.07 39.3358C111.23 39.3444 111.448 40.9895 110.33 41.2994L106.317 42.4122C106.111 42.4692 105.929 42.5906 105.797 42.7585L98.6011 51.9299C98.2693 52.3528 98.3312 52.9625 98.7413 53.31L102.057 56.1205C102.183 56.227 102.333 56.3008 102.494 56.3354L104.774 56.8242C105.947 57.0756 105.764 58.802 104.565 58.802H100.244C100.088 58.802 99.9341 58.7654 99.7946 58.6953Z" fill="#171D4C"/>
</svg>
