<svg width="180" height="480" viewBox="0 0 180 480" fill="none" xmlns="http://www.w3.org/2000/svg">
<g clip-path="url(#clip0_818_6430)">
<mask id="mask0_818_6430" style="mask-type:luminance" maskUnits="userSpaceOnUse" x="0" y="0" width="180" height="480">
<path d="M180 0H0V480H180V0Z" fill="white"/>
</mask>
<g mask="url(#mask0_818_6430)">
<path d="M88 201H-36V283H88V201Z" fill="#068070"/>
<path d="M88 201H-36V283H88V201Z" fill="#068070"/>
<path d="M52.5993 218.782L75.8348 221.813C81.222 222.516 85.9989 218.322 85.9989 212.889V188C85.9989 183.029 81.9695 179 76.9989 179H44.2741C40.6738 179 37.42 181.146 36.0018 184.455L31.4704 195.028C29.8803 198.738 30.9551 203.053 34.0996 205.584L48.1202 216.869C49.409 217.906 50.9588 218.568 52.5993 218.782Z" fill="#8F99A2" stroke="#068070" stroke-width="2"/>
<path d="M54.7136 210.045L74.2188 212.609C77.8122 213.081 81.0008 210.284 81.0008 206.66V188C81.0008 184.686 78.3145 182 75.0008 182H47.748C45.4807 182 43.407 183.278 42.3881 185.304L38.3555 193.319C37.0067 196.001 37.8466 199.266 40.3217 200.964L52.1017 209.044C52.8813 209.578 53.7762 209.921 54.7136 210.045Z" fill="#A8B0B7"/>
<path d="M76 217C77.6569 217 79 215.657 79 214C79 212.343 77.6569 211 76 211C74.3431 211 73 212.343 73 214C73 215.657 74.3431 217 76 217Z" fill="#A8B0B7"/>
<path d="M65 211C66.1046 211 67 210.105 67 209C67 207.895 66.1046 207 65 207C63.8954 207 63 207.895 63 209C63 210.105 63.8954 211 65 211Z" fill="#8F99A2"/>
<path d="M70.5 201C72.433 201 74 199.433 74 197.5C74 195.567 72.433 194 70.5 194C68.567 194 67 195.567 67 197.5C67 199.433 68.567 201 70.5 201Z" fill="#8F99A2"/>
<path d="M86.0007 245.797V231.648C86.0007 227.068 82.5602 223.218 78.0084 222.705L56.3638 220.266C51.9836 219.772 47.8906 222.524 46.694 226.766L44.1388 235.826C43.3605 238.585 43.9435 241.55 45.7086 243.809L52.982 253.119C54.893 255.565 57.9295 256.854 61.0164 256.529L77.9429 254.747C82.5234 254.265 86.0007 250.403 86.0007 245.797Z" fill="#8F99A2" stroke="#068070" stroke-width="2"/>
<path d="M79.0009 239.117V231.269C79.0009 228.225 76.7204 225.663 73.6962 225.31L59.0188 223.597C56.0708 223.253 53.3144 225.116 52.5344 227.98L50.8829 234.043C50.3348 236.055 50.8707 238.207 52.2981 239.727L56.7936 244.514C58.0837 245.888 59.9442 246.576 61.8176 246.372L73.651 245.082C76.6951 244.75 79.0009 242.18 79.0009 239.117Z" fill="#A8B0B7"/>
<path d="M68 249C69.6569 249 71 247.657 71 246C71 244.343 69.6569 243 68 243C66.3431 243 65 244.343 65 246C65 247.657 66.3431 249 68 249Z" fill="#8F99A2"/>
<path d="M57 243C58.1046 243 59 242.105 59 241C59 239.895 58.1046 239 57 239C55.8954 239 55 239.895 55 241C55 242.105 55.8954 243 57 243Z" fill="#8F99A2"/>
<path d="M62.5 233C64.433 233 66 231.433 66 229.5C66 227.567 64.433 226 62.5 226C60.567 226 59 227.567 59 229.5C59 231.433 60.567 233 62.5 233Z" fill="#8F99A2"/>
<path d="M42.2875 315.499H77.0002C81.9708 315.499 86.0002 311.47 86.0002 306.499V266.919C86.0002 261.562 81.3495 257.391 76.0243 257.972L58.9511 259.835C57.7926 259.961 56.6697 260.311 55.6447 260.866L31.9488 273.685C28.3528 275.63 26.5199 279.755 27.4862 283.728L33.5425 308.626C34.5237 312.66 38.1363 315.499 42.2875 315.499Z" fill="#8F99A2" stroke="#068070" stroke-width="2"/>
<path d="M42.2875 313.499H77.0002C81.9708 313.499 86.0002 309.47 86.0002 304.499V264.919C86.0002 259.562 81.3495 255.391 76.0243 255.972L58.9511 257.835C57.7926 257.961 56.6697 258.311 55.6447 258.866L31.9488 271.685C28.3528 273.63 26.5199 277.755 27.4862 281.728L33.5425 306.626C34.5237 310.66 38.1363 313.499 42.2875 313.499Z" fill="#8F99A2" stroke="#068070" stroke-width="2"/>
<path d="M44.9791 300.998H74.999C78.3127 300.998 80.999 298.312 80.999 294.998V267.584C80.999 264.05 77.9601 261.282 74.4415 261.61L59.267 263.026C58.5876 263.089 57.9239 263.268 57.3046 263.555L37.6528 272.65C34.973 273.89 33.5939 276.895 34.4015 279.736L39.2078 296.639C39.9413 299.218 42.2973 300.998 44.9791 300.998Z" fill="#A8B0B7"/>
<path d="M70 304C71.6569 304 73 302.657 73 301C73 299.343 71.6569 298 70 298C68.3431 298 67 299.343 67 301C67 302.657 68.3431 304 70 304Z" fill="#8F99A2"/>
<path d="M59 298C60.1046 298 61 297.105 61 296C61 294.895 60.1046 294 59 294C57.8954 294 57 294.895 57 296C57 297.105 57.8954 298 59 298Z" fill="#8F99A2"/>
<path d="M64.5 288C66.433 288 68 286.433 68 284.5C68 282.567 66.433 281 64.5 281C62.567 281 61 282.567 61 284.5C61 286.433 62.567 288 64.5 288Z" fill="#8F99A2"/>
<path d="M29.7094 272.118L45.9837 263.241C50.7523 260.64 52.1475 254.439 48.9526 250.046L43.8181 242.986C42.7148 241.469 41.1651 240.335 39.3856 239.742L12.2621 230.7C10.827 230.222 9.29448 230.113 7.80613 230.384L-3.10206 232.367C-8.49066 233.347 -11.7622 238.872 -10.0303 244.068L-5.14821 258.714C-4.29315 261.279 -2.3301 263.324 0.198059 264.283L22.2078 272.632C24.6635 273.563 27.4036 273.375 29.7094 272.118Z" fill="#8F99A2" stroke="#068070" stroke-width="2"/>
<path d="M28.3698 265.271L38.9074 259.582C43.1824 257.274 44.4305 251.72 41.5537 247.805L38.9849 244.309C38.0005 242.97 36.6233 241.97 35.0446 241.449L14.3905 234.636C13.1261 234.218 11.7777 234.123 10.4674 234.359L4.12198 235.501C-0.685114 236.366 -3.60175 241.299 -2.04275 245.928L0.930617 254.756C1.69805 257.035 3.44958 258.847 5.70053 259.693L21.7579 265.721C23.9233 266.533 26.3345 266.369 28.3698 265.271Z" fill="#A8B0B7"/>
<path d="M41.5 259C43.433 259 45 257.433 45 255.5C45 253.567 43.433 252 41.5 252C39.567 252 38 253.567 38 255.5C38 257.433 39.567 259 41.5 259Z" fill="#8F99A2"/>
<path d="M6 260C7.65685 260 9 258.657 9 257C9 255.343 7.65685 254 6 254C4.34315 254 3 255.343 3 257C3 258.657 4.34315 260 6 260Z" fill="#8F99A2"/>
<path d="M29 253C30.1046 253 31 252.105 31 251C31 249.895 30.1046 249 29 249C27.8954 249 27 249.895 27 251C27 252.105 27.8954 253 29 253Z" fill="#8F99A2"/>
<path d="M45.3958 231.356L47.2451 225.654C48.451 221.936 47.2563 217.858 44.2344 215.379L34.6845 207.543C30.8449 204.392 25.2265 204.731 21.7934 208.321L13.7292 216.751C8.88714 221.813 11.0024 230.197 17.6666 232.355L33.4315 237.462C38.4216 239.079 43.7776 236.345 45.3958 231.356Z" fill="#8F99A2" stroke="#068070" stroke-width="3"/>
<path d="M33.7692 211.589L39.3043 216.298C41.0156 217.754 42.0017 219.888 42.0017 222.135C42.0017 227.287 37.0189 230.972 32.0925 229.462L24.3355 227.085C18.4285 225.275 16.7155 217.737 21.2601 213.552L23.1655 211.797C26.1396 209.058 30.6899 208.968 33.7692 211.589Z" fill="#A8B0B7"/>
<path d="M25.5 229C27.433 229 29 227.433 29 225.5C29 223.567 27.433 222 25.5 222C23.567 222 22 223.567 22 225.5C22 227.433 23.567 229 25.5 229Z" fill="#8F99A2"/>
<path d="M40.5 223C41.8807 223 43 221.881 43 220.5C43 219.119 41.8807 218 40.5 218C39.1193 218 38 219.119 38 220.5C38 221.881 39.1193 223 40.5 223Z" fill="#8F99A2"/>
<path d="M25.4642 280.527L30.6385 302.137C31.8427 307.167 28.0301 312 22.8584 312H-33C-37.4183 312 -41 308.418 -41 304V282.24C-41 278.809 -38.8122 275.76 -35.5618 274.662L-8.2943 265.445C-6.49077 264.835 -4.52896 264.888 -2.76134 265.595L20.6553 274.962C23.0665 275.927 24.8595 278.001 25.4642 280.527Z" fill="#8F99A2"/>
<path d="M31.611 301.904L26.4367 280.294C25.7564 277.453 23.7393 275.119 21.0267 274.034L-2.38995 264.667C-4.37852 263.872 -6.58556 263.811 -8.61452 264.497L-35.882 273.714C-39.5387 274.95 -42 278.381 -42 282.24V304C-42 308.971 -37.9706 313 -33 313H22.8584C28.6765 313 32.9658 307.563 31.611 301.904Z" stroke="#068070" stroke-width="2"/>
<path d="M31.611 303.904L26.4367 282.294C25.7564 279.453 23.7393 277.119 21.0267 276.034L-2.38995 266.667C-4.37852 265.872 -6.58556 265.811 -8.61452 266.497L-35.882 275.714C-39.5387 276.95 -42 280.381 -42 284.24V306C-42 310.971 -37.9706 315 -33 315H22.8584C28.6765 315 32.9658 309.563 31.611 303.904Z" stroke="#068070" stroke-width="2"/>
<path d="M20.2328 280.592L23.7669 295.627C24.6521 299.393 21.7947 303 17.9261 303H-30C-33.3137 303 -36 300.314 -36 297V281.946C-36 279.348 -34.3276 277.045 -31.8569 276.241L-7.09855 268.183C-5.74388 267.742 -4.27653 267.798 -2.95904 268.34L16.6746 276.416C18.4649 277.153 19.7898 278.708 20.2328 280.592Z" fill="#A8B0B7"/>
<path d="M9 292C10.1046 292 11 291.105 11 290C11 288.895 10.1046 288 9 288C7.89543 288 7 288.895 7 290C7 291.105 7.89543 292 9 292Z" fill="#8F99A2"/>
<path d="M18.5 286C20.433 286 22 284.433 22 282.5C22 280.567 20.433 279 18.5 279C16.567 279 15 280.567 15 282.5C15 284.433 16.567 286 18.5 286Z" fill="#8F99A2"/>
<path d="M23.7803 178.5H1.60988C-4.6939 178.5 -9.04463 184.813 -6.80051 190.704L0.846982 210.779C3.11771 216.739 10.697 218.511 15.3752 214.176L25.8371 204.479C26.8323 203.557 27.606 202.421 28.1004 201.158L32.1615 190.78C34.4712 184.877 30.1186 178.5 23.7803 178.5Z" fill="#8F99A2" stroke="#068070" stroke-width="2"/>
<path d="M5.65777 182H20.2574C24.4695 182 27.3706 186.227 25.8562 190.157L23.1606 197.153C22.8372 197.993 22.3293 198.749 21.6743 199.365L14.816 205.821C11.6956 208.758 6.59076 207.572 5.08573 203.559L0.0399694 190.107C-1.43136 186.185 1.46833 182 5.65777 182Z" fill="#A8B0B7"/>
<path d="M9.5 200C11.433 200 13 198.433 13 196.5C13 194.567 11.433 193 9.5 193C7.567 193 6 194.567 6 196.5C6 198.433 7.567 200 9.5 200Z" fill="#8F99A2"/>
<path d="M24.5 194C25.8807 194 27 192.881 27 191.5C27 190.119 25.8807 189 24.5 189C23.1193 189 22 190.119 22 191.5C22 192.881 23.1193 194 24.5 194Z" fill="#8F99A2"/>
<path d="M-34.2026 230.716L-16.9232 236.156C-14.0287 237.067 -10.87 236.458 -8.52145 234.537L-7.77323 233.925C-6.73164 233.072 -5.89444 231.998 -5.32324 230.779L0.0172424 219.386C1.01819 217.251 1.141 214.808 0.359249 212.583L-9.67747 184.017C-10.9439 180.412 -14.3481 178 -18.1686 178H-31.5C-36.4706 178 -40.5 182.029 -40.5 187V222.131C-40.5 226.061 -37.9507 229.536 -34.2026 230.716Z" fill="#8F99A2" stroke="#068070" stroke-width="2"/>
<mask id="mask1_818_6430" style="mask-type:luminance" maskUnits="userSpaceOnUse" x="-15" y="4" width="71" height="106">
<path d="M56 4H-15V109.9H56V4Z" fill="white"/>
</mask>
<g mask="url(#mask1_818_6430)">
<path d="M53.77 56.7202C55.18 54.3102 56 51.5202 56 48.5302C56 39.5602 48.73 32.2802 39.75 32.2802C39.71 32.2802 39.68 32.2802 39.64 32.2802C38.74 24.1602 31.86 17.8302 23.5 17.8302C22.35 17.8302 21.22 17.9502 20.13 18.1802C17.16 14.3102 12.5 11.8102 7.25 11.8102C7.25 11.8102 7.24 11.8102 7.23 11.8102C7.23 11.7102 7.25 11.6102 7.25 11.5102C7.25 7.36023 3.88 3.99023 -0.27 3.99023C-4.42 3.99023 -7.79 7.36023 -7.79 11.5102C-7.79 13.8802 -6.69 16.0002 -4.97 17.3802C-7.47 20.2402 -8.99 23.9702 -8.99 28.0602C-8.99 31.6102 -7.84 34.8802 -5.91 37.5502C-11.28 40.2102 -15 45.7302 -15 52.1402C-15 59.6702 -9.86 65.9902 -2.91 67.8302C-2.94 68.2102 -2.97 68.6002 -2.97 68.9902C-2.97 70.0702 -2.86 71.1302 -2.66 72.1502C-5.07 74.3502 -6.58 77.5002 -6.58 81.0202C-6.58 84.7902 -4.85 88.1502 -2.13 90.3602C-3.78 92.4202 -4.77 95.0302 -4.77 97.8702C-4.77 104.52 0.62 109.9 7.26 109.9C13.9 109.9 18.95 104.83 19.26 98.4702C19.27 98.4702 19.28 98.4702 19.29 98.4702C24.59 98.4702 29.07 95.0402 30.68 90.2902C32.39 90.9002 34.22 91.2502 36.14 91.2502C45.11 91.2502 52.39 83.9802 52.39 75.0002C52.39 72.9002 51.98 70.8902 51.25 69.0502C54.03 67.9502 56 65.2402 56 62.0602C56 59.9702 55.14 58.0802 53.77 56.7102V56.7202Z" fill="#005D54"/>
<path d="M41.6014 47.0292C41.9014 46.0392 42.0714 44.9892 42.0714 43.8992C42.0714 37.9492 37.2514 33.1292 31.3014 33.1292C30.8114 33.1292 30.3314 33.1692 29.8614 33.2392C30.7614 32.0492 31.3014 30.5792 31.3014 28.9692C31.3014 25.0492 28.1214 21.8692 24.2014 21.8692C22.8214 21.8692 21.5414 22.2692 20.4514 22.9492C18.9014 19.9792 15.7914 17.9492 12.2114 17.9492C7.0714 17.9492 2.91141 22.1192 2.91141 27.2492C2.91141 30.7592 4.8514 33.8092 7.7114 35.3892C7.2014 35.1992 6.66141 35.0792 6.09141 35.0792C3.52141 35.0792 1.44141 37.1592 1.44141 39.7292C1.44141 42.2992 3.52141 44.3792 6.09141 44.3792C8.66141 44.3792 10.6614 42.3692 10.7314 39.8592C11.0914 40.4792 11.5514 41.0392 12.0714 41.5292C9.99141 41.9292 8.42141 43.7092 8.31141 45.8792C8.22141 45.8792 8.13141 45.8492 8.04141 45.8492C5.47141 45.8492 3.39141 47.9292 3.39141 50.4992C3.39141 53.0692 5.47141 55.1492 8.04141 55.1492C10.6114 55.1492 12.5514 53.1792 12.6714 50.7192C12.7614 50.7192 12.8514 50.7492 12.9414 50.7492C15.5114 50.7492 17.5914 48.6692 17.5914 46.0992C17.5914 45.0892 17.2614 44.1592 16.7114 43.3992C16.7614 43.3992 16.8014 43.3992 16.8514 43.3992C18.2514 43.3992 19.5514 42.9892 20.6514 42.2892C20.5714 42.8092 20.5214 43.3492 20.5214 43.8892C20.5214 48.4792 23.3914 52.3892 27.4414 53.9392C26.2714 54.6592 25.2914 55.6592 24.6014 56.8392C23.5214 55.5092 21.8814 54.6592 20.0314 54.6592C17.2614 54.6592 14.9414 56.5792 14.3214 59.1692C13.8614 59.1092 13.4014 59.0692 12.9314 59.0692C7.12141 59.0692 2.40141 63.7792 2.40141 69.5992C2.40141 75.4192 7.11141 80.1292 12.9314 80.1292C18.7514 80.1292 23.4614 75.4192 23.4614 69.5992C23.4614 68.2392 23.1914 66.9492 22.7314 65.7592C23.3114 65.4592 23.8314 65.0692 24.2814 64.5992C25.6214 67.4092 28.4714 69.3492 31.7914 69.3492C36.3914 69.3492 40.1214 65.6192 40.1214 61.0192C40.1214 58.8692 39.2914 56.9092 37.9514 55.4292C38.6614 55.8592 39.4814 56.1192 40.3614 56.1192C42.9314 56.1192 45.0114 54.0392 45.0114 51.4692C45.0114 49.3392 43.5714 47.5592 41.6114 47.0092L41.6014 47.0292ZM36.1714 53.4992C36.3114 53.7892 36.4814 54.0692 36.6814 54.3192C36.3814 54.0992 36.0614 53.8892 35.7314 53.7092C35.8814 53.6392 36.0314 53.5692 36.1714 53.4992ZM8.5514 35.8092C8.9414 35.9792 9.34141 36.1092 9.75141 36.2192C9.75141 36.2492 9.75141 36.2792 9.75141 36.3092C9.75141 36.5292 9.76141 36.7392 9.78141 36.9492C9.44141 36.4992 9.0314 36.1092 8.5514 35.8092Z" fill="#068070"/>
</g>
<mask id="mask2_818_6430" style="mask-type:luminance" maskUnits="userSpaceOnUse" x="-15" y="64" width="71" height="106">
<path d="M56 64H-15V169.9H56V64Z" fill="white"/>
</mask>
<g mask="url(#mask2_818_6430)">
<path d="M53.77 116.72C55.18 114.31 56 111.52 56 108.53C56 99.5602 48.73 92.2802 39.75 92.2802C39.71 92.2802 39.68 92.2802 39.64 92.2802C38.74 84.1602 31.86 77.8302 23.5 77.8302C22.35 77.8302 21.22 77.9502 20.13 78.1802C17.16 74.3102 12.5 71.8102 7.25 71.8102C7.25 71.8102 7.24 71.8102 7.23 71.8102C7.23 71.7102 7.25 71.6102 7.25 71.5102C7.25 67.3602 3.88 63.9902 -0.27 63.9902C-4.42 63.9902 -7.79 67.3602 -7.79 71.5102C-7.79 73.8802 -6.69 76.0002 -4.97 77.3802C-7.47 80.2402 -8.99 83.9702 -8.99 88.0602C-8.99 91.6102 -7.84 94.8802 -5.91 97.5502C-11.28 100.21 -15 105.73 -15 112.14C-15 119.67 -9.86 125.99 -2.91 127.83C-2.94 128.21 -2.97 128.6 -2.97 128.99C-2.97 130.07 -2.86 131.13 -2.66 132.15C-5.07 134.35 -6.58 137.5 -6.58 141.02C-6.58 144.79 -4.85 148.15 -2.13 150.36C-3.78 152.42 -4.77 155.03 -4.77 157.87C-4.77 164.52 0.62 169.9 7.26 169.9C13.9 169.9 18.95 164.83 19.26 158.47C19.27 158.47 19.28 158.47 19.29 158.47C24.59 158.47 29.07 155.04 30.68 150.29C32.39 150.9 34.22 151.25 36.14 151.25C45.11 151.25 52.39 143.98 52.39 135C52.39 132.9 51.98 130.89 51.25 129.05C54.03 127.95 56 125.24 56 122.06C56 119.97 55.14 118.08 53.77 116.71V116.72Z" fill="#005D54"/>
<path d="M41.6014 107.029C41.9014 106.039 42.0714 104.989 42.0714 103.899C42.0714 97.9492 37.2514 93.1292 31.3014 93.1292C30.8114 93.1292 30.3314 93.1692 29.8614 93.2392C30.7614 92.0492 31.3014 90.5792 31.3014 88.9692C31.3014 85.0492 28.1214 81.8692 24.2014 81.8692C22.8214 81.8692 21.5414 82.2692 20.4514 82.9492C18.9014 79.9792 15.7914 77.9492 12.2114 77.9492C7.0714 77.9492 2.91141 82.1192 2.91141 87.2492C2.91141 90.7592 4.8514 93.8092 7.7114 95.3892C7.2014 95.1992 6.66141 95.0792 6.09141 95.0792C3.52141 95.0792 1.44141 97.1592 1.44141 99.7292C1.44141 102.299 3.52141 104.379 6.09141 104.379C8.66141 104.379 10.6614 102.369 10.7314 99.8592C11.0914 100.479 11.5514 101.039 12.0714 101.529C9.99141 101.929 8.42141 103.709 8.31141 105.879C8.22141 105.879 8.13141 105.849 8.04141 105.849C5.47141 105.849 3.39141 107.929 3.39141 110.499C3.39141 113.069 5.47141 115.149 8.04141 115.149C10.6114 115.149 12.5514 113.179 12.6714 110.719C12.7614 110.719 12.8514 110.749 12.9414 110.749C15.5114 110.749 17.5914 108.669 17.5914 106.099C17.5914 105.089 17.2614 104.159 16.7114 103.399C16.7614 103.399 16.8014 103.399 16.8514 103.399C18.2514 103.399 19.5514 102.989 20.6514 102.289C20.5714 102.809 20.5214 103.349 20.5214 103.889C20.5214 108.479 23.3914 112.389 27.4414 113.939C26.2714 114.659 25.2914 115.659 24.6014 116.839C23.5214 115.509 21.8814 114.659 20.0314 114.659C17.2614 114.659 14.9414 116.579 14.3214 119.169C13.8614 119.109 13.4014 119.069 12.9314 119.069C7.12141 119.069 2.40141 123.779 2.40141 129.599C2.40141 135.419 7.11141 140.129 12.9314 140.129C18.7514 140.129 23.4614 135.419 23.4614 129.599C23.4614 128.239 23.1914 126.949 22.7314 125.759C23.3114 125.459 23.8314 125.069 24.2814 124.599C25.6214 127.409 28.4714 129.349 31.7914 129.349C36.3914 129.349 40.1214 125.619 40.1214 121.019C40.1214 118.869 39.2914 116.909 37.9514 115.429C38.6614 115.859 39.4814 116.119 40.3614 116.119C42.9314 116.119 45.0114 114.039 45.0114 111.469C45.0114 109.339 43.5714 107.559 41.6114 107.009L41.6014 107.029ZM36.1714 113.499C36.3114 113.789 36.4814 114.069 36.6814 114.319C36.3814 114.099 36.0614 113.889 35.7314 113.709C35.8814 113.639 36.0314 113.569 36.1714 113.499ZM8.5514 95.8092C8.9414 95.9792 9.34141 96.1092 9.75141 96.2192C9.75141 96.2492 9.75141 96.2792 9.75141 96.3092C9.75141 96.5292 9.76141 96.7392 9.78141 96.9492C9.44141 96.4992 9.0314 96.1092 8.5514 95.8092Z" fill="#068070"/>
</g>
<path fill-rule="evenodd" clip-rule="evenodd" d="M145 412.5V419.5V420H144.982C144.585 425.567 137.581 430 129 430C120.419 430 113.415 425.567 113.018 420H113V419.5V412.5V412H113.018C113.415 406.433 120.419 402 129 402C137.581 402 144.585 406.433 144.982 412H145V412.5Z" fill="#6F7B87"/>
<path fill-rule="evenodd" clip-rule="evenodd" d="M128.92 361C132.77 360.98 136.26 362.61 138.79 365.24C141.32 367.86 142.89 371.48 142.9 375.49C142.913 377.451 141.718 379.248 139.72 380.646V382.417C140.265 382.443 140.763 382.587 141.2 382.84L147.05 386.24C146.794 386.092 146.517 385.981 146.223 385.91C147.631 386.958 148.61 388.73 148.61 390.77C148.62 392.86 147.9 395.16 146.75 397.21C145.61 399.23 144.03 400.99 142.28 402C141.801 402.278 141.31 402.461 140.819 402.558C140.846 402.628 140.87 402.699 140.891 402.769C141.031 402.901 141.135 403.073 141.181 403.271L142.709 409.765C142.75 409.939 142.743 410.111 142.698 410.268C142.719 410.441 142.729 410.615 142.73 410.79C142.76 415.2 136.61 418.77 129.02 418.77C125.22 418.77 121.77 417.87 119.27 416.43C116.77 414.98 115.22 412.99 115.21 410.79C115.208 410.522 115.229 410.257 115.272 409.996C115.259 409.882 115.265 409.763 115.293 409.644L116.817 403.268C116.862 403.077 116.961 402.909 117.095 402.78C117.268 402.156 117.669 401.565 118.26 401.025V390.5C117.645 390.472 117.089 390.292 116.613 389.973L110.93 386.67C109.74 385.98 109 384.47 109 382.34C109 380.25 109.71 377.94 110.85 375.9C112 373.88 113.57 372.11 115.34 371.09C115.473 371.013 115.605 370.941 115.737 370.875C117.571 365.127 122.77 361 128.92 361ZM116.695 379.309C116.197 380.202 115.781 381.144 115.471 382.098C115.783 381.145 116.2 380.204 116.698 379.313C116.698 379.313 116.696 379.311 116.695 379.309Z" fill="#E9462E"/>
<path d="M138.79 365.24L137.349 366.627L137.351 366.63L138.79 365.24ZM128.92 361V363H128.93L128.92 361ZM142.9 375.49L140.9 375.495V375.504L142.9 375.49ZM139.72 380.646L138.574 379.007C138.039 379.381 137.72 379.993 137.72 380.646H139.72ZM139.72 382.417H137.72C137.72 383.485 138.558 384.364 139.624 384.415L139.72 382.417ZM141.2 382.84L142.205 381.111L142.202 381.109L141.2 382.84ZM147.05 386.24L146.048 387.971C147.003 388.524 148.226 388.199 148.78 387.244C149.334 386.289 149.009 385.066 148.055 384.511L147.05 386.24ZM146.223 385.91L146.695 383.966C145.771 383.742 144.817 384.199 144.412 385.06C144.008 385.92 144.266 386.946 145.028 387.514L146.223 385.91ZM148.61 390.77H146.61V390.78L148.61 390.77ZM146.75 397.21L148.492 398.193L148.494 398.189L146.75 397.21ZM142.28 402L141.28 400.268L141.277 400.27L142.28 402ZM140.819 402.558L140.43 400.596C139.851 400.711 139.353 401.075 139.068 401.592C138.783 402.108 138.74 402.724 138.952 403.275L140.819 402.558ZM140.891 402.77L138.973 403.338C139.074 403.68 139.265 403.988 139.526 404.231L140.891 402.77ZM142.698 410.268L140.776 409.718C140.703 409.972 140.681 410.238 140.712 410.501L142.698 410.268ZM142.73 410.79L140.73 410.799V410.804L142.73 410.79ZM119.27 416.43L118.267 418.16L118.272 418.163L119.27 416.43ZM115.21 410.79L117.21 410.781V410.777L115.21 410.79ZM115.272 409.996L117.246 410.32C117.276 410.134 117.28 409.945 117.258 409.758L115.272 409.996ZM117.095 402.78L118.483 404.221C118.741 403.972 118.927 403.658 119.023 403.313L117.095 402.78ZM118.26 401.026L119.609 402.502C120.024 402.123 120.26 401.587 120.26 401.026H118.26ZM118.26 390.5H120.26C120.26 389.431 119.42 388.552 118.352 388.502L118.26 390.5ZM116.613 389.973L117.726 388.311C117.69 388.288 117.655 388.265 117.618 388.244L116.613 389.973ZM110.93 386.67L111.935 384.941L111.933 384.94L110.93 386.67ZM110.85 375.9L109.112 374.911C109.109 374.915 109.107 374.92 109.104 374.925L110.85 375.9ZM115.34 371.09L116.339 372.823L116.342 372.821L115.34 371.09ZM115.737 370.875L116.637 372.661C117.116 372.42 117.479 371.995 117.642 371.483L115.737 370.875ZM115.471 382.098L113.569 381.479C113.228 382.529 113.801 383.657 114.851 383.999C115.9 384.342 117.029 383.769 117.372 382.72L115.471 382.098ZM116.695 379.309L118.157 377.945C117.721 377.478 117.088 377.247 116.454 377.324C115.819 377.401 115.26 377.777 114.948 378.335L116.695 379.309ZM116.698 379.313L118.444 380.288C118.868 379.529 118.753 378.583 118.16 377.948L116.698 379.313ZM140.231 363.854C137.351 360.859 133.348 358.977 128.91 359L128.93 363C132.192 362.983 135.169 364.361 137.349 366.627L140.231 363.854ZM144.9 375.485C144.889 370.949 143.111 366.835 140.229 363.851L137.351 366.63C139.529 368.885 140.891 372.012 140.9 375.495L144.9 375.485ZM140.866 382.285C143.177 380.668 144.919 378.33 144.9 375.477L140.9 375.504C140.907 376.573 140.259 377.828 138.574 379.007L140.866 382.285ZM137.72 380.646V382.417H141.72V380.646H137.72ZM139.624 384.415C139.87 384.427 140.054 384.488 140.198 384.571L142.202 381.109C141.472 380.687 140.66 380.46 139.816 380.419L139.624 384.415ZM140.195 384.569L146.045 387.969L148.055 384.511L142.205 381.111L140.195 384.569ZM148.052 384.509C147.628 384.264 147.172 384.082 146.695 383.966L145.75 387.853C145.863 387.881 145.961 387.921 146.048 387.971L148.052 384.509ZM145.028 387.514C145.94 388.193 146.61 389.375 146.61 390.77H150.61C150.61 388.086 149.322 385.724 147.417 384.305L145.028 387.514ZM146.61 390.78C146.618 392.437 146.035 394.397 145.006 396.232L148.494 398.189C149.765 395.924 150.622 393.284 150.61 390.761L146.61 390.78ZM145.008 396.227C143.994 398.025 142.642 399.482 141.28 400.268L143.28 403.732C145.418 402.498 147.226 400.436 148.492 398.193L145.008 396.227ZM141.277 400.27C140.984 400.44 140.7 400.543 140.43 400.596L141.208 404.52C141.919 404.379 142.618 404.116 143.283 403.73L141.277 400.27ZM138.952 403.275C138.96 403.297 138.967 403.318 138.973 403.338L142.808 402.201C142.772 402.079 142.731 401.959 142.686 401.841L138.952 403.275ZM139.526 404.231C139.385 404.1 139.281 403.926 139.235 403.729L143.128 402.813C142.989 402.22 142.677 401.702 142.256 401.308L139.526 404.231ZM139.235 403.729L140.763 410.223L144.656 409.307L143.128 402.813L139.235 403.729ZM140.763 410.223C140.723 410.057 140.729 409.881 140.776 409.718L144.621 410.819C144.758 410.34 144.777 409.821 144.656 409.307L140.763 410.223ZM140.712 410.501C140.723 410.6 140.73 410.699 140.73 410.799L144.73 410.781C144.729 410.531 144.714 410.282 144.685 410.036L140.712 410.501ZM140.73 410.804C140.738 411.991 139.903 413.44 137.727 414.705C135.601 415.941 132.527 416.77 129.02 416.77V420.77C133.103 420.77 136.899 419.814 139.738 418.163C142.527 416.541 144.752 413.999 144.73 410.777L140.73 410.804ZM129.02 416.77C125.511 416.77 122.417 415.935 120.268 414.697L118.272 418.163C121.123 419.805 124.929 420.77 129.02 420.77V416.77ZM120.273 414.7C118.07 413.422 117.215 411.968 117.21 410.781L113.21 410.799C113.225 414.012 115.47 416.538 118.267 418.16L120.273 414.7ZM117.21 410.777C117.209 410.623 117.221 410.471 117.246 410.32L113.299 409.671C113.238 410.043 113.207 410.421 113.21 410.804L117.21 410.777ZM117.258 409.758C117.272 409.876 117.265 409.996 117.238 410.109L113.348 409.179C113.264 409.531 113.245 409.888 113.287 410.234L117.258 409.758ZM117.238 410.109L118.762 403.733L114.871 402.803L113.348 409.179L117.238 410.109ZM118.762 403.733C118.716 403.923 118.617 404.092 118.483 404.221L115.708 401.34C115.306 401.727 115.008 402.23 114.871 402.803L118.762 403.733ZM119.023 403.313C119.068 403.149 119.211 402.865 119.609 402.502L116.911 399.549C116.127 400.266 115.467 401.164 115.168 402.247L119.023 403.313ZM120.26 401.026V390.5H116.26V401.026H120.26ZM118.352 388.502C118.081 388.49 117.881 388.416 117.726 388.311L115.501 391.635C116.297 392.168 117.209 392.454 118.168 392.498L118.352 388.502ZM117.618 388.244L111.935 384.941L109.925 388.399L115.608 391.702L117.618 388.244ZM111.933 384.94C111.589 384.741 111 384.069 111 382.34H107C107 384.872 107.891 387.22 109.927 388.4L111.933 384.94ZM111 382.34C111 380.669 111.58 378.694 112.596 376.876L109.104 374.925C107.84 377.187 107 379.831 107 382.34H111ZM112.588 376.89C113.618 375.08 114.962 373.616 116.339 372.823L114.341 369.357C112.178 370.604 110.382 372.681 109.112 374.911L112.588 376.89ZM116.342 372.821C116.443 372.763 116.541 372.71 116.637 372.661L114.836 369.09C114.67 369.174 114.503 369.264 114.338 369.359L116.342 372.821ZM128.92 359C121.835 359 115.909 363.754 113.831 370.268L117.642 371.483C119.232 366.501 123.706 363 128.92 363V359ZM117.373 382.716C117.641 381.892 118.003 381.069 118.441 380.284L114.948 378.335C114.39 379.335 113.921 380.396 113.569 381.479L117.373 382.716ZM114.952 378.338C114.395 379.335 113.924 380.394 113.57 381.476L117.372 382.72C117.641 381.897 118.005 381.074 118.444 380.288L114.952 378.338ZM115.233 380.674C115.234 380.675 115.235 380.677 115.237 380.678L118.16 377.948C118.159 377.947 118.158 377.946 118.157 377.945L115.233 380.674Z" fill="#AA1900"/>
<path d="M138.79 367.24L137.349 368.627L137.351 368.63L138.79 367.24ZM128.92 363V365H128.93L128.92 363ZM142.9 377.49L140.9 377.495V377.504L142.9 377.49ZM139.72 382.646L138.574 381.007C138.039 381.381 137.72 381.993 137.72 382.646H139.72ZM139.72 384.417H137.72C137.72 385.485 138.558 386.364 139.624 386.415L139.72 384.417ZM141.2 384.84L142.205 383.111L142.202 383.109L141.2 384.84ZM147.05 388.24L146.048 389.971C147.003 390.524 148.226 390.199 148.78 389.244C149.334 388.289 149.009 387.066 148.055 386.511L147.05 388.24ZM146.223 387.91L146.695 385.966C145.771 385.742 144.817 386.199 144.412 387.06C144.008 387.92 144.266 388.946 145.028 389.514L146.223 387.91ZM148.61 392.77H146.61V392.78L148.61 392.77ZM146.75 399.21L148.492 400.193L148.494 400.189L146.75 399.21ZM142.28 404L141.28 402.268L141.277 402.27L142.28 404ZM140.819 404.558L140.43 402.596C139.851 402.711 139.353 403.075 139.068 403.592C138.783 404.108 138.74 404.724 138.952 405.275L140.819 404.558ZM140.891 404.77L138.973 405.338C139.074 405.68 139.265 405.988 139.526 406.231L140.891 404.77ZM142.698 412.268L140.776 411.718C140.703 411.972 140.681 412.238 140.712 412.501L142.698 412.268ZM142.73 412.79L140.73 412.799V412.804L142.73 412.79ZM119.27 418.43L118.267 420.16L118.272 420.163L119.27 418.43ZM115.21 412.79L117.21 412.781V412.777L115.21 412.79ZM115.272 411.996L117.246 412.32C117.276 412.134 117.28 411.945 117.258 411.758L115.272 411.996ZM117.095 404.78L118.483 406.221C118.741 405.972 118.927 405.658 119.023 405.313L117.095 404.78ZM118.26 403.026L119.609 404.502C120.024 404.123 120.26 403.587 120.26 403.026H118.26ZM118.26 392.5H120.26C120.26 391.431 119.42 390.552 118.352 390.502L118.26 392.5ZM116.613 391.973L117.726 390.311C117.69 390.288 117.655 390.265 117.618 390.244L116.613 391.973ZM110.93 388.67L111.935 386.941L111.933 386.94L110.93 388.67ZM110.85 377.9L109.112 376.911C109.109 376.915 109.107 376.92 109.104 376.925L110.85 377.9ZM115.34 373.09L116.339 374.823L116.342 374.821L115.34 373.09ZM115.737 372.875L116.637 374.661C117.116 374.42 117.479 373.995 117.642 373.483L115.737 372.875ZM115.471 384.098L113.569 383.479C113.228 384.529 113.801 385.657 114.851 385.999C115.9 386.342 117.029 385.769 117.372 384.72L115.471 384.098ZM116.695 381.309L118.157 379.945C117.721 379.478 117.088 379.247 116.454 379.324C115.819 379.401 115.26 379.777 114.948 380.335L116.695 381.309ZM116.698 381.313L118.444 382.288C118.868 381.529 118.753 380.583 118.16 379.948L116.698 381.313ZM140.231 365.854C137.351 362.859 133.348 360.977 128.91 361L128.93 365C132.192 364.983 135.169 366.361 137.349 368.627L140.231 365.854ZM144.9 377.485C144.889 372.949 143.111 368.835 140.229 365.851L137.351 368.63C139.529 370.885 140.891 374.012 140.9 377.495L144.9 377.485ZM140.866 384.285C143.177 382.668 144.919 380.33 144.9 377.477L140.9 377.504C140.907 378.573 140.259 379.828 138.574 381.007L140.866 384.285ZM137.72 382.646V384.417H141.72V382.646H137.72ZM139.624 386.415C139.87 386.427 140.054 386.488 140.198 386.571L142.202 383.109C141.472 382.687 140.66 382.46 139.816 382.419L139.624 386.415ZM140.195 386.569L146.045 389.969L148.055 386.511L142.205 383.111L140.195 386.569ZM148.052 386.509C147.628 386.264 147.172 386.082 146.695 385.966L145.75 389.853C145.863 389.881 145.961 389.921 146.048 389.971L148.052 386.509ZM145.028 389.514C145.94 390.193 146.61 391.375 146.61 392.77H150.61C150.61 390.086 149.322 387.724 147.417 386.305L145.028 389.514ZM146.61 392.78C146.618 394.437 146.035 396.397 145.006 398.232L148.494 400.189C149.765 397.924 150.622 395.284 150.61 392.761L146.61 392.78ZM145.008 398.227C143.994 400.025 142.642 401.482 141.28 402.268L143.28 405.732C145.418 404.498 147.226 402.436 148.492 400.193L145.008 398.227ZM141.277 402.27C140.984 402.44 140.7 402.543 140.43 402.596L141.208 406.52C141.919 406.379 142.618 406.116 143.283 405.73L141.277 402.27ZM138.952 405.275C138.96 405.297 138.967 405.318 138.973 405.338L142.808 404.201C142.772 404.079 142.731 403.959 142.686 403.841L138.952 405.275ZM139.526 406.231C139.385 406.1 139.281 405.926 139.235 405.729L143.128 404.813C142.989 404.22 142.677 403.702 142.256 403.308L139.526 406.231ZM139.235 405.729L140.763 412.223L144.656 411.307L143.128 404.813L139.235 405.729ZM140.763 412.223C140.723 412.057 140.729 411.881 140.776 411.718L144.621 412.819C144.758 412.34 144.777 411.821 144.656 411.307L140.763 412.223ZM140.712 412.501C140.723 412.6 140.73 412.699 140.73 412.799L144.73 412.781C144.729 412.531 144.714 412.282 144.685 412.036L140.712 412.501ZM140.73 412.804C140.738 413.991 139.903 415.44 137.727 416.705C135.601 417.941 132.527 418.77 129.02 418.77V422.77C133.103 422.77 136.899 421.814 139.738 420.163C142.527 418.541 144.752 415.999 144.73 412.777L140.73 412.804ZM129.02 418.77C125.511 418.77 122.417 417.935 120.268 416.697L118.272 420.163C121.123 421.805 124.929 422.77 129.02 422.77V418.77ZM120.273 416.7C118.07 415.422 117.215 413.968 117.21 412.781L113.21 412.799C113.225 416.012 115.47 418.538 118.267 420.16L120.273 416.7ZM117.21 412.777C117.209 412.623 117.221 412.471 117.246 412.32L113.299 411.671C113.238 412.043 113.207 412.421 113.21 412.804L117.21 412.777ZM117.258 411.758C117.272 411.876 117.265 411.996 117.238 412.109L113.348 411.179C113.264 411.531 113.245 411.888 113.287 412.234L117.258 411.758ZM117.238 412.109L118.762 405.733L114.871 404.803L113.348 411.179L117.238 412.109ZM118.762 405.733C118.716 405.923 118.617 406.092 118.483 406.221L115.708 403.34C115.306 403.727 115.008 404.23 114.871 404.803L118.762 405.733ZM119.023 405.313C119.068 405.149 119.211 404.865 119.609 404.502L116.911 401.549C116.127 402.266 115.467 403.164 115.168 404.247L119.023 405.313ZM120.26 403.026V392.5H116.26V403.026H120.26ZM118.352 390.502C118.081 390.49 117.881 390.416 117.726 390.311L115.501 393.635C116.297 394.168 117.209 394.454 118.168 394.498L118.352 390.502ZM117.618 390.244L111.935 386.941L109.925 390.399L115.608 393.702L117.618 390.244ZM111.933 386.94C111.589 386.741 111 386.069 111 384.34H107C107 386.872 107.891 389.22 109.927 390.4L111.933 386.94ZM111 384.34C111 382.669 111.58 380.694 112.596 378.876L109.104 376.925C107.84 379.187 107 381.831 107 384.34H111ZM112.588 378.89C113.618 377.08 114.962 375.616 116.339 374.823L114.341 371.357C112.178 372.604 110.382 374.681 109.112 376.911L112.588 378.89ZM116.342 374.821C116.443 374.763 116.541 374.71 116.637 374.661L114.836 371.09C114.67 371.174 114.503 371.264 114.338 371.359L116.342 374.821ZM128.92 361C121.835 361 115.909 365.754 113.831 372.268L117.642 373.483C119.232 368.501 123.706 365 128.92 365V361ZM117.373 384.716C117.641 383.892 118.003 383.069 118.441 382.284L114.948 380.335C114.39 381.335 113.921 382.396 113.569 383.479L117.373 384.716ZM114.952 380.338C114.395 381.335 113.924 382.394 113.57 383.476L117.372 384.72C117.641 383.897 118.005 383.074 118.444 382.288L114.952 380.338ZM115.233 382.674C115.234 382.675 115.235 382.677 115.237 382.678L118.16 379.948C118.159 379.947 118.158 379.946 118.157 379.945L115.233 382.674Z" fill="#AA1900"/>
<mask id="mask3_818_6430" style="mask-type:luminance" maskUnits="userSpaceOnUse" x="107" y="359" width="44" height="62">
<path d="M151 359H107V421H151V359Z" fill="white"/>
<path fill-rule="evenodd" clip-rule="evenodd" d="M128.92 361C132.77 360.98 136.26 362.61 138.79 365.24C141.32 367.86 142.89 371.48 142.9 375.49C142.913 377.451 141.718 379.248 139.72 380.646V382.417C140.265 382.443 140.763 382.587 141.2 382.84L147.05 386.24C146.794 386.092 146.517 385.981 146.223 385.91C147.631 386.958 148.61 388.73 148.61 390.77C148.62 392.86 147.9 395.16 146.75 397.21C145.61 399.23 144.03 400.99 142.28 402C141.801 402.278 141.31 402.461 140.819 402.558C140.846 402.628 140.87 402.699 140.891 402.769C141.031 402.901 141.135 403.073 141.181 403.271L142.709 409.765C142.75 409.939 142.743 410.111 142.698 410.268C142.719 410.441 142.729 410.615 142.73 410.79C142.76 415.2 136.61 418.77 129.02 418.77C125.22 418.77 121.77 417.87 119.27 416.43C116.77 414.98 115.22 412.99 115.21 410.79C115.208 410.522 115.229 410.257 115.272 409.996C115.259 409.882 115.265 409.763 115.293 409.644L116.817 403.268C116.862 403.077 116.961 402.909 117.095 402.78C117.268 402.156 117.669 401.565 118.26 401.025V390.5C117.645 390.472 117.089 390.292 116.613 389.973L110.93 386.67C109.74 385.98 109 384.47 109 382.34C109 380.25 109.71 377.94 110.85 375.9C112 373.88 113.57 372.11 115.34 371.09C115.473 371.013 115.605 370.941 115.737 370.875C117.571 365.127 122.77 361 128.92 361ZM116.695 379.309C116.197 380.202 115.781 381.144 115.471 382.098C115.783 381.145 116.2 380.204 116.698 379.313C116.698 379.313 116.696 379.311 116.695 379.309Z" fill="#AA1900"/>
</mask>
<g mask="url(#mask3_818_6430)">
</g>
<path d="M119.75 370.679C118.61 370.019 117.05 370.099 115.34 371.089C113.57 372.109 112 373.879 110.85 375.899C109.71 377.939 109 380.249 109 382.339C109 384.469 109.74 385.979 110.93 386.669L116.78 390.069C115.59 389.379 114.85 387.879 114.85 385.739C114.85 383.639 115.56 381.339 116.7 379.299C117.84 377.279 119.42 375.509 121.19 374.489C122.9 373.499 124.45 373.419 125.6 374.079L119.75 370.679Z" fill="#E9462E"/>
<path fill-rule="evenodd" clip-rule="evenodd" d="M117.013 379.708L111.301 376.057C112.441 374.038 114.02 372.27 115.789 371.25C116.011 371.122 116.23 371.008 116.447 370.91L121.994 374.456C121.877 374.517 121.758 374.581 121.639 374.65C119.869 375.67 118.289 377.44 117.149 379.46C117.103 379.542 117.058 379.625 117.013 379.708Z" fill="#F45347"/>
<path d="M121.192 374.5C119.422 375.52 117.842 377.29 116.702 379.31C115.562 381.35 114.842 383.65 114.852 385.75C114.852 389.93 117.692 391.69 121.192 389.66C122.942 388.65 124.522 386.89 125.662 384.87C126.812 382.82 127.532 380.52 127.522 378.42C127.522 374.23 124.682 372.47 121.182 374.49L121.192 374.5Z" fill="#CB3217"/>
<path fill-rule="evenodd" clip-rule="evenodd" d="M140.892 402.769C140.529 401.547 139.285 400.445 137.46 399.614V399.607C135.28 398.614 132.271 398 128.957 398C122.868 398 117.841 400.084 117.096 402.78C116.962 402.909 116.863 403.076 116.818 403.268L115.294 409.644C115.266 409.763 115.26 409.882 115.273 409.996C115.23 410.257 115.209 410.522 115.211 410.79C115.221 412.99 116.771 414.98 119.271 416.43C121.771 417.87 125.221 418.77 129.021 418.77C136.611 418.77 142.761 415.2 142.731 410.79C142.73 410.615 142.72 410.441 142.699 410.268C142.744 410.111 142.751 409.939 142.71 409.765L141.182 403.271C141.136 403.073 141.032 402.901 140.892 402.769Z" fill="#E9462E"/>
<path d="M137.459 399.907C139.639 401.081 140.991 402.711 141 404.496C141.026 408.09 135.663 411 129.044 411C125.73 411 122.721 410.266 120.541 409.093C118.361 407.911 117.009 406.289 117 404.496C116.974 400.91 122.337 398 128.956 398C132.27 398 135.279 398.725 137.459 399.899V399.907Z" fill="#FF5F5F"/>
<path fill-rule="evenodd" clip-rule="evenodd" d="M118.258 372.391H139.718V402.101H139.714C139.718 402.184 139.72 402.267 139.718 402.351C139.668 405.781 134.808 408.461 128.888 408.321C125.928 408.251 123.258 407.501 121.328 406.331C119.498 405.215 118.34 403.727 118.262 402.101H118.258V401.99C118.258 401.947 118.258 401.904 118.258 401.861V401.859V372.391Z" fill="#E9462E"/>
<path d="M136.55 365.46C138.5 367.48 139.71 370.26 139.72 373.35C139.74 379.5 134.94 384.49 129.02 384.49C126.06 384.49 123.37 383.24 121.42 381.24C119.47 379.209 118.26 376.43 118.25 373.35C118.23 367.18 123.01 362.19 128.94 362.19C131.9 362.18 134.59 363.43 136.54 365.46H136.55Z" fill="#E9462E"/>
<g style="mix-blend-mode:darken">
<path fill-rule="evenodd" clip-rule="evenodd" d="M136.789 383.25C138.499 382.26 140.059 382.18 141.199 382.84L147.049 386.24C146.794 386.092 146.517 385.981 146.222 385.909C147.63 386.957 148.609 388.73 148.609 390.769C148.619 392.859 147.899 395.159 146.749 397.209C145.609 399.229 144.029 400.989 142.279 401.999C140.3 403.148 138.116 402.668 136.591 401.278L132.379 398.83C131.189 398.14 130.449 396.64 130.449 394.5C130.449 392.4 131.159 390.1 132.299 388.06C133.439 386.04 135.019 384.27 136.789 383.25Z" fill="#E9462E"/>
<g style="mix-blend-mode:darken">
<path d="M141.199 384.841L141.702 383.976L141.7 383.975L141.199 384.841ZM136.789 385.251L137.289 386.117L137.29 386.116L136.789 385.251ZM147.049 388.241L146.548 389.106C147.026 389.383 147.637 389.22 147.914 388.742C148.191 388.265 148.029 387.653 147.552 387.376L147.049 388.241ZM146.222 387.91L146.458 386.938C145.996 386.826 145.519 387.055 145.317 387.485C145.115 387.915 145.243 388.428 145.625 388.712L146.222 387.91ZM148.609 392.77H147.609V392.775L148.609 392.77ZM146.749 399.21L147.62 399.702L147.621 399.7L146.749 399.21ZM142.279 404L141.779 403.134L141.778 403.135L142.279 404ZM136.591 403.279L137.265 402.54C137.213 402.492 137.155 402.45 137.094 402.414L136.591 403.279ZM132.379 400.831L132.882 399.966L132.881 399.965L132.379 400.831ZM132.299 390.061L131.428 389.569L131.426 389.573L132.299 390.061ZM141.7 383.975C140.149 383.077 138.191 383.283 136.288 384.385L137.29 386.116C138.807 385.238 139.969 385.284 140.698 385.706L141.7 383.975ZM147.552 387.376L141.702 383.976L140.697 385.705L146.547 389.105L147.552 387.376ZM145.986 388.882C146.189 388.931 146.377 389.007 146.548 389.106L147.55 387.375C147.21 387.178 146.844 387.032 146.458 386.938L145.986 388.882ZM149.609 392.77C149.609 390.408 148.476 388.341 146.819 387.108L145.625 388.712C146.785 389.576 147.609 391.053 147.609 392.77H149.609ZM147.621 399.7C148.832 397.542 149.62 395.072 149.609 392.766L147.609 392.775C147.618 394.649 146.967 396.779 145.877 398.721L147.621 399.7ZM142.779 404.867C144.723 403.745 146.417 401.833 147.62 399.702L145.878 398.719C144.801 400.628 143.335 402.236 141.779 403.134L142.779 404.867ZM135.918 404.018C137.708 405.65 140.362 406.268 142.781 404.866L141.778 403.135C140.237 404.029 138.523 403.687 137.265 402.54L135.918 404.018ZM131.877 401.695L136.089 404.143L137.094 402.414L132.882 399.966L131.877 401.695ZM129.449 396.501C129.449 398.842 130.265 400.761 131.878 401.696L132.881 399.965C132.113 399.52 131.449 398.439 131.449 396.501H129.449ZM131.426 389.573C130.224 391.723 129.449 394.191 129.449 396.501H131.449C131.449 394.61 132.094 392.478 133.172 390.548L131.426 389.573ZM136.29 384.384C134.325 385.517 132.63 387.439 131.428 389.569L133.17 390.552C134.248 388.642 135.714 387.024 137.289 386.117L136.29 384.384Z" fill="#CB3217"/>
</g>
<g style="mix-blend-mode:darken">
<path d="M141.199 382.841L141.702 381.976L141.7 381.975L141.199 382.841ZM136.789 383.251L137.289 384.117L137.29 384.116L136.789 383.251ZM147.049 386.241L146.548 387.106C147.026 387.383 147.637 387.22 147.914 386.742C148.191 386.265 148.029 385.653 147.552 385.376L147.049 386.241ZM146.222 385.91L146.458 384.938C145.996 384.826 145.519 385.055 145.317 385.485C145.115 385.915 145.243 386.428 145.625 386.712L146.222 385.91ZM148.609 390.77H147.609V390.775L148.609 390.77ZM146.749 397.21L147.62 397.702L147.621 397.7L146.749 397.21ZM142.279 402L141.779 401.134L141.778 401.135L142.279 402ZM136.591 401.279L137.265 400.54C137.213 400.492 137.155 400.45 137.094 400.414L136.591 401.279ZM132.379 398.831L132.882 397.966L132.881 397.965L132.379 398.831ZM132.299 388.061L131.428 387.569L131.426 387.573L132.299 388.061ZM141.7 381.975C140.149 381.077 138.191 381.283 136.288 382.385L137.29 384.116C138.807 383.238 139.969 383.284 140.698 383.706L141.7 381.975ZM147.552 385.376L141.702 381.976L140.697 383.705L146.547 387.105L147.552 385.376ZM145.986 386.882C146.189 386.931 146.377 387.007 146.548 387.106L147.55 385.375C147.21 385.178 146.844 385.032 146.458 384.938L145.986 386.882ZM149.609 390.77C149.609 388.408 148.476 386.341 146.819 385.108L145.625 386.712C146.785 387.576 147.609 389.053 147.609 390.77H149.609ZM147.621 397.7C148.832 395.542 149.62 393.072 149.609 390.766L147.609 390.775C147.618 392.649 146.967 394.779 145.877 396.721L147.621 397.7ZM142.779 402.867C144.723 401.745 146.417 399.833 147.62 397.702L145.878 396.719C144.801 398.628 143.335 400.236 141.779 401.134L142.779 402.867ZM135.918 402.018C137.708 403.65 140.362 404.268 142.781 402.866L141.778 401.135C140.237 402.029 138.523 401.687 137.265 400.54L135.918 402.018ZM131.877 399.695L136.089 402.143L137.094 400.414L132.882 397.966L131.877 399.695ZM129.449 394.501C129.449 396.842 130.265 398.761 131.878 399.696L132.881 397.965C132.113 397.52 131.449 396.439 131.449 394.501H129.449ZM131.426 387.573C130.224 389.723 129.449 392.191 129.449 394.501H131.449C131.449 392.61 132.094 390.478 133.172 388.548L131.426 387.573ZM136.29 382.384C134.325 383.517 132.63 385.439 131.428 387.569L133.17 388.552C134.248 386.642 135.714 385.024 137.289 384.117L136.29 382.384Z" fill="#CB3217"/>
</g>
<mask id="mask4_818_6430" style="mask-type:luminance" maskUnits="userSpaceOnUse" x="129" y="380" width="22" height="25">
<g style="mix-blend-mode:darken">
<path d="M150.449 380.412H129.449V404.412H150.449V380.412Z" fill="white"/>
<path fill-rule="evenodd" clip-rule="evenodd" d="M136.789 383.25C138.499 382.26 140.059 382.18 141.199 382.84L147.049 386.24C146.794 386.092 146.517 385.981 146.222 385.909C147.63 386.957 148.609 388.73 148.609 390.769C148.619 392.859 147.899 395.159 146.749 397.209C145.609 399.229 144.029 400.989 142.279 401.999C140.3 403.148 138.116 402.668 136.591 401.278L132.379 398.83C131.189 398.14 130.449 396.64 130.449 394.5C130.449 392.4 131.159 390.1 132.299 388.06C133.439 386.04 135.019 384.27 136.789 383.25Z" fill="#CB3217"/>
</g>
</mask>
<g mask="url(#mask4_818_6430)">
</g>
</g>
<path fill-rule="evenodd" clip-rule="evenodd" d="M136.789 383.25C138.499 382.26 140.059 382.18 141.199 382.84L147.049 386.24C146.794 386.092 146.517 385.981 146.222 385.909C147.63 386.957 148.609 388.73 148.609 390.769C148.619 392.859 147.899 395.159 146.749 397.209C145.609 399.229 144.029 400.989 142.279 401.999C140.3 403.148 138.116 402.668 136.591 401.278L132.379 398.83C131.189 398.14 130.449 396.64 130.449 394.5C130.449 392.4 131.159 390.1 132.299 388.06C133.439 386.04 135.019 384.27 136.789 383.25Z" fill="#E9462E"/>
<path fill-rule="evenodd" clip-rule="evenodd" d="M138.013 391.708L132.301 388.057C133.441 386.038 135.02 384.27 136.789 383.25C137.011 383.122 137.23 383.008 137.447 382.91L142.994 386.456C142.877 386.517 142.758 386.581 142.639 386.65C140.869 387.67 139.289 389.44 138.149 391.46C138.103 391.542 138.058 391.625 138.013 391.708Z" fill="#F45347"/>
<path d="M142.641 386.65C140.871 387.67 139.291 389.44 138.151 391.46C137.011 393.5 136.291 395.8 136.301 397.9C136.301 402.08 139.141 403.84 142.641 401.81C144.391 400.8 145.971 399.04 147.111 397.02C148.261 394.97 148.981 392.67 148.971 390.58C148.971 386.39 146.131 384.63 142.631 386.65H142.641Z" fill="#CB3217"/>
<path d="M142.638 389.26C141.478 389.93 140.448 391.09 139.698 392.41C138.948 393.74 138.478 395.26 138.488 396.63C138.488 399.37 140.348 400.52 142.638 399.19C143.788 398.53 144.818 397.37 145.568 396.05C146.318 394.71 146.788 393.21 146.788 391.83C146.788 389.08 144.928 387.94 142.638 389.26Z" fill="#AA1900"/>
<path d="M124.589 401.519C124.589 402.659 123.669 403.049 122.529 402.399C121.389 401.739 120.469 400.279 120.469 399.139V389.499C120.469 388.359 121.389 387.959 122.529 388.619C123.669 389.279 124.589 390.739 124.589 391.879V401.509V401.519Z" fill="#CB3217"/>
<path d="M114.031 377.491C114.032 380.23 115.962 382.53 118.643 384.067C121.35 385.629 125.019 386.56 129.011 386.56C133.005 386.56 136.665 385.626 139.357 384.062C142.024 382.514 143.919 380.224 143.901 377.486C143.89 373.213 142.216 369.348 139.511 366.546C136.806 363.735 133.061 361.979 128.919 362C120.63 362.002 114.011 368.957 114.031 377.491ZM114.031 377.491C114.031 377.491 114.031 377.491 114.031 377.49H115.031M114.031 377.491C114.031 377.492 114.031 377.492 114.031 377.493L115.031 377.49M115.031 377.49C115.031 379.72 116.611 381.75 119.141 383.2C121.671 384.66 125.161 385.56 129.011 385.56C136.711 385.56 142.931 381.95 142.901 377.49L128.921 363C121.221 363 115.011 369.47 115.031 377.49Z" stroke="#AA1900" stroke-width="2"/>
<path d="M114.031 375.491C114.032 378.23 115.962 380.53 118.643 382.067C121.35 383.629 125.019 384.56 129.011 384.56C133.005 384.56 136.665 383.626 139.357 382.062C142.024 380.514 143.919 378.224 143.901 375.486C143.89 371.213 142.216 367.348 139.511 364.546C136.806 361.735 133.061 359.979 128.919 360C120.63 360.002 114.011 366.957 114.031 375.491ZM114.031 375.491C114.031 375.491 114.031 375.491 114.031 375.49H115.031M114.031 375.491C114.031 375.492 114.031 375.492 114.031 375.493L115.031 375.49M115.031 375.49C115.031 377.72 116.611 379.75 119.141 381.2C121.671 382.66 125.161 383.56 129.011 383.56C136.711 383.56 142.931 379.95 142.901 375.49L128.921 361C121.221 361 115.011 367.47 115.031 375.49Z" stroke="#AA1900" stroke-width="2"/>
<path d="M138.791 365.24C136.261 362.61 132.771 360.98 128.921 361C121.221 361 115.011 367.47 115.031 375.49C115.031 377.72 116.611 379.75 119.141 381.2C121.671 382.66 125.161 383.56 129.011 383.56C136.711 383.56 142.931 379.95 142.901 375.49C142.891 371.48 141.321 367.86 138.791 365.24Z" fill="#E9462E"/>
<path d="M139 370.5C139 366.359 134.524 363 129 363C123.476 363 119 366.359 119 370.5C119 371.338 119 372.092 119 372.911C119 375.723 123.476 378 129 378C134.524 378 139 375.723 139 372.911C139 372.092 139 371.338 139 370.5Z" fill="#F45347"/>
<path d="M135 368.5C135 366.015 132.315 364 129 364C125.685 364 123 366.015 123 368.5C123 369.003 123 369.455 123 369.946C123 371.634 125.685 373 129 373C132.315 373 135 371.634 135 369.946C135 369.455 135 369.003 135 368.5Z" fill="#FF5F5F"/>
<mask id="mask5_818_6430" style="mask-type:luminance" maskUnits="userSpaceOnUse" x="-12" y="319" width="71" height="157">
<path d="M59 319H-12V476H59V319Z" fill="white"/>
</mask>
<g mask="url(#mask5_818_6430)">
<path d="M56.77 422.72C58.18 420.31 59 417.52 59 414.53C59 405.56 51.73 398.28 42.75 398.28C42.71 398.28 42.68 398.28 42.64 398.28C41.74 390.16 34.86 383.83 26.5 383.83C25.35 383.83 24.22 383.95 23.13 384.18C20.16 380.31 15.5 377.81 10.25 377.81C10.25 377.81 10.24 377.81 10.23 377.81C10.23 377.71 10.25 377.61 10.25 377.51C10.25 373.36 6.88 369.99 2.73 369.99C-1.42 369.99 -4.79 373.36 -4.79 377.51C-4.79 379.88 -3.69 382 -1.97 383.38C-4.47 386.24 -5.99 389.97 -5.99 394.06C-5.99 397.61 -4.84 400.88 -2.91 403.55C-8.28 406.21 -12 411.73 -12 418.14C-12 425.67 -6.86 431.99 0.0900002 433.83C0.0600002 434.21 0.0299997 434.6 0.0299997 434.99C0.0299997 436.07 0.14 437.13 0.34 438.15C-2.07 440.35 -3.58 443.5 -3.58 447.02C-3.58 450.79 -1.85 454.15 0.87 456.36C-0.78 458.42 -1.77 461.03 -1.77 463.87C-1.77 470.52 3.62 475.9 10.26 475.9C16.9 475.9 21.95 470.83 22.26 464.47C22.27 464.47 22.28 464.47 22.29 464.47C27.59 464.47 32.07 461.04 33.68 456.29C35.39 456.9 37.22 457.25 39.14 457.25C48.11 457.25 55.39 449.98 55.39 441C55.39 438.9 54.98 436.89 54.25 435.05C57.03 433.95 59 431.24 59 428.06C59 425.97 58.14 424.08 56.77 422.71V422.72Z" fill="#005D54"/>
<path d="M56.77 372.72C58.18 370.31 59 367.52 59 364.53C59 355.56 51.73 348.28 42.75 348.28C42.71 348.28 42.68 348.28 42.64 348.28C41.74 340.16 34.86 333.83 26.5 333.83C25.35 333.83 24.22 333.95 23.13 334.18C20.16 330.31 15.5 327.81 10.25 327.81C10.25 327.81 10.24 327.81 10.23 327.81C10.23 327.71 10.25 327.61 10.25 327.51C10.25 323.36 6.88 319.99 2.73 319.99C-1.42 319.99 -4.79 323.36 -4.79 327.51C-4.79 329.88 -3.69 332 -1.97 333.38C-4.47 336.24 -5.99 339.97 -5.99 344.06C-5.99 347.61 -4.84 350.88 -2.91 353.55C-8.28 356.21 -12 361.73 -12 368.14C-12 375.67 -6.86 381.99 0.0900002 383.83C0.0600002 384.21 0.0299997 384.6 0.0299997 384.99C0.0299997 386.07 0.14 387.13 0.34 388.15C-2.07 390.35 -3.58 393.5 -3.58 397.02C-3.58 400.79 -1.85 404.15 0.87 406.36C-0.78 408.42 -1.77 411.03 -1.77 413.87C-1.77 420.52 3.62 425.9 10.26 425.9C16.9 425.9 21.95 420.83 22.26 414.47C22.27 414.47 22.28 414.47 22.29 414.47C27.59 414.47 32.07 411.04 33.68 406.29C35.39 406.9 37.22 407.25 39.14 407.25C48.11 407.25 55.39 399.98 55.39 391C55.39 388.9 54.98 386.89 54.25 385.05C57.03 383.95 59 381.24 59 378.06C59 375.97 58.14 374.08 56.77 372.71V372.72Z" fill="#005D54"/>
<path d="M44.6014 413.029C44.9014 412.039 45.0714 410.989 45.0714 409.899C45.0714 403.949 40.2514 399.129 34.3014 399.129C33.8114 399.129 33.3314 399.169 32.8614 399.239C33.7614 398.049 34.3014 396.579 34.3014 394.969C34.3014 391.049 31.1214 387.869 27.2014 387.869C25.8214 387.869 24.5414 388.269 23.4514 388.949C21.9014 385.979 18.7914 383.949 15.2114 383.949C10.0714 383.949 5.91141 388.119 5.91141 393.249C5.91141 396.759 7.8514 399.809 10.7114 401.389C10.2014 401.199 9.66141 401.079 9.09141 401.079C6.52141 401.079 4.44141 403.159 4.44141 405.729C4.44141 408.299 6.52141 410.379 9.09141 410.379C11.6614 410.379 13.6614 408.369 13.7314 405.859C14.0914 406.479 14.5514 407.039 15.0714 407.529C12.9914 407.929 11.4214 409.709 11.3114 411.879C11.2214 411.879 11.1314 411.849 11.0414 411.849C8.47141 411.849 6.39141 413.929 6.39141 416.499C6.39141 419.069 8.47141 421.149 11.0414 421.149C13.6114 421.149 15.5514 419.179 15.6714 416.719C15.7614 416.719 15.8514 416.749 15.9414 416.749C18.5114 416.749 20.5914 414.669 20.5914 412.099C20.5914 411.089 20.2614 410.159 19.7114 409.399C19.7614 409.399 19.8014 409.399 19.8514 409.399C21.2514 409.399 22.5514 408.989 23.6514 408.289C23.5714 408.809 23.5214 409.349 23.5214 409.889C23.5214 414.479 26.3914 418.389 30.4414 419.939C29.2714 420.659 28.2914 421.659 27.6014 422.839C26.5214 421.509 24.8814 420.659 23.0314 420.659C20.2614 420.659 17.9414 422.579 17.3214 425.169C16.8614 425.109 16.4014 425.069 15.9314 425.069C10.1214 425.069 5.40141 429.779 5.40141 435.599C5.40141 441.419 10.1114 446.129 15.9314 446.129C21.7514 446.129 26.4614 441.419 26.4614 435.599C26.4614 434.239 26.1914 432.949 25.7314 431.759C26.3114 431.459 26.8314 431.069 27.2814 430.599C28.6214 433.409 31.4714 435.349 34.7914 435.349C39.3914 435.349 43.1214 431.619 43.1214 427.019C43.1214 424.869 42.2914 422.909 40.9514 421.429C41.6614 421.859 42.4814 422.119 43.3614 422.119C45.9314 422.119 48.0114 420.039 48.0114 417.469C48.0114 415.339 46.5714 413.559 44.6114 413.009L44.6014 413.029ZM39.1714 419.499C39.3114 419.789 39.4814 420.069 39.6814 420.319C39.3814 420.099 39.0614 419.889 38.7314 419.709C38.8814 419.639 39.0314 419.569 39.1714 419.499ZM11.5514 401.809C11.9414 401.979 12.3414 402.109 12.7514 402.219C12.7514 402.249 12.7514 402.279 12.7514 402.309C12.7514 402.529 12.7614 402.739 12.7814 402.949C12.4414 402.499 12.0314 402.109 11.5514 401.809Z" fill="#068070"/>
<path d="M44.6014 363.029C44.9014 362.039 45.0714 360.989 45.0714 359.899C45.0714 353.949 40.2514 349.129 34.3014 349.129C33.8114 349.129 33.3314 349.169 32.8614 349.239C33.7614 348.049 34.3014 346.579 34.3014 344.969C34.3014 341.049 31.1214 337.869 27.2014 337.869C25.8214 337.869 24.5414 338.269 23.4514 338.949C21.9014 335.979 18.7914 333.949 15.2114 333.949C10.0714 333.949 5.91141 338.119 5.91141 343.249C5.91141 346.759 7.8514 349.809 10.7114 351.389C10.2014 351.199 9.66141 351.079 9.09141 351.079C6.52141 351.079 4.44141 353.159 4.44141 355.729C4.44141 358.299 6.52141 360.379 9.09141 360.379C11.6614 360.379 13.6614 358.369 13.7314 355.859C14.0914 356.479 14.5514 357.039 15.0714 357.529C12.9914 357.929 11.4214 359.709 11.3114 361.879C11.2214 361.879 11.1314 361.849 11.0414 361.849C8.47141 361.849 6.39141 363.929 6.39141 366.499C6.39141 369.069 8.47141 371.149 11.0414 371.149C13.6114 371.149 15.5514 369.179 15.6714 366.719C15.7614 366.719 15.8514 366.749 15.9414 366.749C18.5114 366.749 20.5914 364.669 20.5914 362.099C20.5914 361.089 20.2614 360.159 19.7114 359.399C19.7614 359.399 19.8014 359.399 19.8514 359.399C21.2514 359.399 22.5514 358.989 23.6514 358.289C23.5714 358.809 23.5214 359.349 23.5214 359.889C23.5214 364.479 26.3914 368.389 30.4414 369.939C29.2714 370.659 28.2914 371.659 27.6014 372.839C26.5214 371.509 24.8814 370.659 23.0314 370.659C20.2614 370.659 17.9414 372.579 17.3214 375.169C16.8614 375.109 16.4014 375.069 15.9314 375.069C10.1214 375.069 5.40141 379.779 5.40141 385.599C5.40141 391.419 10.1114 396.129 15.9314 396.129C21.7514 396.129 26.4614 391.419 26.4614 385.599C26.4614 384.239 26.1914 382.949 25.7314 381.759C26.3114 381.459 26.8314 381.069 27.2814 380.599C28.6214 383.409 31.4714 385.349 34.7914 385.349C39.3914 385.349 43.1214 381.619 43.1214 377.019C43.1214 374.869 42.2914 372.909 40.9514 371.429C41.6614 371.859 42.4814 372.119 43.3614 372.119C45.9314 372.119 48.0114 370.039 48.0114 367.469C48.0114 365.339 46.5714 363.559 44.6114 363.009L44.6014 363.029ZM39.1714 369.499C39.3114 369.789 39.4814 370.069 39.6814 370.319C39.3814 370.099 39.0614 369.889 38.7314 369.709C38.8814 369.639 39.0314 369.569 39.1714 369.499ZM11.5514 351.809C11.9414 351.979 12.3414 352.109 12.7514 352.219C12.7514 352.249 12.7514 352.279 12.7514 352.309C12.7514 352.529 12.7614 352.739 12.7814 352.949C12.4414 352.499 12.0314 352.109 11.5514 351.809Z" fill="#068070"/>
</g>
</g>
</g>
<defs>
<clipPath id="clip0_818_6430">
<rect width="180" height="480" fill="white"/>
</clipPath>
</defs>
</svg>
