<svg width="68" height="39" viewBox="0 0 68 39" fill="none" xmlns="http://www.w3.org/2000/svg">
<g clip-path="url(#clip0_2128_15081)">
<path d="M68 30.02C68 25.62 64.4 22.02 60 22.02H8C3.6 22.02 0 25.62 0 30.02V31.02C0 35.42 3.6 38.97 8 38.9L60 38.14C64.4 38.08 68 34.42 68 30.02Z" fill="#171C4C"/>
<path d="M5 2C3.35 2 2 3.35 2 5V28.02C2 29.67 3.35 31.01 5 31L63 30.63C64.65 30.62 66 29.26 66 27.61V5.02C66 3.37 64.65 2.02 63 2.02L5 2Z" stroke="#171C4C" stroke-width="4" stroke-linecap="round" stroke-linejoin="round"/>
<path d="M5 2C3.35 2 2 3.35 2 5V28.02C2 29.67 3.35 31.01 5 31L63 30.63C64.65 30.62 66 29.26 66 27.61V5.02C66 3.37 64.65 2.02 63 2.02L5 2Z" stroke="#171C4C" stroke-width="4" stroke-linecap="round" stroke-linejoin="round"/>
<path d="M65 5.53C65 4.15 63.65 3.02 62 3.02H6C4.35 3.02 3 4.15 3 5.52C3 6.89 4.35 8.02 6 8.02H62C63.65 8.03 65 6.91 65 5.53Z" stroke="#171C4C" stroke-width="4" stroke-linecap="round" stroke-linejoin="round"/>
<path d="M65 5.53C65 4.15 63.65 3.02 62 3.02H6C4.35 3.02 3 4.15 3 5.52C3 6.89 4.35 8.02 6 8.02H62C63.65 8.03 65 6.91 65 5.53Z" stroke="#171C4C" stroke-width="4" stroke-linecap="round" stroke-linejoin="round"/>
<path d="M9 12.02H8C7.44772 12.02 7 12.4677 7 13.02V26.02C7 26.5723 7.44772 27.02 8 27.02H9C9.55228 27.02 10 26.5723 10 26.02V13.02C10 12.4677 9.55228 12.02 9 12.02Z" stroke="#171C4C" stroke-width="4" stroke-linecap="round" stroke-linejoin="round"/>
<path d="M19.3999 12.02H18.3999C17.8476 12.02 17.3999 12.4677 17.3999 13.02V26.02C17.3999 26.5723 17.8476 27.02 18.3999 27.02H19.3999C19.9522 27.02 20.3999 26.5723 20.3999 26.02V13.02C20.3999 12.4677 19.9522 12.02 19.3999 12.02Z" stroke="#171C4C" stroke-width="4" stroke-linecap="round" stroke-linejoin="round"/>
<path d="M29.8 12.02H28.8C28.2478 12.02 27.8 12.4677 27.8 13.02V26.02C27.8 26.5723 28.2478 27.02 28.8 27.02H29.8C30.3523 27.02 30.8 26.5723 30.8 26.02V13.02C30.8 12.4677 30.3523 12.02 29.8 12.02Z" stroke="#171C4C" stroke-width="4" stroke-linecap="round" stroke-linejoin="round"/>
<path d="M40.2 12.02H39.2C38.6477 12.02 38.2 12.4677 38.2 13.02V26.02C38.2 26.5723 38.6477 27.02 39.2 27.02H40.2C40.7522 27.02 41.2 26.5723 41.2 26.02V13.02C41.2 12.4677 40.7522 12.02 40.2 12.02Z" stroke="#171C4C" stroke-width="4" stroke-linecap="round" stroke-linejoin="round"/>
<path d="M61 12.02H60C59.4477 12.02 59 12.4677 59 13.02V26.02C59 26.5723 59.4477 27.02 60 27.02H61C61.5523 27.02 62 26.5723 62 26.02V13.02C62 12.4677 61.5523 12.02 61 12.02Z" stroke="#171C4C" stroke-width="4" stroke-linecap="round" stroke-linejoin="round"/>
<path d="M50.6001 12.02H49.6001C49.0478 12.02 48.6001 12.4677 48.6001 13.02V26.02C48.6001 26.5723 49.0478 27.02 49.6001 27.02H50.6001C51.1524 27.02 51.6001 26.5723 51.6001 26.02V13.02C51.6001 12.4677 51.1524 12.02 50.6001 12.02Z" stroke="#171C4C" stroke-width="4" stroke-linecap="round" stroke-linejoin="round"/>
<path d="M5 2C3.35 2 2 3.35 2 5V28.02C2 29.67 3.35 31.01 5 31L63 30.63C64.65 30.62 66 29.26 66 27.61V5.02C66 3.37 64.65 2.02 63 2.02L5 2Z" fill="#6A6B95"/>
<path opacity="0.5" d="M65 5.53C65 4.15 63.65 3.02 62 3.02H6C4.35 3.02 3 4.15 3 5.52C3 6.89 4.35 8.02 6 8.02H62C63.65 8.03 65 6.91 65 5.53Z" fill="#8888AD"/>
<path d="M9 12.02H8C7.44772 12.02 7 12.4677 7 13.02V26.02C7 26.5723 7.44772 27.02 8 27.02H9C9.55228 27.02 10 26.5723 10 26.02V13.02C10 12.4677 9.55228 12.02 9 12.02Z" fill="#545683"/>
<path d="M19.3999 12.02H18.3999C17.8476 12.02 17.3999 12.4677 17.3999 13.02V26.02C17.3999 26.5723 17.8476 27.02 18.3999 27.02H19.3999C19.9522 27.02 20.3999 26.5723 20.3999 26.02V13.02C20.3999 12.4677 19.9522 12.02 19.3999 12.02Z" fill="#545683"/>
<path d="M29.8 12.02H28.8C28.2478 12.02 27.8 12.4677 27.8 13.02V26.02C27.8 26.5723 28.2478 27.02 28.8 27.02H29.8C30.3523 27.02 30.8 26.5723 30.8 26.02V13.02C30.8 12.4677 30.3523 12.02 29.8 12.02Z" fill="#545683"/>
<path d="M40.2 12.02H39.2C38.6477 12.02 38.2 12.4677 38.2 13.02V26.02C38.2 26.5723 38.6477 27.02 39.2 27.02H40.2C40.7522 27.02 41.2 26.5723 41.2 26.02V13.02C41.2 12.4677 40.7522 12.02 40.2 12.02Z" fill="#545683"/>
<path d="M61 12.02H60C59.4477 12.02 59 12.4677 59 13.02V26.02C59 26.5723 59.4477 27.02 60 27.02H61C61.5523 27.02 62 26.5723 62 26.02V13.02C62 12.4677 61.5523 12.02 61 12.02Z" fill="#545683"/>
<path d="M50.6001 12.02H49.6001C49.0478 12.02 48.6001 12.4677 48.6001 13.02V26.02C48.6001 26.5723 49.0478 27.02 49.6001 27.02H50.6001C51.1524 27.02 51.6001 26.5723 51.6001 26.02V13.02C51.6001 12.4677 51.1524 12.02 50.6001 12.02Z" fill="#545683"/>
</g>
<defs>
<clipPath id="clip0_2128_15081">
<rect width="68" height="38.91" fill="white"/>
</clipPath>
</defs>
</svg>
