<svg width="103" height="22" viewBox="0 0 103 22" fill="none" xmlns="http://www.w3.org/2000/svg">
<path d="M96.4111 21.8534L79.0874 14.4304C78.9387 14.3666 78.7767 14.3399 78.6154 14.3526L54.3282 16.2571C53.6055 16.3138 53.1814 17.0966 53.5286 17.733L54.1482 18.8687C54.6323 19.7561 53.6443 20.7195 52.7693 20.213L46.3759 16.5123C46.2237 16.4242 46.0509 16.3778 45.875 16.3778H24.8909C24.7471 16.3778 24.605 16.4088 24.4743 16.4687L12.77 21.8321C12.5349 21.9398 12.2672 21.9523 12.0231 21.8669L7.73439 20.3661C6.67169 19.9942 6.93879 18.4222 8.06469 18.4222H10.4407C10.7148 18.4222 10.9768 18.3097 11.1656 18.111L19.4227 9.42112C19.9455 8.87087 19.6888 7.9616 18.9553 7.76606L5.65185 4.21915C5.39264 4.15004 5.11654 4.18797 4.88558 4.32442L2.40764 5.78837C1.37123 6.40068 0.335582 4.99706 1.22638 4.1874L4.85813 0.886454C5.10139 0.66535 5.43778 0.577925 5.75792 0.652609L20.452 4.08056C20.5389 4.10084 20.6282 4.10939 20.7173 4.10598L87.5516 1.55556L93.7612 0.520812C94.9419 0.324065 95.4083 1.99124 94.2969 2.43571L90.3619 4.00943C90.1954 4.07599 90.0499 4.18607 89.9406 4.32814L85.6548 9.89865C85.2993 10.3607 85.4128 11.0277 85.9012 11.3461L96.5044 18.2599C96.6669 18.3658 96.8566 18.4222 97.0506 18.4222H101.558C102.7 18.4222 102.95 20.0289 101.861 20.3752L97.1081 21.8871C96.8793 21.9599 96.6319 21.948 96.4111 21.8534Z" fill="#171D4C"/>
</svg>
