<svg width="72" height="82" viewBox="0 0 72 82" fill="none" xmlns="http://www.w3.org/2000/svg">
<path fill-rule="evenodd" clip-rule="evenodd" d="M38.256 39.8594C53.8248 39.8594 66.4417 47.7594 66.4417 57.5194L66.4113 57.5294C66.4113 59.5922 65.8461 61.5725 64.8075 63.413L65.9662 64.4817C66.9811 65.4178 67.045 66.9994 66.1089 68.0143C65.8113 68.337 65.4485 68.5635 65.0594 68.6924C65.0841 69.3297 64.8665 69.9766 64.4003 70.4828C63.5859 71.3673 62.2814 71.531 61.2873 70.941C61.1948 71.104 61.0825 71.2591 60.9501 71.4029C60.0148 72.4186 58.4332 72.4837 57.4176 71.5485L56.6827 70.8718C54.8896 71.8461 52.8982 72.6809 50.7515 73.3494C50.5796 73.5994 49.9427 73.9094 48.7094 74.2594C49.3362 75.0694 49.3058 76.2394 48.5779 77.0194C48.2544 77.3794 47.8298 77.5994 47.385 77.6794C47.4962 78.3094 47.3243 78.9794 46.8492 79.4894C46.4145 79.9594 45.8281 80.1894 45.2418 80.1894C44.7363 80.1894 44.2308 80.0094 43.8163 79.6594C43.7253 79.9294 43.5737 80.1894 43.3614 80.4094C42.9266 80.8794 42.3403 81.1094 41.7539 81.1094C41.2282 81.1094 40.7025 80.9194 40.2779 80.5394L34.202 74.9994C20.554 73.7694 10.0703 66.4094 10.0703 57.5194C10.0703 47.7694 22.6871 39.8594 38.256 39.8594Z" fill="#171c4c" fill-opacity="0.4"/>
<path fill-rule="evenodd" clip-rule="evenodd" d="M35.6898 12.8401C35.6898 12.8401 31.6098 8.64011 32.0298 6.00011C32.4498 3.36011 35.7298 2.78011 37.3998 5.17011C37.3998 5.17011 40.6798 3.30011 42.0998 7.05011C42.0998 7.05011 44.0012 6.02396 44.8088 10.4405C45.3496 10.3939 45.8969 10.3701 46.4498 10.3701C49.6949 10.3701 52.7487 11.1892 55.4157 12.632C59.2358 14.5046 62.1804 17.5196 63.5458 21.2417C64.6839 23.6701 65.3198 26.3809 65.3198 29.2401C65.3198 30.4649 65.2031 31.6624 64.9802 32.8222C65.381 33.9158 65.7075 35.0499 65.9531 36.2205C67.3528 42.8914 65.8716 49.532 62.3239 54.9689L63.9649 56.4824C64.5031 56.9788 64.7738 57.6567 64.7699 58.3354C64.836 58.7368 64.7389 59.1612 64.4742 59.5009C64.3764 59.6831 64.2543 59.856 64.1076 60.015C63.81 60.3377 63.4472 60.5642 63.0581 60.6931C63.0828 61.3304 62.8652 61.9773 62.399 62.4835C61.5846 63.368 60.2801 63.5317 59.286 62.9417C59.1935 63.1047 59.0812 63.2598 58.9488 63.4036C58.0135 64.4193 56.4319 64.4844 55.4163 63.5492L54.5633 62.7637C52.7898 63.9407 50.8552 64.9315 48.7851 65.699C48.7628 65.9831 48.6596 66.2627 48.4741 66.5007C48.3764 66.683 48.2542 66.856 48.1075 67.015C47.8099 67.3377 47.4471 67.5642 47.0579 67.6931C47.0827 68.3304 46.8651 68.9773 46.3989 69.4836C45.5845 70.368 44.2801 70.5317 43.286 69.9418C43.1935 70.1048 43.0812 70.2598 42.9489 70.4036C42.0136 71.4192 40.432 71.4844 39.4163 70.5491L35.9501 67.3573C24.7357 66.2259 15.1906 58.4232 12.869 47.3587C12.7494 46.7884 12.6508 46.2183 12.5727 45.6491C11.9454 43.759 11.2026 41.466 10.3598 38.7701C8.59395 33.1265 7.55775 31.3513 6.4355 29.4286C5.64475 28.0739 4.81128 26.646 3.64976 23.7401C2.74598 21.4887 2.49336 18.8922 4.89384 18.9036C5.51259 18.593 6.80839 18.987 8.51908 19.5072C9.00752 19.6557 9.52978 19.8145 10.0798 19.9701C10.0798 19.9701 10.0751 19.9123 10.0782 19.8202C10.0497 19.5546 10.1263 19.2393 10.3798 18.8701V18.8801C10.3651 18.9104 10.3518 18.9402 10.34 18.9694C10.5971 18.622 11.1021 18.3924 12.0898 18.7201C14.7103 19.5889 22.083 20.3154 29.3991 17.9C31.4681 15.4251 34.3069 13.3927 37.6534 12.0919C36.9779 12.141 36.2929 12.3502 35.6998 12.8401H35.6898Z" fill="#171c4c"/>
<mask id="mask0_816_7492" style="mask-type:luminance" maskUnits="userSpaceOnUse" x="1" y="2" width="69" height="74">
<path d="M69.0039 2.66211H1.00391V75.6621H69.0039V2.66211Z" fill="white"/>
<path fill-rule="evenodd" clip-rule="evenodd" d="M35.6898 14.8401C35.6898 14.8401 31.6098 10.6401 32.0298 8.00011C32.4498 5.36011 35.7298 4.78011 37.3998 7.17011C37.3998 7.17011 40.6798 5.30011 42.0998 9.05011C42.0998 9.05011 44.0012 8.02396 44.8088 12.4405C45.3496 12.3939 45.8969 12.3701 46.4498 12.3701C49.6949 12.3701 52.7487 13.1892 55.4157 14.632C59.2358 16.5046 62.1804 19.5196 63.5458 23.2417C64.6839 25.6701 65.3198 28.3809 65.3198 31.2401C65.3198 32.4649 65.2031 33.6624 64.9802 34.8222C65.381 35.9158 65.7075 37.0499 65.9531 38.2205C67.3528 44.8914 65.8716 51.532 62.3239 56.9689L63.9649 58.4824C64.5031 58.9788 64.7738 59.6567 64.7699 60.3354C64.836 60.7368 64.7389 61.1612 64.4742 61.5009C64.3764 61.6831 64.2543 61.856 64.1076 62.015C63.81 62.3377 63.4472 62.5642 63.0581 62.6931C63.0828 63.3304 62.8652 63.9773 62.399 64.4835C61.5846 65.368 60.2801 65.5317 59.286 64.9417C59.1935 65.1047 59.0812 65.2598 58.9488 65.4036C58.0135 66.4193 56.4319 66.4844 55.4163 65.5492L54.5633 64.7637C52.7898 65.9407 50.8552 66.9315 48.7851 67.699C48.7628 67.9831 48.6596 68.2627 48.4741 68.5007C48.3764 68.683 48.2542 68.856 48.1075 69.015C47.8099 69.3377 47.4471 69.5642 47.0579 69.6931C47.0827 70.3304 46.8651 70.9773 46.3989 71.4836C45.5845 72.368 44.2801 72.5317 43.286 71.9418C43.1935 72.1048 43.0812 72.2598 42.9489 72.4036C42.0136 73.4192 40.432 73.4844 39.4163 72.5491L35.9501 69.3573C24.7357 68.2259 15.1906 60.4232 12.869 49.3587C12.7494 48.7884 12.6508 48.2183 12.5727 47.6491C11.9454 45.759 11.2026 43.466 10.3598 40.7701C8.59395 35.1265 7.55775 33.3513 6.4355 31.4286C5.64475 30.0739 4.81128 28.646 3.64976 25.7401C2.74598 23.4887 2.49336 20.8922 4.89384 20.9036C5.51259 20.593 6.80839 20.987 8.51908 21.5072C9.00752 21.6557 9.52978 21.8145 10.0798 21.9701C10.0798 21.9701 10.0751 21.9123 10.0782 21.8202C10.0497 21.5546 10.1263 21.2393 10.3798 20.8701V20.8801C10.3651 20.9104 10.3518 20.9402 10.34 20.9694C10.5971 20.622 11.1021 20.3924 12.0898 20.7201C14.7103 21.5889 22.083 22.3154 29.3991 19.9C31.4681 17.4251 34.3069 15.3927 37.6534 14.0919C36.9779 14.141 36.2929 14.3502 35.6998 14.8401H35.6898Z" fill="#171c4c"/>
</mask>
<g mask="url(#mask0_816_7492)">
<path d="M35.6895 14.8405L34.2549 16.2341C34.6315 16.6217 35.149 16.8405 35.6895 16.8405V14.8405ZM37.3995 7.17049L35.7601 8.31603C36.3521 9.16328 37.4922 9.41987 38.3901 8.90795L37.3995 7.17049ZM42.0995 9.05049L40.2291 9.75874C40.4333 10.298 40.8603 10.7229 41.4006 10.9244C41.9409 11.1259 42.5419 11.0844 43.0494 10.8105L42.0995 9.05049ZM44.8085 12.4409L42.8411 12.8006C43.0266 13.8149 43.9528 14.522 44.9802 14.4335L44.8085 12.4409ZM55.4154 14.6324L54.4637 16.3915C54.4872 16.4042 54.511 16.4165 54.5351 16.4283L55.4154 14.6324ZM63.5455 23.2421L61.6678 23.9309C61.6877 23.9851 61.71 24.0385 61.7345 24.0908L63.5455 23.2421ZM64.9799 34.8226L63.0159 34.4452C62.9474 34.8016 62.9772 35.17 63.1021 35.5108L64.9799 34.8226ZM62.3236 56.9693L60.6486 55.8763C60.1151 56.694 60.2499 57.7775 60.9676 58.4394L62.3236 56.9693ZM64.7696 60.3358L62.7696 60.3241C62.7689 60.4369 62.7778 60.5495 62.7961 60.6607L64.7696 60.3358ZM64.4739 61.5013L62.8963 60.2719C62.8268 60.3611 62.765 60.456 62.7115 60.5557L64.4739 61.5013ZM63.0578 62.6935L62.4291 60.7949C61.5832 61.0749 61.0247 61.8808 61.0593 62.7711L63.0578 62.6935ZM59.2857 64.9421L60.3063 63.2222C59.8443 62.948 59.2914 62.8712 58.7721 63.0092C58.2529 63.1471 57.811 63.4882 57.5459 63.9555L59.2857 64.9421ZM54.563 64.7641L55.9178 63.2929C55.2403 62.669 54.2244 62.5885 53.4571 63.0977L54.563 64.7641ZM48.7848 67.6994L48.0896 65.8241C47.359 66.095 46.8523 66.7655 46.791 67.5422L48.7848 67.6994ZM48.4738 68.5011L46.8962 67.2719C46.8267 67.3611 46.7649 67.456 46.7115 67.5556L48.4738 68.5011ZM47.0576 69.6935L46.429 67.7949C45.5831 68.0749 45.0246 68.8808 45.0591 69.7711L47.0576 69.6935ZM43.2857 71.9422L44.3063 70.2222C43.8442 69.9481 43.2914 69.8713 42.7721 70.0093C42.2529 70.1472 41.811 70.4882 41.546 70.9555L43.2857 71.9422ZM35.9498 69.3577L37.3046 67.8865C36.9862 67.5933 36.5812 67.4113 36.1506 67.3678L35.9498 69.3577ZM12.5724 47.6495L14.5538 47.3778C14.5372 47.2561 14.5093 47.1362 14.4706 47.0196L12.5724 47.6495ZM3.64954 25.7405L5.50667 24.9982L5.50557 24.9954L3.64954 25.7405ZM4.89362 20.904L4.88411 22.904C5.1989 22.9055 5.50959 22.8327 5.79092 22.6915L4.89362 20.904ZM10.0795 21.9705L9.53502 23.8949C10.1655 24.0733 10.8434 23.9316 11.3496 23.5155C11.8557 23.0994 12.126 22.4617 12.0729 21.8086L10.0795 21.9705ZM10.0779 21.8206L12.0768 21.8883C12.08 21.7942 12.0765 21.7001 12.0665 21.6066L10.0779 21.8206ZM10.3795 20.8705H12.3795C12.3795 19.9942 11.8091 19.22 10.9722 18.9603C10.1353 18.7006 9.22683 19.016 8.73081 19.7384L10.3795 20.8705ZM10.3795 20.8805L12.1785 21.7543C12.3108 21.482 12.3795 21.1832 12.3795 20.8805H10.3795ZM10.3397 20.9698L8.48542 20.2205C8.10812 21.1542 8.48386 22.2228 9.3625 22.7148C10.2411 23.2069 11.3486 22.9689 11.9475 22.1594L10.3397 20.9698ZM29.3988 19.9004L30.0258 21.7995C30.3798 21.6827 30.6941 21.4692 30.9332 21.1832L29.3988 19.9004ZM37.6531 14.0923L38.3777 15.9564C39.3003 15.5978 39.8218 14.6182 39.6042 13.6526C39.3866 12.687 38.4954 12.0258 37.5081 12.0975L37.6531 14.0923ZM35.6995 14.8405V16.8405C36.1644 16.8405 36.6148 16.6785 36.9733 16.3824L35.6995 14.8405ZM30.0543 7.68626C29.8636 8.88548 30.1986 10.0548 30.5821 10.9618C30.981 11.9054 31.5369 12.8063 32.0644 13.5586C32.5979 14.3196 33.14 14.9817 33.5454 15.4507C33.7493 15.6867 33.9217 15.8774 34.0452 16.0112C34.1071 16.0783 34.1569 16.1313 34.1925 16.1688C34.2103 16.1876 34.2246 16.2026 34.2351 16.2135C34.2403 16.2189 34.2446 16.2234 34.248 16.2268C34.2496 16.2286 34.251 16.23 34.2522 16.2312C34.2528 16.2318 34.2533 16.2324 34.2538 16.2328C34.254 16.2331 34.2548 16.234 34.2549 16.2341C34.2552 16.2344 34.2549 16.2341 35.6895 14.8405C37.1241 13.4469 37.1243 13.4472 37.1245 13.4474C37.1244 13.4472 37.1246 13.4474 37.1245 13.4474C37.1247 13.4476 37.1252 13.4481 37.1253 13.4482C37.1256 13.4485 37.1255 13.4484 37.1253 13.4482C37.1247 13.4476 37.123 13.4458 37.1205 13.4432C37.1156 13.4381 37.107 13.4291 37.0951 13.4165C37.0711 13.3913 37.0337 13.3515 36.9848 13.2985C36.8868 13.1924 36.7438 13.0343 36.5718 12.8352C36.2253 12.4343 35.7736 11.8813 35.3396 11.2624C34.8996 10.6347 34.5142 9.99057 34.2663 9.40415C34.0029 8.78113 33.9855 8.43549 34.0047 8.31472L30.0543 7.68626ZM39.0389 6.02494C37.7878 4.23444 35.8046 3.41875 33.924 3.72529C32.0159 4.03633 30.4037 5.49007 30.0543 7.68626L34.0047 8.31472C34.0459 8.05542 34.1411 7.91827 34.2172 7.84307C34.2996 7.76155 34.4159 7.6979 34.5675 7.67318C34.8494 7.62723 35.3412 7.71653 35.7601 8.31603L39.0389 6.02494ZM43.9699 8.34223C43.5033 7.10999 42.8124 6.16047 41.9065 5.53169C40.9998 4.90238 40.0375 4.70526 39.2195 4.70424C38.4209 4.70324 37.7317 4.88693 37.2667 5.05156C37.0279 5.1361 36.8309 5.22184 36.6869 5.29007C36.6145 5.32438 36.5543 5.3548 36.5078 5.3792C36.4845 5.39142 36.4645 5.40218 36.448 5.41122C36.4398 5.41574 36.4324 5.41984 36.4258 5.42348C36.4226 5.42531 36.4195 5.42701 36.4167 5.42861C36.4153 5.4294 36.414 5.43017 36.4127 5.4309C36.412 5.43127 36.4111 5.4318 36.4108 5.43199C36.4098 5.43251 36.4089 5.43302 37.3995 7.17049C38.3901 8.90795 38.3892 8.90845 38.3883 8.90894C38.3881 8.9091 38.3872 8.90959 38.3866 8.9099C38.3855 8.91052 38.3845 8.91112 38.3835 8.91169C38.3815 8.91283 38.3796 8.91387 38.3779 8.91481C38.3746 8.91668 38.3719 8.91815 38.3699 8.91925C38.3659 8.92145 38.3645 8.92217 38.3656 8.9216C38.3678 8.92044 38.3795 8.91435 38.3996 8.90485C38.4405 8.88546 38.5108 8.85441 38.6017 8.82223C38.796 8.75342 39.0156 8.70399 39.2145 8.70423C39.394 8.70446 39.518 8.74297 39.6257 8.81772C39.7341 8.89301 39.9857 9.11599 40.2291 9.75874L43.9699 8.34223ZM46.7759 12.0811C46.3397 9.69596 45.4937 8.04312 44.0638 7.30983C43.3418 6.9396 42.6474 6.90503 42.1271 6.97915C41.8733 7.01532 41.6611 7.07673 41.5007 7.13491C41.4198 7.16426 41.3498 7.19363 41.2916 7.22017C41.2624 7.23348 41.2359 7.24618 41.2123 7.25796C41.2005 7.26386 41.1893 7.26954 41.1789 7.27496C41.1737 7.27767 41.1686 7.28032 41.1637 7.2829C41.1613 7.28419 41.1589 7.28547 41.1566 7.28672C41.1554 7.28735 41.1537 7.28828 41.1531 7.28859C41.1513 7.28952 41.1496 7.29044 42.0995 9.05049C43.0494 10.8105 43.0477 10.8114 43.046 10.8123C43.0454 10.8126 43.0437 10.8136 43.0426 10.8142C43.0404 10.8153 43.0382 10.8165 43.036 10.8177C43.0315 10.82 43.0272 10.8223 43.0229 10.8246C43.0143 10.829 43.0059 10.8333 42.9977 10.8374C42.9813 10.8456 42.9656 10.853 42.9506 10.8599C42.9206 10.8736 42.8922 10.8852 42.8648 10.8951C42.8116 10.9144 42.7543 10.9302 42.6913 10.9392C42.5528 10.9589 42.3842 10.9438 42.2385 10.8691C41.9612 10.7269 42.4697 10.7692 42.8411 12.8006L46.7759 12.0811ZM46.4495 10.3705C45.8393 10.3705 45.2347 10.3967 44.6368 10.4482L44.9802 14.4335C45.4639 14.3918 45.954 14.3705 46.4495 14.3705V10.3705ZM56.367 12.8733C53.415 11.2764 50.0351 10.3705 46.4495 10.3705V14.3705C49.3541 14.3705 52.0818 15.1029 54.4637 16.3915L56.367 12.8733ZM65.4231 22.5533C63.8537 18.2749 60.5041 14.8995 56.2957 12.8366L54.5351 16.4283C57.967 18.1106 60.5065 20.765 61.6678 23.9309L65.4231 22.5533ZM67.3195 31.2405C67.3195 28.0819 66.6165 25.0819 65.3564 22.3934L61.7345 24.0908C62.7507 26.2592 63.3195 28.6806 63.3195 31.2405H67.3195ZM66.944 35.2C67.1907 33.9165 67.3195 32.5926 67.3195 31.2405H63.3195C63.3195 32.338 63.215 33.4092 63.0159 34.4452L66.944 35.2ZM67.9102 37.8102C67.6447 36.5449 67.2916 35.3181 66.8578 34.1344L63.1021 35.5108C63.4698 36.5143 63.7697 37.5556 63.9954 38.6316L67.9102 37.8102ZM63.9985 58.0622C67.8152 52.2132 69.4263 45.0359 67.9102 37.8102L63.9954 38.6316C65.2787 44.7476 63.9274 50.8516 60.6486 55.8763L63.9985 58.0622ZM65.3205 57.0126L63.6795 55.4991L60.9676 58.4394L62.6086 59.9529L65.3205 57.0126ZM66.7695 60.3474C66.7766 59.1299 66.2893 57.9062 65.3205 57.0126L62.6086 59.9529C62.7162 60.0522 62.7704 60.1843 62.7696 60.3241L66.7695 60.3474ZM66.0514 62.7306C66.6719 61.9344 66.8964 60.942 66.743 60.0108L62.7961 60.6607C62.775 60.5323 62.8053 60.3888 62.8963 60.2719L66.0514 62.7306ZM65.5774 63.3714C65.8394 63.0874 66.0594 62.7764 66.2362 62.4469L62.7115 60.5557C62.6928 60.5906 62.6686 60.6254 62.6371 60.6595L65.5774 63.3714ZM63.6864 64.5921C64.3893 64.3594 65.044 63.9497 65.5774 63.3714L62.6371 60.6595C62.5753 60.7265 62.5045 60.7699 62.4291 60.7949L63.6864 64.5921ZM63.8699 65.8387C64.7087 64.9279 65.1007 63.76 65.0562 62.6159L61.0593 62.7711C61.0643 62.9016 61.0211 63.0275 60.9274 63.1292L63.8699 65.8387ZM58.265 66.662C60.055 67.7243 62.4024 67.4325 63.8699 65.8387L60.9274 63.1292C60.7662 63.3043 60.5046 63.3398 60.3063 63.2222L58.265 66.662ZM60.4197 66.7588C60.656 66.5021 60.8583 66.2233 61.0254 65.9287L57.5459 63.9555C57.5281 63.9869 57.5057 64.0183 57.4772 64.0492L60.4197 66.7588ZM54.0612 67.0208C55.8894 68.7043 58.7362 68.587 60.4197 66.7588L57.4772 64.0492C57.2901 64.2523 56.9739 64.2654 56.7707 64.0783L54.0612 67.0208ZM53.2082 66.2354L54.0612 67.0208L56.7707 64.0783L55.9178 63.2929L53.2082 66.2354ZM49.4801 69.5746C51.6955 68.7533 53.7679 67.6922 55.6689 66.4305L53.4571 63.0977C51.8112 64.19 50.0142 65.1105 48.0896 65.8241L49.4801 69.5746ZM50.0515 69.7304C50.4853 69.1736 50.7265 68.5185 50.7787 67.8565L46.791 67.5422C46.7984 67.4486 46.8333 67.3526 46.8962 67.2719L50.0515 69.7304ZM49.5774 70.3714C49.8394 70.0873 50.0594 69.7762 50.2362 69.4467L46.7115 67.5556C46.6927 67.5905 46.6685 67.6254 46.637 67.6595L49.5774 70.3714ZM47.6863 71.5921C48.3891 71.3594 49.044 70.9497 49.5774 70.3714L46.637 67.6595C46.5752 67.7265 46.5044 67.7699 46.429 67.7949L47.6863 71.5921ZM47.8698 72.8387C48.7086 71.9279 49.1006 70.7601 49.0561 69.6159L45.0591 69.7711C45.0642 69.9016 45.021 70.0275 44.9273 70.1292L47.8698 72.8387ZM42.2651 73.6622C44.0551 74.7244 46.4023 74.4324 47.8698 72.8387L44.9273 70.1292C44.7661 70.3043 44.5045 70.3398 44.3063 70.2222L42.2651 73.6622ZM44.4198 73.7588C44.6561 73.5021 44.8583 73.2234 45.0253 72.9289L41.546 70.9555C41.5282 70.9869 41.5057 71.0183 41.4773 71.0492L44.4198 73.7588ZM38.0612 74.0208C39.8895 75.7043 42.7363 75.5871 44.4198 73.7588L41.4773 71.0492C41.2903 71.2523 40.9739 71.2653 40.7708 71.0783L38.0612 74.0208ZM34.595 70.829L38.0612 74.0208L40.7708 71.0783L37.3046 67.8865L34.595 70.829ZM10.9113 49.7698C13.4296 61.7715 23.7565 70.1377 35.7491 71.3476L36.1506 67.3678C25.7144 66.315 16.9511 59.0758 14.8261 48.9484L10.9113 49.7698ZM10.5909 47.9213C10.6754 48.537 10.782 49.1534 10.9113 49.7698L14.8261 48.9484C14.7161 48.4241 14.6255 47.9004 14.5538 47.3778L10.5909 47.9213ZM8.45065 41.3673C9.29697 44.0743 10.0433 46.3784 10.6742 48.2795L14.4706 47.0196C13.847 45.1404 13.1077 42.8585 12.2684 40.1737L8.45065 41.3673ZM4.70799 32.4372C5.7599 34.2394 6.73278 35.877 8.45065 41.3673L12.2684 40.1737C10.4546 34.3769 9.35516 32.464 8.16256 30.4208L4.70799 32.4372ZM1.7924 26.4828C3.00489 29.5162 3.89164 31.0386 4.70799 32.4372L8.16256 30.4208C7.39742 29.11 6.61723 27.7765 5.50667 24.9982L1.7924 26.4828ZM4.90313 18.9041C3.93716 18.8995 2.96559 19.1639 2.20211 19.8694C1.45655 20.5583 1.15203 21.4447 1.05004 22.2093C0.857077 23.6559 1.30119 25.2592 1.7935 26.4856L5.50557 24.9954C5.31474 24.5201 5.16968 24.0535 5.08536 23.6368C4.99839 23.207 4.99216 22.9088 5.01492 22.7382C5.03687 22.5736 5.06279 22.6723 4.91676 22.8072C4.7528 22.9587 4.64984 22.9029 4.88411 22.904L4.90313 18.9041ZM9.10067 19.5941C8.27831 19.344 7.42344 19.082 6.69409 18.9341C6.32285 18.8589 5.90863 18.7966 5.4923 18.7942C5.08835 18.7918 4.54009 18.8437 3.99632 19.1166L5.79092 22.6915C5.55652 22.8091 5.40227 22.7937 5.46876 22.7941C5.52288 22.7944 5.65555 22.805 5.89943 22.8544C6.40034 22.9559 7.04872 23.151 7.93705 23.4211L9.10067 19.5941ZM10.624 20.046C10.0955 19.8965 9.59125 19.7432 9.10067 19.5941L7.93705 23.4211C8.42334 23.5689 8.96355 23.7332 9.53502 23.8949L10.624 20.046ZM8.07911 21.7529C8.07594 21.8466 8.07658 21.927 8.07849 21.9904C8.07945 22.0222 8.08075 22.0502 8.0821 22.0739C8.08278 22.0858 8.08347 22.0967 8.08415 22.1064C8.08449 22.1113 8.08482 22.1159 8.08515 22.1202C8.08531 22.1224 8.08547 22.1245 8.08563 22.1265C8.08571 22.1275 8.08579 22.1285 8.08587 22.1295C8.08591 22.13 8.08595 22.1305 8.08598 22.131C8.08596 22.1308 8.086 22.1312 8.08598 22.131C8.08599 22.1311 8.08607 22.132 8.08607 22.132C8.08609 22.1322 8.08609 22.1324 10.0795 21.9705C12.0729 21.8086 12.0729 21.8085 12.0729 21.8086C12.0729 21.8085 12.0729 21.8087 12.0729 21.8086C12.0729 21.8088 12.073 21.8098 12.0731 21.81C12.0731 21.8105 12.0731 21.8109 12.0732 21.8114C12.0732 21.8123 12.0733 21.8132 12.0734 21.8141C12.0735 21.8159 12.0737 21.8177 12.0738 21.8194C12.0741 21.8229 12.0743 21.8261 12.0745 21.8293C12.0749 21.8355 12.0753 21.8411 12.0756 21.8461C12.0761 21.8561 12.0765 21.8639 12.0766 21.8698C12.077 21.8812 12.0768 21.8868 12.0768 21.8883L8.07911 21.7529ZM8.73081 19.7384C8.28039 20.3943 7.9974 21.1793 8.08945 22.0346L12.0665 21.6066C12.0824 21.7545 12.0632 21.8767 12.0392 21.9571C12.0169 22.0318 11.9975 22.0473 12.0282 22.0026L8.73081 19.7384ZM12.3795 20.8805V20.8705H8.37954V20.8805H12.3795ZM12.194 21.7192C12.188 21.734 12.1827 21.7458 12.1785 21.7543L8.58052 20.0067C8.54693 20.0758 8.51508 20.1471 8.48542 20.2205L12.194 21.7192ZM12.7193 18.8222C12.0152 18.5886 11.2651 18.4784 10.5251 18.6356C9.73358 18.8037 9.1309 19.241 8.73194 19.7803L11.9475 22.1594C11.8866 22.2417 11.7997 22.3313 11.6841 22.4076C11.5667 22.485 11.4507 22.5282 11.3562 22.5483C11.1798 22.5858 11.1761 22.5246 11.4597 22.6187L12.7193 18.8222ZM28.7718 18.0012C25.3523 19.1301 21.8954 19.5309 18.9757 19.542C16.0217 19.5532 13.7564 19.1661 12.7193 18.8222L11.4597 22.6187C13.0431 23.1436 15.7744 23.5542 18.9909 23.542C22.2416 23.5297 26.1292 23.086 30.0258 21.7995L28.7718 18.0012ZM36.9285 12.2281C33.2864 13.6439 30.1627 15.8684 27.8643 18.6176L30.9332 21.1832C32.7729 18.9826 35.3267 17.1423 38.3777 15.9564L36.9285 12.2281ZM36.9733 16.3824C37.1778 16.2134 37.4385 16.1131 37.7981 16.087L37.5081 12.0975C36.5166 12.1696 35.4073 12.4877 34.4257 13.2986L36.9733 16.3824ZM35.6895 16.8405H35.6995V12.8405H35.6895V16.8405Z" fill="#171c4c"/>
</g>
<mask id="mask1_816_7492" style="mask-type:luminance" maskUnits="userSpaceOnUse" x="1" y="0" width="69" height="74">
<path d="M69.0039 0.662109H1.00391V73.6621H69.0039V0.662109Z" fill="white"/>
<path fill-rule="evenodd" clip-rule="evenodd" d="M35.6898 12.8401C35.6898 12.8401 31.6098 8.64011 32.0298 6.00011C32.4498 3.36011 35.7298 2.78011 37.3998 5.17011C37.3998 5.17011 40.6798 3.30011 42.0998 7.05011C42.0998 7.05011 44.0012 6.02396 44.8088 10.4405C45.3496 10.3939 45.8969 10.3701 46.4498 10.3701C49.6949 10.3701 52.7487 11.1892 55.4157 12.632C59.2358 14.5046 62.1804 17.5196 63.5458 21.2417C64.6839 23.6701 65.3198 26.3809 65.3198 29.2401C65.3198 30.4649 65.2031 31.6624 64.9802 32.8222C65.381 33.9158 65.7075 35.0499 65.9531 36.2205C67.3528 42.8914 65.8716 49.532 62.3239 54.9689L63.9649 56.4824C64.5031 56.9788 64.7738 57.6567 64.7699 58.3354C64.836 58.7368 64.7389 59.1612 64.4742 59.5009C64.3764 59.6831 64.2543 59.856 64.1076 60.015C63.81 60.3377 63.4472 60.5642 63.0581 60.6931C63.0828 61.3304 62.8652 61.9773 62.399 62.4835C61.5846 63.368 60.2801 63.5317 59.286 62.9417C59.1935 63.1047 59.0812 63.2598 58.9488 63.4036C58.0135 64.4193 56.4319 64.4844 55.4163 63.5492L54.5633 62.7637C52.7898 63.9407 50.8552 64.9315 48.7851 65.699C48.7628 65.9831 48.6596 66.2627 48.4741 66.5007C48.3764 66.683 48.2542 66.856 48.1075 67.015C47.8099 67.3377 47.4471 67.5642 47.0579 67.6931C47.0827 68.3304 46.8651 68.9773 46.3989 69.4836C45.5845 70.368 44.2801 70.5317 43.286 69.9418C43.1935 70.1048 43.0812 70.2598 42.9489 70.4036C42.0136 71.4192 40.432 71.4844 39.4163 70.5491L35.9501 67.3573C24.7357 66.2259 15.1906 58.4232 12.869 47.3587C12.7494 46.7884 12.6508 46.2183 12.5727 45.6491C11.9454 43.759 11.2026 41.466 10.3598 38.7701C8.59395 33.1265 7.55775 31.3513 6.4355 29.4286C5.64475 28.0739 4.81128 26.646 3.64976 23.7401C2.74598 21.4887 2.49336 18.8922 4.89384 18.9036C5.51259 18.593 6.80839 18.987 8.51908 19.5072C9.00752 19.6557 9.52978 19.8145 10.0798 19.9701C10.0798 19.9701 10.0751 19.9123 10.0782 19.8202C10.0497 19.5546 10.1263 19.2393 10.3798 18.8701V18.8801C10.3651 18.9104 10.3518 18.9402 10.34 18.9694C10.5971 18.622 11.1021 18.3924 12.0898 18.7201C14.7103 19.5889 22.083 20.3154 29.3991 17.9C31.4681 15.4251 34.3069 13.3927 37.6534 12.0919C36.9779 12.141 36.2929 12.3502 35.6998 12.8401H35.6898Z" fill="#171c4c"/>
</mask>
<g mask="url(#mask1_816_7492)">
<path d="M35.6895 12.8405L34.2549 14.2341C34.6315 14.6217 35.149 14.8405 35.6895 14.8405V12.8405ZM37.3995 5.17049L35.7601 6.31603C36.3521 7.16328 37.4922 7.41987 38.3901 6.90795L37.3995 5.17049ZM42.0995 7.05049L40.2291 7.75874C40.4333 8.29802 40.8603 8.72291 41.4006 8.92441C41.9409 9.12591 42.5419 9.0844 43.0494 8.81053L42.0995 7.05049ZM44.8085 10.4409L42.8411 10.8006C43.0266 11.8149 43.9528 12.522 44.9802 12.4335L44.8085 10.4409ZM55.4154 12.6324L54.4637 14.3915C54.4872 14.4042 54.511 14.4165 54.5351 14.4283L55.4154 12.6324ZM63.5455 21.2421L61.6678 21.9309C61.6877 21.9851 61.71 22.0385 61.7345 22.0908L63.5455 21.2421ZM64.9799 32.8226L63.0159 32.4452C62.9474 32.8016 62.9772 33.17 63.1021 33.5108L64.9799 32.8226ZM62.3236 54.9693L60.6486 53.8763C60.1151 54.694 60.2499 55.7775 60.9676 56.4394L62.3236 54.9693ZM64.7696 58.3358L62.7696 58.3241C62.7689 58.4369 62.7778 58.5495 62.7961 58.6607L64.7696 58.3358ZM64.4739 59.5013L62.8963 58.2719C62.8268 58.3611 62.765 58.456 62.7115 58.5557L64.4739 59.5013ZM63.0578 60.6935L62.4291 58.7949C61.5832 59.0749 61.0247 59.8808 61.0593 60.7711L63.0578 60.6935ZM59.2857 62.9421L60.3063 61.2222C59.8443 60.948 59.2914 60.8712 58.7721 61.0092C58.2529 61.1471 57.811 61.4882 57.5459 61.9555L59.2857 62.9421ZM54.563 62.7641L55.9178 61.2929C55.2403 60.669 54.2244 60.5885 53.4571 61.0977L54.563 62.7641ZM48.7848 65.6994L48.0896 63.8241C47.359 64.095 46.8523 64.7655 46.791 65.5422L48.7848 65.6994ZM48.4738 66.5011L46.8962 65.2719C46.8267 65.3611 46.7649 65.456 46.7115 65.5556L48.4738 66.5011ZM47.0576 67.6935L46.429 65.7949C45.5831 66.0749 45.0246 66.8808 45.0591 67.7711L47.0576 67.6935ZM43.2857 69.9422L44.3063 68.2222C43.8442 67.9481 43.2914 67.8713 42.7721 68.0093C42.2529 68.1472 41.811 68.4882 41.546 68.9555L43.2857 69.9422ZM35.9498 67.3577L37.3046 65.8865C36.9862 65.5933 36.5812 65.4113 36.1506 65.3678L35.9498 67.3577ZM12.5724 45.6495L14.5538 45.3778C14.5372 45.2561 14.5093 45.1362 14.4706 45.0196L12.5724 45.6495ZM3.64954 23.7405L5.50667 22.9982L5.50557 22.9954L3.64954 23.7405ZM4.89362 18.904L4.88411 20.904C5.1989 20.9055 5.50959 20.8327 5.79092 20.6915L4.89362 18.904ZM10.0795 19.9705L9.53502 21.8949C10.1655 22.0733 10.8434 21.9316 11.3496 21.5155C11.8557 21.0994 12.126 20.4617 12.0729 19.8086L10.0795 19.9705ZM10.0779 19.8206L12.0768 19.8883C12.08 19.7942 12.0765 19.7001 12.0665 19.6066L10.0779 19.8206ZM10.3795 18.8705H12.3795C12.3795 17.9942 11.8091 17.22 10.9722 16.9603C10.1353 16.7006 9.22683 17.016 8.73081 17.7384L10.3795 18.8705ZM10.3795 18.8805L12.1785 19.7543C12.3108 19.482 12.3795 19.1832 12.3795 18.8805H10.3795ZM10.3397 18.9698L8.48542 18.2205C8.10812 19.1542 8.48386 20.2228 9.3625 20.7148C10.2411 21.2069 11.3486 20.9689 11.9475 20.1594L10.3397 18.9698ZM29.3988 17.9004L30.0258 19.7995C30.3798 19.6827 30.6941 19.4692 30.9332 19.1832L29.3988 17.9004ZM37.6531 12.0923L38.3777 13.9564C39.3003 13.5978 39.8218 12.6182 39.6042 11.6526C39.3866 10.687 38.4954 10.0258 37.5081 10.0975L37.6531 12.0923ZM35.6995 12.8405V14.8405C36.1644 14.8405 36.6148 14.6785 36.9733 14.3824L35.6995 12.8405ZM30.0543 5.68626C29.8636 6.88548 30.1986 8.05484 30.5821 8.96182C30.981 9.90541 31.5369 10.8063 32.0644 11.5586C32.5979 12.3196 33.14 12.9817 33.5454 13.4507C33.7493 13.6867 33.9217 13.8774 34.0452 14.0112C34.1071 14.0783 34.1569 14.1313 34.1925 14.1688C34.2103 14.1876 34.2246 14.2026 34.2351 14.2135C34.2403 14.2189 34.2446 14.2234 34.248 14.2268C34.2496 14.2286 34.251 14.23 34.2522 14.2312C34.2528 14.2318 34.2533 14.2324 34.2538 14.2328C34.254 14.2331 34.2548 14.234 34.2549 14.2341C34.2552 14.2344 34.2549 14.2341 35.6895 12.8405C37.1241 11.4469 37.1243 11.4472 37.1245 11.4474C37.1244 11.4472 37.1246 11.4474 37.1245 11.4474C37.1247 11.4476 37.1252 11.4481 37.1253 11.4482C37.1256 11.4485 37.1255 11.4484 37.1253 11.4482C37.1247 11.4476 37.123 11.4458 37.1205 11.4432C37.1156 11.4381 37.107 11.4291 37.0951 11.4165C37.0711 11.3913 37.0337 11.3515 36.9848 11.2985C36.8868 11.1924 36.7438 11.0343 36.5718 10.8352C36.2253 10.4343 35.7736 9.88133 35.3396 9.26237C34.8996 8.63471 34.5142 7.99057 34.2663 7.40415C34.0029 6.78113 33.9855 6.43549 34.0047 6.31472L30.0543 5.68626ZM39.0389 4.02494C37.7878 2.23444 35.8046 1.41875 33.924 1.72529C32.0159 2.03633 30.4037 3.49007 30.0543 5.68626L34.0047 6.31472C34.0459 6.05542 34.1411 5.91827 34.2172 5.84307C34.2996 5.76155 34.4159 5.6979 34.5675 5.67318C34.8494 5.62723 35.3412 5.71653 35.7601 6.31603L39.0389 4.02494ZM43.9699 6.34223C43.5033 5.10999 42.8124 4.16047 41.9065 3.53169C40.9998 2.90238 40.0375 2.70526 39.2195 2.70424C38.4209 2.70324 37.7317 2.88693 37.2667 3.05156C37.0279 3.1361 36.8309 3.22184 36.6869 3.29007C36.6145 3.32438 36.5543 3.3548 36.5078 3.3792C36.4845 3.39142 36.4645 3.40218 36.448 3.41122C36.4398 3.41574 36.4324 3.41984 36.4258 3.42348C36.4226 3.42531 36.4195 3.42701 36.4167 3.42861C36.4153 3.4294 36.414 3.43017 36.4127 3.4309C36.412 3.43127 36.4111 3.4318 36.4108 3.43199C36.4098 3.43251 36.4089 3.43302 37.3995 5.17049C38.3901 6.90795 38.3892 6.90845 38.3883 6.90894C38.3881 6.9091 38.3872 6.90959 38.3866 6.9099C38.3855 6.91052 38.3845 6.91112 38.3835 6.91169C38.3815 6.91283 38.3796 6.91387 38.3779 6.91481C38.3746 6.91668 38.3719 6.91815 38.3699 6.91925C38.3659 6.92145 38.3645 6.92217 38.3656 6.9216C38.3678 6.92044 38.3795 6.91435 38.3996 6.90485C38.4405 6.88546 38.5108 6.85441 38.6017 6.82223C38.796 6.75342 39.0156 6.70399 39.2145 6.70423C39.394 6.70446 39.518 6.74297 39.6257 6.81772C39.7341 6.89301 39.9857 7.11599 40.2291 7.75874L43.9699 6.34223ZM46.7759 10.0811C46.3397 7.69596 45.4937 6.04312 44.0638 5.30983C43.3418 4.9396 42.6474 4.90503 42.1271 4.97915C41.8733 5.01532 41.6611 5.07673 41.5007 5.13491C41.4198 5.16426 41.3498 5.19363 41.2916 5.22017C41.2624 5.23348 41.2359 5.24618 41.2123 5.25796C41.2005 5.26386 41.1893 5.26954 41.1789 5.27496C41.1737 5.27767 41.1686 5.28032 41.1637 5.2829C41.1613 5.28419 41.1589 5.28547 41.1566 5.28672C41.1554 5.28735 41.1537 5.28828 41.1531 5.28859C41.1513 5.28952 41.1496 5.29044 42.0995 7.05049C43.0494 8.81053 43.0477 8.81145 43.046 8.81235C43.0454 8.81265 43.0437 8.81356 43.0426 8.81416C43.0404 8.81535 43.0382 8.81653 43.036 8.8177C43.0315 8.82004 43.0272 8.82232 43.0229 8.82456C43.0143 8.82903 43.0059 8.8333 42.9977 8.83739C42.9813 8.84556 42.9656 8.85304 42.9506 8.85991C42.9206 8.87357 42.8922 8.88521 42.8648 8.89513C42.8116 8.91445 42.7543 8.93019 42.6913 8.93917C42.5528 8.9589 42.3842 8.94382 42.2385 8.86913C41.9612 8.72689 42.4697 8.76923 42.8411 10.8006L46.7759 10.0811ZM46.4495 8.37049C45.8393 8.37049 45.2347 8.39673 44.6368 8.44823L44.9802 12.4335C45.4639 12.3918 45.954 12.3705 46.4495 12.3705V8.37049ZM56.367 10.8733C53.415 9.27637 50.0351 8.37049 46.4495 8.37049V12.3705C49.3541 12.3705 52.0818 13.1029 54.4637 14.3915L56.367 10.8733ZM65.4231 20.5533C63.8537 16.2749 60.5041 12.8995 56.2957 10.8366L54.5351 14.4283C57.967 16.1106 60.5065 18.765 61.6678 21.9309L65.4231 20.5533ZM67.3195 29.2405C67.3195 26.0819 66.6165 23.0819 65.3564 20.3934L61.7345 22.0908C62.7507 24.2592 63.3195 26.6806 63.3195 29.2405H67.3195ZM66.944 33.2C67.1907 31.9165 67.3195 30.5926 67.3195 29.2405H63.3195C63.3195 30.338 63.215 31.4092 63.0159 32.4452L66.944 33.2ZM67.9102 35.8102C67.6447 34.5449 67.2916 33.3181 66.8578 32.1344L63.1021 33.5108C63.4698 34.5143 63.7697 35.5556 63.9954 36.6316L67.9102 35.8102ZM63.9985 56.0622C67.8152 50.2132 69.4263 43.0359 67.9102 35.8102L63.9954 36.6316C65.2787 42.7476 63.9274 48.8516 60.6486 53.8763L63.9985 56.0622ZM65.3205 55.0126L63.6795 53.4991L60.9676 56.4394L62.6086 57.9529L65.3205 55.0126ZM66.7695 58.3474C66.7766 57.1299 66.2893 55.9062 65.3205 55.0126L62.6086 57.9529C62.7162 58.0522 62.7704 58.1843 62.7696 58.3241L66.7695 58.3474ZM66.0514 60.7306C66.6719 59.9344 66.8964 58.942 66.743 58.0108L62.7961 58.6607C62.775 58.5323 62.8053 58.3888 62.8963 58.2719L66.0514 60.7306ZM65.5774 61.3714C65.8394 61.0874 66.0594 60.7764 66.2362 60.4469L62.7115 58.5557C62.6928 58.5906 62.6686 58.6254 62.6371 58.6595L65.5774 61.3714ZM63.6864 62.5921C64.3893 62.3594 65.044 61.9497 65.5774 61.3714L62.6371 58.6595C62.5753 58.7265 62.5045 58.7699 62.4291 58.7949L63.6864 62.5921ZM63.8699 63.8387C64.7087 62.9279 65.1007 61.76 65.0562 60.6159L61.0593 60.7711C61.0643 60.9016 61.0211 61.0275 60.9274 61.1292L63.8699 63.8387ZM58.265 64.662C60.055 65.7243 62.4024 65.4325 63.8699 63.8387L60.9274 61.1292C60.7662 61.3043 60.5046 61.3398 60.3063 61.2222L58.265 64.662ZM60.4197 64.7588C60.656 64.5021 60.8583 64.2233 61.0254 63.9287L57.5459 61.9555C57.5281 61.9869 57.5057 62.0183 57.4772 62.0492L60.4197 64.7588ZM54.0612 65.0208C55.8894 66.7043 58.7362 66.587 60.4197 64.7588L57.4772 62.0492C57.2901 62.2523 56.9739 62.2654 56.7707 62.0783L54.0612 65.0208ZM53.2082 64.2354L54.0612 65.0208L56.7707 62.0783L55.9178 61.2929L53.2082 64.2354ZM49.4801 67.5746C51.6955 66.7533 53.7679 65.6922 55.6689 64.4305L53.4571 61.0977C51.8112 62.19 50.0142 63.1105 48.0896 63.8241L49.4801 67.5746ZM50.0515 67.7304C50.4853 67.1736 50.7265 66.5185 50.7787 65.8565L46.791 65.5422C46.7984 65.4486 46.8333 65.3526 46.8962 65.2719L50.0515 67.7304ZM49.5774 68.3714C49.8394 68.0873 50.0594 67.7762 50.2362 67.4467L46.7115 65.5556C46.6927 65.5905 46.6685 65.6254 46.637 65.6595L49.5774 68.3714ZM47.6863 69.5921C48.3891 69.3594 49.044 68.9497 49.5774 68.3714L46.637 65.6595C46.5752 65.7265 46.5044 65.7699 46.429 65.7949L47.6863 69.5921ZM47.8698 70.8387C48.7086 69.9279 49.1006 68.7601 49.0561 67.6159L45.0591 67.7711C45.0642 67.9016 45.021 68.0275 44.9273 68.1292L47.8698 70.8387ZM42.2651 71.6622C44.0551 72.7244 46.4023 72.4324 47.8698 70.8387L44.9273 68.1292C44.7661 68.3043 44.5045 68.3398 44.3063 68.2222L42.2651 71.6622ZM44.4198 71.7588C44.6561 71.5021 44.8583 71.2234 45.0253 70.9289L41.546 68.9555C41.5282 68.9869 41.5057 69.0183 41.4773 69.0492L44.4198 71.7588ZM38.0612 72.0208C39.8895 73.7043 42.7363 73.5871 44.4198 71.7588L41.4773 69.0492C41.2903 69.2523 40.9739 69.2653 40.7708 69.0783L38.0612 72.0208ZM34.595 68.829L38.0612 72.0208L40.7708 69.0783L37.3046 65.8865L34.595 68.829ZM10.9113 47.7698C13.4296 59.7715 23.7565 68.1377 35.7491 69.3476L36.1506 65.3678C25.7144 64.315 16.9511 57.0758 14.8261 46.9484L10.9113 47.7698ZM10.5909 45.9213C10.6754 46.537 10.782 47.1534 10.9113 47.7698L14.8261 46.9484C14.7161 46.4241 14.6255 45.9004 14.5538 45.3778L10.5909 45.9213ZM8.45065 39.3673C9.29697 42.0743 10.0433 44.3784 10.6742 46.2795L14.4706 45.0196C13.847 43.1404 13.1077 40.8585 12.2684 38.1737L8.45065 39.3673ZM4.70799 30.4372C5.7599 32.2394 6.73278 33.877 8.45065 39.3673L12.2684 38.1737C10.4546 32.3769 9.35516 30.464 8.16256 28.4208L4.70799 30.4372ZM1.7924 24.4828C3.00489 27.5162 3.89164 29.0386 4.70799 30.4372L8.16256 28.4208C7.39742 27.11 6.61723 25.7765 5.50667 22.9982L1.7924 24.4828ZM4.90313 16.9041C3.93716 16.8995 2.96559 17.1639 2.20211 17.8694C1.45655 18.5583 1.15203 19.4447 1.05004 20.2093C0.857077 21.6559 1.30119 23.2592 1.7935 24.4856L5.50557 22.9954C5.31474 22.5201 5.16968 22.0535 5.08536 21.6368C4.99839 21.207 4.99216 20.9088 5.01492 20.7382C5.03687 20.5736 5.06279 20.6723 4.91676 20.8072C4.7528 20.9587 4.64984 20.9029 4.88411 20.904L4.90313 16.9041ZM9.10067 17.5941C8.27831 17.344 7.42344 17.082 6.69409 16.9341C6.32285 16.8589 5.90863 16.7966 5.4923 16.7942C5.08835 16.7918 4.54009 16.8437 3.99632 17.1166L5.79092 20.6915C5.55652 20.8091 5.40227 20.7937 5.46876 20.7941C5.52288 20.7944 5.65555 20.805 5.89943 20.8544C6.40034 20.9559 7.04872 21.151 7.93705 21.4211L9.10067 17.5941ZM10.624 18.046C10.0955 17.8965 9.59125 17.7432 9.10067 17.5941L7.93705 21.4211C8.42334 21.5689 8.96355 21.7332 9.53502 21.8949L10.624 18.046ZM8.07911 19.7529C8.07594 19.8466 8.07658 19.927 8.07849 19.9904C8.07945 20.0222 8.08075 20.0502 8.0821 20.0739C8.08278 20.0858 8.08347 20.0967 8.08415 20.1064C8.08449 20.1113 8.08482 20.1159 8.08515 20.1202C8.08531 20.1224 8.08547 20.1245 8.08563 20.1265C8.08571 20.1275 8.08579 20.1285 8.08587 20.1295C8.08591 20.13 8.08595 20.1305 8.08598 20.131C8.08596 20.1308 8.086 20.1312 8.08598 20.131C8.08599 20.1311 8.08607 20.132 8.08607 20.132C8.08609 20.1322 8.08609 20.1324 10.0795 19.9705C12.0729 19.8086 12.0729 19.8085 12.0729 19.8086C12.0729 19.8085 12.0729 19.8087 12.0729 19.8086C12.0729 19.8088 12.073 19.8098 12.0731 19.81C12.0731 19.8105 12.0731 19.8109 12.0732 19.8114C12.0732 19.8123 12.0733 19.8132 12.0734 19.8141C12.0735 19.8159 12.0737 19.8177 12.0738 19.8194C12.0741 19.8229 12.0743 19.8261 12.0745 19.8293C12.0749 19.8355 12.0753 19.8411 12.0756 19.8461C12.0761 19.8561 12.0765 19.8639 12.0766 19.8698C12.077 19.8812 12.0768 19.8868 12.0768 19.8883L8.07911 19.7529ZM8.73081 17.7384C8.28039 18.3943 7.9974 19.1793 8.08945 20.0346L12.0665 19.6066C12.0824 19.7545 12.0632 19.8767 12.0392 19.9571C12.0169 20.0318 11.9975 20.0473 12.0282 20.0026L8.73081 17.7384ZM12.3795 18.8805V18.8705H8.37954V18.8805H12.3795ZM12.194 19.7192C12.188 19.734 12.1827 19.7458 12.1785 19.7543L8.58052 18.0067C8.54693 18.0758 8.51508 18.1471 8.48542 18.2205L12.194 19.7192ZM12.7193 16.8222C12.0152 16.5886 11.2651 16.4784 10.5251 16.6356C9.73358 16.8037 9.1309 17.241 8.73194 17.7803L11.9475 20.1594C11.8866 20.2417 11.7997 20.3313 11.6841 20.4076C11.5667 20.485 11.4507 20.5282 11.3562 20.5483C11.1798 20.5858 11.1761 20.5246 11.4597 20.6187L12.7193 16.8222ZM28.7718 16.0012C25.3523 17.1301 21.8954 17.5309 18.9757 17.542C16.0217 17.5532 13.7564 17.1661 12.7193 16.8222L11.4597 20.6187C13.0431 21.1436 15.7744 21.5542 18.9909 21.542C22.2416 21.5297 26.1292 21.086 30.0258 19.7995L28.7718 16.0012ZM36.9285 10.2281C33.2864 11.6439 30.1627 13.8684 27.8643 16.6176L30.9332 19.1832C32.7729 16.9826 35.3267 15.1423 38.3777 13.9564L36.9285 10.2281ZM36.9733 14.3824C37.1778 14.2134 37.4385 14.1131 37.7981 14.087L37.5081 10.0975C36.5166 10.1696 35.4073 10.4877 34.4257 11.2986L36.9733 14.3824ZM35.6895 14.8405H35.6995V10.8405H35.6895V14.8405Z" fill="#171c4c"/>
</g>
<path fill-rule="evenodd" clip-rule="evenodd" d="M41.787 57.7815C40.772 56.8454 39.1904 56.9093 38.2543 57.9242C37.788 58.4298 37.5698 59.076 37.5938 59.7129C37.2003 59.8414 36.8333 60.0695 36.533 60.3957C36.4006 60.5395 36.2882 60.6946 36.1958 60.8576C35.2016 60.2676 33.8972 60.4313 33.0828 61.3157C32.1475 62.3314 32.2127 63.913 33.2284 64.8483L39.4184 70.5483C40.434 71.4835 42.0156 71.4184 42.9509 70.4027C43.0833 70.2589 43.1956 70.1038 43.2881 69.9408C44.2822 70.5308 45.5867 70.3671 46.4011 69.4826C46.8673 68.9764 47.0849 68.3295 47.0601 67.6922C47.4493 67.5633 47.8121 67.3368 48.1097 67.0141C49.0458 65.9992 48.9819 64.4176 47.967 63.4815L41.787 57.7815Z" fill="#F09800"/>
<path fill-rule="evenodd" clip-rule="evenodd" d="M42.1152 58.7775C41.5058 58.2163 40.5568 58.2554 39.9957 58.8648C39.5733 59.3235 39.491 59.9744 39.7359 60.5077C39.1609 60.2432 38.4576 60.3641 38.0057 60.8548C37.7286 61.1558 37.5978 61.5395 37.6099 61.9184L36.8051 61.1774C36.1956 60.6163 35.2467 60.6555 34.6855 61.2649C34.1244 61.8744 34.1636 62.8233 34.773 63.3844L40.953 69.0744C41.5625 69.6356 42.5114 69.5964 43.0726 68.9869C43.3494 68.6862 43.4802 68.3028 43.4683 67.9241L44.283 68.6743C44.8924 69.2355 45.8414 69.1964 46.4025 68.587C46.8249 68.1283 46.9072 67.4774 46.6623 66.9441C47.2373 67.2087 47.9407 67.0877 48.3925 66.597C48.9537 65.9876 48.9146 65.0387 48.3052 64.4775L42.1152 58.7775Z" fill="#FFCC48" fill-opacity="0.5"/>
<path fill-rule="evenodd" clip-rule="evenodd" d="M57.787 50.7815C56.772 49.8454 55.1904 49.9093 54.2543 50.9242C53.788 51.4298 53.5698 52.076 53.5938 52.7129C53.2003 52.8414 52.8333 53.0695 52.533 53.3957C52.4006 53.5395 52.2882 53.6946 52.1958 53.8576C51.2016 53.2676 49.8972 53.4313 49.0828 54.3157C48.1475 55.3314 48.2127 56.913 49.2284 57.8483L55.4184 63.5483C56.434 64.4835 58.0156 64.4184 58.9509 63.4027C59.0833 63.2589 59.1956 63.1038 59.2881 62.9408C60.2822 63.5308 61.5867 63.3671 62.4011 62.4826C62.8673 61.9764 63.0849 61.3295 63.0601 60.6922C63.4493 60.5633 63.8121 60.3368 64.1097 60.0141C65.0458 58.9992 64.9819 57.4176 63.967 56.4815L57.787 50.7815Z" fill="#F09800"/>
<path fill-rule="evenodd" clip-rule="evenodd" d="M58.1152 51.7775C57.5058 51.2163 56.5568 51.2554 55.9957 51.8648C55.5733 52.3235 55.491 52.9744 55.7359 53.5077C55.1609 53.2432 54.4576 53.3641 54.0057 53.8548C53.7286 54.1558 53.5978 54.5395 53.6099 54.9184L52.8051 54.1774C52.1956 53.6163 51.2467 53.6555 50.6855 54.2649C50.1244 54.8744 50.1636 55.8233 50.773 56.3844L56.953 62.0744C57.5625 62.6356 58.5114 62.5964 59.0726 61.9869C59.3494 61.6862 59.4802 61.3028 59.4683 60.9241L60.283 61.6743C60.8924 62.2355 61.8414 62.1964 62.4025 61.587C62.8249 61.1283 62.9072 60.4774 62.6623 59.9441C63.2373 60.2087 63.9407 60.0877 64.3925 59.597C64.9537 58.9876 64.9146 58.0387 64.3052 57.4775L58.1152 51.7775Z" fill="#FFCC48" fill-opacity="0.5"/>
<path d="M44.6772 66.8833C59.336 63.8075 68.8619 50.0794 65.954 36.2206C63.0462 22.3618 48.8056 13.6204 34.1468 16.6961C19.4881 19.7718 9.96213 33.5 12.87 47.3588C15.7779 61.2176 30.0184 69.959 44.6772 66.8833Z" fill="#D2DCE4"/>
<path d="M43.1894 59.1791C57.103 56.7308 66.697 45.1688 64.6181 33.3546C62.5392 21.5405 49.5747 13.9481 35.661 16.3964C21.7473 18.8448 12.1534 30.4068 14.2323 42.2209C16.3112 54.035 29.2757 61.6275 43.1894 59.1791Z" fill="white"/>
<path d="M14.8798 52.3008C14.8798 52.3008 13.1798 47.7908 10.3598 38.7708C7.34976 29.1508 6.45976 30.7708 3.64976 23.7408C2.52976 20.9508 2.40976 17.6308 7.09976 19.4008C11.2098 20.9508 13.5998 20.6408 13.5998 20.6408L13.4498 39.3308L14.8798 52.3008Z" fill="#D2DCE4"/>
<path d="M20.2699 39.3997C20.2699 39.3997 44.3799 7.85975 38.3699 12.8497C29.2499 20.9097 15.8299 19.9597 12.0899 18.7197C9.91987 17.9997 10.0799 19.9697 10.0799 19.9697C7.49987 19.2397 5.52987 18.4397 4.79987 18.9597C2.85987 20.3297 11.2199 28.9697 11.2199 28.9697C7.38987 29.4097 11.1099 32.8197 15.0499 44.3997L20.2799 39.4097L20.2699 39.3997Z" fill="white"/>
<path d="M46.4481 48.1091C56.8697 48.1091 65.3181 39.6607 65.3181 29.2391C65.3181 18.8175 56.8697 10.3691 46.4481 10.3691C36.0264 10.3691 27.5781 18.8175 27.5781 29.2391C27.5781 39.6607 36.0264 48.1091 46.4481 48.1091Z" fill="#D2DCE4"/>
<path d="M47.3019 42.7191C57.9054 41.2214 65.4906 32.8521 64.2439 24.0258C62.9971 15.1996 53.3906 9.2587 42.787 10.7564C32.1835 12.2542 24.5983 20.6235 25.845 29.4498C27.0918 38.276 36.6983 44.2169 47.3019 42.7191Z" fill="white"/>
<path d="M55.6287 31.3609C55.2487 33.5609 51.1287 36.1709 48.5887 35.5509C46.0487 34.9309 44.5587 32.0809 45.2587 29.2109C45.9687 26.3309 48.5987 24.5109 51.1487 25.1309C53.6987 25.7509 55.9087 29.7309 55.6287 31.3609Z" fill="#F09800"/>
<path d="M55.5316 31.3701C55.1516 33.5701 51.6416 31.0101 49.0916 30.3901C46.5416 29.7701 45.5316 28.0801 45.8216 27.5901C46.9416 25.6901 49.0216 24.6501 51.0516 25.1401C53.5916 25.7701 55.8116 29.7401 55.5316 31.3701Z" fill="#FFCC48"/>
<path d="M41.5235 29.8159C42.8282 29.4573 43.5726 28.0268 43.1862 26.6209C42.7997 25.2151 41.4288 24.3661 40.1241 24.7247C38.8194 25.0834 38.075 26.5138 38.4614 27.9197C38.8479 29.3256 40.2188 30.1745 41.5235 29.8159Z" fill="#DACED3"/>
<path d="M41.3546 30.0634C42.606 29.7194 43.3204 28.3483 42.95 27.001C42.5797 25.6537 41.265 24.8403 40.0135 25.1843C38.7621 25.5283 38.0477 26.8994 38.418 28.2467C38.7884 29.594 40.1031 30.4074 41.3546 30.0634Z" fill="#171c4c"/>
<path d="M42.6689 26.45C42.2789 25.74 41.5189 25.25 40.6489 25.25C39.9389 25.25 39.2989 25.58 38.8789 26.09C38.9089 26.57 39.0989 27.1 39.4289 27.57C40.1889 28.64 41.4289 29.07 42.1989 28.52C42.7689 28.11 42.9289 27.29 42.6589 26.45H42.6689Z" fill="#171c4c"/>
<path d="M40.5883 25.6094C41.4383 25.6094 42.2083 26.2394 42.4583 27.1394C42.7583 28.2194 42.1983 29.3094 41.2183 29.5794C41.0683 29.6194 40.9183 29.6394 40.7683 29.6394C39.9183 29.6394 39.1483 29.0094 38.8983 28.1094C38.7483 27.5794 38.8083 27.0294 39.0483 26.5694C39.2883 26.1194 39.6683 25.7994 40.1383 25.6694C40.2883 25.6294 40.4383 25.6094 40.5883 25.6094ZM40.5883 25.1094C40.3983 25.1094 40.1983 25.1394 40.0083 25.1894C38.7583 25.5294 38.0483 26.8994 38.4183 28.2494C38.7283 29.3894 39.7183 30.1394 40.7683 30.1394C40.9583 30.1394 41.1583 30.1094 41.3483 30.0594C42.5983 29.7194 43.3083 28.3494 42.9383 26.9994C42.6283 25.8594 41.6383 25.1094 40.5883 25.1094Z" fill="#171c4c"/>
<path d="M55.5306 27.0003C53.9606 27.2703 52.8106 22.4003 55.1106 21.9503C57.8706 21.4103 58.4806 26.4903 55.5306 27.0003Z" fill="#171c4c"/>
<path d="M55.9408 25.9491C55.1708 26.0491 54.0508 25.8891 54.0508 24.1491C54.0508 22.4091 54.8909 22.1691 55.3109 22.1391C55.7309 22.1091 56.7609 21.9191 57.2009 23.0791C57.5809 24.0891 57.7108 25.7091 55.9408 25.9491Z" fill="#171c4c"/>
<path d="M55.5119 22.4102C56.4119 22.4102 56.9019 23.3302 56.9719 24.1802C57.0619 25.1902 56.6219 26.3002 55.4119 26.5102C55.0219 26.5102 54.4519 25.5702 54.3419 24.4102C54.3019 24.0002 54.2419 22.6302 55.2119 22.4402C55.3119 22.4202 55.4219 22.4102 55.5119 22.4102ZM55.5119 21.9102C55.3819 21.9102 55.2519 21.9202 55.1119 21.9502C52.8719 22.3902 53.9019 27.0102 55.4019 27.0102C55.4419 27.0102 55.4819 27.0102 55.5319 27.0002C58.3319 26.5202 57.9219 21.9102 55.5119 21.9102Z" fill="#171c4c"/>
<path d="M35.6903 12.8401C35.6903 12.8401 31.6103 8.64011 32.0303 6.00011C32.4503 3.36011 35.7303 2.78011 37.4003 5.17011C37.4003 5.17011 40.6803 3.30011 42.1003 7.05011C42.1003 7.05011 44.6203 5.69011 45.0903 12.8401C45.0903 12.8401 44.4203 15.7201 40.9603 12.8401C40.9603 12.8401 37.7703 11.1301 35.7003 12.8401H35.6903Z" fill="#FF5F5F"/>
<path d="M40.9503 12.8404C44.0903 15.4504 44.9303 13.3304 45.0603 12.9104C45.0703 12.8704 45.0803 12.8404 45.0803 12.8404C44.0303 14.2304 43.0903 12.5704 41.7303 10.5704C40.3703 8.57039 40.9503 8.09039 40.9503 8.09039C38.5003 8.93039 39.9703 12.9704 38.0903 11.8504C36.2103 10.7304 36.3703 6.81039 36.3703 6.81039C34.6503 7.21039 36.2903 10.4104 34.7703 9.51039C33.2503 8.61039 32.6103 4.65039 32.6103 4.65039C32.3203 5.01039 32.1203 5.46039 32.0303 6.00039C31.6103 8.64039 35.6903 12.8404 35.6903 12.8404C37.7603 11.1304 40.9503 12.8404 40.9503 12.8404Z" fill="#E9462E"/>
<path d="M35.4319 50.5791C34.6119 52.7491 32.7019 54.0491 31.1619 53.4691C30.2819 53.1391 29.7319 52.2591 29.5519 51.1791C29.3019 52.9191 29.9019 54.4891 31.1619 54.9591C32.7019 55.5391 34.6119 54.2491 35.4319 52.0691C35.7819 51.1291 35.8619 50.1991 35.7319 49.3691C35.6719 49.7691 35.5819 50.1691 35.4319 50.5691V50.5791Z" fill="#D2DCE4"/>
<path d="M43.1918 56.1798C42.4518 58.1398 40.7318 59.2998 39.3418 58.7798C38.5518 58.4798 38.0518 57.6898 37.8918 56.7098C37.6618 58.2798 38.1418 59.9398 39.3418 60.1198C46.4518 61.2098 46.8118 60.3198 44.9318 59.3998C42.7918 58.3598 43.5818 55.8298 43.4618 55.0898C43.4118 55.4498 43.3318 55.8098 43.1918 56.1698V56.1798Z" fill="#D2DCE4"/>
<path d="M37.6917 57.8009C36.9517 59.7609 33.5517 59.7009 32.1617 59.1809C31.3717 58.8809 32.5517 61.0409 32.3917 60.0609C32.1617 61.6309 39.8217 61.4409 40.9517 61.8609C42.3417 62.3809 41.2917 60.8709 39.3417 60.1209C38.0117 59.6009 38.0717 57.4509 37.9617 56.7109C37.9117 57.0709 37.8317 57.4309 37.6917 57.7909V57.8009Z" fill="#D2DCE4"/>
<path d="M48.7812 55.4591C48.0412 57.4191 46.3212 58.5791 44.9312 58.0591C44.1412 57.7591 43.6412 56.9691 43.4812 55.9891C43.2512 57.5591 43.8012 58.9691 44.9312 59.3991C46.3212 59.9191 48.0112 61.9791 48.7512 60.0191C48.9712 59.4491 52.6012 56.3391 52.6012 55.7891C49.3212 57.8491 49.0912 54.5991 49.0512 54.3691C49.0012 54.7291 48.9212 55.0891 48.7812 55.4491V55.4591Z" fill="#D2DCE4"/>
<path d="M31.511 49.0595C30.591 50.4395 29.041 51.0295 28.061 50.3695C27.501 49.9995 27.261 49.2995 27.311 48.5095C26.851 49.6795 27.021 50.8695 27.811 51.4095C28.791 52.0695 30.331 51.4795 31.261 50.0995C31.661 49.5095 31.871 48.8595 31.911 48.2695C31.801 48.5395 31.681 48.7995 31.511 49.0595Z" fill="#D2DCE4"/>
<path d="M23.5919 43.9509C21.3619 44.6209 19.1819 43.8809 18.7019 42.3009C18.4319 41.4009 18.7918 40.4309 19.5518 39.6309C18.0118 40.4809 17.1319 41.9209 17.5219 43.2009C17.9919 44.7809 20.1818 45.5109 22.4118 44.8509C23.3718 44.5609 24.1618 44.0609 24.7318 43.4509C24.3818 43.6409 24.0119 43.8209 23.5919 43.9409V43.9509Z" fill="#D2DCE4"/>
<path d="M22.4199 39.91C20.7599 40.01 19.3599 39.14 19.2799 37.97C19.2399 37.3 19.6499 36.68 20.2999 36.25C19.0899 36.59 18.2399 37.45 18.2999 38.41C18.3699 39.59 19.7799 40.45 21.4299 40.35C22.1399 40.31 22.7799 40.08 23.2799 39.76C22.9999 39.84 22.7199 39.9 22.4099 39.92L22.4199 39.91Z" fill="#D2DCE4"/>
<path d="M10.3815 18.8791C9.53143 20.6291 13.5915 20.6091 13.5915 20.6091C13.5915 20.6091 11.8315 20.5091 11.9715 22.0691C12.1115 23.6291 15.9415 24.4191 15.9415 24.4191C15.9415 24.4191 11.4215 24.0891 10.6915 22.5691C9.96143 21.0391 11.2415 20.9791 11.2415 20.9791C11.2415 20.9791 9.35143 20.3691 10.3815 18.8691V18.8791Z" fill="#D2DCE4"/>
</svg>
