<svg width="111" height="159" viewBox="0 0 111 159" fill="none" xmlns="http://www.w3.org/2000/svg">
<path d="M13 38.3179C13 32.839 17.2314 27.2196 22.4561 26.176C44.3007 21.9413 66.6993 21.9413 88.5439 26.176C93.7686 27.2196 98 32.849 98 38.3179V143.682C98 149.161 93.7686 154.78 88.5439 155.824C66.6993 160.059 44.3007 160.059 22.4561 155.824C17.2314 154.78 13 149.151 13 143.682V38.3179Z" fill="#171C4C" fill-opacity="1"/>
<mask id="path-2-outside-1_926_6126" maskUnits="userSpaceOnUse" x="-2.58771e-05" y="-3.49691e-07" width="111" height="150" fill="black">
<rect fill="white" x="-2.58771e-05" y="-3.49691e-07" width="111" height="150"/>
<path fill-rule="evenodd" clip-rule="evenodd" d="M19.53 8.38001C19.79 9.45001 20.89 10.11 21.97 9.86001C24.636 9.25595 27.3139 8.72275 30.0009 8.26039C30.0003 8.2802 30 8.30007 30 8.32001L30 12.4962C26.2786 13.2136 22.5817 14.0947 18.92 15.14C16.76 15.76 15.01 18.13 15.01 20.32L15.01 95.32L15 95.32L15 91.32C15 91.1312 14.9825 90.9465 14.9492 90.7674C14.9824 90.6234 15 90.4737 15 90.32C15 89.22 14.1 88.32 13 88.32L12 88.32L4.99998 88.32L3.99998 88.32C2.89998 88.32 1.99998 89.22 1.99998 90.32C1.99998 90.4737 2.01755 90.6234 2.05077 90.7674C2.01742 90.9465 1.99998 91.1312 1.99998 91.32L1.99998 96.32C1.99998 97.9769 3.34313 99.32 4.99998 99.32L5.99998 99.32L12 99.32L13.7733 99.32C13.7318 99.646 13.7167 99.9768 13.73 100.31C13.8245 102.709 13.9211 105.113 14.0178 107.521L14.0179 107.523L14.018 107.525L14.0181 107.527L14.0181 107.528L14.0182 107.531C14.1363 110.469 14.2546 113.415 14.37 116.37C14.4046 117.246 14.6283 118.106 15 118.903L15 124.32L15 124.323L15 126.32C15 126.436 15.0033 126.551 15.01 126.666L15.01 137.32C15.01 139.51 16.76 141.89 18.92 142.52C42.81 149.47 68.2 149.47 92.09 142.52C94.25 141.89 96 139.51 96 137.32L96 126.335L96 126.33L96 124.333L96 124.33L96 118.862C96.3597 118.075 96.576 117.23 96.61 116.37C96.7295 113.303 96.8522 110.25 96.9744 107.207L96.9751 107.19L96.9757 107.177L96.9759 107.171C97.0681 104.878 97.1599 102.591 97.25 100.31C97.2633 99.9768 97.2482 99.646 97.2067 99.32L99 99.32L105 99.32L106 99.32C107.657 99.32 109 97.9769 109 96.32L109 91.32C109 91.1312 108.983 90.9465 108.949 90.7674C108.982 90.6234 109 90.4737 109 90.32C109 89.22 108.1 88.32 107 88.32L106 88.32L99 88.32L98 88.32C96.9 88.32 96 89.22 96 90.32L96 20.73C96 18.54 94.25 16.15 92.09 15.51L92.09 15.52C89.0818 14.6348 86.0498 13.8584 83 13.1909L83 8.32001C83 8.30065 82.9997 8.28136 82.9992 8.26213C85.6827 8.72408 88.3573 9.25671 91.02 9.86001C92.1 10.11 93.2 9.44001 93.46 8.38001C93.5838 7.87062 93.49 7.3567 93.2369 6.92995C93.159 6.55646 92.8633 6.23533 92.46 6.14001L92.3333 6.1105C92.1976 6.04634 92.0527 5.99546 91.9 5.96001C80.2557 3.3213 68.3866 2.0013 56.5161 2.00001L56.4813 2.00001C44.6109 2.0013 32.7393 3.3213 21.09 5.96001C20.9325 5.99517 20.7832 6.04715 20.6438 6.11349L20.53 6.14001C20.1304 6.23447 19.8416 6.54538 19.7596 6.91548C19.5016 7.34565 19.4052 7.86628 19.53 8.38001ZM96 90.32C96 90.4737 96.0175 90.6234 96.0508 90.7674C96.0174 90.9465 96 91.1312 96 91.32L96 90.32ZM34 8.32001C34 8.08262 33.9581 7.85454 33.8813 7.64281C48.8805 5.44861 64.119 5.44908 79.1182 7.6442C79.0417 7.85554 79 8.08314 79 8.32001L79 12.3799C64.1293 9.60271 48.9011 9.39605 34 11.7896L34 8.32001Z"/>
</mask>
<path fill-rule="evenodd" clip-rule="evenodd" d="M19.53 8.38001C19.79 9.45001 20.89 10.11 21.97 9.86001C24.636 9.25595 27.3139 8.72275 30.0009 8.26039C30.0003 8.2802 30 8.30007 30 8.32001L30 12.4962C26.2786 13.2136 22.5817 14.0947 18.92 15.14C16.76 15.76 15.01 18.13 15.01 20.32L15.01 95.32L15 95.32L15 91.32C15 91.1312 14.9825 90.9465 14.9492 90.7674C14.9824 90.6234 15 90.4737 15 90.32C15 89.22 14.1 88.32 13 88.32L12 88.32L4.99998 88.32L3.99998 88.32C2.89998 88.32 1.99998 89.22 1.99998 90.32C1.99998 90.4737 2.01755 90.6234 2.05077 90.7674C2.01742 90.9465 1.99998 91.1312 1.99998 91.32L1.99998 96.32C1.99998 97.9769 3.34313 99.32 4.99998 99.32L5.99998 99.32L12 99.32L13.7733 99.32C13.7318 99.646 13.7167 99.9768 13.73 100.31C13.8245 102.709 13.9211 105.113 14.0178 107.521L14.0179 107.523L14.018 107.525L14.0181 107.527L14.0181 107.528L14.0182 107.531C14.1363 110.469 14.2546 113.415 14.37 116.37C14.4046 117.246 14.6283 118.106 15 118.903L15 124.32L15 124.323L15 126.32C15 126.436 15.0033 126.551 15.01 126.666L15.01 137.32C15.01 139.51 16.76 141.89 18.92 142.52C42.81 149.47 68.2 149.47 92.09 142.52C94.25 141.89 96 139.51 96 137.32L96 126.335L96 126.33L96 124.333L96 124.33L96 118.862C96.3597 118.075 96.576 117.23 96.61 116.37C96.7295 113.303 96.8522 110.25 96.9744 107.207L96.9751 107.19L96.9757 107.177L96.9759 107.171C97.0681 104.878 97.1599 102.591 97.25 100.31C97.2633 99.9768 97.2482 99.646 97.2067 99.32L99 99.32L105 99.32L106 99.32C107.657 99.32 109 97.9769 109 96.32L109 91.32C109 91.1312 108.983 90.9465 108.949 90.7674C108.982 90.6234 109 90.4737 109 90.32C109 89.22 108.1 88.32 107 88.32L106 88.32L99 88.32L98 88.32C96.9 88.32 96 89.22 96 90.32L96 20.73C96 18.54 94.25 16.15 92.09 15.51L92.09 15.52C89.0818 14.6348 86.0498 13.8584 83 13.1909L83 8.32001C83 8.30065 82.9997 8.28136 82.9992 8.26213C85.6827 8.72408 88.3573 9.25671 91.02 9.86001C92.1 10.11 93.2 9.44001 93.46 8.38001C93.5838 7.87062 93.49 7.3567 93.2369 6.92995C93.159 6.55646 92.8633 6.23533 92.46 6.14001L92.3333 6.1105C92.1976 6.04634 92.0527 5.99546 91.9 5.96001C80.2557 3.3213 68.3866 2.0013 56.5161 2.00001L56.4813 2.00001C44.6109 2.0013 32.7393 3.3213 21.09 5.96001C20.9325 5.99517 20.7832 6.04715 20.6438 6.11349L20.53 6.14001C20.1304 6.23447 19.8416 6.54538 19.7596 6.91548C19.5016 7.34565 19.4052 7.86628 19.53 8.38001ZM96 90.32C96 90.4737 96.0175 90.6234 96.0508 90.7674C96.0174 90.9465 96 91.1312 96 91.32L96 90.32ZM34 8.32001C34 8.08262 33.9581 7.85454 33.8813 7.64281C48.8805 5.44861 64.119 5.44908 79.1182 7.6442C79.0417 7.85554 79 8.08314 79 8.32001L79 12.3799C64.1293 9.60271 48.9011 9.39605 34 11.7896L34 8.32001Z" fill="#171C4C"/>
<path d="M21.97 9.86001L21.528 7.90943L21.5189 7.91153L21.97 9.86001ZM19.53 8.38001L21.4734 7.90777L21.4734 7.90777L19.53 8.38001ZM30.0009 8.26039L32 8.3197L32.0725 5.87452L29.6617 6.28936L30.0009 8.26039ZM30 12.4962L30.3786 14.4601L32 14.1475L32 12.4962L30 12.4962ZM18.92 15.14L18.371 13.2168L18.3682 13.2176L18.92 15.14ZM15.01 20.32L13.01 20.32V20.32L15.01 20.32ZM15.01 95.32L15.01 97.32L17.01 97.32L17.01 95.32L15.01 95.32ZM15 95.32L13 95.32L13 97.32L15 97.32L15 95.32ZM15 91.32L13 91.32L13 91.32L15 91.32ZM14.9492 90.7674L13.0004 90.3177L12.9067 90.7238L12.983 91.1335L14.9492 90.7674ZM4.99998 88.32L4.99998 90.32L4.99998 88.32ZM3.99998 88.32L3.99999 86.32L3.99998 88.32ZM2.05077 90.7674L4.01698 91.1335L4.09327 90.7238L3.99955 90.3177L2.05077 90.7674ZM13.7733 99.32L15.7573 99.5725L16.0439 97.32L13.7733 97.32L13.7733 99.32ZM13.73 100.31L15.7284 100.231L15.7284 100.23L13.73 100.31ZM14.0178 107.521L16.0163 107.443L16.0162 107.441L14.0178 107.521ZM14.0179 107.523L12.0195 107.601L12.0195 107.602L14.0179 107.523ZM14.018 107.525L16.0164 107.446L14.018 107.525ZM14.0181 107.527L12.0196 107.606L12.0197 107.608L14.0181 107.527ZM14.0181 107.528L16.0165 107.447L16.0165 107.447L14.0181 107.528ZM14.0182 107.531L16.0166 107.451L16.0166 107.451L14.0182 107.531ZM14.37 116.37L12.3715 116.448L12.3715 116.449L14.37 116.37ZM15 118.903L17 118.903L17 118.46L16.8129 118.059L15 118.903ZM15 124.32L13 124.32L13 124.321L15 124.32ZM15 124.323L17 124.323L17 124.322L15 124.323ZM15.01 126.666L17.01 126.666L17.01 126.608L17.0067 126.551L15.01 126.666ZM15.01 137.32L17.01 137.32V137.32L15.01 137.32ZM18.92 142.52L18.36 144.44L18.3613 144.44L18.92 142.52ZM92.09 142.52L92.6487 144.44L92.65 144.44L92.09 142.52ZM96 137.32L94 137.32L96 137.32ZM96 126.335L98 126.335L96 126.335ZM96 126.33L94 126.33L96 126.33ZM96 118.862L94.1812 118.03L94 118.426L94 118.862L96 118.862ZM96.61 116.37L98.6084 116.449L98.6085 116.448L96.61 116.37ZM96.9744 107.207L98.9728 107.288L98.9729 107.287L96.9744 107.207ZM96.9751 107.19L98.9736 107.269L98.9736 107.269L96.9751 107.19ZM96.9757 107.177L94.9773 107.096L94.9772 107.097L96.9757 107.177ZM96.9759 107.171L98.9743 107.251L98.9743 107.251L96.9759 107.171ZM97.25 100.31L95.2516 100.23L95.2515 100.231L97.25 100.31ZM97.2067 99.32L97.2067 97.32L94.936 97.32L95.2227 99.5725L97.2067 99.32ZM99 99.32L99 97.32L99 99.32ZM105 99.32L105 101.32L105 99.32ZM109 96.32L111 96.32L109 96.32ZM109 91.32L107 91.32L109 91.32ZM108.949 90.7674L107 90.3176L106.907 90.7237L106.983 91.1335L108.949 90.7674ZM106 88.32L106 90.32L106 88.32ZM99 88.32L99 86.32L99 88.32ZM96 90.32L98 90.32L98 90.32L96 90.32ZM96 20.73L94 20.73L94 20.73L96 20.73ZM92.09 15.51L92.6582 13.5924L90.09 12.8315L90.09 15.51L92.09 15.51ZM92.09 15.52L91.5254 17.4387L94.09 18.1933L94.09 15.52L92.09 15.52ZM83 13.1909L81 13.1909L81 14.8006L82.5724 15.1447L83 13.1909ZM83 8.32001L81 8.32001L83 8.32001ZM82.9992 8.26213L83.3384 6.29112L80.9292 5.87639L81 8.32003L82.9992 8.26213ZM91.02 9.86001L91.471 7.91151L91.4619 7.90945L91.02 9.86001ZM93.46 8.38001L95.4024 8.85644L95.4034 8.85226L93.46 8.38001ZM93.2369 6.92995L91.2789 7.33798L91.3468 7.66388L91.5167 7.95021L93.2369 6.92995ZM92.46 6.14001L92.92 4.19363L92.9138 4.19217L92.46 6.14001ZM92.3333 6.1105L91.4786 7.91866L91.6716 8.0099L91.8795 8.05834L92.3333 6.1105ZM91.9 5.96001L92.3522 4.01179L92.342 4.00946L91.9 5.96001ZM56.5161 2.00001L56.5163 9.5319e-06L56.5161 9.5319e-06L56.5161 2.00001ZM56.4813 2.00001L56.4813 9.52032e-06L56.4811 9.54388e-06L56.4813 2.00001ZM21.09 5.96001L21.5257 7.91198L21.5318 7.91059L21.09 5.96001ZM20.6438 6.11349L21.0975 8.06135L21.3081 8.01232L21.5033 7.91942L20.6438 6.11349ZM20.53 6.14001L20.0763 4.19214L20.0699 4.19364L20.53 6.14001ZM19.7596 6.91548L21.4748 7.94415L21.642 7.6654L21.7123 7.34806L19.7596 6.91548ZM96.0508 90.7674L98.017 91.1335L98.0933 90.7237L97.9995 90.3176L96.0508 90.7674ZM33.8813 7.64281L33.5918 5.66387L31.1647 6.01892L32.0011 8.32479L33.8813 7.64281ZM79.1182 7.6442L80.9988 8.32476L81.8328 6.02018L79.4078 5.66528L79.1182 7.6442ZM79 12.3799L78.6328 14.3459L81 14.788L81 12.3799L79 12.3799ZM34 11.7896L32 11.7896L32 14.1365L34.3172 13.7643L34 11.7896ZM21.5189 7.91153C21.5117 7.9132 21.5063 7.91322 21.5004 7.91223C21.4932 7.91102 21.4848 7.90806 21.4772 7.90345C21.4696 7.89886 21.4672 7.89541 21.4682 7.89667C21.4688 7.89747 21.47 7.89924 21.4712 7.90186C21.4725 7.90461 21.4732 7.90685 21.4734 7.90777L17.5865 8.85225C18.113 11.019 20.3053 12.2982 22.421 11.8085L21.5189 7.91153ZM29.6617 6.28936C26.9404 6.75763 24.2282 7.29766 21.528 7.90945L22.4119 11.8106C25.0439 11.2142 27.6875 10.6879 30.34 10.2314L29.6617 6.28936ZM32 8.32001L32 8.3197L28.0018 8.20109C28.0006 8.24053 28 8.28017 28 8.32001L32 8.32001ZM32 12.4962L32 8.32001L28 8.32001L28 12.4962L32 12.4962ZM19.469 17.0632C23.0743 16.034 26.7143 15.1664 30.3786 14.4601L29.6214 10.5324C25.8429 11.2607 22.0891 12.1554 18.371 13.2168L19.469 17.0632ZM17.01 20.32C17.01 19.7371 17.2551 19.008 17.7552 18.3409C18.2541 17.6754 18.8881 17.2299 19.4718 17.0624L18.3682 13.2176C16.7919 13.6701 15.4708 14.7196 14.5547 15.9416C13.6398 17.162 13.01 18.713 13.01 20.32L17.01 20.32ZM17.01 95.32L17.01 20.32L13.01 20.32L13.01 95.32L17.01 95.32ZM15 97.32L15.01 97.32L15.01 93.32L15 93.32L15 97.32ZM13 91.32L13 95.32L17 95.32L17 91.32L13 91.32ZM12.983 91.1335C12.994 91.1925 13 91.2546 13 91.32L17 91.32C17 91.0078 16.9711 90.7006 16.9154 90.4013L12.983 91.1335ZM13 90.32C13 90.3208 12.9999 90.3197 13.0004 90.3177L16.898 91.2171C16.9649 90.9272 17 90.6266 17 90.32L13 90.32ZM13 90.32L13 90.32L17 90.32C17 88.1154 15.2046 86.32 13 86.32L13 90.32ZM12 90.32L13 90.32L13 86.32L12 86.32L12 90.32ZM4.99998 90.32L12 90.32L12 86.32L4.99999 86.32L4.99998 90.32ZM3.99998 90.32L4.99998 90.32L4.99999 86.32L3.99999 86.32L3.99998 90.32ZM3.99998 90.32L3.99998 90.32L3.99999 86.32C1.79541 86.32 -1.50569e-05 88.1154 -1.54424e-05 90.32L3.99998 90.32ZM3.99955 90.3177C4.00002 90.3197 3.99998 90.3208 3.99998 90.32L-1.54424e-05 90.32C-1.5496e-05 90.6266 0.0350756 90.9272 0.101996 91.2171L3.99955 90.3177ZM3.99998 91.32C3.99998 91.2546 4.006 91.1925 4.01698 91.1335L0.0845677 90.4013C0.0288441 90.7006 -1.55626e-05 91.0078 -1.56172e-05 91.32L3.99998 91.32ZM3.99998 96.32L3.99998 91.32L-1.56172e-05 91.32L-1.64914e-05 96.32L3.99998 96.32ZM4.99999 97.32C4.4477 97.32 3.99998 96.8723 3.99998 96.32L-1.64914e-05 96.32C-1.69743e-05 99.0814 2.23856 101.32 4.99998 101.32L4.99999 97.32ZM5.99999 97.32L4.99999 97.32L4.99998 101.32L5.99998 101.32L5.99999 97.32ZM12 97.32L5.99999 97.32L5.99998 101.32L12 101.32L12 97.32ZM13.7733 97.32L12 97.32L12 101.32L13.7733 101.32L13.7733 97.32ZM15.7284 100.23C15.7196 100.01 15.7295 99.7907 15.7573 99.5725L11.7893 99.0675C11.7341 99.5012 11.7137 99.9433 11.7316 100.39L15.7284 100.23ZM16.0162 107.441C15.9195 105.032 15.8229 102.63 15.7284 100.231L11.7315 100.389C11.8261 102.789 11.9227 105.193 12.0195 107.601L16.0162 107.441ZM16.0164 107.445L16.0163 107.443L12.0194 107.599L12.0195 107.601L16.0164 107.445ZM16.0164 107.446L16.0163 107.444L12.0195 107.602L12.0196 107.604L16.0164 107.446ZM16.0165 107.448L16.0164 107.446L12.0196 107.604L12.0196 107.606L16.0165 107.448ZM16.0165 107.447L16.0164 107.446L12.0197 107.608L12.0197 107.608L16.0165 107.447ZM16.0166 107.451L16.0165 107.447L12.0197 107.608L12.0198 107.611L16.0166 107.451ZM16.3685 116.292C16.2531 113.336 16.1347 110.389 16.0166 107.451L12.0198 107.611C12.1379 110.55 12.2562 113.495 12.3715 116.448L16.3685 116.292ZM16.8129 118.059C16.5429 117.479 16.3916 116.878 16.3684 116.291L12.3715 116.449C12.4175 117.613 12.7136 118.732 13.1871 119.748L16.8129 118.059ZM17 124.32L17 118.903L13 118.903L13 124.32L17 124.32ZM17 124.322L17 124.319L13 124.321L13 124.323L17 124.322ZM17 126.32L17 124.323L13 124.323L13 126.32L17 126.32ZM17.0067 126.551C17.0022 126.474 17 126.397 17 126.32L13 126.32C13 126.474 13.0045 126.628 13.0133 126.781L17.0067 126.551ZM17.01 137.32L17.01 126.666L13.01 126.666L13.01 137.32L17.01 137.32ZM19.48 140.6C18.8945 140.429 18.2582 139.979 17.7575 139.308C17.2556 138.636 17.01 137.904 17.01 137.32L13.01 137.32C13.01 138.926 13.6394 140.479 14.5525 141.702C15.4668 142.926 16.7855 143.981 18.36 144.44L19.48 140.6ZM91.5313 140.6C68.0062 147.443 43.0038 147.443 19.4787 140.6L18.3613 144.44C42.6162 151.497 68.3938 151.497 92.6487 144.44L91.5313 140.6ZM94 137.32C94 137.904 93.7544 138.636 93.2524 139.308C92.7518 139.979 92.1155 140.429 91.53 140.6L92.65 144.44C94.2245 143.981 95.5432 142.926 96.4575 141.702C97.3706 140.479 98 138.927 98 137.32L94 137.32ZM94 126.335L94 137.32L98 137.32L98 126.335L94 126.335ZM94 126.33L94 126.335L98 126.335L98 126.33L94 126.33ZM94 124.333L94 126.33L98 126.33L98 124.333L94 124.333ZM94 124.33L94 124.333L98 124.333L98 124.33L94 124.33ZM94 118.862L94 124.33L98 124.33L98 118.862L94 118.862ZM94.6115 116.291C94.5887 116.868 94.4424 117.459 94.1812 118.03L97.8188 119.694C98.277 118.692 98.5633 117.592 98.6084 116.449L94.6115 116.291ZM94.9761 107.127C94.8538 110.169 94.731 113.224 94.6115 116.292L98.6085 116.448C98.7279 113.383 98.8505 110.33 98.9728 107.288L94.9761 107.127ZM94.9767 107.11L94.976 107.128L98.9729 107.287L98.9736 107.269L94.9767 107.11ZM94.9772 107.097L94.9767 107.11L98.9736 107.269L98.9741 107.256L94.9772 107.097ZM94.9775 107.09L94.9773 107.096L98.974 107.258L98.9743 107.251L94.9775 107.09ZM95.2515 100.231C95.1615 102.511 95.0697 104.797 94.9775 107.09L98.9743 107.251C99.0664 104.958 99.1584 102.671 99.2484 100.389L95.2515 100.231ZM95.2227 99.5725C95.2504 99.7907 95.2604 100.01 95.2516 100.23L99.2484 100.39C99.2663 99.9433 99.2459 99.5012 99.1907 99.0675L95.2227 99.5725ZM99 97.32L97.2067 97.32L97.2067 101.32L99 101.32L99 97.32ZM105 97.32L99 97.32L99 101.32L105 101.32L105 97.32ZM106 97.32L105 97.32L105 101.32L106 101.32L106 97.32ZM107 96.32C107 96.8723 106.552 97.32 106 97.32L106 101.32C108.761 101.32 111 99.0814 111 96.32L107 96.32ZM107 91.32L107 96.32L111 96.32L111 91.32L107 91.32ZM106.983 91.1335C106.994 91.1925 107 91.2547 107 91.32L111 91.32C111 91.0078 110.971 90.7005 110.915 90.4013L106.983 91.1335ZM107 90.32C107 90.3208 107 90.3197 107 90.3176L110.898 91.2172C110.965 90.9272 111 90.6266 111 90.32L107 90.32ZM107 90.32L107 90.32L111 90.32C111 88.1154 109.205 86.32 107 86.32L107 90.32ZM106 90.32L107 90.32L107 86.32L106 86.32L106 90.32ZM99 90.32L106 90.32L106 86.32L99 86.32L99 90.32ZM98 90.32L99 90.32L99 86.32L98 86.32L98 90.32ZM98 90.32L98 90.32L98 86.32C95.7954 86.32 94 88.1154 94 90.32L98 90.32ZM94 20.73L94 90.32L98 90.32L98 20.73L94 20.73ZM91.5218 17.4276C92.1092 17.6016 92.7477 18.0568 93.2502 18.7323C93.754 19.4097 94 20.1459 94 20.73L98 20.73C98 19.1241 97.371 17.5703 96.4598 16.3452C95.5472 15.1182 94.2308 14.0584 92.6582 13.5924L91.5218 17.4276ZM94.09 15.52L94.09 15.51L90.09 15.51L90.09 15.52L94.09 15.52ZM82.5724 15.1447C85.5762 15.802 88.5625 16.5668 91.5254 17.4387L92.6546 13.6014C89.6011 12.7028 86.5234 11.9147 83.4275 11.2372L82.5724 15.1447ZM81 8.32001L81 13.1909L85 13.1909L85 8.32001L81 8.32001ZM81 8.32003L81 8.32001L85 8.32001C85 8.28174 84.9994 8.24313 84.9983 8.20423L81 8.32003ZM91.4619 7.90945C88.7651 7.29843 86.0564 6.75898 83.3384 6.29112L82.6599 10.2331C85.3091 10.6892 87.9494 11.215 90.578 11.8106L91.4619 7.90945ZM91.5176 7.90357C91.5192 7.8968 91.5223 7.89172 91.5231 7.89072C91.5231 7.89069 91.5221 7.89202 91.5197 7.89422C91.5172 7.89645 91.5137 7.89914 91.5093 7.90184C91.4998 7.90759 91.4905 7.91066 91.4838 7.9118C91.4785 7.9127 91.4752 7.9125 91.471 7.91153L90.5689 11.8085C92.6947 12.3006 94.8767 10.9996 95.4024 8.85644L91.5176 7.90357ZM91.5167 7.95021C91.519 7.95419 91.5168 7.95218 91.5153 7.9426C91.5145 7.93774 91.514 7.93171 91.5143 7.92494C91.5145 7.91804 91.5155 7.91209 91.5165 7.90776L95.4034 8.85226C95.6583 7.80356 95.4595 6.7568 94.9571 5.90969L91.5167 7.95021ZM91.9999 8.08638C91.6346 8.00002 91.3567 7.71126 91.2789 7.33798L95.1948 6.52192C94.9613 5.40166 94.092 4.47065 92.92 4.19364L91.9999 8.08638ZM91.8795 8.05834L92.0062 8.08784L92.9138 4.19217L92.7871 4.16267L91.8795 8.05834ZM91.4477 7.9082C91.461 7.91128 91.471 7.91507 91.4786 7.91866L93.1881 4.30235C92.9242 4.17762 92.6444 4.07964 92.3522 4.01181L91.4477 7.9082ZM56.5159 4.00001C68.2383 4.00128 79.9592 5.30481 91.458 7.91055L92.342 4.00946C80.5522 1.33778 68.5349 0.00131404 56.5163 9.54368e-06L56.5159 4.00001ZM56.4813 4.00001L56.5161 4.00001L56.5161 9.5319e-06L56.4813 9.5321e-06L56.4813 4.00001ZM21.5318 7.91059C33.0357 5.30481 44.7592 4.00128 56.4816 4.00001L56.4811 9.54388e-06C44.4626 0.00131418 32.4428 1.33778 20.6482 4.00942L21.5318 7.91059ZM21.5033 7.91942C21.5083 7.91701 21.5155 7.91425 21.5257 7.91197L20.6543 4.00805C20.3494 4.07609 20.0582 4.17729 19.7844 4.30756L21.5033 7.91942ZM20.9837 8.08787L21.0975 8.06135L20.1901 4.16563L20.0763 4.19215L20.9837 8.08787ZM21.7123 7.34806C21.6322 7.70965 21.3544 8.00026 20.99 8.08638L20.0699 4.19364C18.9063 4.46867 18.051 5.38112 17.8069 6.4829L21.7123 7.34806ZM21.4734 7.90777C21.4746 7.91245 21.4755 7.91838 21.4757 7.92486C21.4759 7.93121 21.4754 7.93658 21.4748 7.94058C21.4735 7.9483 21.472 7.94882 21.4748 7.94415L18.0444 5.88681C17.5339 6.73806 17.3296 7.79489 17.5865 8.85225L21.4734 7.90777ZM97.9995 90.3176C98 90.3197 98 90.3208 98 90.32L94 90.32C94 90.6265 94.0351 90.9272 94.102 91.2172L97.9995 90.3176ZM98 91.32C98 91.2547 98.006 91.1925 98.017 91.1335L94.0846 90.4013C94.0289 90.7005 94 91.0078 94 91.32L98 91.32ZM94 90.32L94 91.32L98 91.32L98 90.32L94 90.32ZM32.0011 8.32479C32.0008 8.32381 32.0004 8.32256 32.0002 8.32122C31.9999 8.31981 32 8.31926 32 8.32001L36 8.32001C36 7.84564 35.916 7.38701 35.7614 6.96083L32.0011 8.32479ZM79.4078 5.66528C64.2166 3.44205 48.7831 3.44158 33.5918 5.66387L34.1708 9.62175C48.978 7.45564 64.0214 7.4561 78.8286 9.62312L79.4078 5.66528ZM81 8.32001C81 8.31927 81 8.31982 80.9998 8.32123C80.9995 8.32256 80.9992 8.3238 80.9988 8.32476L77.2376 6.96364C77.0836 7.389 77 7.84666 77 8.32001L81 8.32001ZM81 12.3799L81 8.32001L77 8.32001L77 12.3799L81 12.3799ZM34.3172 13.7643C48.9899 11.4074 63.9866 11.6106 78.6328 14.3459L79.3672 10.4139C64.272 7.59478 48.8123 7.38467 33.6828 9.81492L34.3172 13.7643ZM32 8.32001L32 11.7896L36 11.7896L36 8.32001L32 8.32001Z" fill="#171C4C" mask="url(#path-2-outside-1_926_6126)"/>
<g clip-path="url(#clip0_926_6126)">
<path d="M92.0898 15.5106C94.2498 16.1506 95.9998 18.5406 95.9998 20.7306V137.321C95.9998 139.511 94.2498 141.891 92.0898 142.521C68.1998 149.471 42.8098 149.471 18.9198 142.521C16.7598 141.891 15.0098 139.511 15.0098 137.321V20.3206C15.0098 18.1306 16.7598 15.7606 18.9198 15.1406C42.8098 8.32056 68.1998 8.49056 92.0898 15.5206V15.5106Z" fill="#E93637"/>
<path d="M31 28.3193C31 27.2193 31.9 26.2093 32.99 26.0793C47.28 24.4293 61.71 24.4293 76 26.0793C77.1 26.2093 77.99 27.2293 77.99 28.3193V49.3193C77.99 50.4193 77.09 51.4293 76 51.5593C61.71 53.2093 47.28 53.2093 32.99 51.5593C31.89 51.4293 31 50.4093 31 49.3193V28.3193Z" fill="#FF506E"/>
<path d="M82 134.32C84.2091 134.32 86 132.529 86 130.32C86 128.111 84.2091 126.32 82 126.32C79.7909 126.32 78 128.111 78 130.32C78 132.529 79.7909 134.32 82 134.32Z" fill="#FF506E"/>
<path d="M27 133.32C29.2091 133.32 31 131.529 31 129.32C31 127.111 29.2091 125.32 27 125.32C24.7909 125.32 23 127.111 23 129.32C23 131.529 24.7909 133.32 27 133.32Z" fill="#FF506E"/>
<path d="M90.02 99.6201C67.07 97.1501 43.93 97.1501 20.98 99.6201C17.69 100 15 103.05 15 106.32V126.32C15 129.59 17.69 132.64 20.98 133.02C22.65 133.2 24.32 133.36 26 133.52V118.33H82V133.79C84.68 133.57 87.35 133.32 90.02 133.03C93.31 132.65 96 129.6 96 126.33V106.33C96 103.06 93.31 100.01 90.02 99.6301V99.6201Z" fill="#FF506E"/>
<path d="M90.02 99.6201C67.07 97.1501 43.93 97.1501 20.98 99.6201C17.69 100 15 103.05 15 106.32V124.32C15 127.59 17.69 130.64 20.98 131.02C22.65 131.2 24.32 131.36 26 131.52V115.33H82V131.79C84.68 131.57 87.35 131.32 90.02 131.03C93.31 130.65 96 127.6 96 124.33V106.33C96 103.06 93.31 100.01 90.02 99.6301V99.6201Z" fill="#FFEAB5"/>
<path d="M13.7293 100.309C13.5993 97.0595 16.1793 94.0295 19.4693 93.6395C43.4093 91.0395 67.5693 91.0395 91.5093 93.6395C94.7993 94.0295 97.3793 97.0595 97.2493 100.309C97.0393 105.629 96.8193 110.979 96.6093 116.369C96.4793 119.659 93.6793 122.739 90.3893 123.109C67.1893 125.549 43.7893 125.549 20.5893 123.109C17.2993 122.729 14.4993 119.659 14.3693 116.369C14.1593 110.989 13.9393 105.639 13.7293 100.309Z" fill="#FF506E"/>
<path d="M12 88.3203H5C3.34315 88.3203 2 89.6635 2 91.3203V96.3203C2 97.9772 3.34315 99.3203 5 99.3203H12C13.6569 99.3203 15 97.9772 15 96.3203V91.3203C15 89.6635 13.6569 88.3203 12 88.3203Z" fill="#2A2E5E"/>
<path d="M18 97.3203C18 98.4203 17.1 99.3203 16 99.3203H6C4.9 99.3203 4 98.4203 4 97.3203C4 96.2203 4.9 95.3203 6 95.3203H16C17.1 95.3203 18 96.2203 18 97.3203Z" fill="#2A2E5E"/>
<path d="M15 90.3203C15 91.4203 14.1 92.3203 13 92.3203H4C2.9 92.3203 2 91.4203 2 90.3203C2 89.2203 2.9 88.3203 4 88.3203H13C14.1 88.3203 15 89.2203 15 90.3203Z" fill="#3D406F"/>
<path d="M106 88.3203H99C97.3431 88.3203 96 89.6635 96 91.3203V96.3203C96 97.9772 97.3431 99.3203 99 99.3203H106C107.657 99.3203 109 97.9772 109 96.3203V91.3203C109 89.6635 107.657 88.3203 106 88.3203Z" fill="#2A2E5E"/>
<path d="M93 97.3203C93 98.4203 93.9 99.3203 95 99.3203H105C106.1 99.3203 107 98.4203 107 97.3203C107 96.2203 106.1 95.3203 105 95.3203H95C93.9 95.3203 93 96.2203 93 97.3203Z" fill="#2A2E5E"/>
<path d="M81 15.3203C82.1 15.3203 83 14.4203 83 13.3203V8.32031C83 7.22031 82.1 6.32031 81 6.32031C79.9 6.32031 79 7.22031 79 8.32031V13.3203C79 14.4203 79.9 15.3203 81 15.3203Z" fill="#171C4C"/>
<path d="M32 15.3203C33.1 15.3203 34 14.4203 34 13.3203V8.32031C34 7.22031 33.1 6.32031 32 6.32031C30.9 6.32031 30 7.22031 30 8.32031V13.3203C30 14.4203 30.9 15.3203 32 15.3203Z" fill="#171C4C"/>
<path d="M19.5308 8.38C19.7908 9.45 20.8908 10.11 21.9708 9.86C44.7008 4.71 68.2908 4.71 91.0208 9.86C92.1008 10.11 93.2008 9.44 93.4608 8.38C93.7208 7.31 93.0208 6.22 91.9008 5.96C68.6008 0.68 44.4008 0.68 21.0908 5.96C19.9708 6.21 19.2708 7.31 19.5308 8.38Z" fill="#2A2E5E"/>
<path d="M19.7704 7.35C19.9004 7.88 20.4504 8.22 20.9904 8.09C44.3504 2.64 68.6504 2.64 92.0104 8.09C92.5504 8.22 93.1004 7.89 93.2304 7.35C93.3604 6.82 93.0104 6.27 92.4604 6.14C68.8104 0.62 44.1904 0.62 20.5304 6.14C19.9804 6.27 19.6404 6.81 19.7604 7.35H19.7704Z" fill="#3D406F"/>
<path d="M96 90.3203C96 91.4203 96.9 92.3203 98 92.3203H107C108.1 92.3203 109 91.4203 109 90.3203C109 89.2203 108.1 88.3203 107 88.3203H98C96.9 88.3203 96 89.2203 96 90.3203Z" fill="#3D406F"/>
<path d="M29.3908 64.2903C29.7108 63.2103 30.8808 62.3203 31.9808 62.3203H78.4008C79.5008 62.3203 80.6708 63.2103 80.9908 64.2903C83.7808 73.6003 86.5708 82.6903 89.3508 91.4203C89.6708 92.4303 89.0408 93.3703 87.9408 93.5103C66.1808 96.1403 44.1908 96.1403 22.4308 93.5103C21.3308 93.3803 20.7008 92.4403 21.0208 91.4203C23.8008 82.6903 26.5908 73.6103 29.3808 64.2903H29.3908Z" fill="#2A2E5E"/>
<path d="M30.3306 59.2803C30.6706 58.2003 31.8406 57.3203 32.9406 57.3203H76.3306C77.4306 57.3203 78.6306 58.2003 79.0006 59.2703C82.4606 69.3303 85.9206 79.1103 89.3706 88.4503C89.7406 89.4403 89.1406 90.3603 88.0406 90.5003C66.2206 93.1403 44.1606 93.1403 22.3306 90.5003C21.2306 90.3703 20.6106 89.4303 20.9506 88.4203C24.0706 79.0603 27.2006 69.2903 30.3306 59.2803Z" fill="#3997E6"/>
<path d="M32.3691 19.3602C32.2291 18.2702 33.0491 17.2602 34.1891 17.1302C49.0091 15.4202 63.9891 15.4202 78.8091 17.1302C79.9491 17.2602 80.7691 18.2702 80.6291 19.3602C80.4991 20.3502 80.3791 21.3402 80.2491 22.3402C80.1091 23.4302 79.0991 24.2102 78.0091 24.0802C63.7191 22.4302 49.2891 22.4302 34.9991 24.0802C33.9091 24.2102 32.8991 23.4302 32.7591 22.3402C32.6291 21.3502 32.5091 20.3602 32.3791 19.3602H32.3691Z" fill="#3997E6"/>
<path opacity="0.2" d="M32.0992 61.0203C32.4892 60.0703 33.7092 59.3203 34.8092 59.3203H74.1992C75.2992 59.3203 76.5192 60.0703 76.9092 61.0203C78.8292 65.6703 80.7292 70.7503 82.5692 76.4103C82.9392 77.5703 82.3692 78.2103 81.2992 77.8403C63.9192 71.9303 45.0792 71.9303 27.6992 77.8403C26.6292 78.2103 26.0592 77.5703 26.4292 76.4103C28.2692 70.7503 30.1692 65.6703 32.0892 61.0203H32.0992Z" fill="white"/>
<path d="M26.51 28.4398C27.33 27.7798 28 28.1698 28 29.2698V53.0498C28 54.1498 27.72 55.8998 27.38 56.9498C24.47 65.8898 21.53 75.1298 18.62 83.7398C18.28 84.7498 18 84.6698 18 83.5698V38.1598C18 37.0598 18.67 35.4998 19.49 34.7098C21.82 32.4598 24.17 30.3298 26.51 28.4398Z" fill="#3997E6"/>
<path d="M83.56 28.6398C82.7 28.0298 82 28.4598 82 29.5598V54.1598C82 55.2598 82.32 56.9998 82.7 58.0398C85.89 66.5498 89.1 75.3498 92.29 83.4898C92.68 84.4798 92.99 84.3798 92.99 83.2798V38.3598C92.99 37.2598 92.29 35.7298 91.43 34.9798C88.81 32.6898 86.17 30.5198 83.55 28.6398H83.56Z" fill="#3997E6"/>
<path d="M83 132.32C85.2091 132.32 87 130.529 87 128.32C87 126.111 85.2091 124.32 83 124.32C80.7909 124.32 79 126.111 79 128.32C79 130.529 80.7909 132.32 83 132.32Z" fill="#FFEAB5"/>
<path d="M27 131.32C29.2091 131.32 31 129.529 31 127.32C31 125.111 29.2091 123.32 27 123.32C24.7909 123.32 23 125.111 23 127.32C23 129.529 24.7909 131.32 27 131.32Z" fill="#FFEAB5"/>
<path d="M74.5192 142.241C74.5992 142.781 74.1992 143.301 73.6292 143.371C61.2592 145.021 48.7292 145.021 36.3592 143.371C35.7892 143.291 35.3892 142.781 35.4692 142.241C35.5592 141.581 35.6592 140.921 35.7492 140.261C35.8292 139.721 36.3392 139.331 36.8892 139.411C48.9092 141.021 61.0792 141.021 73.0992 139.411C73.6492 139.341 74.1592 139.721 74.2392 140.261C74.3292 140.921 74.4292 141.581 74.5192 142.241Z" fill="#171C4C"/>
<path d="M30.3803 141.43C30.2803 141.97 29.7403 142.33 29.1803 142.23C26.4503 141.72 23.7303 141.13 21.0203 140.46C20.4603 140.32 20.1203 139.77 20.2503 139.24C20.4203 138.59 20.5803 137.95 20.7503 137.3C20.8903 136.77 21.4403 136.45 21.9803 136.58C24.6103 137.23 27.2503 137.81 29.9003 138.3C30.4503 138.4 30.8203 138.92 30.7203 139.47C30.6003 140.13 30.4903 140.78 30.3703 141.44L30.3803 141.43Z" fill="#171C4C"/>
<path d="M89.7502 139.23C89.8902 139.76 89.5402 140.32 88.9802 140.45C86.2802 141.12 83.5602 141.71 80.8202 142.22C80.2602 142.33 79.7202 141.96 79.6202 141.42C79.5002 140.76 79.3902 140.11 79.2702 139.45C79.1702 138.91 79.5402 138.39 80.0902 138.28C82.7402 137.78 85.3902 137.21 88.0102 136.56C88.5502 136.43 89.1102 136.75 89.2402 137.28C89.4102 137.93 89.5702 138.57 89.7402 139.22L89.7502 139.23Z" fill="#171C4C"/>
</g>
<defs>
<clipPath id="clip0_926_6126">
<rect width="107" height="145.73" fill="white" transform="translate(2 2)"/>
</clipPath>
</defs>
</svg>
