<svg width="112" height="161" viewBox="0 0 112 161" fill="none" xmlns="http://www.w3.org/2000/svg">
<path d="M12 42.9822C12 37.7283 16.1001 32.3397 21.1628 31.3197C43.8568 26.8934 67.1432 26.8934 89.8372 31.3197C94.8999 32.3397 99 37.7283 99 42.9822V144.018C99 149.272 94.8999 154.66 89.8372 155.68C67.1432 160.107 43.8568 160.107 21.1628 155.68C16.1001 154.66 12 149.272 12 144.018V42.9822Z" fill="#171C4C" fill-opacity="1"/>
<mask id="path-2-outside-1_926_6614" maskUnits="userSpaceOnUse" x="0" y="0" width="112" height="154" fill="black">
<rect fill="white" width="112" height="154"/>
<path fill-rule="evenodd" clip-rule="evenodd" d="M64.26 5.98C64.05 3.79 62.07 2 59.87 2H52.12C49.92 2 47.95 3.79 47.73 5.98L47.6971 6.31687C41.656 6.53473 35.6214 7.00577 29.61 7.73C26.32 8.12 21.68 9.95 19.31 11.71V11.7C16.93 13.46 15 17.61 15 20.9V33.2959C13.2079 34.6728 12 36.8409 12 39V40V43V57C12 59.1842 13.2105 61.3593 15 62.7271V83C15 81.9 14.1 81 13 81H12H5H4C2.9 81 2 81.9 2 83C2 83.1537 2.01757 83.3034 2.05079 83.4474C2.01744 83.6265 2 83.8112 2 84V89C2 90.6569 3.34315 92 5 92H7H12H15V94V95V96.2673C13.2079 97.6327 12 99.8073 12 102V104V127V137C12 140.27 14.68 143.49 17.96 144.06C27.5824 145.635 37.2782 146.6 46.99 146.956V150C46.99 150.55 47.44 151.06 47.99 151.12C53.31 151.72 58.68 151.72 64 151.12C64.55 151.06 65 150.55 65 150H64.99V146.919C74.3787 146.536 83.7494 145.583 93.05 144.06C96.34 143.49 99.01 140.27 99.01 137V127V104V102C99.01 99.805 97.795 97.6236 96 96.2586V95V94V92H100H105H107C108.657 92 110 90.6569 110 89V84C110 83.8112 109.983 83.6265 109.949 83.4474C109.982 83.3034 110 83.1537 110 83C110 81.9 109.1 81 108 81H107H100H99C97.9 81 97 81.9 97 83C97 83.1537 97.0176 83.3034 97.0508 83.4474C97.0174 83.6265 97 83.8112 97 84V88H96V62.7337C97.7976 61.3665 99.01 59.1901 99.01 57V43V40V39C99.01 36.8387 97.795 34.6683 96 33.2916V21.32C96 18.03 94.38 13.85 92.41 12.04C90.43 10.23 86.13 8.32 82.83 7.91C76.6697 7.12514 70.4826 6.60675 64.2865 6.35485L64.25 5.98H64.26ZM15 83V84C15 83.8112 14.9826 83.6265 14.9492 83.4474C14.9824 83.3034 15 83.1537 15 83Z"/>
</mask>
<path fill-rule="evenodd" clip-rule="evenodd" d="M64.26 5.98C64.05 3.79 62.07 2 59.87 2H52.12C49.92 2 47.95 3.79 47.73 5.98L47.6971 6.31687C41.656 6.53473 35.6214 7.00577 29.61 7.73C26.32 8.12 21.68 9.95 19.31 11.71V11.7C16.93 13.46 15 17.61 15 20.9V33.2959C13.2079 34.6728 12 36.8409 12 39V40V43V57C12 59.1842 13.2105 61.3593 15 62.7271V83C15 81.9 14.1 81 13 81H12H5H4C2.9 81 2 81.9 2 83C2 83.1537 2.01757 83.3034 2.05079 83.4474C2.01744 83.6265 2 83.8112 2 84V89C2 90.6569 3.34315 92 5 92H7H12H15V94V95V96.2673C13.2079 97.6327 12 99.8073 12 102V104V127V137C12 140.27 14.68 143.49 17.96 144.06C27.5824 145.635 37.2782 146.6 46.99 146.956V150C46.99 150.55 47.44 151.06 47.99 151.12C53.31 151.72 58.68 151.72 64 151.12C64.55 151.06 65 150.55 65 150H64.99V146.919C74.3787 146.536 83.7494 145.583 93.05 144.06C96.34 143.49 99.01 140.27 99.01 137V127V104V102C99.01 99.805 97.795 97.6236 96 96.2586V95V94V92H100H105H107C108.657 92 110 90.6569 110 89V84C110 83.8112 109.983 83.6265 109.949 83.4474C109.982 83.3034 110 83.1537 110 83C110 81.9 109.1 81 108 81H107H100H99C97.9 81 97 81.9 97 83C97 83.1537 97.0176 83.3034 97.0508 83.4474C97.0174 83.6265 97 83.8112 97 84V88H96V62.7337C97.7976 61.3665 99.01 59.1901 99.01 57V43V40V39C99.01 36.8387 97.795 34.6683 96 33.2916V21.32C96 18.03 94.38 13.85 92.41 12.04C90.43 10.23 86.13 8.32 82.83 7.91C76.6697 7.12514 70.4826 6.60675 64.2865 6.35485L64.25 5.98H64.26ZM15 83V84C15 83.8112 14.9826 83.6265 14.9492 83.4474C14.9824 83.3034 15 83.1537 15 83Z" fill="#171C4C"/>
<path d="M64.26 5.98V7.98H66.4609L66.2509 5.7891L64.26 5.98ZM47.73 5.98L45.74 5.78009L45.7394 5.78594L47.73 5.98ZM47.6971 6.31687L47.7692 8.31557L49.5179 8.25251L49.6877 6.51093L47.6971 6.31687ZM29.61 7.73L29.8454 9.7161L29.8492 9.71564L29.61 7.73ZM19.31 11.71H17.31V15.6864L20.5024 13.3157L19.31 11.71ZM19.31 11.7H21.31V7.73356L18.1208 10.0919L19.31 11.7ZM15 33.2959L16.2185 34.8818L17 34.2814V33.2959H15ZM15 62.7271H17V61.7385L16.2145 61.1381L15 62.7271ZM2.05079 83.4474L4.01699 83.8135L4.09329 83.4038L3.99957 82.9977L2.05079 83.4474ZM15 92H17V90H15V92ZM15 96.2673L16.2121 97.8582L17 97.2579V96.2673H15ZM17.96 144.06L17.6176 146.03L17.6273 146.032L17.637 146.034L17.96 144.06ZM46.99 146.956H48.99V145.028L47.0633 144.958L46.99 146.956ZM47.99 151.12L48.2141 149.133L48.2069 149.132L47.99 151.12ZM64 151.12L63.7831 149.132L63.7758 149.133L64 151.12ZM65 150H67V148H65V150ZM64.99 150H62.99V152H64.99V150ZM64.99 146.919L64.9084 144.921L62.99 144.999V146.919H64.99ZM93.05 144.06L93.3731 146.034L93.3823 146.032L93.3914 146.031L93.05 144.06ZM96 96.2586H94V97.2503L94.7894 97.8506L96 96.2586ZM96 92V90H94V92H96ZM109.949 83.4474L108 82.9976L107.907 83.4037L107.983 83.8135L109.949 83.4474ZM97.0508 83.4474L99.017 83.8135L99.0933 83.4037L98.9996 82.9976L97.0508 83.4474ZM97 88V90H99V88H97ZM96 88H94V90H96V88ZM96 62.7337L94.7892 61.1419L94 61.7421V62.7337H96ZM96 33.2916H94V34.2782L94.7829 34.8786L96 33.2916ZM92.41 12.04L93.7631 10.5672L93.7594 10.5638L92.41 12.04ZM82.83 7.91L82.5772 9.89397L82.5834 9.89474L82.83 7.91ZM64.2865 6.35485L62.296 6.54892L62.465 8.28245L64.2053 8.3532L64.2865 6.35485ZM64.25 5.98V3.98H62.0455L62.2594 6.17406L64.25 5.98ZM14.9492 83.4474L13.0004 82.9977L12.9067 83.4038L12.983 83.8135L14.9492 83.4474ZM59.87 4C61.0451 4 62.158 5.0125 62.2691 6.1709L66.2509 5.7891C65.9419 2.5675 63.0949 0 59.87 0V4ZM52.12 4H59.87V0H52.12V4ZM49.72 6.17991C49.8378 5.00669 50.9524 4 52.12 4V0C48.8876 0 46.0621 2.57331 45.74 5.78009L49.72 6.17991ZM49.6877 6.51093L49.7206 6.17406L45.7394 5.78594L45.7066 6.12281L49.6877 6.51093ZM29.8492 9.71564C35.8051 8.99811 41.7839 8.53142 47.7692 8.31557L47.6251 4.31817C41.5281 4.53804 35.4378 5.01344 29.3708 5.74436L29.8492 9.71564ZM20.5024 13.3157C21.4925 12.5804 23.0666 11.7599 24.8399 11.0703C26.6064 10.3833 28.4191 9.88518 29.8454 9.7161L29.3746 5.74391C27.5109 5.96483 25.3586 6.57673 23.3901 7.34224C21.4284 8.10511 19.4975 9.07958 18.1176 10.1043L20.5024 13.3157ZM17.31 11.7V11.71H21.31V11.7H17.31ZM17 20.9C17 19.611 17.3883 18.0409 18.0743 16.5731C18.767 15.0913 19.6629 13.9265 20.4992 13.3081L18.1208 10.0919C16.5771 11.2335 15.318 13.0237 14.4507 14.8794C13.5767 16.7491 13 18.899 13 20.9H17ZM17 33.2959V20.9H13V33.2959H17ZM14 39C14 37.5572 14.8386 35.942 16.2185 34.8818L13.7815 31.7099C11.5772 33.4035 10 36.1246 10 39H14ZM14 40V39H10V40H14ZM14 43V40H10V43H14ZM14 57V43H10V57H14ZM16.2145 61.1381C14.8458 60.092 14 58.4733 14 57H10C10 59.8951 11.5751 62.6267 13.7855 64.3162L16.2145 61.1381ZM17 83V62.7271H13V83H17ZM13 83H17C17 80.7954 15.2046 79 13 79V83ZM12 83H13V79H12V83ZM5 83H12V79H5V83ZM4 83H5V79H4V83ZM4 83V79C1.79543 79 0 80.7954 0 83H4ZM3.99957 82.9977C4.00004 82.9997 4 83.0008 4 83H0C0 83.3066 0.0350912 83.6072 0.102012 83.8971L3.99957 82.9977ZM4 84C4 83.9346 4.00601 83.8725 4.01699 83.8135L0.0845831 83.0813C0.0288595 83.3806 0 83.6878 0 84H4ZM4 89V84H0V89H4ZM5 90C4.44772 90 4 89.5523 4 89H0C0 91.7614 2.23858 94 5 94V90ZM7 90H5V94H7V90ZM12 90H7V94H12V90ZM15 90H12V94H15V90ZM17 94V92H13V94H17ZM17 95V94H13V95H17ZM17 96.2673V95H13V96.2673H17ZM14 102C14 100.516 14.8454 98.8994 16.2121 97.8582L13.7879 94.6764C11.5704 96.3659 10 99.0988 10 102H14ZM14 104V102H10V104H14ZM14 127V104H10V127H14ZM14 137V127H10V137H14ZM18.3024 142.09C15.982 141.686 14 139.299 14 137H10C10 141.241 13.378 145.294 17.6176 146.03L18.3024 142.09ZM47.0633 144.958C37.4351 144.605 27.8227 143.647 18.283 142.086L17.637 146.034C27.3422 147.622 37.1213 148.596 46.9167 148.955L47.0633 144.958ZM48.99 150V146.956H44.99V150H48.99ZM48.2069 149.132C48.4822 149.162 48.6705 149.294 48.778 149.414C48.8849 149.535 48.99 149.731 48.99 150H44.99C44.99 151.556 46.1941 152.936 47.7731 153.108L48.2069 149.132ZM63.7758 149.133C58.6048 149.716 53.3852 149.716 48.2141 149.133L47.7658 153.107C53.2348 153.724 58.7552 153.724 64.2241 153.107L63.7758 149.133ZM63 150C63 149.731 63.105 149.535 63.2119 149.414C63.3195 149.294 63.5078 149.162 63.7831 149.132L64.2169 153.108C65.7958 152.936 67 151.556 67 150H63ZM64.99 152H65V148H64.99V152ZM62.99 146.919V150H66.99V146.919H62.99ZM92.7269 142.086C83.5063 143.596 74.2163 144.541 64.9084 144.921L65.0716 148.917C74.5411 148.531 83.9924 147.57 93.3731 146.034L92.7269 142.086ZM97.01 137C97.01 139.302 95.0357 141.686 92.7086 142.089L93.3914 146.031C97.6443 145.294 101.01 141.238 101.01 137H97.01ZM97.01 127V137H101.01V127H97.01ZM97.01 104V127H101.01V104H97.01ZM97.01 102V104H101.01V102H97.01ZM94.7894 97.8506C96.1592 98.8923 97.01 100.515 97.01 102H101.01C101.01 99.0948 99.4308 96.355 97.2106 94.6666L94.7894 97.8506ZM94 95V96.2586H98V95H94ZM94 94V95H98V94H94ZM94 92V94H98V92H94ZM100 90H96V94H100V90ZM105 90H100V94H105V90ZM107 90H105V94H107V90ZM108 89C108 89.5523 107.552 90 107 90V94C109.761 94 112 91.7614 112 89H108ZM108 84V89H112V84H108ZM107.983 83.8135C107.994 83.8725 108 83.9347 108 84H112C112 83.6878 111.971 83.3805 111.915 83.0813L107.983 83.8135ZM108 83C108 83.0008 108 82.9997 108 82.9976L111.898 83.8972C111.965 83.6072 112 83.3065 112 83H108ZM108 83H112C112 80.7954 110.205 79 108 79V83ZM107 83H108V79H107V83ZM100 83H107V79H100V83ZM99 83H100V79H99V83ZM99 83V79C96.7954 79 95 80.7954 95 83H99ZM98.9996 82.9976C99 82.9997 99 83.0008 99 83H95C95 83.3065 95.0351 83.6072 95.102 83.8972L98.9996 82.9976ZM99 84C99 83.9347 99.006 83.8725 99.017 83.8135L95.0846 83.0813C95.0289 83.3805 95 83.6878 95 84H99ZM99 88V84H95V88H99ZM96 90H97V86H96V90ZM94 62.7337V88H98V62.7337H94ZM97.01 57C97.01 58.4786 96.1629 60.0971 94.7892 61.1419L97.2108 64.3256C99.4323 62.6359 101.01 59.9015 101.01 57H97.01ZM97.01 43V57H101.01V43H97.01ZM97.01 40V43H101.01V40H97.01ZM97.01 39V40H101.01V39H97.01ZM94.7829 34.8786C96.1672 35.9403 97.01 37.5581 97.01 39H101.01C101.01 36.1193 99.4228 33.3962 97.2171 31.7046L94.7829 34.8786ZM94 21.32V33.2916H98V21.32H94ZM91.0569 13.5128C91.73 14.1312 92.4866 15.3174 93.0786 16.847C93.6607 18.3507 94 19.9717 94 21.32H98C98 19.3783 97.5293 17.2643 96.8089 15.4031C96.0984 13.5676 95.06 11.7588 93.7631 10.5672L91.0569 13.5128ZM82.5834 9.89474C83.9938 10.07 85.7051 10.5825 87.317 11.2839C88.9455 11.9925 90.2958 12.8171 91.0606 13.5162L93.7594 10.5638C92.5442 9.45294 90.7546 8.41747 88.913 7.61612C87.0549 6.80754 84.9662 6.16003 83.0766 5.92526L82.5834 9.89474ZM64.2053 8.3532C70.3441 8.60277 76.4739 9.11636 82.5772 9.89397L83.0828 5.92604C76.8654 5.13391 70.6211 4.61073 64.3678 4.35651L64.2053 8.3532ZM62.2594 6.17406L62.296 6.54892L66.2771 6.16079L66.2406 5.78594L62.2594 6.17406ZM64.26 3.98H64.25V7.98H64.26V3.98ZM17 84V83H13V84H17ZM12.983 83.8135C12.994 83.8725 13 83.9346 13 84H17C17 83.6878 16.9711 83.3806 16.9154 83.0813L12.983 83.8135ZM13 83C13 83.0008 13 82.9997 13.0004 82.9977L16.898 83.8971C16.9649 83.6072 17 83.3066 17 83H13Z" fill="#171C4C" mask="url(#path-2-outside-1_926_6614)"/>
<path d="M12 103.999C12 100.729 14.67 97.5092 17.96 96.9392C42.82 92.8692 68.18 92.8692 93.05 96.9392C96.33 97.5092 99.01 100.729 99.01 103.999V136.999C99.01 140.269 96.34 143.489 93.05 144.059C68.19 148.129 42.83 148.129 17.96 144.059C14.68 143.489 12 140.269 12 136.999V103.999Z" fill="#2A2E5E"/>
<path d="M65.0002 150C65.0002 150.55 64.5502 151.06 64.0002 151.12C58.6802 151.72 53.3102 151.72 47.9902 151.12C47.4402 151.06 46.9902 150.55 46.9902 150V144C46.9902 143.45 47.4402 143 47.9902 143H63.9902C64.5402 143 64.9902 143.45 64.9902 144V150H65.0002Z" fill="#A7A7C4"/>
<path d="M12 101.999C12 98.7392 14.67 95.5192 17.96 94.9392C42.82 90.8692 68.18 90.8692 93.05 94.9392C96.33 95.5092 99.01 98.7392 99.01 101.999V126.999C99.01 130.259 96.34 133.479 93.05 134.059C68.19 138.129 42.83 138.129 17.96 134.059C14.68 133.489 12 130.259 12 126.999V101.999Z" fill="#3D406F"/>
<path d="M12 39.9992C12 36.7492 14.67 33.5292 17.96 32.9392C42.82 28.8692 68.18 28.8692 93.05 32.9392C96.33 33.5192 99.01 36.7492 99.01 39.9992V56.9992C99.01 60.2492 96.34 63.4692 93.05 64.0592C68.19 68.1292 42.83 68.1292 17.96 64.0592C14.68 63.4792 12 60.2492 12 56.9992V39.9992Z" fill="#2A2E5E"/>
<path d="M12 38.9992C12 35.7892 14.67 32.5592 17.96 31.9392C42.82 27.8692 68.18 27.8692 93.05 31.9392C96.33 32.5592 99.01 35.7892 99.01 38.9992V42.9992C99.01 46.2092 96.34 49.4392 93.05 50.0592C68.19 54.1292 42.83 54.1292 17.96 50.0592C14.68 49.4392 12 46.2092 12 42.9992V38.9992Z" fill="#3D406F"/>
<path d="M19.31 11.7095C21.68 9.94951 26.32 8.11951 29.61 7.72951C47.29 5.59951 65.17 5.65951 82.83 7.90951C86.13 8.31951 90.43 10.2295 92.41 12.0395C94.38 13.8495 96 18.0295 96 21.3195V123C96 126.29 93.32 129.51 90.04 130.05C67.16 133.75 43.83 133.75 20.96 130.05C17.68 129.51 15 126.29 15 123V20.8995C15 17.6095 16.93 13.4595 19.31 11.6995V11.7095Z" fill="#F09300"/>
<path d="M26 16.0001C26 13.8101 27.79 11.7801 29.99 11.5301C46.95 9.68008 64.06 9.68008 81.02 11.5301C83.21 11.7801 85.01 13.8101 85.01 16.0001V42.0001C85.01 44.1901 83.22 46.2201 81.02 46.4701C64.06 48.3201 46.95 48.3201 29.99 46.4701C27.8 46.2201 26 44.1901 26 42.0001V16.0001Z" fill="#FFC655"/>
<path d="M83 121C85.2091 121 87 119.209 87 117C87 114.791 85.2091 113 83 113C80.7909 113 79 114.791 79 117C79 119.209 80.7909 121 83 121Z" fill="#FFC655"/>
<path d="M27 121C29.2091 121 31 119.209 31 117C31 114.791 29.2091 113 27 113C24.7909 113 23 114.791 23 117C23 119.209 24.7909 121 27 121Z" fill="#FFC655"/>
<path d="M90.02 91.2998C67.07 88.8298 43.93 88.8298 20.98 91.2998C17.69 91.6798 15 94.7298 15 97.9998V114C15 117.27 17.69 120.31 20.98 120.7C22.98 120.92 24.99 121.11 27 121.28V110H83V121.37C85.34 121.17 87.68 120.95 90.02 120.7C93.31 120.32 96 117.27 96 114V97.9998C96 94.7298 93.31 91.6898 90.02 91.2998Z" fill="#FFC655"/>
<path d="M90.02 88.2998C67.07 85.8298 43.93 85.8298 20.98 88.2998C17.69 88.6798 15 91.7298 15 94.9998V111C15 114.27 17.69 117.31 20.98 117.7C22.98 117.92 24.99 118.11 27 118.28V107H83V118.37C85.34 118.17 87.68 117.95 90.02 117.7C93.31 117.32 96 114.27 96 111V94.9998C96 91.7298 93.31 88.6898 90.02 88.2998Z" fill="#FFEAB5"/>
<path d="M68.9998 125C68.9998 126.09 68.0998 127.11 67.0098 127.23C60.3598 127.93 53.6498 127.93 46.9998 127.23C45.8998 127.11 45.0098 126.09 45.0098 125V118C45.0098 116.9 45.9098 116 47.0098 116H67.0098C68.1098 116 69.0098 116.91 69.0098 118V125H68.9998Z" fill="#2A2E5E"/>
<path d="M15 93.9998C15 90.7498 17.69 87.6998 20.98 87.2998C43.93 84.8298 67.07 84.8298 90.02 87.2998C93.31 87.6998 96 90.7498 96 93.9998V103C96 106.25 93.31 109.3 90.02 109.7C67.07 112.17 43.93 112.17 20.98 109.7C17.69 109.3 15 106.26 15 103V93.9998Z" fill="#FFC655"/>
<path d="M12 81H5C3.34315 81 2 82.3431 2 84V89C2 90.6569 3.34315 92 5 92H12C13.6569 92 15 90.6569 15 89V84C15 82.3431 13.6569 81 12 81Z" fill="#2A2E5E"/>
<path d="M19 90C19 91.1 18.1 92 17 92H7C5.9 92 5 91.1 5 90C5 88.9 5.9 88 7 88H17C18.1 88 19 88.9 19 90Z" fill="#2A2E5E"/>
<path d="M15 83C15 84.1 14.1 85 13 85H4C2.9 85 2 84.1 2 83C2 81.9 2.9 81 4 81H13C14.1 81 15 81.9 15 83Z" fill="#3D406F"/>
<path d="M107 81H100C98.3431 81 97 82.3431 97 84V89C97 90.6569 98.3431 92 100 92H107C108.657 92 110 90.6569 110 89V84C110 82.3431 108.657 81 107 81Z" fill="#2A2E5E"/>
<path d="M93 90C93 91.1 93.9 92 95 92H105C106.1 92 107 91.1 107 90C107 88.9 106.1 88 105 88H95C93.9 88 93 88.9 93 90Z" fill="#2A2E5E"/>
<path d="M97 83C97 84.1 97.9 85 99 85H108C109.1 85 110 84.1 110 83C110 81.9 109.1 81 108 81H99C97.9 81 97 81.9 97 83Z" fill="#3D406F"/>
<path d="M25.3 56.01C25.44 54.91 26.46 54 27.56 54H83.83C84.93 54 85.95 54.91 86.09 56.01C87.57 67.5 89.05 78.85 90.51 90.02C90.65 91.09 89.87 92.08 88.77 92.22C66.79 94.85 44.58 94.85 22.6 92.22C21.5 92.09 20.72 91.1 20.86 90.02C22.33 78.85 23.81 67.5 25.28 56.01H25.3Z" fill="#2A2E5E"/>
<path d="M24.8903 54.01C25.0403 52.91 26.0603 52 27.1603 52H84.2303C85.3303 52 86.3503 52.91 86.5003 54.01C87.9903 65.17 89.4703 76.18 90.9503 87.02C91.1003 88.09 90.3203 89.08 89.2203 89.21C66.9503 91.88 44.4403 91.88 22.1703 89.21C21.0703 89.08 20.3003 88.09 20.4403 87.02C21.9203 76.18 23.4003 65.17 24.8903 54.01Z" fill="#3997E6"/>
<path d="M27.67 55.9001C27.83 54.8401 28.86 53.9901 29.96 54.0001H81.64C82.74 54.0001 83.77 54.8401 83.93 55.9001C84.67 60.7401 85.4 65.7701 86.11 71.0101C86.26 72.1601 85.52 72.7801 84.45 72.4101C65.87 66.1401 45.74 66.1401 27.16 72.4101C26.09 72.7801 25.34 72.1601 25.5 71.0101C26.21 65.7701 26.94 60.7401 27.68 55.9001H27.67Z" fill="#60ABEB"/>
<path d="M91 18.5999C89.9 18.5799 89 19.5699 89 20.6699V37.9899C89 39.0899 89.23 40.8599 89.5 41.9399C90.83 47.0599 92.16 52.2599 93.49 57.2199C93.77 58.2599 94 58.1999 93.99 57.0999V20.8699C93.99 19.7699 93.09 18.7099 91.99 18.6399C91.66 18.6199 91.32 18.5999 90.98 18.5999H91Z" fill="#3997E6"/>
<path d="M89.7194 51.2208C89.4294 50.1908 89.3094 50.2308 89.4594 51.3008C90.8794 62.0408 92.3194 73.2708 93.7494 84.0408C93.8894 85.1208 94.0094 85.0908 94.0094 83.9908V68.9908C94.0094 67.8908 93.7694 66.1208 93.4894 65.0508C92.2394 60.4108 90.9794 55.6908 89.7294 51.2108L89.7194 51.2208Z" fill="#3997E6"/>
<path d="M21.0001 18.5999C22.1001 18.5799 23.0001 19.5699 23.0001 20.6699V37.9899C23.0001 39.0899 22.7701 40.8599 22.5001 41.9399C21.1701 47.0599 19.8401 52.2599 18.5101 57.2199C18.2301 58.2599 18.0001 58.1999 18.0101 57.0999V20.8699C18.0101 19.7699 18.9101 18.7099 20.0101 18.6399C20.3401 18.6199 20.6801 18.5999 21.0201 18.5999H21.0001Z" fill="#3997E6"/>
<path d="M22.2802 51.2208C22.5702 50.1908 22.6902 50.2308 22.5402 51.3008C21.1202 62.0408 19.6802 73.2708 18.2502 84.0408C18.1102 85.1208 17.9902 85.0908 17.9902 83.9908V68.9908C17.9902 67.8908 18.2202 66.1208 18.5102 65.0508C19.7602 60.4108 21.0202 55.6908 22.2702 51.2108L22.2802 51.2208Z" fill="#3997E6"/>
<path d="M83 119C85.2091 119 87 117.209 87 115C87 112.791 85.2091 111 83 111C80.7909 111 79 112.791 79 115C79 117.209 80.7909 119 83 119Z" fill="#FFEAB5"/>
<path d="M27 118C29.2091 118 31 116.209 31 114C31 111.791 29.2091 110 27 110C24.7909 110 23 111.791 23 114C23 116.209 24.7909 118 27 118Z" fill="#FFEAB5"/>
<path d="M64.2602 5.98C64.0502 3.79 62.0702 2 59.8702 2H52.1202C49.9202 2 47.9502 3.79 47.7302 5.98L47.3802 9.57C47.1702 11.76 46.9902 15.35 46.9902 17.55V31C46.9902 33.2 48.7902 35 50.9902 35H60.9902C63.1902 35 64.9902 33.2 64.9902 31V17.55C64.9902 15.35 64.8202 11.76 64.6002 9.57L64.2502 5.98H64.2602Z" fill="#C0C9E2"/>
<path d="M62.19 5.91008C62.13 4.80008 61.18 3.78008 60.07 3.70008C57.68 3.54008 55.28 3.54008 52.88 3.70008C51.78 3.78008 50.83 4.80008 50.76 5.91008C50.47 10.9901 50.17 16.0301 49.88 21.0001C49.82 22.0801 50.66 23.1001 51.76 23.2001C54.89 23.4801 58.05 23.4801 61.18 23.2001C62.28 23.1001 63.12 22.0901 63.06 21.0001C62.77 16.0301 62.47 10.9901 62.18 5.91008H62.19Z" fill="white"/>
</svg>
