<svg width="112" height="177" viewBox="0 0 112 177" fill="none" xmlns="http://www.w3.org/2000/svg">
<path d="M14 55.073C14 49.7246 18.041 44.2391 23.0307 43.2105C44.4945 38.9298 66.5055 38.9298 87.9693 43.2105C92.959 44.2391 97 49.7246 97 55.073V157.927C97 163.275 92.959 168.761 87.9693 169.789C66.5055 174.07 44.4945 174.07 23.0307 169.789C18.041 168.761 14 163.275 14 157.927V55.073Z" fill="#171C4C" fill-opacity="1"/>
<path d="M22.8351 42.2298L22.8351 42.2298L22.8288 42.2311C20.0455 42.8048 17.5918 44.6025 15.8455 46.92C14.0977 49.2396 13 52.1553 13 55.073V157.927C13 160.845 14.0977 163.76 15.8455 166.08C17.5918 168.397 20.0455 170.195 22.8288 170.769L22.8351 170.77C44.428 175.077 66.572 175.077 88.1649 170.77L88.1712 170.769C90.9545 170.195 93.4082 168.397 95.1544 166.08C96.9023 163.76 98 160.845 98 157.927V55.073C98 52.1553 96.9023 49.2396 95.1544 46.92C93.4082 44.6025 90.9545 42.8048 88.1712 42.2311L88.1649 42.2298C66.572 37.9234 44.428 37.9234 22.8351 42.2298Z" stroke="#171C4C" stroke-opacity="1" stroke-width="2"/>
<mask id="path-3-outside-1_926_6330" maskUnits="userSpaceOnUse" x="0" y="0" width="111" height="170" fill="black">
<rect fill="white" width="111" height="170"/>
<path fill-rule="evenodd" clip-rule="evenodd" d="M92.09 7.38947C94.25 8.02947 96 10.4195 96 12.6095V29.4459C97.795 30.8087 99.01 32.9877 99.01 35.1895V58.1895V66.1895C99.01 68.393 97.7976 70.5738 96 71.9364L96 92.1883C96.0007 91.0888 96.9004 90.1895 98 90.1895H99H106H107C108.1 90.1895 109 91.0895 109 92.1895C109 92.3432 108.982 92.4929 108.949 92.6369C108.983 92.816 109 93.0007 109 93.1895V98.1895C109 99.8463 107.657 101.189 106 101.189H105H99H97.2055C97.2479 101.519 97.2635 101.853 97.25 102.189C97.1612 104.441 97.0705 106.697 96.9796 108.96L96.9753 109.068L96.9745 109.087C96.8832 111.36 96.7916 113.638 96.7013 115.924C98.0941 117.368 98.99 119.306 98.99 121.189V122.189V142.189V152.189C98.99 155.439 96.33 158.839 93.07 159.599C83.4769 161.712 73.7487 163.006 63.99 163.48V166.189H64C64 166.739 63.55 167.249 63 167.309C57.68 167.909 52.31 167.909 46.99 167.309C46.44 167.249 45.99 166.739 45.99 166.189V163.428C36.5702 162.915 27.1821 161.639 17.92 159.599C14.65 158.839 12 155.439 12 152.189V142.189V122.189V121.189C12 119.312 12.8934 117.38 14.2792 115.938C14.193 113.759 14.1056 111.584 14.0184 109.413L14.0183 109.41C13.9214 106.999 13.8247 104.592 13.73 102.189C13.7166 101.853 13.7322 101.519 13.7746 101.189H12H6H5C3.34315 101.189 2 99.8463 2 98.1895V93.1895C2 93.0007 2.01744 92.816 2.05079 92.6369C2.01757 92.4929 2 92.3432 2 92.1895C2 91.0895 2.9 90.1895 4 90.1895H5H12H13C14.1 90.1895 15 91.0895 15 92.1895C15 92.3432 14.9824 92.4929 14.9492 92.6369C14.9826 92.816 15 93.0007 15 93.1895V97.1895H15.01V71.933C13.215 70.5703 12 68.3912 12 66.1895V58.1895V35.1895C12 32.9859 13.2124 30.8051 15.01 29.4426V12.1895C15.01 9.99947 16.76 7.62947 18.92 7.00947C42.81 0.189472 68.2 0.349472 92.09 7.38947ZM96 93.1865V92.1907C96.0001 92.3439 96.0177 92.4933 96.0508 92.6369C96.0176 92.815 96.0002 92.9987 96 93.1865Z"/>
</mask>
<path fill-rule="evenodd" clip-rule="evenodd" d="M92.09 7.38947C94.25 8.02947 96 10.4195 96 12.6095V29.4459C97.795 30.8087 99.01 32.9877 99.01 35.1895V58.1895V66.1895C99.01 68.393 97.7976 70.5738 96 71.9364L96 92.1883C96.0007 91.0888 96.9004 90.1895 98 90.1895H99H106H107C108.1 90.1895 109 91.0895 109 92.1895C109 92.3432 108.982 92.4929 108.949 92.6369C108.983 92.816 109 93.0007 109 93.1895V98.1895C109 99.8463 107.657 101.189 106 101.189H105H99H97.2055C97.2479 101.519 97.2635 101.853 97.25 102.189C97.1612 104.441 97.0705 106.697 96.9796 108.96L96.9753 109.068L96.9745 109.087C96.8832 111.36 96.7916 113.638 96.7013 115.924C98.0941 117.368 98.99 119.306 98.99 121.189V122.189V142.189V152.189C98.99 155.439 96.33 158.839 93.07 159.599C83.4769 161.712 73.7487 163.006 63.99 163.48V166.189H64C64 166.739 63.55 167.249 63 167.309C57.68 167.909 52.31 167.909 46.99 167.309C46.44 167.249 45.99 166.739 45.99 166.189V163.428C36.5702 162.915 27.1821 161.639 17.92 159.599C14.65 158.839 12 155.439 12 152.189V142.189V122.189V121.189C12 119.312 12.8934 117.38 14.2792 115.938C14.193 113.759 14.1056 111.584 14.0184 109.413L14.0183 109.41C13.9214 106.999 13.8247 104.592 13.73 102.189C13.7166 101.853 13.7322 101.519 13.7746 101.189H12H6H5C3.34315 101.189 2 99.8463 2 98.1895V93.1895C2 93.0007 2.01744 92.816 2.05079 92.6369C2.01757 92.4929 2 92.3432 2 92.1895C2 91.0895 2.9 90.1895 4 90.1895H5H12H13C14.1 90.1895 15 91.0895 15 92.1895C15 92.3432 14.9824 92.4929 14.9492 92.6369C14.9826 92.816 15 93.0007 15 93.1895V97.1895H15.01V71.933C13.215 70.5703 12 68.3912 12 66.1895V58.1895V35.1895C12 32.9859 13.2124 30.8051 15.01 29.4426V12.1895C15.01 9.99947 16.76 7.62947 18.92 7.00947C42.81 0.189472 68.2 0.349472 92.09 7.38947ZM96 93.1865V92.1907C96.0001 92.3439 96.0177 92.4933 96.0508 92.6369C96.0176 92.815 96.0002 92.9987 96 93.1865Z" fill="#171C4C"/>
<path d="M92.09 7.38947L92.6582 5.47187L92.6553 5.47104L92.09 7.38947ZM96 29.4459H94V30.4386L94.7907 31.0389L96 29.4459ZM96 71.9364L94.7919 70.3425L94 70.9427L94 71.9364L96 71.9364ZM96 92.1883L94 92.1883L98 92.1895L96 92.1883ZM108.949 92.6369L107 92.1871L106.907 92.5932L106.983 93.0029L108.949 92.6369ZM97.2055 101.189V99.1895H94.931L95.2219 101.445L97.2055 101.189ZM97.25 102.189L95.2516 102.11L95.2516 102.111L97.25 102.189ZM96.9796 108.96L94.9812 108.879L94.9812 108.879L96.9796 108.96ZM96.9753 109.068L98.9736 109.149L98.9737 109.148L96.9753 109.068ZM96.9745 109.087L94.9762 109.005L94.9761 109.007L96.9745 109.087ZM96.7013 115.924L94.7029 115.845L94.6692 116.698L95.262 117.313L96.7013 115.924ZM93.07 159.599L93.5001 161.553L93.5121 161.55L93.5241 161.547L93.07 159.599ZM63.99 163.48L63.8928 161.483L61.99 161.575V163.48H63.99ZM63.99 166.189H61.99V168.189H63.99V166.189ZM64 166.189H66V164.189H64V166.189ZM63 167.309L62.7831 165.321L62.7758 165.322L63 167.309ZM46.99 167.309L47.2141 165.322L47.2069 165.321L46.99 167.309ZM45.99 163.428H47.99V161.534L46.0988 161.431L45.99 163.428ZM17.92 159.599L17.4672 161.548L17.4786 161.55L17.4899 161.553L17.92 159.599ZM14.2792 115.938L15.7213 117.324L16.3113 116.71L16.2776 115.859L14.2792 115.938ZM14.0184 109.413L12.02 109.493L12.02 109.494L14.0184 109.413ZM14.0183 109.41L16.0167 109.331L16.0167 109.33L14.0183 109.41ZM13.73 102.189L15.7285 102.111L15.7284 102.11L13.73 102.189ZM13.7746 101.189L15.7582 101.445L16.0491 99.1895H13.7746V101.189ZM2.05079 92.6369L4.01699 93.003L4.09329 92.5932L3.99957 92.1871L2.05079 92.6369ZM14.9492 92.6369L13.0004 92.1871L12.9067 92.5932L12.983 93.003L14.9492 92.6369ZM15 97.1895H13V99.1895H15V97.1895ZM15.01 97.1895V99.1895H17.01V97.1895H15.01ZM15.01 71.933H17.01V70.9403L16.2193 70.3401L15.01 71.933ZM15.01 29.4426L16.2181 31.0364L17.01 30.4362V29.4426H15.01ZM18.92 7.00947L18.371 5.0863L18.3682 5.0871L18.92 7.00947ZM96 92.1907L98 92.1895L94 92.1907H96ZM96 93.1865H94L98 93.1884L96 93.1865ZM96.0508 92.6369L98.017 93.003L98.0933 92.5932L97.9996 92.1872L96.0508 92.6369ZM98 12.6095C98 11.0036 97.371 9.44981 96.4598 8.22464C95.5473 6.9977 94.2308 5.93784 92.6582 5.47188L91.5218 9.30707C92.1092 9.4811 92.7478 9.93624 93.2502 10.6118C93.754 11.2891 94 12.0254 94 12.6095H98ZM98 29.4459V12.6095H94V29.4459H98ZM101.01 35.1895C101.01 32.278 99.4312 29.5398 97.2094 27.853L94.7907 31.0389C96.1588 32.0776 97.01 33.6975 97.01 35.1895H101.01ZM101.01 58.1895V35.1895H97.01V58.1895H101.01ZM101.01 66.1895V58.1895H97.01V66.1895H101.01ZM97.2081 73.5302C99.4355 71.8419 101.01 69.1008 101.01 66.1895H97.01C97.01 67.6852 96.1597 69.3057 94.7919 70.3425L97.2081 73.5302ZM98 92.1883L98 71.9364L94 71.9364L94 92.1883L98 92.1883ZM98 88.1895C95.7962 88.1895 94.0013 89.9836 94 92.1871L98 92.1895L98 92.1895V88.1895ZM99 88.1895H98V92.1895H99V88.1895ZM106 88.1895H99V92.1895H106V88.1895ZM107 88.1895H106V92.1895H107V88.1895ZM111 92.1895C111 89.9849 109.205 88.1895 107 88.1895V92.1895H111ZM110.898 93.0867C110.965 92.7966 111 92.496 111 92.1895H107C107 92.1903 107 92.1892 107 92.1871L110.898 93.0867ZM111 93.1895C111 92.8773 110.971 92.57 110.915 92.2708L106.983 93.0029C106.994 93.062 107 93.1241 107 93.1895H111ZM111 98.1895V93.1895H107V98.1895H111ZM106 103.189C108.761 103.189 111 100.951 111 98.1895H107C107 98.7418 106.552 99.1895 106 99.1895V103.189ZM105 103.189H106V99.1895H105V103.189ZM99 103.189H105V99.1895H99V103.189ZM97.2055 103.189H99V99.1895H97.2055V103.189ZM99.2484 102.269C99.2665 101.818 99.2455 101.372 99.189 100.934L95.2219 101.445C95.2503 101.666 95.2605 101.888 95.2516 102.11L99.2484 102.269ZM98.978 109.04C99.0689 106.777 99.1596 104.52 99.2485 102.268L95.2516 102.111C95.1628 104.361 95.0722 106.617 94.9812 108.879L98.978 109.04ZM98.9737 109.148L98.978 109.04L94.9812 108.879L94.9769 108.988L98.9737 109.148ZM98.9728 109.168L98.9736 109.149L94.9769 108.986L94.9762 109.005L98.9728 109.168ZM98.6998 116.003C98.79 113.718 98.8816 111.44 98.9729 109.167L94.9761 109.007C94.8848 111.279 94.7932 113.559 94.7029 115.845L98.6998 116.003ZM100.99 121.189C100.99 118.698 99.8256 116.282 98.1406 114.535L95.262 117.313C96.3626 118.453 96.99 119.913 96.99 121.189H100.99ZM100.99 122.189V121.189H96.99V122.189H100.99ZM100.99 142.189V122.189H96.99V142.189H100.99ZM100.99 152.189V142.189H96.99V152.189H100.99ZM93.5241 161.547C95.6676 161.048 97.5169 159.712 98.819 158.072C100.12 156.433 100.99 154.344 100.99 152.189H96.99C96.99 153.285 96.5304 154.521 95.686 155.585C94.8431 156.647 93.7324 157.391 92.6159 157.652L93.5241 161.547ZM64.0872 165.478C73.9575 164.998 83.7972 163.689 93.5001 161.553L92.6399 157.646C83.1567 159.734 73.5398 161.013 63.8928 161.483L64.0872 165.478ZM65.99 166.189V163.48H61.99V166.189H65.99ZM64 164.189H63.99V168.189H64V164.189ZM63.2169 169.298C64.7958 169.125 66 167.746 66 166.189H62C62 165.921 62.105 165.724 62.2119 165.604C62.3195 165.483 62.5078 165.351 62.7831 165.321L63.2169 169.298ZM46.7658 169.297C52.2348 169.914 57.7552 169.914 63.2241 169.297L62.7758 165.322C57.6048 165.905 52.3852 165.905 47.2141 165.322L46.7658 169.297ZM43.99 166.189C43.99 167.746 45.1941 169.125 46.7731 169.298L47.2069 165.321C47.4822 165.351 47.6705 165.483 47.778 165.604C47.8849 165.724 47.99 165.921 47.99 166.189H43.99ZM43.99 163.428V166.189H47.99V163.428H43.99ZM17.4899 161.553C26.858 163.616 36.3536 164.906 45.8812 165.425L46.0988 161.431C36.7867 160.924 27.5061 159.662 18.3501 157.646L17.4899 161.553ZM10 152.189C10 154.342 10.8665 156.431 12.1665 158.071C13.4682 159.713 15.3185 161.048 17.4672 161.548L18.3728 157.651C17.2515 157.391 16.1418 156.646 15.301 155.586C14.4585 154.523 14 153.287 14 152.189H10ZM10 142.189V152.189H14V142.189H10ZM10 122.189V142.189H14V122.189H10ZM10 121.189V122.189H14V121.189H10ZM12.8371 114.552C11.1621 116.295 10 118.704 10 121.189H14C14 119.92 14.6246 118.465 15.7213 117.324L12.8371 114.552ZM12.02 109.494C12.1072 111.664 12.1946 113.839 12.2808 116.017L16.2776 115.859C16.1914 113.679 16.104 111.504 16.0168 109.333L12.02 109.494ZM12.0199 109.49L12.02 109.493L16.0168 109.334L16.0167 109.331L12.0199 109.49ZM11.7316 102.268C11.8263 104.672 11.923 107.079 12.0199 109.491L16.0167 109.33C15.9198 106.918 15.8231 104.512 15.7285 102.111L11.7316 102.268ZM11.7911 100.934C11.7346 101.372 11.7136 101.818 11.7316 102.269L15.7284 102.11C15.7196 101.888 15.7298 101.666 15.7582 101.445L11.7911 100.934ZM12 103.189H13.7746V99.1895H12V103.189ZM6 103.189H12V99.1895H6V103.189ZM5 103.189H6V99.1895H5V103.189ZM0 98.1895C0 100.951 2.23858 103.189 5 103.189V99.1895C4.44772 99.1895 4 98.7418 4 98.1895H0ZM0 93.1895V98.1895H4V93.1895H0ZM0.0845831 92.2708C0.0288595 92.57 0 92.8773 0 93.1895H4C4 93.1241 4.00601 93.0619 4.01699 93.003L0.0845831 92.2708ZM0 92.1895C0 92.496 0.0350912 92.7966 0.102012 93.0866L3.99957 92.1871C4.00004 92.1892 4 92.1903 4 92.1895H0ZM4 88.1895C1.79543 88.1895 0 89.9849 0 92.1895H4V88.1895ZM5 88.1895H4V92.1895H5V88.1895ZM12 88.1895H5V92.1895H12V88.1895ZM13 88.1895H12V92.1895H13V88.1895ZM17 92.1895C17 89.9849 15.2046 88.1895 13 88.1895V92.1895H17ZM16.898 93.0866C16.9649 92.7966 17 92.496 17 92.1895H13C13 92.1903 13 92.1892 13.0004 92.1871L16.898 93.0866ZM17 93.1895C17 92.8773 16.9711 92.57 16.9154 92.2708L12.983 93.003C12.994 93.0619 13 93.1241 13 93.1895H17ZM17 97.1895V93.1895H13V97.1895H17ZM15.01 95.1895H15V99.1895H15.01V95.1895ZM13.01 71.933V97.1895H17.01V71.933H13.01ZM10 66.1895C10 69.1009 11.5788 71.8392 13.8007 73.526L16.2193 70.3401C14.8512 69.3014 14 67.6815 14 66.1895H10ZM10 58.1895V66.1895H14V58.1895H10ZM10 35.1895V58.1895H14V35.1895H10ZM13.8019 27.8487C11.5745 29.537 10 32.2781 10 35.1895H14C14 33.6937 14.8503 32.0732 16.2181 31.0364L13.8019 27.8487ZM13.01 12.1895V29.4426H17.01V12.1895H13.01ZM18.3682 5.0871C16.7919 5.53956 15.4708 6.58907 14.5548 7.81106C13.6399 9.03145 13.01 10.5824 13.01 12.1895H17.01C17.01 11.6065 17.2552 10.8775 17.7553 10.2104C18.2542 9.54487 18.8881 9.09939 19.4718 8.93185L18.3682 5.0871ZM92.6553 5.47104C68.4051 -1.67511 42.6287 -1.83866 18.371 5.0863L19.469 8.93264C42.9913 2.2176 67.9949 2.37406 91.5247 9.30791L92.6553 5.47104ZM94 92.1907V93.1865H98V92.1907H94ZM97.9996 92.1872C98 92.1892 98 92.1902 98 92.1895L94 92.1919C94.0002 92.4976 94.0353 92.7974 94.102 93.0866L97.9996 92.1872ZM98 93.1884C98.0001 93.1235 98.0061 93.0617 98.017 93.003L94.0846 92.2708C94.0292 92.5684 94.0003 92.874 94 93.1845L98 93.1884Z" fill="#171C4C" mask="url(#path-3-outside-1_926_6330)"/>
<path d="M93 99.1895C93 100.289 93.9 101.189 95 101.189H105C106.1 101.189 107 100.289 107 99.1895C107 98.0895 106.1 97.1895 105 97.1895H95C93.9 97.1895 93 98.0895 93 99.1895Z" stroke="#171C4C" stroke-width="6" stroke-linecap="round" stroke-linejoin="round"/>
<path d="M93 99.1895C93 100.289 93.9 101.189 95 101.189H105C106.1 101.189 107 100.289 107 99.1895C107 98.0895 106.1 97.1895 105 97.1895H95C93.9 97.1895 93 98.0895 93 99.1895Z" stroke="#171C4C" stroke-width="6" stroke-linecap="round" stroke-linejoin="round"/>
<path d="M96 92.1895C96 93.2895 96.9 94.1895 98 94.1895H107C108.1 94.1895 109 93.2895 109 92.1895C109 91.0895 108.1 90.1895 107 90.1895H98C96.9 90.1895 96 91.0895 96 92.1895Z" stroke="#171C4C" stroke-width="6" stroke-linecap="round" stroke-linejoin="round"/>
<path d="M96 92.1895C96 93.2895 96.9 94.1895 98 94.1895H107C108.1 94.1895 109 93.2895 109 92.1895C109 91.0895 108.1 90.1895 107 90.1895H98C96.9 90.1895 96 91.0895 96 92.1895Z" stroke="#171C4C" stroke-width="6" stroke-linecap="round" stroke-linejoin="round"/>
<path d="M29.3908 66.1595C29.7108 65.0795 30.8808 64.1895 31.9808 64.1895H78.4008C79.5008 64.1895 80.6708 65.0795 80.9908 66.1595C83.7808 75.4695 86.5708 84.5595 89.3508 93.2895C89.6708 94.2995 89.0408 95.2394 87.9408 95.3794C66.1808 98.0094 44.1908 98.0094 22.4308 95.3794C21.3308 95.2494 20.7008 94.3095 21.0208 93.2895C23.8008 84.5595 26.5908 75.4795 29.3808 66.1595H29.3908Z" stroke="#171C4C" stroke-width="6" stroke-linecap="round" stroke-linejoin="round"/>
<path d="M29.3908 66.1595C29.7108 65.0795 30.8808 64.1895 31.9808 64.1895H78.4008C79.5008 64.1895 80.6708 65.0795 80.9908 66.1595C83.7808 75.4695 86.5708 84.5595 89.3508 93.2895C89.6708 94.2995 89.0408 95.2394 87.9408 95.3794C66.1808 98.0094 44.1908 98.0094 22.4308 95.3794C21.3308 95.2494 20.7008 94.3095 21.0208 93.2895C23.8008 84.5595 26.5908 75.4795 29.3808 66.1595H29.3908Z" stroke="#171C4C" stroke-width="6" stroke-linecap="round" stroke-linejoin="round"/>
<path d="M26.5805 61.1895C26.8005 60.0895 27.8805 59.1895 28.9805 59.1895H81.3105C82.4105 59.1895 83.4905 60.0895 83.7105 61.1895C85.6905 71.0695 87.6805 80.7695 89.6505 90.2295C89.8705 91.2795 89.1505 92.2495 88.0605 92.3895C66.2405 95.0095 44.1805 95.0095 22.3505 92.3895C21.2505 92.2595 20.5305 91.2795 20.7505 90.2295C22.6905 80.7695 24.6405 71.0695 26.5905 61.1895H26.5805Z" stroke="#171C4C" stroke-width="6" stroke-linecap="round" stroke-linejoin="round"/>
<path d="M26.5805 61.1895C26.8005 60.0895 27.8805 59.1895 28.9805 59.1895H81.3105C82.4105 59.1895 83.4905 60.0895 83.7105 61.1895C85.6905 71.0695 87.6805 80.7695 89.6505 90.2295C89.8705 91.2795 89.1505 92.2495 88.0605 92.3895C66.2405 95.0095 44.1805 95.0095 22.3505 92.3895C21.2505 92.2595 20.5305 91.2795 20.7505 90.2295C22.6905 80.7695 24.6405 71.0695 26.5905 61.1895H26.5805Z" stroke="#171C4C" stroke-width="6" stroke-linecap="round" stroke-linejoin="round"/>
<path d="M29.2491 62.9895C29.5391 61.9895 30.6691 61.1895 31.7691 61.1895H79.2291C80.3291 61.1895 81.3791 62.0295 81.5491 63.0795C82.3591 67.9095 83.1591 72.9395 83.9391 78.2095C84.1091 79.3595 83.3691 79.9795 82.2991 79.6095C64.2591 73.5195 44.7091 73.5395 26.6691 79.6595C25.5991 80.0295 24.9491 79.3895 25.2291 78.2295C26.5291 72.7695 27.8791 67.7095 29.2391 62.9795L29.2491 62.9895Z" stroke="#171C4C" stroke-width="6" stroke-linecap="round" stroke-linejoin="round"/>
<path d="M29.2491 62.9895C29.5391 61.9895 30.6691 61.1895 31.7691 61.1895H79.2291C80.3291 61.1895 81.3791 62.0295 81.5491 63.0795C82.3591 67.9095 83.1591 72.9395 83.9391 78.2095C84.1091 79.3595 83.3691 79.9795 82.2991 79.6095C64.2591 73.5195 44.7091 73.5395 26.6691 79.6595C25.5991 80.0295 24.9491 79.3895 25.2291 78.2295C26.5291 72.7695 27.8791 67.7095 29.2391 62.9795L29.2491 62.9895Z" stroke="#171C4C" stroke-width="6" stroke-linecap="round" stroke-linejoin="round"/>
<path d="M22.18 50.8094C22.63 49.8394 23 49.9694 23 51.0694V54.8494C23 55.9494 22.86 57.7294 22.68 58.7994C21.23 67.6294 19.77 76.7694 18.32 85.5294C18.14 86.5994 18 86.5694 18 85.4694V62.1394C18 61.0394 18.37 59.2994 18.82 58.2694C19.94 55.7294 21.06 53.2094 22.18 50.8094Z" stroke="#171C4C" stroke-width="6" stroke-linecap="round" stroke-linejoin="round"/>
<path d="M22.18 50.8094C22.63 49.8394 23 49.9694 23 51.0694V54.8494C23 55.9494 22.86 57.7294 22.68 58.7994C21.23 67.6294 19.77 76.7694 18.32 85.5294C18.14 86.5994 18 86.5694 18 85.4694V62.1394C18 61.0394 18.37 59.2994 18.82 58.2694C19.94 55.7294 21.06 53.2094 22.18 50.8094Z" stroke="#171C4C" stroke-width="6" stroke-linecap="round" stroke-linejoin="round"/>
<path d="M22.1798 32.8504C22.6298 31.8804 22.9998 32.0104 22.9998 33.1104V42.1904C22.9998 43.2904 22.6598 45.0204 22.2498 46.0604C21.0898 48.9404 19.9198 51.8804 18.7598 54.6504C18.3398 55.6404 18.0098 55.5204 18.0098 54.4304V44.1804C18.0098 43.0804 18.3798 41.3604 18.8298 40.3304C19.9498 37.8104 21.0698 35.2504 22.1898 32.8504H22.1798Z" stroke="#171C4C" stroke-width="6" stroke-linecap="round" stroke-linejoin="round"/>
<path d="M22.1798 32.8504C22.6298 31.8804 22.9998 32.0104 22.9998 33.1104V42.1904C22.9998 43.2904 22.6598 45.0204 22.2498 46.0604C21.0898 48.9404 19.9198 51.8804 18.7598 54.6504C18.3398 55.6404 18.0098 55.5204 18.0098 54.4304V44.1804C18.0098 43.0804 18.3798 41.3604 18.8298 40.3304C19.9498 37.8104 21.0698 35.2504 22.1898 32.8504H22.1798Z" stroke="#171C4C" stroke-width="6" stroke-linecap="round" stroke-linejoin="round"/>
<path d="M87.82 50.8094C87.37 49.8394 87 49.9694 87 51.0694V54.8494C87 55.9494 87.14 57.7294 87.32 58.7994C88.77 67.6294 90.23 76.7694 91.68 85.5294C91.86 86.5994 92 86.5694 92 85.4694V62.1394C92 61.0394 91.63 59.2994 91.18 58.2694C90.06 55.7294 88.94 53.2094 87.82 50.8094Z" stroke="#171C4C" stroke-width="6" stroke-linecap="round" stroke-linejoin="round"/>
<path d="M87.82 50.8094C87.37 49.8394 87 49.9694 87 51.0694V54.8494C87 55.9494 87.14 57.7294 87.32 58.7994C88.77 67.6294 90.23 76.7694 91.68 85.5294C91.86 86.5994 92 86.5694 92 85.4694V62.1394C92 61.0394 91.63 59.2994 91.18 58.2694C90.06 55.7294 88.94 53.2094 87.82 50.8094Z" stroke="#171C4C" stroke-width="6" stroke-linecap="round" stroke-linejoin="round"/>
<path d="M87.82 32.8504C87.37 31.8804 87 32.0104 87 33.1104V42.1904C87 43.2904 87.34 45.0204 87.75 46.0604C88.91 48.9404 90.08 51.8804 91.24 54.6504C91.66 55.6404 91.99 55.5204 91.99 54.4304V44.1804C91.99 43.0804 91.62 41.3604 91.17 40.3304C90.05 37.8104 88.93 35.2504 87.81 32.8504H87.82Z" stroke="#171C4C" stroke-width="6" stroke-linecap="round" stroke-linejoin="round"/>
<path d="M87.82 32.8504C87.37 31.8804 87 32.0104 87 33.1104V42.1904C87 43.2904 87.34 45.0204 87.75 46.0604C88.91 48.9404 90.08 51.8804 91.24 54.6504C91.66 55.6404 91.99 55.5204 91.99 54.4304V44.1804C91.99 43.0804 91.62 41.3604 91.17 40.3304C90.05 37.8104 88.93 35.2504 87.81 32.8504H87.82Z" stroke="#171C4C" stroke-width="6" stroke-linecap="round" stroke-linejoin="round"/>
<path d="M83 134.189C85.2091 134.189 87 132.399 87 130.189C87 127.98 85.2091 126.189 83 126.189C80.7909 126.189 79 127.98 79 130.189C79 132.399 80.7909 134.189 83 134.189Z" stroke="#171C4C" stroke-width="6" stroke-linecap="round" stroke-linejoin="round"/>
<path d="M27 133.189C29.2091 133.189 31 131.399 31 129.189C31 126.98 29.2091 125.189 27 125.189C24.7909 125.189 23 126.98 23 129.189C23 131.399 24.7909 133.189 27 133.189Z" stroke="#171C4C" stroke-width="6" stroke-linecap="round" stroke-linejoin="round"/>
<path d="M12 35.1887C12 31.9187 14.67 28.6987 17.96 28.1287C42.82 24.0587 68.18 24.0587 93.05 28.1287C96.33 28.6987 99.01 31.9187 99.01 35.1887V66.1887C99.01 69.4587 96.34 72.6787 93.05 73.2487C68.19 77.3187 42.83 77.3187 17.96 73.2487C14.68 72.6787 12 69.4587 12 66.1887V35.1887Z" fill="#2A2E5E"/>
<path d="M12 35.1887C12 31.9287 14.67 28.7087 17.96 28.1287C42.82 24.0587 68.18 24.0587 93.05 28.1287C96.33 28.6987 99.01 31.9287 99.01 35.1887V58.1887C99.01 61.4487 96.34 64.6687 93.05 65.2487C68.19 69.3187 42.83 69.3187 17.96 65.2487C14.68 64.6787 12 61.4487 12 58.1887V35.1887Z" fill="#3D406F"/>
<path d="M12 122.189C12 118.939 14.66 115.539 17.92 114.779C42.67 109.329 68.32 109.329 93.07 114.779C96.34 115.539 98.99 118.939 98.99 122.189V152.189C98.99 155.439 96.33 158.839 93.07 159.599C68.32 165.049 42.67 165.049 17.92 159.599C14.65 158.839 12 155.439 12 152.189V122.189Z" fill="#2A2E5E"/>
<path d="M64.0002 166.189C64.0002 166.739 63.5502 167.249 63.0002 167.309C57.6802 167.909 52.3102 167.909 46.9902 167.309C46.4402 167.249 45.9902 166.739 45.9902 166.189V160.189C45.9902 159.639 46.4402 159.189 46.9902 159.189H62.9902C63.5402 159.189 63.9902 159.639 63.9902 160.189V166.189H64.0002Z" fill="#A7A7C4"/>
<path d="M12 121.189C12 117.949 14.66 114.549 17.92 113.779C42.67 108.329 68.32 108.329 93.07 113.779C96.34 114.549 98.99 117.949 98.99 121.189V142.189C98.99 145.429 96.33 148.829 93.07 149.599C68.32 155.049 42.67 155.049 17.92 149.599C14.65 148.829 12 145.429 12 142.189V121.189Z" fill="#3D406F"/>
<path d="M92.0898 7.38947C94.2498 8.02947 95.9998 10.4195 95.9998 12.6095V139.199C95.9998 141.389 94.2498 143.769 92.0898 144.399C68.1998 151.349 42.8098 151.349 18.9198 144.399C16.7598 143.769 15.0098 141.389 15.0098 139.199V12.1895C15.0098 9.99947 16.7598 7.62947 18.9198 7.00947C42.8098 0.189472 68.1998 0.349473 92.0898 7.38947Z" fill="#E93637"/>
<path d="M69.7506 143.489C69.4806 144.599 68.3706 145.619 67.2706 145.719C59.2206 146.439 51.1306 146.439 43.0806 145.719C41.9806 145.619 40.8706 144.599 40.6006 143.489C39.8406 140.319 39.0906 137.189 38.3306 134.139C38.0606 133.069 38.7406 132.199 39.8506 132.199H70.5206C71.6206 132.199 72.3006 133.069 72.0406 134.139C71.2806 137.199 70.5206 140.319 69.7706 143.489H69.7506Z" fill="#6A6B95"/>
<path d="M67.96 142.389C67.84 142.949 67.3 143.459 66.75 143.519C59.06 144.299 51.31 144.299 43.61 143.519C43.06 143.459 42.51 142.949 42.4 142.389C41.88 139.939 41.36 137.529 40.84 135.169C40.72 134.629 41.07 134.189 41.62 134.189H68.74C69.29 134.189 69.64 134.629 69.52 135.169C69 137.529 68.48 139.939 67.96 142.389Z" fill="#171C4C"/>
<path d="M72 133.189C72 133.739 71.55 134.189 71 134.189H40C39.45 134.189 39 133.739 39 133.189C39 132.639 39.45 132.189 40 132.189H71C71.55 132.189 72 132.639 72 133.189Z" fill="#A7A7C4"/>
<path d="M88.08 10.0602C90.24 10.7002 91.99 13.0902 92 15.2602V26.2002C92 28.3802 90.54 29.1202 88.76 27.7002C88.6 27.5702 88.45 27.4502 88.29 27.3202C86.51 25.8802 83.27 24.4602 81.07 24.3002C64.43 23.1802 47.6 23.1602 30.95 24.2302C28.75 24.3802 25.7 26.0402 24.16 27.7702C23.38 28.6402 22.61 29.5002 21.83 30.3202C20.28 31.9502 19 31.3702 19 29.1902V15.1902C19 13.0202 20.75 10.6402 22.92 10.0002C44.21 3.91015 66.8 3.95016 88.09 10.0602H88.08Z" fill="#CA221C"/>
<path d="M27 30.189C27 29.089 27.9 28.079 28.99 27.949C46.6 25.879 64.39 25.879 82 27.949C83.1 28.079 83.99 29.099 83.99 30.189V51.189C83.99 52.289 83.09 53.299 82 53.429C64.39 55.499 46.6 55.499 28.99 53.429C27.89 53.299 27 52.279 27 51.189V30.189Z" fill="#FF506E"/>
<g opacity="0.5">
<path d="M42 33.4102V46.9702" stroke="#E93637" stroke-width="2" stroke-linecap="round" stroke-linejoin="round"/>
<path d="M34 33.4102V46.9702" stroke="#E93637" stroke-width="2" stroke-linecap="round" stroke-linejoin="round"/>
<path d="M51 33.4102V46.9702" stroke="#E93637" stroke-width="2" stroke-linecap="round" stroke-linejoin="round"/>
<path d="M60 33.4102V46.9702" stroke="#E93637" stroke-width="2" stroke-linecap="round" stroke-linejoin="round"/>
<path d="M69 33.4102V46.9702" stroke="#E93637" stroke-width="2" stroke-linecap="round" stroke-linejoin="round"/>
<path d="M76 33.4102V46.9702" stroke="#E93637" stroke-width="2" stroke-linecap="round" stroke-linejoin="round"/>
</g>
<path d="M82 136.189C84.2091 136.189 86 134.399 86 132.189C86 129.98 84.2091 128.189 82 128.189C79.7909 128.189 78 129.98 78 132.189C78 134.399 79.7909 136.189 82 136.189Z" fill="#FF506E"/>
<path d="M27 135.189C29.2091 135.189 31 133.399 31 131.189C31 128.98 29.2091 127.189 27 127.189C24.7909 127.189 23 128.98 23 131.189C23 133.399 24.7909 135.189 27 135.189Z" fill="#FF506E"/>
<path d="M90.02 101.489C67.07 99.0192 43.93 99.0192 20.98 101.489C17.69 101.869 15 104.919 15 108.189V128.189C15 131.459 17.69 134.509 20.98 134.889C22.65 135.069 24.32 135.229 26 135.389V120.199H82V135.659C84.68 135.439 87.35 135.189 90.02 134.899C93.31 134.519 96 131.469 96 128.199V108.199C96 104.929 93.31 101.879 90.02 101.499V101.489Z" fill="#FF506E"/>
<path d="M90.02 101.489C67.07 99.0192 43.93 99.0192 20.98 101.489C17.69 101.869 15 104.919 15 108.189V126.189C15 129.459 17.69 132.509 20.98 132.889C22.65 133.069 24.32 133.229 26 133.389V117.199H82V133.659C84.68 133.439 87.35 133.189 90.02 132.899C93.31 132.519 96 129.469 96 126.199V108.199C96 104.929 93.31 101.879 90.02 101.499V101.489Z" fill="#FFEAB5"/>
<path d="M13.7293 102.19C13.5993 98.9403 16.1793 95.9103 19.4693 95.5203C43.4093 92.9203 67.5593 92.9203 91.5093 95.5203C94.7993 95.9103 97.3793 98.9403 97.2493 102.19C97.0393 107.51 96.8193 112.86 96.6093 118.25C96.4793 121.54 93.6793 124.62 90.3893 124.99C67.1893 127.43 43.7893 127.43 20.5893 124.99C17.2993 124.61 14.4993 121.54 14.3693 118.25C14.1593 112.87 13.9393 107.52 13.7293 102.19Z" fill="#FF506E"/>
<path d="M12 90.1895H5C3.34315 90.1895 2 91.5326 2 93.1895V98.1895C2 99.8463 3.34315 101.189 5 101.189H12C13.6569 101.189 15 99.8463 15 98.1895V93.1895C15 91.5326 13.6569 90.1895 12 90.1895Z" fill="#2A2E5E"/>
<path d="M18 99.1895C18 100.289 17.1 101.189 16 101.189H6C4.9 101.189 4 100.289 4 99.1895C4 98.0895 4.9 97.1895 6 97.1895H16C17.1 97.1895 18 98.0895 18 99.1895Z" fill="#2A2E5E"/>
<path d="M15 92.1895C15 93.2895 14.1 94.1895 13 94.1895H4C2.9 94.1895 2 93.2895 2 92.1895C2 91.0895 2.9 90.1895 4 90.1895H13C14.1 90.1895 15 91.0895 15 92.1895Z" fill="#3D406F"/>
<path d="M106 90.1895H99C97.3431 90.1895 96 91.5326 96 93.1895V98.1895C96 99.8463 97.3431 101.189 99 101.189H106C107.657 101.189 109 99.8463 109 98.1895V93.1895C109 91.5326 107.657 90.1895 106 90.1895Z" fill="#2A2E5E"/>
<path d="M93 99.1895C93 100.289 93.9 101.189 95 101.189H105C106.1 101.189 107 100.289 107 99.1895C107 98.0895 106.1 97.1895 105 97.1895H95C93.9 97.1895 93 98.0895 93 99.1895Z" fill="#2A2E5E"/>
<path d="M96 92.1895C96 93.2895 96.9 94.1895 98 94.1895H107C108.1 94.1895 109 93.2895 109 92.1895C109 91.0895 108.1 90.1895 107 90.1895H98C96.9 90.1895 96 91.0895 96 92.1895Z" fill="#3D406F"/>
<path d="M29.3908 66.1595C29.7108 65.0795 30.8808 64.1895 31.9808 64.1895H78.4008C79.5008 64.1895 80.6708 65.0795 80.9908 66.1595C83.7808 75.4695 86.5708 84.5595 89.3508 93.2895C89.6708 94.2995 89.0408 95.2394 87.9408 95.3794C66.1808 98.0094 44.1908 98.0094 22.4308 95.3794C21.3308 95.2494 20.7008 94.3095 21.0208 93.2895C23.8008 84.5595 26.5908 75.4795 29.3808 66.1595H29.3908Z" fill="#2A2E5E"/>
<path d="M26.5805 61.1895C26.8005 60.0895 27.8805 59.1895 28.9805 59.1895H81.3105C82.4105 59.1895 83.4905 60.0895 83.7105 61.1895C85.6905 71.0695 87.6805 80.7695 89.6505 90.2295C89.8705 91.2795 89.1505 92.2495 88.0605 92.3895C66.2405 95.0095 44.1805 95.0095 22.3505 92.3895C21.2505 92.2595 20.5305 91.2795 20.7505 90.2295C22.6905 80.7695 24.6405 71.0695 26.5905 61.1895H26.5805Z" fill="#3997E6"/>
<path opacity="0.2" d="M29.2491 62.9895C29.5391 61.9895 30.6691 61.1895 31.7691 61.1895H79.2291C80.3291 61.1895 81.3791 62.0295 81.5491 63.0795C82.3591 67.9095 83.1591 72.9395 83.9391 78.2095C84.1091 79.3595 83.3691 79.9795 82.2991 79.6095C64.2591 73.5195 44.7091 73.5395 26.6691 79.6595C25.5991 80.0295 24.9491 79.3895 25.2291 78.2295C26.5291 72.7695 27.8791 67.7095 29.2391 62.9795L29.2491 62.9895Z" fill="white"/>
<path d="M22.18 50.8094C22.63 49.8394 23 49.9694 23 51.0694V54.8494C23 55.9494 22.86 57.7294 22.68 58.7994C21.23 67.6294 19.77 76.7694 18.32 85.5294C18.14 86.5994 18 86.5694 18 85.4694V62.1394C18 61.0394 18.37 59.2994 18.82 58.2694C19.94 55.7294 21.06 53.2094 22.18 50.8094Z" fill="#3997E6"/>
<path d="M22.1798 32.8504C22.6298 31.8804 22.9998 32.0104 22.9998 33.1104V42.1904C22.9998 43.2904 22.6598 45.0204 22.2498 46.0604C21.0898 48.9404 19.9198 51.8804 18.7598 54.6504C18.3398 55.6404 18.0098 55.5204 18.0098 54.4304V44.1804C18.0098 43.0804 18.3798 41.3604 18.8298 40.3304C19.9498 37.8104 21.0698 35.2504 22.1898 32.8504H22.1798Z" fill="#3997E6"/>
<path d="M87.82 50.8094C87.37 49.8394 87 49.9694 87 51.0694V54.8494C87 55.9494 87.14 57.7294 87.32 58.7994C88.77 67.6294 90.23 76.7694 91.68 85.5294C91.86 86.5994 92 86.5694 92 85.4694V62.1394C92 61.0394 91.63 59.2994 91.18 58.2694C90.06 55.7294 88.94 53.2094 87.82 50.8094Z" fill="#3997E6"/>
<path d="M87.82 32.8504C87.37 31.8804 87 32.0104 87 33.1104V42.1904C87 43.2904 87.34 45.0204 87.75 46.0604C88.91 48.9404 90.08 51.8804 91.24 54.6504C91.66 55.6404 91.99 55.5204 91.99 54.4304V44.1804C91.99 43.0804 91.62 41.3604 91.17 40.3304C90.05 37.8104 88.93 35.2504 87.81 32.8504H87.82Z" fill="#3997E6"/>
<path d="M83 134.189C85.2091 134.189 87 132.399 87 130.189C87 127.98 85.2091 126.189 83 126.189C80.7909 126.189 79 127.98 79 130.189C79 132.399 80.7909 134.189 83 134.189Z" fill="#FFEAB5"/>
<path d="M27 133.189C29.2091 133.189 31 131.399 31 129.189C31 126.98 29.2091 125.189 27 125.189C24.7909 125.189 23 126.98 23 129.189C23 131.399 24.7909 133.189 27 133.189Z" fill="#FFEAB5"/>
</svg>
