<svg width="111" height="157" viewBox="0 0 111 157" fill="none" xmlns="http://www.w3.org/2000/svg">
<mask id="mask0_926_6267" style="mask-type:alpha" maskUnits="userSpaceOnUse" x="10" y="107" width="91" height="51">
<rect x="10" y="107" width="91" height="51" fill="#D9D9D9"/>
</mask>
<g mask="url(#mask0_926_6267)">
<path d="M12 62.0086C12 57.7975 16.1001 53.4784 21.1628 52.6609C43.8568 49.113 67.1432 49.113 89.8372 52.6609C94.8999 53.4784 99 57.7975 99 62.0086V142.991C99 147.203 94.8999 151.522 89.8372 152.339C67.1432 155.887 43.8568 155.887 21.1628 152.339C16.1001 151.522 12 147.203 12 142.991V62.0086Z" fill="#171C4C" fill-opacity="1"/>
</g>
<mask id="path-3-outside-1_926_6267" maskUnits="userSpaceOnUse" x="0" y="0.996094" width="111" height="148" fill="black">
<rect fill="white" y="0.996094" width="111" height="148"/>
<path fill-rule="evenodd" clip-rule="evenodd" d="M29.61 4.54983C26.32 4.94983 22.72 8.10983 21.61 11.4298L21.6 11.4398C20.06 16.0398 18.53 20.6098 17 25.1298C16.4326 26.7963 15.92 29.0064 15.5545 31.2096C13.5592 31.7953 12 33.8082 12 35.8298V36.8298V43.8298V57.8298C12 59.6732 13.2728 61.4881 14.99 62.2464V81.6297C14.8888 80.6227 14.0325 79.8298 13 79.8298H12H5H4C2.9 79.8298 2 80.7298 2 81.8298C2 81.9835 2.01757 82.1333 2.05079 82.2772C2.01744 82.4563 2 82.641 2 82.8298V87.8298C2 89.4867 3.34315 90.8298 5 90.8298H6H12H14.99V96.1082C13.2059 97.4742 12 99.643 12 101.83V102.83V122.83V132.83C12 136.1 14.68 139.32 17.96 139.89C27.2521 141.41 36.6127 142.363 45.99 142.747V144.83C45.99 145.38 46.44 145.89 46.99 145.95C52.31 146.55 57.68 146.55 63 145.95C63.55 145.89 64 145.38 64 144.83H63.99V142.788C73.7133 142.432 83.4192 141.467 93.05 139.89C96.34 139.32 99.01 136.09 99.01 132.83V122.83V102.83V101.83C99.01 99.6348 97.795 97.458 96 96.0929V94.8398V93.8298C96 93.7148 95.9966 93.6001 95.99 93.4857V90.8298H99H104H106C107.657 90.8298 109 89.4867 109 87.8298V82.8298C109 82.641 108.983 82.4563 108.949 82.2772C108.982 82.1333 109 81.9835 109 81.8298C109 80.7298 108.1 79.8298 107 79.8298H106H99H98C96.9 79.8298 96 80.7298 96 81.8298C96 81.9835 96.0176 82.1333 96.0508 82.2772C96.0174 82.4563 96 82.641 96 82.8298V86.8298H95.99V62.2552C97.7173 61.5022 99 59.6804 99 57.8298V43.8298V36.8298V35.8298C99 33.8139 97.4496 31.8154 95.4624 31.2163C95.1604 29.1256 94.7538 27.0518 94.31 25.4598C93.04 20.9198 91.77 16.3298 90.49 11.6998C89.57 8.34983 86.13 5.14983 82.83 4.72983C65.17 2.47983 47.29 2.41983 29.61 4.54983ZM14.9492 82.2772C14.9678 82.1965 14.9815 82.114 14.99 82.03V82.583C14.9816 82.4795 14.9679 82.3775 14.9492 82.2772Z"/>
</mask>
<path fill-rule="evenodd" clip-rule="evenodd" d="M29.61 4.54983C26.32 4.94983 22.72 8.10983 21.61 11.4298L21.6 11.4398C20.06 16.0398 18.53 20.6098 17 25.1298C16.4326 26.7963 15.92 29.0064 15.5545 31.2096C13.5592 31.7953 12 33.8082 12 35.8298V36.8298V43.8298V57.8298C12 59.6732 13.2728 61.4881 14.99 62.2464V81.6297C14.8888 80.6227 14.0325 79.8298 13 79.8298H12H5H4C2.9 79.8298 2 80.7298 2 81.8298C2 81.9835 2.01757 82.1333 2.05079 82.2772C2.01744 82.4563 2 82.641 2 82.8298V87.8298C2 89.4867 3.34315 90.8298 5 90.8298H6H12H14.99V96.1082C13.2059 97.4742 12 99.643 12 101.83V102.83V122.83V132.83C12 136.1 14.68 139.32 17.96 139.89C27.2521 141.41 36.6127 142.363 45.99 142.747V144.83C45.99 145.38 46.44 145.89 46.99 145.95C52.31 146.55 57.68 146.55 63 145.95C63.55 145.89 64 145.38 64 144.83H63.99V142.788C73.7133 142.432 83.4192 141.467 93.05 139.89C96.34 139.32 99.01 136.09 99.01 132.83V122.83V102.83V101.83C99.01 99.6348 97.795 97.458 96 96.0929V94.8398V93.8298C96 93.7148 95.9966 93.6001 95.99 93.4857V90.8298H99H104H106C107.657 90.8298 109 89.4867 109 87.8298V82.8298C109 82.641 108.983 82.4563 108.949 82.2772C108.982 82.1333 109 81.9835 109 81.8298C109 80.7298 108.1 79.8298 107 79.8298H106H99H98C96.9 79.8298 96 80.7298 96 81.8298C96 81.9835 96.0176 82.1333 96.0508 82.2772C96.0174 82.4563 96 82.641 96 82.8298V86.8298H95.99V62.2552C97.7173 61.5022 99 59.6804 99 57.8298V43.8298V36.8298V35.8298C99 33.8139 97.4496 31.8154 95.4624 31.2163C95.1604 29.1256 94.7538 27.0518 94.31 25.4598C93.04 20.9198 91.77 16.3298 90.49 11.6998C89.57 8.34983 86.13 5.14983 82.83 4.72983C65.17 2.47983 47.29 2.41983 29.61 4.54983ZM14.9492 82.2772C14.9678 82.1965 14.9815 82.114 14.99 82.03V82.583C14.9816 82.4795 14.9679 82.3775 14.9492 82.2772Z" fill="#171C4C"/>
<path d="M21.61 11.4298L23.0241 12.8441L23.3574 12.5109L23.5068 12.064L21.61 11.4298ZM29.61 4.54983L29.3708 2.56418L29.3686 2.56445L29.61 4.54983ZM21.6 11.4398L20.1858 10.0255L19.8529 10.3584L19.7035 10.8049L21.6 11.4398ZM17 25.1298L18.8933 25.7745L18.8944 25.7711L17 25.1298ZM15.5545 31.2096L16.1179 33.1286L17.3221 32.7751L17.5275 31.5369L15.5545 31.2096ZM14.99 62.2464H16.99V60.9432L15.7979 60.4168L14.99 62.2464ZM14.99 81.6297L13 81.8297L16.99 81.6297H14.99ZM2.05079 82.2772L4.01699 82.6433L4.09329 82.2336L3.99957 81.8275L2.05079 82.2772ZM14.99 90.8298H16.99V88.8298H14.99V90.8298ZM14.99 96.1082L16.2059 97.6961L16.99 97.0957V96.1082H14.99ZM17.96 139.89L17.6176 141.86L17.6273 141.862L17.637 141.864L17.96 139.89ZM45.99 142.747H47.99V140.828L46.0719 140.749L45.99 142.747ZM46.99 145.95L47.2141 143.962L47.2069 143.962L46.99 145.95ZM63 145.95L62.7831 143.962L62.7758 143.962L63 145.95ZM64 144.83H66V142.83H64V144.83ZM63.99 144.83H61.99V146.83H63.99V144.83ZM63.99 142.788L63.917 140.789L61.99 140.859V142.788H63.99ZM93.05 139.89L93.3731 141.864L93.3823 141.862L93.3914 141.86L93.05 139.89ZM96 96.0929H94V97.0845L94.7893 97.6848L96 96.0929ZM95.99 93.4857H93.99V93.5438L93.9934 93.6017L95.99 93.4857ZM95.99 90.8298V88.8298H93.99V90.8298H95.99ZM108.949 82.2772L107 81.8274L106.907 82.2336L106.983 82.6433L108.949 82.2772ZM96.0508 82.2772L98.017 82.6433L98.0933 82.2336L97.9996 81.8274L96.0508 82.2772ZM96 86.8298V88.8298H98V86.8298H96ZM95.99 86.8298H93.99V88.8298H95.99V86.8298ZM95.99 62.2552L95.1908 60.4218L93.99 60.9453V62.2552H95.99ZM95.4624 31.2163L93.483 31.5023L93.6651 32.7634L94.8851 33.1312L95.4624 31.2163ZM94.31 25.4598L96.2365 24.9227L96.2361 24.921L94.31 25.4598ZM90.49 11.6998L88.5614 12.2295L88.5623 12.2328L90.49 11.6998ZM82.83 4.72983L82.5772 6.71379L82.5775 6.71382L82.83 4.72983ZM14.99 82.03H16.99L13 81.8299L14.99 82.03ZM14.9492 82.2772L13.0004 81.8275L12.9067 82.2336L12.983 82.6433L14.9492 82.2772ZM14.99 82.583L12.9966 82.7453L16.99 82.583H14.99ZM23.5068 12.064C23.9261 10.8098 24.8649 9.47727 26.1014 8.40706C27.3455 7.33026 28.7099 6.67399 29.8514 6.53521L29.3686 2.56445C27.2201 2.82567 25.1395 3.94939 23.4836 5.38259C21.8201 6.82239 20.4039 8.72988 19.7132 10.7957L23.5068 12.064ZM23.0141 12.8541L23.0241 12.8441L20.1958 10.0155L20.1858 10.0255L23.0141 12.8541ZM18.8944 25.7711C20.4257 21.2474 21.9567 16.6742 23.4965 12.0748L19.7035 10.8049C18.1633 15.4054 16.6343 19.9723 15.1056 24.4886L18.8944 25.7711ZM17.5275 31.5369C17.882 29.4003 18.3723 27.3044 18.8933 25.7745L15.1067 24.4852C14.4928 26.2883 13.958 28.6124 13.5815 30.8823L17.5275 31.5369ZM14 35.8298C14 34.7425 14.9286 33.4777 16.1179 33.1286L14.9912 29.2906C12.1899 30.1129 10 32.8739 10 35.8298H14ZM14 36.8298V35.8298H10V36.8298H14ZM14 43.8298V36.8298H10V43.8298H14ZM14 57.8298V43.8298H10V57.8298H14ZM15.7979 60.4168C14.7387 59.9491 14 58.8108 14 57.8298H10C10 60.5357 11.8069 63.027 14.1821 64.0759L15.7979 60.4168ZM16.99 81.6297V62.2464H12.99V81.6297H16.99ZM13 81.8298L13 81.8297L16.98 81.4297C16.7773 79.4134 15.0722 77.8298 13 77.8298V81.8298ZM12 81.8298H13V77.8298H12V81.8298ZM5 81.8298H12V77.8298H5V81.8298ZM4 81.8298H5V77.8298H4V81.8298ZM4 81.8298V77.8298C1.79543 77.8298 0 79.6253 0 81.8298H4ZM3.99957 81.8275C4.00004 81.8295 4 81.8306 4 81.8298H0C0 82.1364 0.0350912 82.437 0.102012 82.727L3.99957 81.8275ZM4 82.8298C4 82.7645 4.00601 82.7023 4.01699 82.6433L0.0845831 81.9111C0.0288595 82.2104 0 82.5176 0 82.8298H4ZM4 87.8298V82.8298H0V87.8298H4ZM5 88.8298C4.44772 88.8298 4 88.3821 4 87.8298H0C0 90.5912 2.23858 92.8298 5 92.8298V88.8298ZM6 88.8298H5V92.8298H6V88.8298ZM12 88.8298H6V92.8298H12V88.8298ZM14.99 88.8298H12V92.8298H14.99V88.8298ZM16.99 96.1082V90.8298H12.99V96.1082H16.99ZM14 101.83C14 100.352 14.8429 98.7397 16.2059 97.6961L13.7741 94.5202C11.569 96.2086 10 98.9338 10 101.83H14ZM14 102.83V101.83H10V102.83H14ZM14 122.83V102.83H10V122.83H14ZM14 132.83V122.83H10V132.83H14ZM18.3024 137.919C15.982 137.516 14 135.129 14 132.83H10C10 137.071 13.378 141.124 17.6176 141.86L18.3024 137.919ZM46.0719 140.749C36.7753 140.368 27.4952 139.424 18.283 137.916L17.637 141.864C27.009 143.397 36.4501 144.358 45.9081 144.746L46.0719 140.749ZM47.99 144.83V142.747H43.99V144.83H47.99ZM47.2069 143.962C47.4822 143.992 47.6705 144.123 47.778 144.244C47.8849 144.364 47.99 144.561 47.99 144.83H43.99C43.99 146.386 45.1941 147.766 46.7731 147.938L47.2069 143.962ZM62.7758 143.962C57.6048 144.546 52.3852 144.546 47.2141 143.962L46.7658 147.937C52.2348 148.554 57.7552 148.554 63.2241 147.937L62.7758 143.962ZM62 144.83C62 144.561 62.105 144.364 62.2119 144.244C62.3195 144.123 62.5078 143.992 62.7831 143.962L63.2169 147.938C64.7958 147.766 66 146.386 66 144.83H62ZM63.99 146.83H64V142.83H63.99V146.83ZM61.99 142.788V144.83H65.99V142.788H61.99ZM92.7269 137.916C83.179 139.479 73.5567 140.437 63.917 140.789L64.063 144.786C73.87 144.428 83.6594 143.454 93.3731 141.864L92.7269 137.916ZM97.01 132.83C97.01 135.123 95.0341 137.516 92.7086 137.919L93.3914 141.86C97.6459 141.123 101.01 137.057 101.01 132.83H97.01ZM97.01 122.83V132.83H101.01V122.83H97.01ZM97.01 102.83V122.83H101.01V102.83H97.01ZM97.01 101.83V102.83H101.01V101.83H97.01ZM94.7893 97.6848C96.1604 98.7275 97.01 100.346 97.01 101.83H101.01C101.01 98.9232 99.4296 96.1884 97.2107 94.5009L94.7893 97.6848ZM94 94.8398V96.0929H98V94.8398H94ZM94 93.8298V94.8398H98V93.8298H94ZM93.9934 93.6017C93.9978 93.6778 94 93.7539 94 93.8298H98C98 93.6758 97.9955 93.5224 97.9866 93.3697L93.9934 93.6017ZM93.99 90.8298V93.4857H97.99V90.8298H93.99ZM99 88.8298H95.99V92.8298H99V88.8298ZM104 88.8298H99V92.8298H104V88.8298ZM106 88.8298H104V92.8298H106V88.8298ZM107 87.8298C107 88.3821 106.552 88.8298 106 88.8298V92.8298C108.761 92.8298 111 90.5912 111 87.8298H107ZM107 82.8298V87.8298H111V82.8298H107ZM106.983 82.6433C106.994 82.7023 107 82.7645 107 82.8298H111C111 82.5176 110.971 82.2104 110.915 81.9111L106.983 82.6433ZM107 81.8298C107 81.8306 107 81.8295 107 81.8274L110.898 82.727C110.965 82.437 111 82.1364 111 81.8298H107ZM107 81.8298H111C111 79.6253 109.205 77.8298 107 77.8298V81.8298ZM106 81.8298H107V77.8298H106V81.8298ZM99 81.8298H106V77.8298H99V81.8298ZM98 81.8298H99V77.8298H98V81.8298ZM98 81.8298V77.8298C95.7954 77.8298 94 79.6253 94 81.8298H98ZM97.9996 81.8274C98 81.8295 98 81.8306 98 81.8298H94C94 82.1364 94.0351 82.437 94.102 82.727L97.9996 81.8274ZM98 82.8298C98 82.7645 98.006 82.7023 98.017 82.6433L94.0846 81.9111C94.0289 82.2104 94 82.5176 94 82.8298H98ZM98 86.8298V82.8298H94V86.8298H98ZM95.99 88.8298H96V84.8298H95.99V88.8298ZM93.99 62.2552V86.8298H97.99V62.2552H93.99ZM97 57.8298C97 58.8153 96.2548 59.9579 95.1908 60.4218L96.7892 64.0885C99.1798 63.0464 101 60.5455 101 57.8298H97ZM97 43.8298V57.8298H101V43.8298H97ZM97 36.8298V43.8298H101V36.8298H97ZM97 35.8298V36.8298H101V35.8298H97ZM94.8851 33.1312C96.0819 33.492 97 34.7516 97 35.8298H101C101 32.8763 98.8172 30.1388 96.0397 29.3015L94.8851 33.1312ZM92.3835 25.9969C92.797 27.4802 93.1886 29.4643 93.483 31.5023L97.4419 30.9304C97.1323 28.7869 96.7107 26.6234 96.2365 24.9227L92.3835 25.9969ZM88.5623 12.2328C89.8423 16.8626 91.113 21.4553 92.3839 25.9986L96.2361 24.921C94.967 20.3843 93.6977 15.797 92.4177 11.1669L88.5623 12.2328ZM82.5775 6.71382C83.7126 6.85829 85.0301 7.51757 86.2014 8.59072C87.3668 9.65849 88.2193 10.9839 88.5614 12.2295L92.4186 11.1702C91.8406 9.06574 90.5132 7.11616 88.9036 5.64144C87.2999 4.17208 85.2474 3.02137 83.0825 2.74583L82.5775 6.71382ZM29.8492 6.53547C47.3659 4.42515 65.0806 4.48461 82.5772 6.71379L83.0828 2.74586C65.2594 0.475045 47.2141 0.414506 29.3708 2.56418L29.8492 6.53547ZM13 81.8299C13.0001 81.8293 13.0002 81.8285 13.0004 81.8275L16.898 82.727C16.9355 82.5646 16.963 82.3986 16.98 82.23L13 81.8299ZM16.99 82.583V82.03H12.99V82.583H16.99ZM12.983 82.6433C12.9892 82.6764 12.9937 82.7104 12.9966 82.7453L16.9834 82.4206C16.9694 82.2486 16.9466 82.0785 16.9154 81.9111L12.983 82.6433Z" fill="#171C4C" mask="url(#path-3-outside-1_926_6267)"/>
<path d="M12 102.829C12 99.5693 14.68 96.3393 17.96 95.7693C42.82 91.6993 68.18 91.6993 93.05 95.7693C96.33 96.3393 99.01 99.5593 99.01 102.829V132.829C99.01 136.089 96.34 139.319 93.05 139.889C68.19 143.959 42.83 143.959 17.96 139.889C14.68 139.319 12 136.099 12 132.829V102.829Z" fill="#2A2E5E"/>
<path d="M64.0002 144.83C64.0002 145.38 63.5502 145.89 63.0002 145.95C57.6802 146.55 52.3102 146.55 46.9902 145.95C46.4402 145.89 45.9902 145.38 45.9902 144.83V138.83C45.9902 138.28 46.4402 137.83 46.9902 137.83H62.9902C63.5402 137.83 63.9902 138.28 63.9902 138.83V144.83H64.0002Z" fill="#A8B0B7"/>
<path d="M12 101.829C12 98.5693 14.68 95.3493 17.96 94.7693C42.82 90.6993 68.18 90.6993 93.05 94.7693C96.33 95.3493 99.01 98.5693 99.01 101.829V122.829C99.01 126.089 96.34 129.309 93.05 129.889C68.19 133.959 42.83 133.959 17.96 129.889C14.68 129.309 12 126.089 12 122.829V101.829Z" fill="#3D406F"/>
<path d="M12 36.8307C12 34.6507 13.78 32.5107 15.97 32.1107C42.13 27.5907 68.87 27.5907 95.03 32.1107C97.22 32.5107 99 34.6507 99 36.8307V57.8307C99 60.0107 97.22 62.1507 95.03 62.5507C68.87 67.0707 42.13 67.0707 15.97 62.5507C13.78 62.1507 12 60.0107 12 57.8307V36.8307Z" fill="#2A2E5E"/>
<path d="M12 35.8307C12 33.6707 13.78 31.5207 15.97 31.1107C42.13 26.5907 68.87 26.5907 95.03 31.1107C97.22 31.5307 99 33.6707 99 35.8307V43.8307C99 45.9907 97.22 48.1407 95.03 48.5507C68.87 53.0707 42.13 53.0707 15.97 48.5507C13.78 48.1307 12 45.9907 12 43.8307V35.8307Z" fill="#3D406F"/>
<path d="M21.6102 11.4298C22.7202 8.10983 26.3202 4.94983 29.6102 4.54983C47.2902 2.41983 65.1702 2.47983 82.8302 4.72983C86.1302 5.14983 89.5702 8.34983 90.4902 11.6998C91.7702 16.3298 93.0402 20.9198 94.3102 25.4598C95.2302 28.7598 95.9902 34.1298 95.9902 37.4298V117.82C95.9902 121.11 93.3202 124.33 90.0302 124.87C67.1502 128.57 43.8202 128.57 20.9502 124.87C17.6702 124.33 14.9902 121.11 14.9902 117.82V37.0298C14.9902 33.7298 15.8902 28.3898 17.0002 25.1298C18.5302 20.6098 20.0602 16.0398 21.6002 11.4398L21.6102 11.4298Z" fill="#00826E"/>
<path d="M24 13.9873C24 10.7136 26.6872 7.66011 29.9738 7.2997C46.5466 5.60778 63.2592 5.56774 79.842 7.17957C83.1286 7.51995 85.9357 10.6034 86.0855 13.9072C86.3852 20.9952 86.6949 30.0355 86.9945 37.0134C87.1344 40.2671 84.5671 43.3005 81.2805 43.671C64.2282 45.433 47.0361 45.443 29.9838 43.701C26.6972 43.3406 24.01 40.2871 24.01 37.0134V13.9873H24Z" fill="#0CA48B"/>
<path d="M82 118C84.2091 118 86 116.209 86 114C86 111.791 84.2091 110 82 110C79.7909 110 78 111.791 78 114C78 116.209 79.7909 118 82 118Z" fill="#0CA48B"/>
<path d="M26 117C28.2091 117 30 115.209 30 113C30 110.791 28.2091 109 26 109C23.7909 109 22 110.791 22 113C22 115.209 23.7909 117 26 117Z" fill="#0CA48B"/>
<path d="M90.02 91.1298C67.07 88.6598 43.93 88.6598 20.98 91.1298C17.69 91.5198 15 94.5698 15 97.8298V109.83C15 113.09 17.69 116.14 20.98 116.53C22.65 116.71 24.32 116.87 26 117.03V105.84H82V117.96C84.68 117.74 87.35 117.49 90.02 117.2C93.31 116.81 96 113.76 96 110.5V97.8398C96 94.5798 93.31 91.5298 90.02 91.1398V91.1298Z" fill="#0CA48B"/>
<path d="M90.02 89.851C67.07 87.383 43.93 87.383 20.98 89.851C17.69 90.2407 15 93.2883 15 96.5456V108C15 111.257 17.69 114.305 20.98 114.695C22.65 114.874 24.32 115.034 26 115.194V104.549H82V116C84.68 115.78 87.35 115.53 90.02 115.241C93.31 114.851 96 111.803 96 108.546V96.5556C96 93.2982 93.31 90.2507 90.02 89.861V89.851Z" fill="#FFECA7"/>
<path d="M82.5 116C84.9853 116 87 113.985 87 111.5C87 109.015 84.9853 107 82.5 107C80.0147 107 78 109.015 78 111.5C78 113.985 80.0147 116 82.5 116Z" fill="#FFECA7"/>
<path d="M26 115C28.2091 115 30 113.209 30 111C30 108.791 28.2091 107 26 107C23.7909 107 22 108.791 22 111C22 113.209 23.7909 115 26 115Z" fill="#FFECA7"/>
<path d="M15 93.8298C15 90.5798 17.69 87.5298 20.98 87.1298C43.93 84.6598 67.07 84.6598 90.02 87.1298C93.31 87.5298 96 90.5798 96 93.8298V99.8298C96 103.08 93.31 106.13 90.02 106.53C67.07 109 43.93 109 20.98 106.53C17.69 106.13 15 103.08 15 99.8298V93.8298Z" fill="#0CA48B"/>
<path d="M12 79.8301H5C3.34315 79.8301 2 81.1732 2 82.8301V87.8301C2 89.4869 3.34315 90.8301 5 90.8301H12C13.6569 90.8301 15 89.4869 15 87.8301V82.8301C15 81.1732 13.6569 79.8301 12 79.8301Z" fill="#2A2E5E"/>
<path d="M18 88.8301C18 89.9301 17.1 90.8301 16 90.8301H6C4.9 90.8301 4 89.9301 4 88.8301C4 87.7301 4.9 86.8301 6 86.8301H16C17.1 86.8301 18 87.7301 18 88.8301Z" fill="#2A2E5E"/>
<path d="M15 81.8301C15 82.9301 14.1 83.8301 13 83.8301H4C2.9 83.8301 2 82.9301 2 81.8301C2 80.7301 2.9 79.8301 4 79.8301H13C14.1 79.8301 15 80.7301 15 81.8301Z" fill="#3D406F"/>
<path d="M106 79.8301H99C97.3431 79.8301 96 81.1732 96 82.8301V87.8301C96 89.4869 97.3431 90.8301 99 90.8301H106C107.657 90.8301 109 89.4869 109 87.8301V82.8301C109 81.1732 107.657 79.8301 106 79.8301Z" fill="#2A2E5E"/>
<path d="M92 88.8301C92 89.9301 92.9 90.8301 94 90.8301H104C105.1 90.8301 106 89.9301 106 88.8301C106 87.7301 105.1 86.8301 104 86.8301H94C92.9 86.8301 92 87.7301 92 88.8301Z" fill="#2A2E5E"/>
<path d="M96 81.8301C96 82.9301 96.9 83.8301 98 83.8301H107C108.1 83.8301 109 82.9301 109 81.8301C109 80.7301 108.1 79.8301 107 79.8301H98C96.9 79.8301 96 80.7301 96 81.8301Z" fill="#3D406F"/>
<path d="M22.5805 54.8401C22.6705 53.7401 23.6305 52.8301 24.7305 52.8301H85.0405C86.1405 52.8301 87.1105 53.7401 87.1905 54.8401C88.0605 66.2701 88.9405 77.6001 89.8105 88.8401C89.8905 89.9301 89.0705 90.9301 87.9705 91.0601C65.9905 93.6901 43.7805 93.6901 21.8005 91.0601C20.7005 90.9301 19.8805 89.9201 19.9605 88.8401C20.8305 77.6101 21.7005 66.2701 22.5805 54.8401Z" fill="#2A2E5E"/>
<path d="M22.0098 54.8501C22.1898 52.6501 24.1298 50.8401 26.3298 50.8301H83.4498C85.6498 50.8301 87.5898 52.6501 87.7698 54.8501C88.5498 64.5901 89.3198 74.2601 90.0898 83.8501C90.2598 86.0201 88.6198 88.0201 86.4198 88.2801C65.4598 90.6501 44.3098 90.6501 23.3598 88.2801C21.1698 88.0301 19.5198 86.0201 19.6898 83.8501C20.4598 74.2601 21.2398 64.5901 22.0098 54.8501Z" fill="#3997E6"/>
<path opacity="0.2" d="M24.9497 54.7702C25.0497 53.6902 26.0397 52.8202 27.1397 52.8302H82.8497C83.9497 52.8302 84.9397 53.6902 85.0397 54.7702C85.5097 59.6702 85.9697 64.6902 86.4197 69.8302C86.5197 70.9702 85.7297 71.5702 84.6497 71.2102C65.4097 64.7202 44.5697 64.7202 25.3297 71.2102C24.2597 71.5802 23.4697 70.9702 23.5597 69.8302C24.0097 64.6802 24.4697 59.6602 24.9397 54.7702H24.9497Z" fill="white"/>
<path d="M19.58 20.3303C19.81 19.2703 20 19.3203 20 20.4203V39.1203C20 40.2203 19.87 42.0103 19.71 43.1003C18.91 48.5803 18.1 54.1203 17.29 59.5103C17.13 60.5803 17 60.5603 17 59.4603V34.4003C17 33.3003 17.19 31.5103 17.42 30.4203C18.14 27.0203 18.86 23.6303 19.58 20.3303Z" fill="#3997E6"/>
<path d="M19.58 50.3292C19.76 49.2592 19.83 49.2792 19.74 50.3692C18.89 60.5692 18.02 71.0592 17.17 81.2792C17.08 82.3692 17 82.3492 17 81.2492V67.8092C17 66.7092 17.15 64.9192 17.33 63.8292C18.08 59.3092 18.83 54.7492 19.58 50.3192V50.3292Z" fill="#3997E6"/>
<path d="M90.42 20.3303C90.19 19.2703 90 19.3203 90 20.4203V39.1203C90 40.2203 90.13 42.0103 90.29 43.1003C91.09 48.5803 91.9 54.1203 92.71 59.5103C92.87 60.5803 93 60.5603 93 59.4603V34.4003C93 33.3003 92.81 31.5103 92.58 30.4203C91.86 27.0203 91.14 23.6303 90.42 20.3303Z" fill="#3997E6"/>
<path d="M89.4199 50.3292C89.2399 49.2592 89.1699 49.2792 89.2599 50.3692C90.1099 60.5692 90.9799 71.0592 91.8299 81.2792C91.9199 82.3692 91.9999 82.3492 91.9999 81.2492V67.8092C91.9999 66.7092 91.8499 64.9192 91.6699 63.8292C90.9199 59.3092 90.1699 54.7492 89.4199 50.3192V50.3292Z" fill="#3997E6"/>
<path d="M41.8593 110.83L41.8393 110.85C41.3593 117.19 47.3893 122.46 54.8893 122.46C62.3893 122.46 68.4193 117.19 67.9393 110.85L67.9193 110.83H41.8493H41.8593Z" fill="#2A2E5E"/>
</svg>
