<svg width="123" height="225" viewBox="0 0 123 225" fill="none" xmlns="http://www.w3.org/2000/svg">
<path d="M15 137.5C15 132.033 19.0313 126.426 24.009 125.355C48.1149 120.298 72.8851 120.298 96.991 125.355C101.969 126.426 106 132.033 106 137.5V206.062C106 211.529 101.969 217.136 96.991 218.207C72.8851 223.264 48.1149 223.264 24.009 218.207C19.0313 217.136 15 211.529 15 206.062V137.5Z" fill="#171C4C" fill-opacity="1"/>
<path d="M23.7011 123.887L23.7011 123.887L23.6934 123.888C20.7658 124.518 18.222 126.45 16.429 128.891C14.6325 131.336 13.5 134.411 13.5 137.5V206.062C13.5 209.152 14.6325 212.226 16.429 214.671C18.222 217.112 20.7658 219.044 23.6934 219.674L23.7011 219.675C48.01 224.774 72.99 224.774 97.2989 219.675L97.3066 219.674C100.234 219.044 102.778 217.112 104.571 214.671C106.368 212.226 107.5 209.152 107.5 206.062V137.5C107.5 134.411 106.368 131.336 104.571 128.891C102.778 126.45 100.234 124.518 97.3066 123.888L97.2989 123.887C72.99 118.788 48.01 118.788 23.7011 123.887Z" stroke="#171C4C" stroke-opacity="1" stroke-width="3"/>
<mask id="path-3-outside-1_926_6187" maskUnits="userSpaceOnUse" x="0" y="0.994141" width="123" height="216" fill="black">
<rect fill="white" y="0.994141" width="123" height="216"/>
<path fill-rule="evenodd" clip-rule="evenodd" d="M18.99 5.37914C46.57 2.19914 74.43 2.19914 102.02 5.37914C104.22 5.63914 106.01 7.64914 106.01 9.85914V110.859C106.01 110.927 106.007 110.993 106 111.059L106 129.859H114H118H119C120.1 129.859 121 130.759 121 131.859C121 132.013 120.982 132.163 120.949 132.307C120.983 132.486 121 132.67 121 132.859V145.859C121 147.516 119.657 148.859 118 148.859H116H114H106L106 155.85L106 155.859L106 159.86L106 159.869V160.859V161.859V161.864L106 167.861L106 167.869V169.869L106 169.878V170.122C107.795 171.487 109.01 173.664 109.01 175.859V176.859V189.859V199.859C109.01 203.119 106.33 206.339 103.05 206.919C93.746 208.468 84.3787 209.506 74.99 210.031V212.859H75C75 213.409 74.55 213.919 74 213.979C65.36 214.989 56.63 214.989 47.99 213.979C47.44 213.909 46.99 213.409 46.99 212.859V210.084C37.2765 209.576 27.5844 208.521 17.96 206.919C14.68 206.339 12 203.119 12 199.859V189.859V176.859V175.859C12 173.671 13.2034 171.5 14.99 170.134V148.859H9H7H5C3.34315 148.859 2 147.516 2 145.859V132.859C2 132.67 2.01744 132.486 2.05079 132.307C2.01757 132.163 2 132.013 2 131.859C2 130.759 2.9 129.859 4 129.859H5H9H14.99V16.8592C14.99 16.7425 14.9934 16.626 15 16.5097V9.85914C15 7.64914 16.78 5.62914 18.99 5.37914ZM106 144.859H111V133.859H106V144.859ZM12 144.859V133.859H14.99V144.859H12Z"/>
</mask>
<path fill-rule="evenodd" clip-rule="evenodd" d="M18.99 5.37914C46.57 2.19914 74.43 2.19914 102.02 5.37914C104.22 5.63914 106.01 7.64914 106.01 9.85914V110.859C106.01 110.927 106.007 110.993 106 111.059L106 129.859H114H118H119C120.1 129.859 121 130.759 121 131.859C121 132.013 120.982 132.163 120.949 132.307C120.983 132.486 121 132.67 121 132.859V145.859C121 147.516 119.657 148.859 118 148.859H116H114H106L106 155.85L106 155.859L106 159.86L106 159.869V160.859V161.859V161.864L106 167.861L106 167.869V169.869L106 169.878V170.122C107.795 171.487 109.01 173.664 109.01 175.859V176.859V189.859V199.859C109.01 203.119 106.33 206.339 103.05 206.919C93.746 208.468 84.3787 209.506 74.99 210.031V212.859H75C75 213.409 74.55 213.919 74 213.979C65.36 214.989 56.63 214.989 47.99 213.979C47.44 213.909 46.99 213.409 46.99 212.859V210.084C37.2765 209.576 27.5844 208.521 17.96 206.919C14.68 206.339 12 203.119 12 199.859V189.859V176.859V175.859C12 173.671 13.2034 171.5 14.99 170.134V148.859H9H7H5C3.34315 148.859 2 147.516 2 145.859V132.859C2 132.67 2.01744 132.486 2.05079 132.307C2.01757 132.163 2 132.013 2 131.859C2 130.759 2.9 129.859 4 129.859H5H9H14.99V16.8592C14.99 16.7425 14.9934 16.626 15 16.5097V9.85914C15 7.64914 16.78 5.62914 18.99 5.37914ZM106 144.859H111V133.859H106V144.859ZM12 144.859V133.859H14.99V144.859H12Z" fill="#171C4C"/>
<path d="M102.02 5.37914L102.255 3.39295L102.249 3.39229L102.02 5.37914ZM18.99 5.37914L19.2148 7.36647L19.2191 7.36598L18.99 5.37914ZM106 111.059L104.01 110.859L104 110.959L104 111.059L106 111.059ZM106 129.859L104 129.859L104 131.859H106V129.859ZM120.949 132.307L119 131.857L118.907 132.263L118.983 132.673L120.949 132.307ZM106 148.859V146.859H104L104 148.859L106 148.859ZM106 155.85L104 155.85L104 155.851L106 155.85ZM106 155.859L108 155.859L108 155.858L106 155.859ZM106 159.86L104 159.86L104 159.861L106 159.86ZM106 159.869L108 159.869L108 159.868L106 159.869ZM106 161.864L108 161.864V161.864H106ZM106 167.861L104 167.861L104 167.863L106 167.861ZM106 167.869L108 167.869L108 167.867L106 167.869ZM106 169.869L108 169.871V169.869H106ZM106 169.878L104 169.877V169.878H106ZM106 170.122H104V171.114L104.789 171.714L106 170.122ZM103.05 206.919L103.378 208.892L103.388 208.89L103.398 208.889L103.05 206.919ZM74.99 210.031L74.8782 208.034L72.99 208.14V210.031H74.99ZM74.99 212.859H72.99V214.859H74.99V212.859ZM75 212.859H77V210.859H75V212.859ZM74 213.979L73.7831 211.991L73.7754 211.992L73.7678 211.993L74 213.979ZM47.99 213.979L47.7375 215.963L47.7476 215.964L47.7578 215.966L47.99 213.979ZM46.99 210.084H48.99V208.186L47.0943 208.087L46.99 210.084ZM17.96 206.919L17.6117 208.889L17.6216 208.89L17.6315 208.892L17.96 206.919ZM14.99 170.134L16.2047 171.723L16.99 171.123V170.134H14.99ZM14.99 148.859H16.99V146.859H14.99V148.859ZM2.05079 132.307L4.01699 132.673L4.09329 132.263L3.99957 131.857L2.05079 132.307ZM14.99 129.859V131.859H16.99V129.859H14.99ZM15 16.5097L16.9967 16.6237L17 16.5668V16.5097H15ZM111 144.859V146.859H113V144.859H111ZM106 144.859H104V146.859H106V144.859ZM111 133.859H113V131.859H111V133.859ZM106 133.859V131.859H104V133.859H106ZM12 133.859V131.859H10V133.859H12ZM12 144.859H10V146.859H12V144.859ZM14.99 133.859H16.99V131.859H14.99V133.859ZM14.99 144.859V146.859H16.99V144.859H14.99ZM102.249 3.39229C74.5069 0.194759 46.4932 0.19475 18.7609 3.3923L19.2191 7.36598C46.6468 4.20353 74.3531 4.20352 101.791 7.36599L102.249 3.39229ZM108.01 9.85914C108.01 6.63174 105.458 3.77152 102.255 3.39296L101.785 7.36532C102.982 7.50676 104.01 8.66654 104.01 9.85914H108.01ZM108.01 110.859V9.85914H104.01V110.859H108.01ZM107.99 111.259C108.003 111.127 108.01 110.994 108.01 110.859H104.01L104.01 110.859L107.99 111.259ZM108 129.859L108 111.059L104 111.059L104 129.859L108 129.859ZM114 127.859H106V131.859H114V127.859ZM118 127.859H114V131.859H118V127.859ZM119 127.859H118V131.859H119V127.859ZM123 131.859C123 129.655 121.205 127.859 119 127.859V131.859H123ZM122.898 132.756C122.965 132.466 123 132.166 123 131.859H119C119 131.86 119 131.859 119 131.857L122.898 132.756ZM123 132.859C123 132.547 122.971 132.24 122.915 131.94L118.983 132.673C118.994 132.732 119 132.794 119 132.859H123ZM123 145.859V132.859H119V145.859H123ZM118 150.859C120.761 150.859 123 148.621 123 145.859H119C119 146.411 118.552 146.859 118 146.859V150.859ZM116 150.859H118V146.859H116V150.859ZM114 150.859H116V146.859H114V150.859ZM106 150.859H114V146.859H106V150.859ZM108 155.85L108 148.859L104 148.859L104 155.85L108 155.85ZM108 155.858L108 155.848L104 155.851L104 155.861L108 155.858ZM108 159.86L108 155.859L104 155.859L104 159.86L108 159.86ZM108 159.868L108 159.858L104 159.861L104 159.871L108 159.868ZM108 160.859V159.869H104V160.859H108ZM108 161.859V160.859H104V161.859H108ZM108 161.864V161.859H104V161.864H108ZM108 167.861L108 161.864L104 161.864L104 167.861L108 167.861ZM108 167.867L108 167.859L104 167.863L104 167.871L108 167.867ZM108 169.869V167.869H104V169.869H108ZM108 169.88L108 169.871L104 169.868L104 169.877L108 169.88ZM108 170.122V169.878H104V170.122H108ZM111.01 175.859C111.01 172.953 109.43 170.218 107.211 168.53L104.789 171.714C106.16 172.757 107.01 174.376 107.01 175.859H111.01ZM111.01 176.859V175.859H107.01V176.859H111.01ZM111.01 189.859V176.859H107.01V189.859H111.01ZM111.01 199.859V189.859H107.01V199.859H111.01ZM103.398 208.889C107.63 208.14 111.01 204.093 111.01 199.859H107.01C107.01 202.145 105.03 204.538 102.702 204.95L103.398 208.889ZM75.1018 212.028C84.5631 211.498 94.0026 210.453 103.378 208.892L102.722 204.946C93.4894 206.483 84.1944 207.513 74.8782 208.034L75.1018 212.028ZM76.99 212.859V210.031H72.99V212.859H76.99ZM75 210.859H74.99V214.859H75V210.859ZM74.2169 215.967C75.7959 215.795 77 214.415 77 212.859H73C73 212.59 73.105 212.394 73.2119 212.274C73.3195 212.153 73.5078 212.021 73.7831 211.991L74.2169 215.967ZM47.7578 215.966C56.5521 216.994 65.4379 216.994 74.2322 215.966L73.7678 211.993C65.2821 212.985 56.7079 212.985 48.2222 211.993L47.7578 215.966ZM44.99 212.859C44.99 214.444 46.2169 215.77 47.7375 215.963L48.2425 211.995C48.4902 212.027 48.6662 212.145 48.774 212.265C48.882 212.386 48.99 212.586 48.99 212.859H44.99ZM44.99 210.084V212.859H48.99V210.084H44.99ZM17.6315 208.892C27.3302 210.507 37.0971 211.57 46.8856 212.081L47.0943 208.087C37.4558 207.583 27.8385 206.536 18.2885 204.946L17.6315 208.892ZM10 199.859C10 204.093 13.3799 208.14 17.6117 208.889L18.3083 204.95C15.9801 204.538 14 202.145 14 199.859H10ZM10 189.859V199.859H14V189.859H10ZM10 176.859V189.859H14V176.859H10ZM10 175.859V176.859H14V175.859H10ZM13.7753 168.545C11.5648 170.235 10 172.963 10 175.859H14C14 174.378 14.8421 172.765 16.2047 171.723L13.7753 168.545ZM12.99 148.859V170.134H16.99V148.859H12.99ZM9 150.859H14.99V146.859H9V150.859ZM7 150.859H9V146.859H7V150.859ZM5 150.859H7V146.859H5V150.859ZM0 145.859C0 148.621 2.23858 150.859 5 150.859V146.859C4.44771 146.859 4 146.411 4 145.859H0ZM0 132.859V145.859H4V132.859H0ZM0.0845849 131.94C0.0288587 132.24 0 132.547 0 132.859H4C4 132.794 4.00602 132.732 4.01699 132.673L0.0845849 131.94ZM0 131.859C0 132.166 0.0350907 132.466 0.102005 132.756L3.99957 131.857C4.00004 131.859 4 131.86 4 131.859H0ZM4 127.859C1.79543 127.859 0 129.655 0 131.859H4V127.859ZM5 127.859H4V131.859H5V127.859ZM9 127.859H5V131.859H9V127.859ZM14.99 127.859H9V131.859H14.99V127.859ZM12.99 16.8592V129.859H16.99V16.8592H12.99ZM13.0033 16.3957C12.9945 16.5495 12.99 16.704 12.99 16.8592H16.99C16.99 16.781 16.9922 16.7025 16.9967 16.6237L13.0033 16.3957ZM13 9.85914V16.5097H17V9.85914H13ZM18.7652 3.39182C15.5331 3.75744 13 6.64267 13 9.85914H17C17 8.65561 18.0269 7.50084 19.2148 7.36647L18.7652 3.39182ZM111 142.859H106V146.859H111V142.859ZM109 133.859V144.859H113V133.859H109ZM106 135.859H111V131.859H106V135.859ZM108 144.859V133.859H104V144.859H108ZM10 133.859V144.859H14V133.859H10ZM14.99 131.859H12V135.859H14.99V131.859ZM16.99 144.859V133.859H12.99V144.859H16.99ZM12 146.859H14.99V142.859H12V146.859Z" fill="#171C4C" mask="url(#path-3-outside-1_926_6187)"/>
<path d="M12 175.859C12 172.599 14.67 169.379 17.96 168.799C46.13 164.109 74.88 164.109 103.05 168.799C106.33 169.379 109.01 172.599 109.01 175.859V199.859C109.01 203.119 106.33 206.339 103.05 206.919C74.88 211.609 46.13 211.609 17.96 206.919C14.68 206.339 12 203.119 12 199.859V175.859Z" fill="#2A2E5E"/>
<path d="M75.0002 212.859C75.0002 213.409 74.5502 213.919 74.0002 213.979C65.3602 214.989 56.6302 214.989 47.9902 213.979C47.4402 213.909 46.9902 213.409 46.9902 212.859V206.859C46.9902 206.309 47.4402 205.859 47.9902 205.859H73.9902C74.5402 205.859 74.9902 206.309 74.9902 206.859V212.859H75.0002Z" fill="#A7A7C4"/>
<path d="M12 175.859C12 172.619 14.67 169.399 17.96 168.799C46.13 164.109 74.88 164.109 103.05 168.799C106.33 169.399 109.01 172.619 109.01 175.859V188.859C109.01 192.099 106.33 195.319 103.05 195.919C74.88 200.609 46.13 200.609 17.96 195.919C14.68 195.319 12 192.099 12 188.859V175.859Z" fill="#3D406F"/>
<path d="M100.04 10.1692C103.32 10.7292 106 13.9592 106 17.2492V184.859C106 188.149 103.32 191.369 100.04 191.919C73.8602 196.239 47.1402 196.239 20.9502 191.919C17.6702 191.369 14.9902 188.149 14.9902 184.859V16.8592C14.9902 13.5692 17.6702 10.3592 20.9502 9.82922C47.1302 5.61922 73.8502 5.74922 100.04 10.1792V10.1692Z" fill="#F09300"/>
<path d="M18.99 5.37914C46.57 2.19914 74.43 2.19914 102.02 5.37914C104.22 5.63914 106.01 7.64914 106.01 9.85914V110.859C106.01 111.959 105.11 112.859 104.01 112.859H17C15.89 112.859 15 111.959 15 110.859V9.85914C15 7.64914 16.78 5.62914 18.99 5.37914Z" fill="#C0C9E2"/>
<path d="M15 102.858V110.858C15 111.958 15.9 112.858 17 112.858H35V98.8984C28.99 99.3184 22.98 99.8884 16.99 100.608C15.89 100.748 15 101.758 15 102.858ZM104.01 100.608C98.35 99.9284 92.68 99.3784 87 98.9684V112.858H104C105.1 112.858 106 111.958 106 110.858V102.858C106 101.758 105.1 100.748 104.01 100.608Z" fill="#2A2E5E"/>
<path d="M19 14.3586C19 11.0586 21.69 8.00859 24.98 7.65859C48.59 5.10859 72.41 5.10859 96.02 7.65859C99.31 8.00859 102 11.0586 102 14.3586V90.3586C102 93.6586 99.31 96.0086 96.02 95.6586C72.41 93.1086 48.59 93.1086 24.98 95.6586C21.69 96.0086 19 93.6586 19 90.3586V14.3586Z" fill="white"/>
<path d="M93 179.859C95.2091 179.859 97 178.069 97 175.859C97 173.65 95.2091 171.859 93 171.859C90.7909 171.859 89 173.65 89 175.859C89 178.069 90.7909 179.859 93 179.859Z" fill="#FFC655"/>
<path d="M27 179.859C29.2091 179.859 31 178.069 31 175.859C31 173.65 29.2091 171.859 27 171.859C24.7909 171.859 23 173.65 23 175.859C23 178.069 24.7909 179.859 27 179.859Z" fill="#FFC655"/>
<path d="M80 61.8594H42C39.7909 61.8594 38 63.6502 38 65.8594V79.8594C38 82.0685 39.7909 83.8594 42 83.8594H80C82.2091 83.8594 84 82.0685 84 79.8594V65.8594C84 63.6502 82.2091 61.8594 80 61.8594Z" fill="#E0E4F1"/>
<path d="M79 59.8594H43C40.7909 59.8594 39 61.6502 39 63.8594V75.8594C39 78.0685 40.7909 79.8594 43 79.8594H79C81.2091 79.8594 83 78.0685 83 75.8594V63.8594C83 61.6502 81.2091 59.8594 79 59.8594Z" fill="white"/>
<path d="M80 15.8594H42C39.7909 15.8594 38 17.6502 38 19.8594V33.8594C38 36.0685 39.7909 37.8594 42 37.8594H80C82.2091 37.8594 84 36.0685 84 33.8594V19.8594C84 17.6502 82.2091 15.8594 80 15.8594Z" fill="#E0E4F1"/>
<path d="M79 13.8594H43C40.7909 13.8594 39 15.6502 39 17.8594V29.8594C39 32.0685 40.7909 33.8594 43 33.8594H79C81.2091 33.8594 83 32.0685 83 29.8594V17.8594C83 15.6502 81.2091 13.8594 79 13.8594Z" fill="white"/>
<path d="M100.02 153.16C73.75 150.28 47.25 150.28 20.98 153.16C17.69 153.56 15 156.6 15 159.87V172.87C15 176.13 17.69 179.18 20.98 179.58C22.99 179.8 24.99 180 27 180.18V168.87H93V180.27C95.34 180.06 97.68 179.83 100.02 179.58C103.31 179.18 106 176.14 106 172.87V159.87C106 156.61 103.31 153.56 100.02 153.16Z" fill="#FFC655"/>
<path d="M100.02 161.16C73.75 158.28 47.25 158.28 20.98 161.16C17.69 161.58 15 164.63 15 167.87V169.87C15 173.1 17.69 176.15 20.98 176.58C22.99 176.8 24.99 177 27 177.18V165.87H93V177.27C95.34 177.06 97.68 176.83 100.02 176.58C103.31 176.16 106 173.11 106 169.87V167.87C106 164.64 103.31 161.59 100.02 161.16Z" fill="#FFEAB5"/>
<path d="M84.9998 187.859C84.9998 188.959 84.0998 189.969 83.0098 190.099C67.7198 191.879 52.2798 191.879 36.9998 190.099C35.8998 189.969 35.0098 188.949 35.0098 187.859V176.859C35.0098 175.759 35.9098 174.859 37.0098 174.859H83.0098C84.1098 174.859 85.0098 175.759 85.0098 176.859V187.859H84.9998Z" fill="#6A6B95"/>
<path d="M82.9998 185.859C82.9998 186.959 82.0998 187.969 81.0098 188.099C67.0498 189.709 52.9498 189.709 38.9998 188.099C37.8998 187.969 37.0098 186.949 37.0098 185.859V178.859C37.0098 177.759 37.9098 176.859 39.0098 176.859H81.0098C82.1098 176.859 83.0098 177.759 83.0098 178.859V185.859H82.9998Z" fill="#2A2E5E"/>
<path d="M84 174.859H37C36.4477 174.859 36 175.307 36 175.859C36 176.412 36.4477 176.859 37 176.859H84C84.5523 176.859 85 176.412 85 175.859C85 175.307 84.5523 174.859 84 174.859Z" fill="#A7A7C4"/>
<path d="M15 155.858C15 152.608 17.69 149.558 20.98 149.148C47.25 146.268 73.75 146.268 100.02 149.148C103.31 149.558 106 152.608 106 155.858V161.858C106 165.108 103.31 168.158 100.02 168.568C73.75 171.448 47.25 171.448 20.98 168.568C17.69 168.158 15 165.108 15 161.858V155.858Z" fill="#F09300"/>
<path d="M15 160.858C15 157.628 17.69 154.578 20.98 154.148C47.25 151.268 73.75 151.268 100.02 154.148C103.31 154.578 106 157.628 106 160.858V161.858C106 165.088 103.31 168.138 100.02 168.568C73.75 171.448 47.25 171.448 20.98 168.568C17.69 168.138 15 165.088 15 161.858V160.858Z" fill="#FFC655"/>
<path d="M21 120.859C21 119.759 21.9 118.859 23 118.859H99C100.1 118.859 101 119.759 101 120.859V155.859C101 156.959 100.1 157.969 99.01 158.109C73.76 161.139 48.24 161.139 23 158.109C21.9 157.979 21.01 156.959 21.01 155.859V120.859H21Z" fill="#2A2E5E"/>
<path d="M21 124.859C21 123.759 21.9 122.859 23 122.859H57C58.1 122.859 59 123.829 59 125.019C59 135.089 59 145.149 59 155.219C59 156.409 58.1 157.369 57 157.359C45.64 157.219 34.3 156.469 23 155.109C21.9 154.979 21.01 153.959 21.01 152.859V124.859H21Z" fill="#3997E6"/>
<path d="M62 125.019C62 123.829 62.9 122.859 64 122.859H99C100.1 122.859 101 123.759 101 124.859V152.859C101 153.959 100.1 154.969 99.01 155.109C87.38 156.499 75.7 157.259 64.01 157.369C62.91 157.379 62.01 156.409 62.01 155.229C62.01 145.159 62.01 135.099 62.01 125.029L62 125.019Z" fill="#3997E6"/>
<path opacity="0.2" d="M23.1137 124L23.1137 124H23.1232H98.8728C99.4472 124 100 124.503 100 125.236V144.243C100 144.615 99.8689 144.754 99.8117 144.795C99.758 144.833 99.6016 144.908 99.2782 144.79L99.2783 144.79L99.267 144.786C74.5272 136.125 47.7125 136.09 22.957 144.934L22.9518 144.936C22.6403 145.049 22.3984 144.996 22.26 144.91C22.1376 144.834 22.0197 144.688 22.0172 144.402L22.0172 144.401C21.9854 141.225 22.0039 138.042 22.0226 134.844L22.0226 134.843C22.0412 131.648 22.0598 128.439 22.0279 125.223C22.0276 125.184 22.0252 125.147 22.021 125.11C22.0701 124.435 22.5902 123.995 23.1137 124ZM22.0172 125.223C22.0172 125.223 22.0172 125.223 22.0172 125.223L22.0172 125.223Z" fill="white" stroke="#3997E6" stroke-width="2" stroke-linejoin="round"/>
<path d="M93 177.859C95.2091 177.859 97 176.069 97 173.859C97 171.65 95.2091 169.859 93 169.859C90.7909 169.859 89 171.65 89 173.859C89 176.069 90.7909 177.859 93 177.859Z" fill="#FFEAB5"/>
<path d="M21 109.859C22.6569 109.859 24 108.516 24 106.859C24 105.203 22.6569 103.859 21 103.859C19.3431 103.859 18 105.203 18 106.859C18 108.516 19.3431 109.859 21 109.859Z" fill="#E93637"/>
<path d="M29 109.859C30.6569 109.859 32 108.516 32 106.859C32 105.203 30.6569 103.859 29 103.859C27.3431 103.859 26 105.203 26 106.859C26 108.516 27.3431 109.859 29 109.859Z" fill="#FFEAB5"/>
<path d="M93 109.859C94.6569 109.859 96 108.516 96 106.859C96 105.203 94.6569 103.859 93 103.859C91.3431 103.859 90 105.203 90 106.859C90 108.516 91.3431 109.859 93 109.859Z" fill="#FFEAB5"/>
<path d="M101 109.859C102.657 109.859 104 108.516 104 106.859C104 105.203 102.657 103.859 101 103.859C99.3431 103.859 98 105.203 98 106.859C98 108.516 99.3431 109.859 101 109.859Z" fill="#E93637"/>
<path d="M27 176.859C29.2091 176.859 31 175.069 31 172.859C31 170.65 29.2091 168.859 27 168.859C24.7909 168.859 23 170.65 23 172.859C23 175.069 24.7909 176.859 27 176.859Z" fill="#FFEAB5"/>
<path d="M9 129.859H5C3.34315 129.859 2 131.203 2 132.859V145.859C2 147.516 3.34315 148.859 5 148.859H9C10.6569 148.859 12 147.516 12 145.859V132.859C12 131.203 10.6569 129.859 9 129.859Z" fill="#2A2E5E"/>
<path d="M19 146.859C19 147.959 18.1 148.859 17 148.859H7C5.9 148.859 5 147.959 5 146.859C5 145.759 5.9 144.859 7 144.859H17C18.1 144.859 19 145.759 19 146.859Z" fill="#2A2E5E"/>
<path d="M18 131.859C18 132.959 17.1 133.859 16 133.859H4C2.9 133.859 2 132.959 2 131.859C2 130.759 2.9 129.859 4 129.859H16C17.1 129.859 18 130.759 18 131.859Z" fill="#3D406F"/>
<path d="M118 129.859H114C112.343 129.859 111 131.203 111 132.859V145.859C111 147.516 112.343 148.859 114 148.859H118C119.657 148.859 121 147.516 121 145.859V132.859C121 131.203 119.657 129.859 118 129.859Z" fill="#2A2E5E"/>
<path d="M121 131.859C121 132.959 120.1 133.859 119 133.859H106C104.9 133.859 104 132.959 104 131.859C104 130.759 104.9 129.859 106 129.859H119C120.1 129.859 121 130.759 121 131.859Z" fill="#3D406F"/>
<path d="M104 146.859C104 147.959 104.9 148.859 106 148.859H116C117.1 148.859 118 147.959 118 146.859C118 145.759 117.1 144.859 116 144.859H106C104.9 144.859 104 145.759 104 146.859Z" fill="#2A2E5E"/>
<rect x="59" y="123" width="3" height="37" fill="#2A2E5E"/>
<rect x="56" y="125" width="3" height="29" fill="#3997E6"/>
<rect x="62" y="125" width="3" height="29" fill="#3997E6"/>
</svg>
