<svg width="113" height="162" viewBox="0 0 113 162" fill="none" xmlns="http://www.w3.org/2000/svg">
<mask id="mask0_926_6533" style="mask-type:alpha" maskUnits="userSpaceOnUse" x="10" y="91" width="91" height="71">
<rect width="91" height="71" transform="matrix(1 0 0 -1 10 162)" fill="#D9D9D9"/>
</mask>
<g mask="url(#mask0_926_6533)">
<path d="M12 52.5921C12 47.7137 16.3802 42.7102 21.7886 41.781C44.075 38.073 66.925 38.073 89.2114 41.781C94.6198 42.7102 99 47.7137 99 52.5921V146.408C99 151.286 94.6198 156.29 89.2114 157.219C66.925 160.927 44.075 160.927 21.7886 157.219C16.3802 156.29 12 151.286 12 146.408V52.5921Z" fill="#171C4C" fill-opacity="1"/>
</g>
<mask id="path-3-outside-1_926_6533" maskUnits="userSpaceOnUse" x="0" y="0.996094" width="111" height="152" fill="black">
<rect fill="white" y="0.996094" width="111" height="152"/>
<path fill-rule="evenodd" clip-rule="evenodd" d="M92.03 6.29053C94.22 6.68053 96 8.83053 96 11.0205V22.867C97.795 24.2297 99.01 26.4088 99.01 28.6105V51.6105V59.6105C99.01 61.8141 97.7976 63.9949 96 65.3574V85.6105V86.6105C96 86.4218 96.0174 86.237 96.0508 86.0579C96.0176 85.914 96 85.7642 96 85.6105C96 84.5105 96.9 83.6105 98 83.6105H99H106H107C108.1 83.6105 109 84.5105 109 85.6105C109 85.7642 108.982 85.914 108.949 86.0579C108.983 86.237 109 86.4218 109 86.6105V91.6105C109 93.2674 107.657 94.6105 106 94.6105H105H99H97.3382C97.3798 94.9397 97.3945 95.2739 97.38 95.6105C97.17 100.601 96.96 105.621 96.76 110.661C96.7367 111.207 96.6402 111.747 96.4802 112.27C98.0083 113.639 99.01 115.617 99.01 117.611V127.611V137.611C99.01 140.861 96.34 144.091 93.05 144.671C83.7494 146.193 74.3787 147.146 64.99 147.53V148.611H65C65 149.161 64.55 149.671 64 149.731C58.68 150.331 53.31 150.331 47.99 149.731C47.44 149.671 46.99 149.161 46.99 148.611V147.567C37.2782 147.211 27.5824 146.245 17.96 144.671C14.68 144.091 12 140.871 12 137.611V127.611V117.611C12 115.663 12.9591 113.722 14.436 112.355C14.2603 111.805 14.1544 111.236 14.13 110.661L14.0479 108.689C13.8654 104.304 13.6839 99.9421 13.51 95.6105C13.4955 95.2739 13.5101 94.9397 13.5518 94.6105H12H6H5C3.34315 94.6105 2 93.2674 2 91.6105V86.6105C2 86.4218 2.01744 86.237 2.05079 86.0579C2.01757 85.914 2 85.7642 2 85.6105C2 84.5105 2.9 83.6105 4 83.6105H5H12H13C14.1 83.6105 15 84.5105 15 85.6105C15 85.7642 14.9824 85.914 14.9492 86.0579C14.9826 86.237 15 86.4218 15 86.6105V85.6105V65.3465C13.2105 63.9832 12 61.8082 12 59.6105V51.6105V28.6105C12 26.4111 13.2079 24.2343 15 22.8712V10.6105C15 8.42053 16.78 6.28053 18.97 5.91053C43.15 1.89053 67.85 2.04053 92.03 6.29053Z"/>
</mask>
<path fill-rule="evenodd" clip-rule="evenodd" d="M92.03 6.29053C94.22 6.68053 96 8.83053 96 11.0205V22.867C97.795 24.2297 99.01 26.4088 99.01 28.6105V51.6105V59.6105C99.01 61.8141 97.7976 63.9949 96 65.3574V85.6105V86.6105C96 86.4218 96.0174 86.237 96.0508 86.0579C96.0176 85.914 96 85.7642 96 85.6105C96 84.5105 96.9 83.6105 98 83.6105H99H106H107C108.1 83.6105 109 84.5105 109 85.6105C109 85.7642 108.982 85.914 108.949 86.0579C108.983 86.237 109 86.4218 109 86.6105V91.6105C109 93.2674 107.657 94.6105 106 94.6105H105H99H97.3382C97.3798 94.9397 97.3945 95.2739 97.38 95.6105C97.17 100.601 96.96 105.621 96.76 110.661C96.7367 111.207 96.6402 111.747 96.4802 112.27C98.0083 113.639 99.01 115.617 99.01 117.611V127.611V137.611C99.01 140.861 96.34 144.091 93.05 144.671C83.7494 146.193 74.3787 147.146 64.99 147.53V148.611H65C65 149.161 64.55 149.671 64 149.731C58.68 150.331 53.31 150.331 47.99 149.731C47.44 149.671 46.99 149.161 46.99 148.611V147.567C37.2782 147.211 27.5824 146.245 17.96 144.671C14.68 144.091 12 140.871 12 137.611V127.611V117.611C12 115.663 12.9591 113.722 14.436 112.355C14.2603 111.805 14.1544 111.236 14.13 110.661L14.0479 108.689C13.8654 104.304 13.6839 99.9421 13.51 95.6105C13.4955 95.2739 13.5101 94.9397 13.5518 94.6105H12H6H5C3.34315 94.6105 2 93.2674 2 91.6105V86.6105C2 86.4218 2.01744 86.237 2.05079 86.0579C2.01757 85.914 2 85.7642 2 85.6105C2 84.5105 2.9 83.6105 4 83.6105H5H12H13C14.1 83.6105 15 84.5105 15 85.6105C15 85.7642 14.9824 85.914 14.9492 86.0579C14.9826 86.237 15 86.4218 15 86.6105V85.6105V65.3465C13.2105 63.9832 12 61.8082 12 59.6105V51.6105V28.6105C12 26.4111 13.2079 24.2343 15 22.8712V10.6105C15 8.42053 16.78 6.28053 18.97 5.91053C43.15 1.89053 67.85 2.04053 92.03 6.29053Z" fill="#171C4C"/>
<path d="M92.03 6.29053L92.3806 4.3215L92.3762 4.32072L92.03 6.29053ZM96 22.867H94V23.8597L94.7907 24.4599L96 22.867ZM96 65.3574L94.7919 63.7636L94 64.3638V65.3574H96ZM96.0508 86.0579L98.017 86.424L98.0933 86.0143L97.9996 85.6082L96.0508 86.0579ZM108.949 86.0579L107 85.6082L106.907 86.0143L106.983 86.424L108.949 86.0579ZM97.3382 94.6105V92.6105H95.0694L95.354 94.8614L97.3382 94.6105ZM97.38 95.6105L95.3818 95.5244L95.3817 95.5264L97.38 95.6105ZM96.76 110.661L98.7582 110.746L98.7584 110.74L96.76 110.661ZM96.4802 112.27L94.5676 111.686L94.1941 112.907L95.1457 113.76L96.4802 112.27ZM93.05 144.671L93.3731 146.644L93.3852 146.642L93.3972 146.64L93.05 144.671ZM64.99 147.53L64.9084 145.531L62.99 145.61V147.53H64.99ZM64.99 148.611H62.99V150.611H64.99V148.611ZM65 148.611H67V146.611H65V148.611ZM64 149.731L63.7831 147.742L63.7758 147.743L64 149.731ZM47.99 149.731L48.2141 147.743L48.2069 147.742L47.99 149.731ZM46.99 147.567H48.99V145.639L47.0633 145.568L46.99 147.567ZM17.96 144.671L17.6117 146.64L17.6244 146.642L17.637 146.644L17.96 144.671ZM14.436 112.355L15.7947 113.822L16.7287 112.958L16.341 111.745L14.436 112.355ZM14.13 110.661L12.1317 110.744L12.1318 110.746L14.13 110.661ZM14.0479 108.689L16.0462 108.606L16.0462 108.606L14.0479 108.689ZM13.51 95.6105L15.5084 95.5303L15.5081 95.5245L13.51 95.6105ZM13.5518 94.6105L15.536 94.8614L15.8205 92.6105H13.5518V94.6105ZM2.05079 86.0579L4.01699 86.424L4.09329 86.0143L3.99957 85.6082L2.05079 86.0579ZM14.9492 86.0579L13.0004 85.6082L12.9067 86.0143L12.983 86.424L14.9492 86.0579ZM15 65.3465H17V64.3558L16.212 63.7555L15 65.3465ZM15 22.8712L16.2108 24.4631L17 23.8628V22.8712H15ZM18.97 5.91053L18.642 3.9376L18.6368 3.93847L18.97 5.91053ZM98 11.0205C98 7.86511 95.5288 4.88213 92.3806 4.32151L91.6794 8.25955C92.9112 8.47893 94 9.79595 94 11.0205H98ZM98 22.867V11.0205H94V22.867H98ZM101.01 28.6105C101.01 25.6991 99.4312 22.9609 97.2093 21.274L94.7907 24.4599C96.1588 25.4986 97.01 27.1186 97.01 28.6105H101.01ZM101.01 51.6105V28.6105H97.01V51.6105H101.01ZM101.01 59.6105V51.6105H97.01V59.6105H101.01ZM97.2081 66.9513C99.4355 65.263 101.01 62.5219 101.01 59.6105H97.01C97.01 61.1063 96.1597 62.7268 94.7919 63.7636L97.2081 66.9513ZM98 85.6105V65.3574H94V85.6105H98ZM98 86.6105V85.6105H94V86.6105H98ZM94.0846 85.6919C94.0289 85.9911 94 86.2983 94 86.6105H98C98 86.5452 98.006 86.483 98.017 86.424L94.0846 85.6919ZM94 85.6105C94 85.9171 94.0351 86.2177 94.102 86.5077L97.9996 85.6082C98 85.6102 98 85.6114 98 85.6105H94ZM98 81.6105C95.7954 81.6105 94 83.406 94 85.6105H98V81.6105ZM99 81.6105H98V85.6105H99V81.6105ZM106 81.6105H99V85.6105H106V81.6105ZM107 81.6105H106V85.6105H107V81.6105ZM111 85.6105C111 83.406 109.205 81.6105 107 81.6105V85.6105H111ZM110.898 86.5077C110.965 86.2177 111 85.9171 111 85.6105H107C107 85.6114 107 85.6102 107 85.6082L110.898 86.5077ZM111 86.6105C111 86.2983 110.971 85.9911 110.915 85.6919L106.983 86.424C106.994 86.483 107 86.5452 107 86.6105H111ZM111 91.6105V86.6105H107V91.6105H111ZM106 96.6105C108.761 96.6105 111 94.372 111 91.6105H107C107 92.1628 106.552 92.6105 106 92.6105V96.6105ZM105 96.6105H106V92.6105H105V96.6105ZM99 96.6105H105V92.6105H99V96.6105ZM97.3382 96.6105H99V92.6105H97.3382V96.6105ZM99.3781 95.6966C99.3976 95.245 99.3778 94.798 99.3224 94.3597L95.354 94.8614C95.3818 95.0814 95.3914 95.3029 95.3818 95.5244L99.3781 95.6966ZM98.7584 110.74C98.9583 105.702 99.1682 100.685 99.3782 95.6946L95.3817 95.5264C95.1717 100.517 94.9616 105.539 94.7615 110.581L98.7584 110.74ZM98.3928 112.855C98.5995 112.179 98.7273 111.471 98.7581 110.746L94.7618 110.576C94.7461 110.943 94.6808 111.315 94.5676 111.686L98.3928 112.855ZM101.01 117.611C101.01 114.966 99.7001 112.47 97.8148 110.781L95.1457 113.76C96.3165 114.809 97.01 116.269 97.01 117.611H101.01ZM101.01 127.611V117.611H97.01V127.611H101.01ZM101.01 137.611V127.611H97.01V137.611H101.01ZM93.3972 146.64C97.644 145.891 101.01 141.83 101.01 137.611H97.01C97.01 139.891 95.036 142.29 92.7028 142.701L93.3972 146.64ZM65.0716 149.528C74.5411 149.141 83.9924 148.18 93.3731 146.644L92.7269 142.697C83.5063 144.206 74.2163 145.151 64.9084 145.531L65.0716 149.528ZM66.99 148.611V147.53H62.99V148.611H66.99ZM65 146.611H64.99V150.611H65V146.611ZM64.2169 151.719C65.7958 151.547 67 150.167 67 148.611H63C63 148.342 63.105 148.145 63.2119 148.025C63.3195 147.904 63.5078 147.772 63.7831 147.742L64.2169 151.719ZM47.7658 151.718C53.2348 152.335 58.7552 152.335 64.2241 151.718L63.7758 147.743C58.6048 148.326 53.3852 148.326 48.2141 147.743L47.7658 151.718ZM44.99 148.611C44.99 150.167 46.1941 151.547 47.7731 151.719L48.2069 147.742C48.4822 147.772 48.6705 147.904 48.778 148.025C48.8849 148.145 48.99 148.342 48.99 148.611H44.99ZM44.99 147.567V148.611H48.99V147.567H44.99ZM17.637 146.644C27.3422 148.233 37.1213 149.206 46.9167 149.566L47.0633 145.568C37.4351 145.215 27.8227 144.258 18.283 142.697L17.637 146.644ZM10 137.611C10 141.844 13.3799 145.892 17.6117 146.64L18.3083 142.701C15.9801 142.289 14 139.897 14 137.611H10ZM10 127.611V137.611H14V127.611H10ZM10 117.611V127.611H14V117.611H10ZM13.0773 110.887C11.2552 112.574 10 115.024 10 117.611H14C14 116.301 14.6631 114.87 15.7947 113.822L13.0773 110.887ZM12.1318 110.746C12.1643 111.51 12.3045 112.255 12.5311 112.964L16.341 111.745C16.2162 111.355 16.1446 110.962 16.1281 110.576L12.1318 110.746ZM12.0497 108.773L12.1317 110.744L16.1282 110.577L16.0462 108.606L12.0497 108.773ZM11.5116 95.6908C11.6856 100.024 11.8672 104.387 12.0497 108.773L16.0462 108.606C15.8637 104.221 15.6822 99.8602 15.5083 95.5303L11.5116 95.6908ZM11.5675 94.3597C11.5121 94.7981 11.4924 95.245 11.5118 95.6966L15.5081 95.5245C15.4986 95.3029 15.5081 95.0814 15.536 94.8614L11.5675 94.3597ZM12 96.6105H13.5518V92.6105H12V96.6105ZM6 96.6105H12V92.6105H6V96.6105ZM5 96.6105H6V92.6105H5V96.6105ZM0 91.6105C0 94.372 2.23858 96.6105 5 96.6105V92.6105C4.44772 92.6105 4 92.1628 4 91.6105H0ZM0 86.6105V91.6105H4V86.6105H0ZM0.0845831 85.6918C0.0288595 85.9911 0 86.2983 0 86.6105H4C4 86.5452 4.00601 86.483 4.01699 86.424L0.0845831 85.6918ZM0 85.6105C0 85.9171 0.0350912 86.2177 0.102012 86.5077L3.99957 85.6082C4.00004 85.6102 4 85.6113 4 85.6105H0ZM4 81.6105C1.79543 81.6105 0 83.406 0 85.6105H4V81.6105ZM5 81.6105H4V85.6105H5V81.6105ZM12 81.6105H5V85.6105H12V81.6105ZM13 81.6105H12V85.6105H13V81.6105ZM17 85.6105C17 83.406 15.2046 81.6105 13 81.6105V85.6105H17ZM16.898 86.5077C16.9649 86.2177 17 85.9171 17 85.6105H13C13 85.6113 13 85.6102 13.0004 85.6082L16.898 86.5077ZM17 86.6105C17 86.2983 16.9711 85.9911 16.9154 85.6918L12.983 86.424C12.994 86.483 13 86.5452 13 86.6105H17ZM13 85.6105V86.6105H17V85.6105H13ZM13 65.3465V85.6105H17V65.3465H13ZM10 59.6105C10 62.5167 11.5731 65.2501 13.788 66.9374L16.212 63.7555C14.8478 62.7163 14 61.0996 14 59.6105H10ZM10 51.6105V59.6105H14V51.6105H10ZM10 28.6105V51.6105H14V28.6105H10ZM13.7892 21.2793C11.5689 22.9682 10 25.7045 10 28.6105H14C14 27.1177 14.847 25.5003 16.2108 24.4631L13.7892 21.2793ZM13 10.6105V22.8712H17V10.6105H13ZM18.6368 3.93847C15.4753 4.47262 13 7.45389 13 10.6105H17C17 9.38717 18.0847 8.08844 19.3032 7.88258L18.6368 3.93847ZM92.3762 4.32072C67.9754 0.0319129 43.0474 -0.119871 18.642 3.93761L19.298 7.88345C43.2526 3.90093 67.7246 4.04914 91.6838 8.26033L92.3762 4.32072Z" fill="#171C4C" mask="url(#path-3-outside-1_926_6533)"/>
<path d="M12 117.611C12 114.361 14.67 111.131 17.96 110.551C42.82 106.481 68.18 106.481 93.05 110.551C96.33 111.131 99.01 114.351 99.01 117.611V137.611C99.01 140.861 96.34 144.091 93.05 144.671C68.19 148.741 42.83 148.741 17.96 144.671C14.68 144.091 12 140.871 12 137.611V117.611Z" fill="#2A2E5E"/>
<path d="M12 117.611C12 114.381 14.67 111.151 17.96 110.551C42.82 106.481 68.18 106.481 93.05 110.551C96.33 111.151 99.01 114.371 99.01 117.611V127.611C99.01 130.841 96.34 134.071 93.05 134.671C68.19 138.741 42.83 138.741 17.96 134.671C14.68 134.071 12 130.851 12 127.611V117.611Z" fill="#3D406F"/>
<path d="M12 28.6105C12 25.3405 14.67 22.1205 17.96 21.5505C42.82 17.4805 68.18 17.4805 93.05 21.5505C96.33 22.1205 99.01 25.3405 99.01 28.6105V59.6105C99.01 62.8805 96.34 66.1005 93.05 66.6705C68.19 70.7405 42.83 70.7405 17.96 66.6705C14.68 66.1005 12 62.8805 12 59.6105V28.6105Z" fill="#2A2E5E"/>
<path d="M12 28.6105C12 25.3505 14.67 22.1305 17.96 21.5505C42.82 17.4805 68.18 17.4805 93.05 21.5505C96.33 22.1205 99.01 25.3505 99.01 28.6105V51.6105C99.01 54.8705 96.34 58.0905 93.05 58.6705C68.19 62.7405 42.83 62.7405 17.96 58.6705C14.68 58.1005 12 54.8705 12 51.6105V28.6105Z" fill="#3D406F"/>
<path d="M92.03 6.29053C94.22 6.68053 96 8.83053 96 11.0205V124.611C96 126.801 94.22 128.951 92.03 129.331C67.85 133.481 43.15 133.481 18.97 129.331C16.78 128.951 15 126.811 15 124.611V10.6105C15 8.42053 16.78 6.28053 18.97 5.91053C43.15 1.89053 67.85 2.04053 92.03 6.29053Z" fill="#2A2E5E"/>
<path d="M18.3001 8.60055C18.2601 7.50055 19.1601 6.48055 20.3101 6.35055C43.6901 3.63055 67.3101 3.63055 90.7001 6.35055C91.8401 6.48055 92.7501 7.50055 92.7101 8.60055C92.6201 11.2805 92.5201 13.9605 92.4101 16.6405C92.3701 17.7405 91.4301 18.5205 90.3401 18.3905C67.2101 15.6205 43.8201 15.6205 20.6901 18.3905C19.6001 18.5205 18.6601 17.7405 18.6201 16.6405C18.5101 13.9605 18.4101 11.2805 18.3201 8.60055H18.3001Z" fill="#3D406F"/>
<path d="M96.0002 25.6112C96.0002 23.4112 94.5802 20.3412 92.8502 18.7912C91.9602 17.9912 91.0702 17.2012 90.1702 16.4012C88.4402 14.8512 85.2202 13.4212 83.0202 13.2412C64.0302 11.6312 44.9402 11.7212 25.9702 13.5112C23.7702 13.7212 20.9802 15.5312 19.7602 17.5012C19.2402 18.3412 18.7202 19.1812 18.2002 20.0312C16.9802 22.0012 15.9902 25.4112 15.9902 27.6112V92.6112C15.9902 94.8112 17.7902 96.6112 19.9902 96.6112H91.9902C94.1902 96.6112 95.9902 94.8112 95.9902 92.6112V25.6112H96.0002Z" fill="#C0C9E2"/>
<path d="M24 20.6096C24 18.4196 25.79 16.3896 27.99 16.1396C45.94 14.1696 64.06 14.1696 82.02 16.1396C84.21 16.3896 86.01 18.4296 86.01 20.6096V41.6096C86.01 43.7896 84.22 45.8296 82.02 46.0796C64.07 48.0496 45.95 48.0496 27.99 46.0796C25.8 45.8296 24 43.7896 24 41.6096V20.6096Z" fill="white"/>
<path d="M82 128.611C84.2091 128.611 86 126.82 86 124.611C86 122.402 84.2091 120.611 82 120.611C79.7909 120.611 78 122.402 78 124.611C78 126.82 79.7909 128.611 82 128.611Z" fill="#3D406F"/>
<path d="M27 127.611C29.2091 127.611 31 125.82 31 123.611C31 121.402 29.2091 119.611 27 119.611C24.7909 119.611 23 121.402 23 123.611C23 125.82 24.7909 127.611 27 127.611Z" fill="#3D406F"/>
<path d="M90.02 94.9209C67.07 92.4509 43.93 92.4509 20.98 94.9209C17.69 95.3009 15 98.3509 15 101.621V120.621C15 123.891 17.69 126.941 20.98 127.321C22.65 127.501 24.32 127.661 26 127.821V110.631H82V128.091C84.68 127.871 87.35 127.621 90.02 127.331C93.31 126.951 96 123.901 96 120.631V101.631C96 98.3609 93.31 95.3109 90.02 94.9309V94.9209Z" fill="#3D406F"/>
<path d="M90.02 91.9209C67.07 89.4509 43.93 89.4509 20.98 91.9209C17.69 92.3009 15 95.3509 15 98.6209V118.621C15 121.891 17.69 124.941 20.98 125.321C22.65 125.501 24.32 125.661 26 125.821V106.631H82V126.091C84.68 125.871 87.35 125.621 90.02 125.331C93.31 124.951 96 121.901 96 118.631V98.6309C96 95.3609 93.31 92.3109 90.02 91.9309V91.9209Z" fill="#FFEAB5"/>
<path d="M13.5093 95.6096C13.3693 92.3596 15.9493 89.3296 19.2393 88.9396C43.3093 86.3196 67.5893 86.3196 91.6493 88.9396C94.9393 89.3296 97.5193 92.3596 97.3793 95.6096C97.1693 100.6 96.9593 105.62 96.7593 110.66C96.6193 113.95 93.8193 117.03 90.5293 117.41C67.2093 119.87 43.6893 119.87 20.3593 117.41C17.0693 117.03 14.2693 113.95 14.1293 110.66C13.9193 105.61 13.7093 100.59 13.5093 95.6096Z" fill="#3D406F"/>
<path d="M12 83.6113H5C3.34315 83.6113 2 84.9545 2 86.6113V91.6113C2 93.2682 3.34315 94.6113 5 94.6113H12C13.6569 94.6113 15 93.2682 15 91.6113V86.6113C15 84.9545 13.6569 83.6113 12 83.6113Z" fill="#2A2E5E"/>
<path d="M18 92.6113C18 93.7113 17.1 94.6113 16 94.6113H6C4.9 94.6113 4 93.7113 4 92.6113C4 91.5113 4.9 90.6113 6 90.6113H16C17.1 90.6113 18 91.5113 18 92.6113Z" fill="#2A2E5E"/>
<path d="M15 85.6113C15 86.7113 14.1 87.6113 13 87.6113H4C2.9 87.6113 2 86.7113 2 85.6113C2 84.5113 2.9 83.6113 4 83.6113H13C14.1 83.6113 15 84.5113 15 85.6113Z" fill="#3D406F"/>
<path d="M106 83.6113H99C97.3431 83.6113 96 84.9545 96 86.6113V91.6113C96 93.2682 97.3431 94.6113 99 94.6113H106C107.657 94.6113 109 93.2682 109 91.6113V86.6113C109 84.9545 107.657 83.6113 106 83.6113Z" fill="#2A2E5E"/>
<path d="M93 92.6113C93 93.7113 93.9 94.6113 95 94.6113H105C106.1 94.6113 107 93.7113 107 92.6113C107 91.5113 106.1 90.6113 105 90.6113H95C93.9 90.6113 93 91.5113 93 92.6113Z" fill="#2A2E5E"/>
<path d="M96 85.6113C96 86.7113 96.9 87.6113 98 87.6113H107C108.1 87.6113 109 86.7113 109 85.6113C109 84.5113 108.1 83.6113 107 83.6113H98C96.9 83.6113 96 84.5113 96 85.6113Z" fill="#3D406F"/>
<path d="M23.7899 58.6311C23.8999 57.5311 24.8999 56.6211 25.9999 56.6211H84.2899C85.3899 56.6211 86.3799 57.5311 86.4999 58.6311C87.6799 70.0911 88.8499 81.4311 90.0199 92.6311C90.1299 93.7111 89.3299 94.7111 88.2299 94.8411C66.2499 97.4711 44.0399 97.4711 22.0599 94.8411C20.9599 94.7111 20.1599 93.7111 20.2699 92.6311C21.4399 81.4311 22.6099 70.0911 23.7899 58.6311Z" fill="#2A2E5E"/>
<path d="M24.5405 54.6311C24.6805 53.5311 25.6905 52.6211 26.7905 52.6211H83.4805C84.5805 52.6211 85.5905 53.5311 85.7305 54.6311C87.2205 66.4611 88.7005 78.1411 90.1805 89.6411C90.3205 90.7111 89.5305 91.7111 88.4405 91.8411C66.3105 94.4911 43.9505 94.4911 21.8305 91.8411C20.7305 91.7111 19.9505 90.7111 20.0905 89.6411C21.5705 78.1411 23.0505 66.4611 24.5405 54.6311Z" fill="#3997E6"/>
<path opacity="0.2" d="M27.1095 56.5212C27.2695 55.4612 28.2995 54.6112 29.3995 54.6212H81.0795C82.1795 54.6212 83.2095 55.4612 83.3695 56.5212C84.1095 61.3612 84.8395 66.3912 85.5495 71.6312C85.6995 72.7812 84.9595 73.4012 83.8895 73.0312C65.3095 66.7612 45.1795 66.7612 26.5995 73.0312C25.5295 73.4012 24.7795 72.7812 24.9395 71.6312C25.6495 66.3912 26.3795 61.3612 27.1195 56.5212H27.1095Z" fill="white"/>
<path d="M90.5 22.5309C89.67 22.0009 89 22.5809 89 23.6709V32.9609C89 34.0609 89.32 35.8109 89.72 36.8609C90.24 38.2509 90.77 39.6309 91.29 40.9709C91.68 41.9809 92.01 41.8709 92.01 40.7709V25.5609C92.01 24.4709 91.34 23.0509 90.51 22.5209L90.5 22.5309Z" fill="#3997E6"/>
<path d="M89.78 44.6703C89.35 43.6803 89 43.8003 89 44.9003C89 47.7003 89 50.5003 89 53.3003C89 54.4003 89.1 56.1903 89.23 57.2803C90.08 64.7403 90.93 72.3303 91.78 79.7303C91.9 80.8103 92.01 80.7903 92.01 79.6903V52.0003C92.01 50.9003 91.66 49.1403 91.23 48.1003C90.75 46.9303 90.27 45.7803 89.78 44.6703Z" fill="#3997E6"/>
<path d="M19.7602 21.2104C20.4402 20.3504 21.0002 20.6304 21.0002 21.7304V32.9204C21.0002 34.0204 20.6802 35.7704 20.2802 36.8204C19.7602 38.2104 19.2302 39.5904 18.7102 40.9304C18.3202 41.9404 17.9902 41.8304 17.9902 40.7304V25.5204C17.9902 24.4304 18.5502 22.7604 19.2302 21.8704C19.4002 21.6504 19.5802 21.4204 19.7502 21.2104H19.7602Z" fill="#3997E6"/>
<path d="M20.2202 44.6703C20.6502 43.6803 21.0002 43.8003 21.0002 44.9003C21.0002 47.7003 21.0002 50.5003 21.0002 53.3003C21.0002 54.4003 20.9002 56.1903 20.7702 57.2803C19.9202 64.7403 19.0702 72.3303 18.2202 79.7303C18.1002 80.8103 17.9902 80.7903 17.9902 79.6903V52.0003C17.9902 50.9003 18.3402 49.1403 18.7702 48.1003C19.2502 46.9303 19.7302 45.7803 20.2202 44.6703Z" fill="#3997E6"/>
<path d="M83 125.611C85.2091 125.611 87 123.82 87 121.611C87 119.402 85.2091 117.611 83 117.611C80.7909 117.611 79 119.402 79 121.611C79 123.82 80.7909 125.611 83 125.611Z" fill="#FFEAB5"/>
<path d="M27 125.611C29.2091 125.611 31 123.82 31 121.611C31 119.402 29.2091 117.611 27 117.611C24.7909 117.611 23 119.402 23 121.611C23 123.82 24.7909 125.611 27 125.611Z" fill="#FFEAB5"/>
<path d="M70.569 130.911C70.299 132.021 69.189 133.041 68.089 133.141C60.039 133.861 51.949 133.861 43.899 133.141C42.799 133.041 41.689 132.021 41.419 130.911C40.659 127.741 39.909 124.611 39.149 121.561C38.879 120.491 39.559 119.621 40.669 119.621H71.339C72.439 119.621 73.119 120.491 72.859 121.561C72.099 124.621 71.339 127.741 70.589 130.911H70.569Z" fill="#6A6B95"/>
<path d="M68.7803 129.811C68.6603 130.371 68.1203 130.881 67.5703 130.941C59.8803 131.721 52.1303 131.721 44.4303 130.941C43.8803 130.881 43.3303 130.371 43.2203 129.811C42.7003 127.361 42.1803 124.951 41.6603 122.591C41.5403 122.051 41.8903 121.611 42.4403 121.611H69.5603C70.1103 121.611 70.4603 122.051 70.3403 122.591C69.8203 124.951 69.3003 127.361 68.7803 129.811Z" fill="#171C4C"/>
<path d="M65.0002 148.611C65.0002 149.161 64.5502 149.671 64.0002 149.731C58.6802 150.331 53.3102 150.331 47.9902 149.731C47.4402 149.671 46.9902 149.161 46.9902 148.611V142.611C46.9902 142.061 47.4402 141.611 47.9902 141.611H63.9902C64.5402 141.611 64.9902 142.061 64.9902 142.611V148.611H65.0002Z" fill="#A7A7C4"/>
<path d="M72 120.611C72 121.161 71.55 121.611 71 121.611H40C39.45 121.611 39 121.161 39 120.611C39 120.061 39.45 119.611 40 119.611H71C71.55 119.611 72 120.061 72 120.611Z" fill="#A7A7C4"/>
<path d="M74 22.6113H37C34.79 22.6113 33 24.4013 33 26.6113V34.6113H78V26.6113C78 24.4013 76.21 22.6113 74 22.6113Z" fill="#A7A7C4"/>
<path d="M51 22.6113H37C34.79 22.6113 33 24.4013 33 26.6113V34.6113H51V22.6113Z" fill="#006CFF"/>
<path d="M61 22.6113H74C76.21 22.6113 78 24.4013 78 26.6113V34.6113H61V22.6113Z" fill="#E93637"/>
<g style="mix-blend-mode:overlay" opacity="0.75">
<path d="M74 23.6113H37C35.9 23.6113 35 24.5113 35 25.6113V29.6113H76V25.6113C76 24.5113 75.1 23.6113 74 23.6113Z" fill="white"/>
</g>
</svg>
