<svg width="111" height="175" viewBox="0 0 111 175" fill="none" xmlns="http://www.w3.org/2000/svg">
<g clip-path="url(#clip0_926_6766)">
<path d="M14 56.1734C14 50.3991 18.1318 44.4552 23.2336 43.3533C44.5642 38.8822 66.4358 38.8822 87.7664 43.3533C92.8682 44.4552 97 50.3991 97 56.1734V156.827C97 162.601 92.8682 168.545 87.7664 169.647C66.4358 174.118 44.5642 174.118 23.2336 169.647C18.1318 168.545 14 162.601 14 156.827V56.1734Z" fill="#171C4C" fill-opacity="1"/>
<path d="M23.0285 42.3746L23.0285 42.3746L23.0225 42.3759C20.1677 42.9925 17.6641 44.9391 15.8891 47.431C14.1107 49.9278 13 53.0571 13 56.1734V156.827C13 159.943 14.1107 163.072 15.8891 165.569C17.6641 168.061 20.1677 170.008 23.0225 170.624L23.0285 170.625C44.4944 175.125 66.5056 175.125 87.9715 170.625L87.9775 170.624C90.8323 170.008 93.3359 168.061 95.1109 165.569C96.8893 163.072 98 159.943 98 156.827V56.1734C98 53.0571 96.8893 49.9278 95.1109 47.431C93.3359 44.9391 90.8323 42.9925 87.9775 42.3759L87.9715 42.3746C66.5056 37.8751 44.4944 37.8751 23.0285 42.3746Z" stroke="#171C4C" stroke-opacity="1" stroke-width="2"/>
<mask id="path-3-outside-1_926_6766" maskUnits="userSpaceOnUse" x="0" y="0" width="111" height="169" fill="black">
<rect fill="white" width="111" height="169"/>
<path fill-rule="evenodd" clip-rule="evenodd" d="M96.9499 13.2213C96.9299 9.91128 93.3499 6.51128 90.0799 5.79128V5.80128C67.2799 0.871277 43.7099 0.721277 20.9099 5.44128C17.6399 6.13128 14.0599 9.51128 14.0399 12.8113C13.8898 33.428 13.965 54.0096 14.04 74.5562C14.0702 82.8278 14.1004 91.0936 14.1159 99.3538C13.7966 99.1378 13.4124 99.0113 13 99.0113H12H5H4C2.9 99.0113 2 99.9113 2 101.011C2 101.165 2.01757 101.315 2.05079 101.459C2.01744 101.638 2 101.822 2 102.011V107.011C2 108.668 3.34315 110.011 5 110.011H6H12H14.1265C14.1265 111.942 14.1254 113.872 14.1229 115.802C14.0423 116.199 14 116.603 14 117.011V124.011C14 124.378 14.0343 124.743 14.0998 125.101C14.0918 127.228 14.0818 129.355 14.0696 131.482C12.804 132.897 12 134.724 12 136.5V137.5V137.881V138.5V139.5V140.5V150.5V151.129C12 154.176 14.66 157.394 17.93 158.132C26.861 159.993 35.9092 161.182 44.99 161.7V164.5C44.99 165.05 45.44 165.56 45.99 165.62C51.31 166.22 56.68 166.22 62 165.62C62.55 165.56 63 165.05 63 164.5H62.99V161.848C73.0873 161.439 83.156 160.2 93.08 158.132C96.34 157.394 99 154.176 99 151.12V150.49V140.49V139.49V138.49V137.872V137.49V136.49C99 134.713 98.193 132.881 96.92 131.464C96.9079 129.361 96.898 127.258 96.89 125.155C96.9622 124.779 97 124.397 97 124.011V117.011C97 116.586 96.954 116.165 96.8667 115.752C96.8643 113.839 96.8633 111.925 96.8633 110.011H100H105C107.209 110.011 109 108.22 109 106.011V103.011C109 102.601 108.938 102.204 108.823 101.831C108.937 101.581 109 101.303 109 101.011C109 99.9113 108.1 99.0113 107 99.0113H105H100H98C97.5833 99.0113 97.1954 99.1404 96.8741 99.3606C96.8896 91.1808 96.9196 82.9956 96.9497 74.805L96.9497 74.7972L96.9497 74.7895L96.9497 74.7818L96.9498 74.774L96.9498 74.7661V74.765V74.7638V74.7627V74.7616V74.7604V74.7593V74.7581V74.756V74.7544C97.0248 54.2776 97.1 33.7669 96.9499 13.2213Z"/>
</mask>
<path fill-rule="evenodd" clip-rule="evenodd" d="M96.9499 13.2213C96.9299 9.91128 93.3499 6.51128 90.0799 5.79128V5.80128C67.2799 0.871277 43.7099 0.721277 20.9099 5.44128C17.6399 6.13128 14.0599 9.51128 14.0399 12.8113C13.8898 33.428 13.965 54.0096 14.04 74.5562C14.0702 82.8278 14.1004 91.0936 14.1159 99.3538C13.7966 99.1378 13.4124 99.0113 13 99.0113H12H5H4C2.9 99.0113 2 99.9113 2 101.011C2 101.165 2.01757 101.315 2.05079 101.459C2.01744 101.638 2 101.822 2 102.011V107.011C2 108.668 3.34315 110.011 5 110.011H6H12H14.1265C14.1265 111.942 14.1254 113.872 14.1229 115.802C14.0423 116.199 14 116.603 14 117.011V124.011C14 124.378 14.0343 124.743 14.0998 125.101C14.0918 127.228 14.0818 129.355 14.0696 131.482C12.804 132.897 12 134.724 12 136.5V137.5V137.881V138.5V139.5V140.5V150.5V151.129C12 154.176 14.66 157.394 17.93 158.132C26.861 159.993 35.9092 161.182 44.99 161.7V164.5C44.99 165.05 45.44 165.56 45.99 165.62C51.31 166.22 56.68 166.22 62 165.62C62.55 165.56 63 165.05 63 164.5H62.99V161.848C73.0873 161.439 83.156 160.2 93.08 158.132C96.34 157.394 99 154.176 99 151.12V150.49V140.49V139.49V138.49V137.872V137.49V136.49C99 134.713 98.193 132.881 96.92 131.464C96.9079 129.361 96.898 127.258 96.89 125.155C96.9622 124.779 97 124.397 97 124.011V117.011C97 116.586 96.954 116.165 96.8667 115.752C96.8643 113.839 96.8633 111.925 96.8633 110.011H100H105C107.209 110.011 109 108.22 109 106.011V103.011C109 102.601 108.938 102.204 108.823 101.831C108.937 101.581 109 101.303 109 101.011C109 99.9113 108.1 99.0113 107 99.0113H105H100H98C97.5833 99.0113 97.1954 99.1404 96.8741 99.3606C96.8896 91.1808 96.9196 82.9956 96.9497 74.805L96.9497 74.7972L96.9497 74.7895L96.9497 74.7818L96.9498 74.774L96.9498 74.7661V74.765V74.7638V74.7627V74.7616V74.7604V74.7593V74.7581V74.756V74.7544C97.0248 54.2776 97.1 33.7669 96.9499 13.2213Z" fill="#171C4C"/>
<path d="M90.0799 5.79128L90.51 3.83806L88.0799 3.303V5.79128H90.0799ZM96.9499 13.2213L94.9499 13.2334L94.95 13.2359L96.9499 13.2213ZM90.0799 5.80128L89.6572 7.7561L92.0799 8.27995V5.80128H90.0799ZM20.9099 5.44128L20.5045 3.48279L20.497 3.48437L20.9099 5.44128ZM14.0399 12.8113L16.0399 12.8258L16.0399 12.8234L14.0399 12.8113ZM14.04 74.5562L12.04 74.5635L12.04 74.5635L14.04 74.5562ZM14.1159 99.3538L12.9949 101.01L16.123 103.127L16.1159 99.3501L14.1159 99.3538ZM2.05079 101.459L4.01699 101.825L4.09329 101.415L3.99957 101.009L2.05079 101.459ZM14.1265 110.011L16.1265 110.011L16.1265 108.011H14.1265V110.011ZM14.1229 115.802L16.0829 116.2L16.1227 116.005L16.1229 115.805L14.1229 115.802ZM14.0998 125.101L16.0998 125.108L16.1005 124.923L16.0672 124.741L14.0998 125.101ZM14.0696 131.482L15.5602 132.816L16.0652 132.251L16.0695 131.494L14.0696 131.482ZM17.93 158.132L17.4896 160.083L17.5058 160.087L17.522 160.09L17.93 158.132ZM44.99 161.7H46.99V159.811L45.1039 159.704L44.99 161.7ZM45.99 165.62L46.2141 163.633L46.2069 163.632L45.99 165.62ZM62 165.62L61.7831 163.632L61.7758 163.633L62 165.62ZM63 164.5H65V162.5H63V164.5ZM62.99 164.5H60.99V166.5H62.99V164.5ZM62.99 161.848L62.9089 159.85L60.99 159.928V161.848H62.99ZM93.08 158.132L93.488 160.09L93.5049 160.086L93.5217 160.083L93.08 158.132ZM96.92 131.464L94.9201 131.475L94.9245 132.235L95.4319 132.8L96.92 131.464ZM96.89 125.155L94.9259 124.778L94.8893 124.968L94.8901 125.162L96.89 125.155ZM96.8667 115.752L94.8667 115.755L94.867 115.963L94.9101 116.166L96.8667 115.752ZM96.8633 110.011V108.011H94.8634L94.8633 110.011L96.8633 110.011ZM108.823 101.831L107.001 101.006L106.689 101.696L106.912 102.421L108.823 101.831ZM96.8741 99.3606L94.8741 99.3568L94.8669 103.162L98.005 101.01L96.8741 99.3606ZM96.9497 74.805L98.9497 74.8123L98.9497 74.8109L96.9497 74.805ZM96.9498 74.774L98.9498 74.7799L98.9498 74.7798L96.9498 74.774ZM96.9498 74.7661L98.9498 74.7719V74.7661H96.9498ZM96.9498 74.7544L94.9498 74.7471V74.7544H96.9498ZM89.6498 7.74449C90.8348 8.00539 92.2111 8.80103 93.2944 9.92376C94.3922 11.0615 94.9441 12.2722 94.9499 13.2334L98.9499 13.2092C98.9357 10.8604 97.6876 8.71608 96.1729 7.14629C94.6437 5.56152 92.595 4.29716 90.51 3.83806L89.6498 7.74449ZM92.0799 5.80128V5.79128H88.0799V5.80128H92.0799ZM21.3153 7.39975C43.8392 2.73692 67.1271 2.88445 89.6572 7.7561L90.5026 3.84645C67.4327 -1.1419 43.5806 -1.29437 20.5045 3.4828L21.3153 7.39975ZM16.0399 12.8234C16.0456 11.87 16.595 10.6683 17.6902 9.54159C18.7712 8.42961 20.1432 7.6471 21.3228 7.39819L20.497 3.48437C18.4066 3.92546 16.3536 5.17795 14.8221 6.75346C13.3049 8.31425 12.0542 10.4525 12.0399 12.7992L16.0399 12.8234ZM16.04 74.5489C15.965 54.0005 15.8899 33.4298 16.0399 12.8258L12.04 12.7967C11.8898 33.4262 11.965 54.0187 12.04 74.5635L16.04 74.5489ZM16.1159 99.3501C16.1004 91.0878 16.0702 82.8202 16.04 74.5489L12.04 74.5635C12.0703 82.8354 12.1004 91.0995 12.1159 99.3576L16.1159 99.3501ZM13 101.011C13.0007 101.011 13.0004 101.011 12.9993 101.011C12.9982 101.011 12.9971 101.011 12.996 101.01C12.9939 101.01 12.9937 101.009 12.9949 101.01L15.2369 97.6975C14.5996 97.2662 13.8273 97.0113 13 97.0113V101.011ZM12 101.011H13V97.0113H12V101.011ZM5 101.011H12V97.0113H5V101.011ZM4 101.011H5V97.0113H4V101.011ZM4 101.011V97.0113C1.79543 97.0113 0 98.8067 0 101.011H4ZM3.99957 101.009C4.00004 101.011 4 101.012 4 101.011H0C0 101.318 0.0350912 101.618 0.102012 101.908L3.99957 101.009ZM4 102.011C4 101.946 4.00601 101.884 4.01699 101.825L0.0845831 101.093C0.0288595 101.392 0 101.699 0 102.011H4ZM4 107.011V102.011H0V107.011H4ZM5 108.011C4.44772 108.011 4 107.564 4 107.011H0C0 109.773 2.23858 112.011 5 112.011V108.011ZM6 108.011H5V112.011H6V108.011ZM12 108.011H6V112.011H12V108.011ZM14.1265 108.011H12V112.011H14.1265V108.011ZM16.1229 115.805C16.1254 113.874 16.1265 111.943 16.1265 110.011L12.1265 110.011C12.1265 111.941 12.1254 113.871 12.1229 115.8L16.1229 115.805ZM16 117.011C16 116.742 16.0279 116.471 16.0829 116.2L12.1629 115.404C12.0568 115.927 12 116.465 12 117.011H16ZM16 124.011V117.011H12V124.011H16ZM16.0672 124.741C16.0226 124.497 16 124.253 16 124.011H12C12 124.503 12.0459 124.988 12.1325 125.461L16.0672 124.741ZM16.0695 131.494C16.0818 129.366 16.0918 127.237 16.0998 125.108L12.0999 125.093C12.0919 127.22 12.0819 129.345 12.0696 131.471L16.0695 131.494ZM14 136.5C14 135.305 14.558 133.936 15.5602 132.816L12.5789 130.149C11.0499 131.858 10 134.143 10 136.5H14ZM14 137.5V136.5H10V137.5H14ZM14 137.881V137.5H10V137.881H14ZM14 138.5V137.881H10V138.5H14ZM14 139.5V138.5H10V139.5H14ZM14 140.5V139.5H10V140.5H14ZM14 150.5V140.5H10V150.5H14ZM14 151.129V150.5H10V151.129H14ZM18.3704 156.181C17.2189 155.921 16.1025 155.2 15.2698 154.21C14.4311 153.212 14 152.086 14 151.129H10C10 153.219 10.8989 155.226 12.2077 156.783C13.5225 158.348 15.3711 159.605 17.4896 160.083L18.3704 156.181ZM45.1039 159.704C36.1214 159.191 27.1715 158.015 18.338 156.174L17.522 160.09C26.5505 161.971 35.697 163.174 44.8761 163.697L45.1039 159.704ZM46.99 164.5V161.7H42.99V164.5H46.99ZM46.2069 163.632C46.4822 163.662 46.6705 163.794 46.778 163.914C46.8849 164.035 46.99 164.231 46.99 164.5H42.99C42.99 166.056 44.1941 167.436 45.7731 167.608L46.2069 163.632ZM61.7758 163.633C56.6048 164.216 51.3852 164.216 46.2141 163.633L45.7658 167.607C51.2348 168.224 56.7552 168.224 62.2241 167.607L61.7758 163.633ZM61 164.5C61 164.231 61.105 164.035 61.2119 163.914C61.3195 163.794 61.5078 163.662 61.7831 163.632L62.2169 167.608C63.7958 167.436 65 166.056 65 164.5H61ZM62.99 166.5H63V162.5H62.99V166.5ZM60.99 161.848V164.5H64.99V161.848H60.99ZM92.672 156.174C82.8563 158.219 72.897 159.445 62.9089 159.85L63.071 163.847C73.2777 163.433 83.4557 162.18 93.488 160.09L92.672 156.174ZM97 151.12C97 152.083 96.5678 153.211 95.7302 154.21C94.8981 155.202 93.7841 155.922 92.6384 156.181L93.5217 160.083C95.6359 159.604 97.4819 158.346 98.7949 156.781C100.102 155.222 101 153.213 101 151.12H97ZM97 150.49V151.12H101V150.49H97ZM97 140.49V150.49H101V140.49H97ZM97 139.49V140.49H101V139.49H97ZM97 138.49V139.49H101V138.49H97ZM97 137.872V138.49H101V137.872H97ZM97 137.49V137.872H101V137.49H97ZM97 136.49V137.49H101V136.49H97ZM95.4319 132.8C96.4401 133.923 97 135.295 97 136.49H101C101 134.131 99.9458 131.84 98.4082 130.127L95.4319 132.8ZM94.8901 125.162C94.898 127.267 94.9079 129.371 94.9201 131.475L98.92 131.452C98.9079 129.351 98.898 127.249 98.89 125.147L94.8901 125.162ZM95 124.011C95 124.266 94.9751 124.522 94.9259 124.778L98.8541 125.532C98.9493 125.036 99 124.528 99 124.011H95ZM95 117.011V124.011H99V117.011H95ZM94.9101 116.166C94.9697 116.448 95 116.731 95 117.011H99C99 116.442 98.9384 115.882 98.8234 115.338L94.9101 116.166ZM94.8633 110.011C94.8633 111.926 94.8643 113.841 94.8667 115.755L98.8667 115.75C98.8643 113.837 98.8633 111.925 98.8633 110.011L94.8633 110.011ZM100 108.011H96.8633V112.011H100V108.011ZM105 108.011H100V112.011H105V108.011ZM107 106.011C107 107.116 106.105 108.011 105 108.011V112.011C108.314 112.011 111 109.325 111 106.011H107ZM107 103.011V106.011H111V103.011H107ZM106.912 102.421C106.969 102.605 107 102.803 107 103.011H111C111 102.399 110.908 101.804 110.734 101.242L106.912 102.421ZM107 101.011C107 101.012 107 101.011 107 101.009C107.001 101.007 107.001 101.006 107.001 101.006L110.645 102.657C110.873 102.154 111 101.595 111 101.011H107ZM107 101.011H111C111 98.8067 109.205 97.0113 107 97.0113V101.011ZM105 101.011H107V97.0113H105V101.011ZM100 101.011H105V97.0113H100V101.011ZM98 101.011H100V97.0113H98V101.011ZM98.005 101.01C98.0063 101.009 98.0061 101.01 98.004 101.01C98.003 101.011 98.0018 101.011 98.0008 101.011C97.9996 101.011 97.9993 101.011 98 101.011V97.0113C97.164 97.0113 96.3843 97.2716 95.7432 97.7111L98.005 101.01ZM94.9497 74.7976C94.9197 82.9879 94.8896 91.1749 94.8741 99.3568L98.8741 99.3644C98.8896 91.1866 98.9196 83.0032 98.9497 74.8123L94.9497 74.7976ZM94.9497 74.7913L94.9497 74.7991L98.9497 74.8109L98.9497 74.8032L94.9497 74.7913ZM94.9497 74.7836L94.9497 74.7913L98.9497 74.8032L98.9497 74.7954L94.9497 74.7836ZM94.9497 74.7758L94.9497 74.7836L98.9497 74.7954L98.9497 74.7877L94.9497 74.7758ZM94.9498 74.7681L94.9497 74.7758L98.9497 74.7877L98.9498 74.7799L94.9498 74.7681ZM94.9498 74.7603L94.9498 74.7682L98.9498 74.7798L98.9498 74.7719L94.9498 74.7603ZM94.9498 74.765V74.7661H98.9498V74.765H94.9498ZM94.9498 74.7638V74.765H98.9498V74.7638H94.9498ZM94.9498 74.7627V74.7638H98.9498V74.7627H94.9498ZM94.9498 74.7616V74.7627H98.9498V74.7616H94.9498ZM94.9498 74.7604V74.7616H98.9498V74.7604H94.9498ZM94.9498 74.7593V74.7604H98.9498V74.7593H94.9498ZM94.9498 74.7581V74.7593H98.9498V74.7581H94.9498ZM94.9498 74.756V74.7581H98.9498V74.756H94.9498ZM94.9498 74.7544V74.756H98.9498V74.7544H94.9498ZM94.95 13.2359C95.0999 33.7688 95.0248 54.2684 94.9498 74.7471L98.9498 74.7617C99.0248 54.2867 99.1 33.7651 98.9499 13.2067L94.95 13.2359Z" fill="#171C4C" mask="url(#path-3-outside-1_926_6766)"/>
<path d="M12 137.881C12 134.825 14.66 131.607 17.92 130.869C42.68 125.712 68.32 125.712 93.08 130.86C96.35 131.607 99 134.825 99 137.872V151.12C99 154.176 96.34 157.394 93.08 158.132C68.33 163.289 42.68 163.289 17.93 158.132C14.66 157.394 12 154.176 12 151.129V137.881Z" fill="#2A2E5E"/>
<path d="M63.0002 164.5C63.0002 165.05 62.5502 165.56 62.0002 165.62C56.6802 166.22 51.3102 166.22 45.9902 165.62C45.4402 165.56 44.9902 165.05 44.9902 164.5V158.5C44.9902 157.95 45.4402 157.5 45.9902 157.5H61.9902C62.5402 157.5 62.9902 157.95 62.9902 158.5V164.5H63.0002Z" fill="#A7A7C4"/>
<path d="M12 137.501C12 134.341 14.66 130.931 17.92 130.091C42.68 124.641 68.32 124.641 93.08 130.081C96.35 130.931 99 134.331 99 137.491V139.491C99 142.651 96.34 146.061 93.08 146.901C68.33 152.351 42.68 152.351 17.93 146.901C14.66 146.061 12 142.661 12 139.501V137.501Z" fill="#3D406F"/>
<path d="M90.0797 5.79128C93.3497 6.51128 96.9297 9.91128 96.9497 13.2213C97.2497 54.2913 96.6497 95.2213 96.9497 136.021C96.9697 139.301 94.3397 142.691 91.0697 143.421C67.6297 148.541 43.3597 148.541 19.9197 143.421C16.6497 142.691 14.0197 139.301 14.0397 136.021C14.3397 95.0913 13.7397 54.0213 14.0397 12.8113C14.0597 9.51128 17.6397 6.13128 20.9097 5.44128C43.7097 0.721277 67.2797 0.871277 90.0797 5.80128V5.79128Z" fill="#C0C9E2"/>
<path d="M75 139.012C75 140.102 74.11 141.202 73.02 141.432C61.78 143.672 50.22 143.672 38.98 141.432C37.89 141.202 37 140.102 37 139.012V134.012C37 132.922 37.9 132.022 39 132.012H73C74.1 132.022 75 132.922 75 134.012V139.012Z" fill="#171C4C"/>
<path d="M20 13.044C20 9.76983 22.8506 6.74373 26.337 6.40639C45.7295 4.5312 65.2704 4.5312 84.663 6.40639C88.1494 6.74373 91 9.76983 91 13.044V56.6992C91 59.9733 88.1494 62.3049 84.663 61.9676C65.2704 60.0924 45.7295 60.0924 26.337 61.9676C22.8506 62.3049 20 59.9733 20 56.6992V13.044Z" fill="white"/>
<path d="M30 14.2305V52.7905" stroke="#E0E4F1" stroke-width="2" stroke-linecap="round" stroke-linejoin="round"/>
<path d="M40 14.2305V52.7905" stroke="#E0E4F1" stroke-width="2" stroke-linecap="round" stroke-linejoin="round"/>
<path d="M50 14.2305V52.7905" stroke="#E0E4F1" stroke-width="2" stroke-linecap="round" stroke-linejoin="round"/>
<path d="M61 14.2305V52.7905" stroke="#E0E4F1" stroke-width="2" stroke-linecap="round" stroke-linejoin="round"/>
<path d="M72 14.2305V52.7905" stroke="#E0E4F1" stroke-width="2" stroke-linecap="round" stroke-linejoin="round"/>
<path d="M81 14.2305V52.7905" stroke="#E0E4F1" stroke-width="2" stroke-linecap="round" stroke-linejoin="round"/>
<path d="M82 135.012C84.2091 135.012 86 133.221 86 131.012C86 128.803 84.2091 127.012 82 127.012C79.7909 127.012 78 128.803 78 131.012C78 133.221 79.7909 135.012 82 135.012Z" fill="#C1CFDA"/>
<path d="M91.02 110.311C67.41 107.761 43.59 107.761 19.98 110.311C16.69 110.711 14 113.761 14 117.011V124.011C14 127.261 16.69 130.311 19.98 130.711C21.65 130.891 23.33 131.051 25 131.211V111.011H83V131.471C85.68 131.251 88.35 131.001 91.02 130.711C94.31 130.311 97 127.261 97 124.011V117.011C97 113.761 94.31 110.711 91.02 110.311Z" fill="#FFEAB5"/>
<path d="M83 131.012C85.2091 131.012 87 129.221 87 127.012C87 124.803 85.2091 123.012 83 123.012C80.7909 123.012 79 124.803 79 127.012C79 129.221 80.7909 131.012 83 131.012Z" fill="#FFEAB5"/>
<path d="M26 131.012C28.2091 131.012 30 129.221 30 127.012C30 124.803 28.2091 123.012 26 123.012C23.7909 123.012 22 124.803 22 127.012C22 129.221 23.7909 131.012 26 131.012Z" fill="#FFEAB5"/>
<path d="M14.3295 110.001C14.1295 106.771 16.6495 103.761 19.9395 103.351C43.5695 100.781 67.4095 100.781 91.0495 103.351C94.3395 103.761 96.8695 106.771 96.6595 110.001C96.5395 112.001 96.4095 114.021 96.2895 116.041C96.0895 119.311 93.2295 122.401 89.9395 122.791C67.0395 125.201 43.9495 125.201 21.0395 122.791C17.7495 122.401 14.8895 119.301 14.6895 116.041C14.5695 114.021 14.4395 112.001 14.3195 110.001H14.3295Z" fill="white"/>
<path d="M12 99.0117H5C3.34315 99.0117 2 100.355 2 102.012V107.012C2 108.669 3.34315 110.012 5 110.012H12C13.6569 110.012 15 108.669 15 107.012V102.012C15 100.355 13.6569 99.0117 12 99.0117Z" fill="#2A2E5E"/>
<path d="M18 108.012C18 109.112 17.1 110.012 16 110.012H6C4.9 110.012 4 109.112 4 108.012C4 106.912 4.9 106.012 6 106.012H16C17.1 106.012 18 106.912 18 108.012Z" fill="#2A2E5E"/>
<path d="M15 101.012C15 102.112 14.1 103.012 13 103.012H4C2.9 103.012 2 102.112 2 101.012C2 99.9117 2.9 99.0117 4 99.0117H13C14.1 99.0117 15 99.9117 15 101.012Z" fill="#3D406F"/>
<path d="M105 99.0117H100C97.7909 99.0117 96 100.803 96 103.012V106.012C96 108.221 97.7909 110.012 100 110.012H105C107.209 110.012 109 108.221 109 106.012V103.012C109 100.803 107.209 99.0117 105 99.0117Z" fill="#2A2E5E"/>
<path d="M93 108.012C93 109.112 93.9 110.012 95 110.012H105C106.1 110.012 107 109.112 107 108.012C107 106.912 106.1 106.012 105 106.012H95C93.9 106.012 93 106.912 93 108.012Z" fill="#2A2E5E"/>
<path d="M96 101.012C96 102.112 96.9 103.012 98 103.012H107C108.1 103.012 109 102.112 109 101.012C109 99.9117 108.1 99.0117 107 99.0117H98C96.9 99.0117 96 99.9117 96 101.012Z" fill="#3D406F"/>
<path d="M27.8696 74.9717C28.2096 73.8917 29.3896 73.0117 30.4896 73.0117H79.8896C80.9896 73.0117 82.1696 73.9017 82.5096 74.9717C85.4696 84.3117 88.4196 93.4017 91.3596 102.122C91.6996 103.122 91.0797 104.062 89.9797 104.192C66.8597 106.992 43.4896 106.992 20.3796 104.192C19.2796 104.062 18.6696 103.122 18.9996 102.122C21.9396 93.4017 24.8996 84.3117 27.8596 74.9717H27.8696Z" fill="#2A2E5E"/>
<path d="M23.1997 69.5419C23.3597 68.4119 24.3897 67.3719 25.4897 67.2619C45.1997 65.2319 65.0697 65.2219 84.7897 67.2519C85.8897 67.3619 86.9197 68.4019 87.0797 69.5319C88.5397 79.6619 89.9997 89.5119 91.4497 99.0419C91.6097 100.112 90.8497 101.092 89.7497 101.232C66.7897 103.992 43.5797 103.992 20.6197 101.232C19.5197 101.092 18.7597 100.112 18.9197 99.0419C20.3397 89.5219 21.7697 79.6719 23.1897 69.5519L23.1997 69.5419Z" fill="#3997E6"/>
<path d="M24.5794 71.752C24.7594 70.652 25.8094 69.672 26.9094 69.582C45.5994 68.082 64.3894 68.082 83.0794 69.582C84.1794 69.672 85.2294 70.652 85.4094 71.752C86.2594 76.842 87.1094 81.942 87.9594 87.042C88.1394 88.142 87.3994 88.962 86.2994 88.862C65.4694 86.992 44.5194 86.992 23.6894 88.862C22.5894 88.962 21.8394 88.142 22.0294 87.042C22.8794 81.942 23.7294 76.852 24.5794 71.752Z" fill="#60ABEB"/>
<path d="M18 61.4312C18.55 60.5812 19.09 60.8312 19.2 61.9412C19.4 63.9712 19.6 62.9912 19.8 65.0212C19.91 66.1212 19.89 67.9112 19.76 69.0012C18.92 75.9812 18.07 83.1212 17.24 90.0612C17.11 91.1412 17 91.1212 17 90.0212V65.0212C17 63.9212 17.45 62.2912 18 61.4412V61.4312Z" fill="#3997E6"/>
<path d="M92.8711 61.4312C92.3211 60.5812 91.7811 60.8312 91.6711 61.9412C91.4711 63.9712 91.2711 62.9912 91.0711 65.0212C90.9611 66.1212 90.9811 67.9112 91.1111 69.0012C91.9511 75.9812 92.8011 83.1212 93.6311 90.0612C93.7611 91.1412 93.8711 91.1212 93.8711 90.0212V65.0212C93.8711 63.9212 93.4211 62.2912 92.8711 61.4412V61.4312Z" fill="#3997E6"/>
</g>
<defs>
<clipPath id="clip0_926_6766">
<rect width="111" height="175" fill="white"/>
</clipPath>
</defs>
</svg>
