<svg width="123" height="244" viewBox="0 0 123 244" fill="none" xmlns="http://www.w3.org/2000/svg">
<g clip-path="url(#clip0_926_6679)">
<path d="M12 121.117C12 115.669 16.217 110.081 21.424 109.004C47.897 103.665 75.103 103.665 101.576 109.004C106.773 110.081 111 115.669 111 121.117V225.883C111 231.331 106.783 236.919 101.576 237.996C75.103 243.335 47.897 243.335 21.424 237.996C16.2265 236.919 12 231.331 12 225.883V121.117Z" fill="#171C4C" fill-opacity="1"/>
<path d="M21.2264 108.023L21.2264 108.023L21.2214 108.024C18.3381 108.621 15.7874 110.449 13.9673 112.811C12.1464 115.174 11 118.143 11 121.117V225.883C11 228.858 12.1492 231.827 13.9711 234.189C15.7921 236.551 18.3426 238.379 21.221 238.976L21.2264 238.977C47.8298 244.341 75.1702 244.341 101.774 238.977L101.779 238.976C104.662 238.379 107.213 236.551 109.033 234.189C110.854 231.826 112 228.857 112 225.883V121.117C112 118.142 110.851 115.173 109.029 112.811C107.208 110.449 104.657 108.621 101.779 108.024L101.774 108.023C75.1702 102.659 47.8298 102.659 21.2264 108.023Z" stroke="#171C4C" stroke-opacity="1" stroke-width="2"/>
<mask id="path-3-outside-1_926_6679" maskUnits="userSpaceOnUse" x="0" y="0.00195312" width="123" height="231" fill="black">
<rect fill="white" y="0.00195312" width="123" height="231"/>
<path fill-rule="evenodd" clip-rule="evenodd" d="M111 12.6795C111 9.38945 108.33 6.16945 105.04 5.60945C76.22 0.799453 46.78 0.799453 17.96 5.60945C14.68 6.16945 12 9.38945 12 12.6795V142.679C12 145.281 13.6763 147.84 16 149.073V150.679H9H6H5H4C2.9 150.679 2 151.579 2 152.679C2 152.833 2.01757 152.983 2.05079 153.127C2.01744 153.306 2 153.491 2 153.679V166.679C2 168.336 3.34315 169.679 5 169.679H7H9H16V172.301C13.6763 173.548 12 176.101 12 178.679V181.679V203.679V214.679C12 217.949 14.68 221.169 17.96 221.749C27.5847 223.359 37.2762 224.43 46.99 224.965V226.679C46.99 227.229 47.44 227.729 47.99 227.799C56.63 228.809 65.36 228.809 74 227.799C74.55 227.739 75 227.229 75 226.679H74.99V225.02C85.0486 224.506 95.0852 223.415 105.05 221.749C108.34 221.169 111.01 217.949 111.01 214.679V203.679V181.679V178.679C111.01 176.259 109.533 173.856 107.43 172.541V169.679H114H116H118C119.657 169.679 121 168.336 121 166.679V153.679C121 153.491 120.983 153.306 120.949 153.127C120.982 152.983 121 152.833 121 152.679C121 151.579 120.1 150.679 119 150.679H118H116H114H107.43V148.831C109.533 147.526 111.01 145.122 111.01 142.679V12.6795H111ZM111 165.679H107.43V154.679H111V165.679ZM12 154.679H16V165.679H12V154.679Z"/>
</mask>
<path fill-rule="evenodd" clip-rule="evenodd" d="M111 12.6795C111 9.38945 108.33 6.16945 105.04 5.60945C76.22 0.799453 46.78 0.799453 17.96 5.60945C14.68 6.16945 12 9.38945 12 12.6795V142.679C12 145.281 13.6763 147.84 16 149.073V150.679H9H6H5H4C2.9 150.679 2 151.579 2 152.679C2 152.833 2.01757 152.983 2.05079 153.127C2.01744 153.306 2 153.491 2 153.679V166.679C2 168.336 3.34315 169.679 5 169.679H7H9H16V172.301C13.6763 173.548 12 176.101 12 178.679V181.679V203.679V214.679C12 217.949 14.68 221.169 17.96 221.749C27.5847 223.359 37.2762 224.43 46.99 224.965V226.679C46.99 227.229 47.44 227.729 47.99 227.799C56.63 228.809 65.36 228.809 74 227.799C74.55 227.739 75 227.229 75 226.679H74.99V225.02C85.0486 224.506 95.0852 223.415 105.05 221.749C108.34 221.169 111.01 217.949 111.01 214.679V203.679V181.679V178.679C111.01 176.259 109.533 173.856 107.43 172.541V169.679H114H116H118C119.657 169.679 121 168.336 121 166.679V153.679C121 153.491 120.983 153.306 120.949 153.127C120.982 152.983 121 152.833 121 152.679C121 151.579 120.1 150.679 119 150.679H118H116H114H107.43V148.831C109.533 147.526 111.01 145.122 111.01 142.679V12.6795H111ZM111 165.679H107.43V154.679H111V165.679ZM12 154.679H16V165.679H12V154.679Z" fill="#171C4C"/>
<path d="M105.04 5.60945L105.376 3.6378L105.369 3.63674L105.04 5.60945ZM111 12.6795H109V14.6795H111V12.6795ZM17.96 5.60945L17.6308 3.63673L17.6234 3.63798L17.96 5.60945ZM16 149.073H18V147.87L16.9376 147.306L16 149.073ZM16 150.679V152.679H18V150.679H16ZM2.05079 153.127L4.01699 153.493L4.09329 153.083L3.99957 152.677L2.05079 153.127ZM16 169.679H18V167.679H16V169.679ZM16 172.301L16.9457 174.063L18 173.497V172.301H16ZM17.96 221.749L17.6117 223.719L17.621 223.721L17.6302 223.722L17.96 221.749ZM46.99 224.965H48.99V223.072L47.0999 222.968L46.99 224.965ZM47.99 227.799L47.7375 229.783L47.7476 229.785L47.7578 229.786L47.99 227.799ZM74 227.799L73.7831 225.811L73.7754 225.812L73.7678 225.813L74 227.799ZM75 226.679H77V224.679H75V226.679ZM74.99 226.679H72.99V228.679H74.99V226.679ZM74.99 225.02L74.8879 223.023L72.99 223.12V225.02H74.99ZM105.05 221.749L105.38 223.722L105.389 223.721L105.397 223.719L105.05 221.749ZM107.43 172.541H105.43V173.649L106.37 174.236L107.43 172.541ZM107.43 169.679V167.679H105.43V169.679H107.43ZM120.949 153.127L119 152.677L118.907 153.083L118.983 153.493L120.949 153.127ZM107.43 150.679H105.43V152.679H107.43V150.679ZM107.43 148.831L106.375 147.132L105.43 147.719V148.831H107.43ZM111.01 12.6795H113.01V10.6795H111.01V12.6795ZM107.43 165.679H105.43V167.679H107.43V165.679ZM111 165.679V167.679H113V165.679H111ZM107.43 154.679V152.679H105.43V154.679H107.43ZM111 154.679H113V152.679H111V154.679ZM16 154.679H18V152.679H16V154.679ZM12 154.679V152.679H10V154.679H12ZM16 165.679V167.679H18V165.679H16ZM12 165.679H10V167.679H12V165.679ZM104.704 7.5811C107.022 7.9756 109 10.3533 109 12.6795H113C113 8.42562 109.638 4.36331 105.376 3.63781L104.704 7.5811ZM18.2892 7.58217C46.8913 2.80855 76.1087 2.80855 104.711 7.58217L105.369 3.63674C76.3313 -1.20964 46.6687 -1.20964 17.6308 3.63674L18.2892 7.58217ZM14 12.6795C14 10.3558 15.9856 7.97549 18.2966 7.58093L17.6234 3.63798C13.3744 4.36342 10 8.42312 10 12.6795H14ZM14 142.679V12.6795H10V142.679H14ZM16.9376 147.306C15.2013 146.385 14 144.469 14 142.679H10C10 146.094 12.1514 149.295 15.0624 150.839L16.9376 147.306ZM18 150.679V149.073H14V150.679H18ZM9 152.679H16V148.679H9V152.679ZM6 152.679H9V148.679H6V152.679ZM5 152.679H6V148.679H5V152.679ZM4 152.679H5V148.679H4V152.679ZM4 152.679V148.679C1.79543 148.679 0 150.475 0 152.679H4ZM3.99957 152.677C4.00004 152.679 4 152.68 4 152.679H0C0 152.986 0.0350907 153.287 0.102005 153.577L3.99957 152.677ZM4 153.679C4 153.614 4.00602 153.552 4.01699 153.493L0.0845849 152.761C0.0288587 153.06 0 153.367 0 153.679H4ZM4 166.679V153.679H0V166.679H4ZM5 167.679C4.44771 167.679 4 167.232 4 166.679H0C0 169.441 2.23858 171.679 5 171.679V167.679ZM7 167.679H5V171.679H7V167.679ZM9 167.679H7V171.679H9V167.679ZM16 167.679H9V171.679H16V167.679ZM18 172.301V169.679H14V172.301H18ZM14 178.679C14 176.92 15.1957 175.002 16.9457 174.063L15.0543 170.539C12.157 172.093 10 175.282 10 178.679H14ZM14 181.679V178.679H10V181.679H14ZM14 203.679V181.679H10V203.679H14ZM14 214.679V203.679H10V214.679H14ZM18.3083 219.78C15.9817 219.369 14 216.977 14 214.679H10C10 218.922 13.3783 222.97 17.6117 223.719L18.3083 219.78ZM47.0999 222.968C37.4597 222.438 27.8416 221.374 18.2898 219.777L17.6302 223.722C27.3278 225.343 37.0927 226.423 46.8801 226.962L47.0999 222.968ZM48.99 226.679V224.965H44.99V226.679H48.99ZM48.2425 225.815C48.4902 225.847 48.6662 225.965 48.774 226.086C48.882 226.206 48.99 226.407 48.99 226.679H44.99C44.99 228.265 46.2168 229.59 47.7375 229.783L48.2425 225.815ZM73.7678 225.813C65.2821 226.805 56.7079 226.805 48.2222 225.813L47.7578 229.786C56.5521 230.814 65.4379 230.814 74.2322 229.786L73.7678 225.813ZM73 226.679C73 226.411 73.105 226.214 73.2119 226.094C73.3195 225.973 73.5078 225.841 73.7831 225.811L74.2169 229.788C75.7959 229.615 77 228.236 77 226.679H73ZM74.99 228.679H75V224.679H74.99V228.679ZM72.99 225.02V226.679H76.99V225.02H72.99ZM104.72 219.777C94.8308 221.43 84.8703 222.512 74.8879 223.023L75.0921 227.017C85.227 226.499 95.3395 225.401 105.38 223.722L104.72 219.777ZM109.01 214.679C109.01 216.98 107.036 219.368 104.703 219.78L105.397 223.719C109.644 222.97 113.01 218.919 113.01 214.679H109.01ZM109.01 203.679V214.679H113.01V203.679H109.01ZM109.01 181.679V203.679H113.01V181.679H109.01ZM109.01 178.679V181.679H113.01V178.679H109.01ZM106.37 174.236C107.964 175.233 109.01 177.033 109.01 178.679H113.01C113.01 175.485 111.102 172.478 108.49 170.845L106.37 174.236ZM105.43 169.679V172.541H109.43V169.679H105.43ZM114 167.679H107.43V171.679H114V167.679ZM116 167.679H114V171.679H116V167.679ZM118 167.679H116V171.679H118V167.679ZM119 166.679C119 167.232 118.552 167.679 118 167.679V171.679C120.761 171.679 123 169.441 123 166.679H119ZM119 153.679V166.679H123V153.679H119ZM118.983 153.493C118.994 153.552 119 153.614 119 153.679H123C123 153.367 122.971 153.06 122.915 152.761L118.983 153.493ZM119 152.679C119 152.68 119 152.679 119 152.677L122.898 153.577C122.965 153.287 123 152.986 123 152.679H119ZM119 152.679H123C123 150.475 121.205 148.679 119 148.679V152.679ZM118 152.679H119V148.679H118V152.679ZM116 152.679H118V148.679H116V152.679ZM114 152.679H116V148.679H114V152.679ZM107.43 152.679H114V148.679H107.43V152.679ZM105.43 148.831V150.679H109.43V148.831H105.43ZM109.01 142.679C109.01 144.352 107.96 146.148 106.375 147.132L108.485 150.53C111.106 148.903 113.01 145.892 113.01 142.679H109.01ZM109.01 12.6795V142.679H113.01V12.6795H109.01ZM111 14.6795H111.01V10.6795H111V14.6795ZM107.43 167.679H111V163.679H107.43V167.679ZM105.43 154.679V165.679H109.43V154.679H105.43ZM111 152.679H107.43V156.679H111V152.679ZM113 165.679V154.679H109V165.679H113ZM16 152.679H12V156.679H16V152.679ZM18 165.679V154.679H14V165.679H18ZM12 167.679H16V163.679H12V167.679ZM10 154.679V165.679H14V154.679H10Z" fill="#171C4C" mask="url(#path-3-outside-1_926_6679)"/>
<path d="M12 181.679C12 178.409 14.68 175.189 17.96 174.609C46.79 169.789 76.22 169.789 105.05 174.609C108.33 175.189 111.01 178.409 111.01 181.679V214.679C111.01 217.949 108.34 221.169 105.05 221.749C76.22 226.569 46.79 226.569 17.96 221.749C14.68 221.169 12 217.949 12 214.679V181.679Z" fill="#2A2E5E"/>
<path d="M75.0002 226.68C75.0002 227.23 74.5502 227.74 74.0002 227.8C65.3602 228.81 56.6302 228.81 47.9902 227.8C47.4402 227.73 46.9902 227.23 46.9902 226.68V220.68C46.9902 220.13 47.4402 219.68 47.9902 219.68H73.9902C74.5402 219.68 74.9902 220.13 74.9902 220.68V226.68H75.0002Z" fill="#A7A7C4"/>
<path d="M12 178.679C12 175.419 14.68 172.199 17.96 171.609C46.79 166.789 76.22 166.789 105.05 171.609C108.33 172.189 111.01 175.419 111.01 178.679V203.679C111.01 206.939 108.34 210.159 105.05 210.749C76.22 215.569 46.79 215.569 17.96 210.749C14.68 210.169 12 206.939 12 203.679V178.679Z" fill="#3D406F"/>
<path d="M111 12.6795C111 9.38945 108.33 6.16945 105.04 5.60945C76.22 0.799453 46.78 0.799453 17.96 5.60945C14.68 6.16945 12 9.38945 12 12.6795V142.679C12 145.969 14.68 149.189 17.96 149.749C46.79 154.569 76.22 154.569 105.05 149.749C108.33 149.189 111.01 145.969 111.01 142.679V12.6795H111Z" fill="#C0C9E2"/>
<path opacity="0.75" d="M107 15.6789C107 12.3889 104.32 9.16891 101.04 8.61891C74.8602 4.29891 48.1402 4.29891 21.9502 8.61891C18.6702 9.16891 15.9902 12.3889 15.9902 15.6789V76.6789C15.9902 79.9689 18.6902 82.6689 21.9902 82.6789H100.99C104.29 82.6789 106.99 79.9689 106.99 76.6789V15.6789H107Z" fill="white"/>
<g opacity="0.5">
<path d="M25 12.9004V73.4604" stroke="#C0C9E2" stroke-width="2" stroke-linecap="round" stroke-linejoin="round"/>
<path d="M37 12.9004V73.4604" stroke="#C0C9E2" stroke-width="2" stroke-linecap="round" stroke-linejoin="round"/>
<path d="M49 12.9004V73.4604" stroke="#C0C9E2" stroke-width="2" stroke-linecap="round" stroke-linejoin="round"/>
<path d="M73 12.9004V73.4604" stroke="#C0C9E2" stroke-width="2" stroke-linecap="round" stroke-linejoin="round"/>
<path d="M61 12.9004V73.4604" stroke="#C0C9E2" stroke-width="2" stroke-linecap="round" stroke-linejoin="round"/>
<path d="M85 12.9004V73.4604" stroke="#C0C9E2" stroke-width="2" stroke-linecap="round" stroke-linejoin="round"/>
<path d="M97 12.9004V73.4604" stroke="#C0C9E2" stroke-width="2" stroke-linecap="round" stroke-linejoin="round"/>
</g>
<path d="M16 111.68C16 108.4 18.68 105.17 21.96 104.62C48.28 100.27 75.14 100.27 101.47 104.62C104.75 105.17 107.43 108.4 107.43 111.68V199.68C107.43 202.96 104.76 206.19 101.47 206.74C75.15 211.09 48.29 211.09 21.96 206.74C18.68 206.19 16 202.96 16 199.68V111.68Z" fill="#7530F1"/>
<path d="M20 110.68C20 108.5 21.79 106.47 23.99 106.2C48.92 103.36 74.09 103.36 99.02 106.2C101.21 106.47 103.01 108.5 103.01 110.68V124.68C103.01 126.86 101.22 128.89 99.02 129.16C74.09 132 48.92 132 23.99 129.16C21.8 128.89 20 126.86 20 124.68V110.68Z" fill="white" fill-opacity="0.5" style="mix-blend-mode:soft-light"/>
<g opacity="0.5">
<path d="M29 110.9V124.46" stroke="#7530F1" stroke-width="2" stroke-linecap="round" stroke-linejoin="round"/>
<path d="M39 110.9V124.46" stroke="#7530F1" stroke-width="2" stroke-linecap="round" stroke-linejoin="round"/>
<path d="M50 110.9V124.46" stroke="#7530F1" stroke-width="2" stroke-linecap="round" stroke-linejoin="round"/>
<path d="M72 110.9V124.46" stroke="#7530F1" stroke-width="2" stroke-linecap="round" stroke-linejoin="round"/>
<path d="M61 110.9V124.46" stroke="#7530F1" stroke-width="2" stroke-linecap="round" stroke-linejoin="round"/>
<path d="M83 110.9V124.46" stroke="#7530F1" stroke-width="2" stroke-linecap="round" stroke-linejoin="round"/>
<path d="M94 110.9V124.46" stroke="#7530F1" stroke-width="2" stroke-linecap="round" stroke-linejoin="round"/>
</g>
<path d="M101.02 170.969C74.75 168.089 48.25 168.089 21.98 170.969C18.69 171.359 16 174.409 16 177.679V196.679C16 199.949 18.69 202.999 21.98 203.389C23.65 203.569 25.33 203.739 27 203.899V185.679H93V204.169C95.68 203.939 98.35 203.679 101.02 203.389C104.31 202.999 107 199.949 107 196.679V177.679C107 174.409 104.31 171.359 101.02 170.969Z" fill="#9758F5"/>
<path d="M93 203.68C95.2091 203.68 97 201.889 97 199.68C97 197.471 95.2091 195.68 93 195.68C90.7909 195.68 89 197.471 89 199.68C89 201.889 90.7909 203.68 93 203.68Z" fill="#9145F7"/>
<path d="M30.9495 199.049C31.4095 202.079 28.4795 204.599 25.3695 203.359C24.4395 202.989 23.6895 202.239 23.3195 201.309C22.0895 198.209 24.5995 195.269 27.6295 195.729C29.3095 195.989 30.6895 197.359 30.9495 199.049Z" fill="#9145F7"/>
<path d="M101.02 166.969C74.75 164.089 48.25 164.089 21.98 166.969C18.69 167.359 16 170.399 16 173.679V194.679C16 197.949 18.69 200.999 21.98 201.389C23.65 201.569 25.33 201.739 27 201.899V182.679H93V202.169C95.68 201.939 98.35 201.679 101.02 201.389C104.31 200.999 107 197.959 107 194.679V173.679C107 170.409 104.31 167.359 101.02 166.969Z" fill="#FFEAB5"/>
<path d="M93 201.68C95.2091 201.68 97 199.889 97 197.68C97 195.471 95.2091 193.68 93 193.68C90.7909 193.68 89 195.471 89 197.68C89 199.889 90.7909 201.68 93 201.68Z" fill="#FFEAB5"/>
<path d="M29.8151 200.496C31.3858 198.935 31.4028 196.405 29.8531 194.846C28.3034 193.287 25.7739 193.289 24.2033 194.851C22.6326 196.412 22.6156 198.941 24.1653 200.5C25.715 202.059 28.2445 202.057 29.8151 200.496Z" fill="#FFEAB5"/>
<path d="M16 142.679C16 140.489 17.79 138.459 19.99 138.199C47.57 135.019 75.43 135.019 103.02 138.199C105.21 138.459 107.01 140.489 107.01 142.679V188.679C107.01 190.869 105.22 192.899 103.02 193.159C75.44 196.339 47.58 196.339 19.99 193.159C17.8 192.899 16 190.869 16 188.679V142.679Z" fill="url(#paint0_linear_926_6679)"/>
<path d="M4 152.68C4 153.78 4.9 154.68 6 154.68H16C17.1 154.68 18 153.78 18 152.68C18 151.58 17.1 150.68 16 150.68H6C4.9 150.68 4 151.58 4 152.68Z" fill="#2A2E5E"/>
<path d="M9 150.68H5C3.34315 150.68 2 152.023 2 153.68V166.68C2 168.337 3.34315 169.68 5 169.68H9C10.6569 169.68 12 168.337 12 166.68V153.68C12 152.023 10.6569 150.68 9 150.68Z" fill="#2A2E5E"/>
<path d="M19 167.68C19 168.78 18.1 169.68 17 169.68H7C5.9 169.68 5 168.78 5 167.68C5 166.58 5.9 165.68 7 165.68H17C18.1 165.68 19 166.58 19 167.68Z" fill="#2A2E5E"/>
<path d="M18 152.68C18 153.78 17.1 154.68 16 154.68H4C2.9 154.68 2 153.78 2 152.68C2 151.58 2.9 150.68 4 150.68H16C17.1 150.68 18 151.58 18 152.68Z" fill="#3D406F"/>
<path d="M118 150.68H114C112.343 150.68 111 152.023 111 153.68V166.68C111 168.337 112.343 169.68 114 169.68H118C119.657 169.68 121 168.337 121 166.68V153.68C121 152.023 119.657 150.68 118 150.68Z" fill="#2A2E5E"/>
<path d="M104 152.68C104 153.78 104.9 154.68 106 154.68H116C117.1 154.68 118 153.78 118 152.68C118 151.58 117.1 150.68 116 150.68H106C104.9 150.68 104 151.58 104 152.68Z" fill="#2A2E5E"/>
<path d="M121 152.68C121 153.78 120.1 154.68 119 154.68H106C104.9 154.68 104 153.78 104 152.68C104 151.58 104.9 150.68 106 150.68H119C120.1 150.68 121 151.58 121 152.68Z" fill="#3D406F"/>
<path d="M104 167.68C104 168.78 104.9 169.68 106 169.68H116C117.1 169.68 118 168.78 118 167.68C118 166.58 117.1 165.68 116 165.68H106C104.9 165.68 104 166.58 104 167.68Z" fill="#2A2E5E"/>
<path d="M20.491 137.68C20.511 136.58 21.431 135.68 22.531 135.68H99.861C100.961 135.68 101.901 136.58 101.941 137.69C102.541 152.42 103.131 167.09 103.721 181.68C103.761 182.77 102.901 183.78 101.811 183.91C75.171 187.12 48.231 187.12 21.591 183.91C20.501 183.78 19.621 182.77 19.641 181.67C19.931 167.04 20.211 152.37 20.501 137.67L20.491 137.68Z" fill="#2A2E5E"/>
<path d="M20.1098 142.68C20.1098 141.58 21.0198 140.68 22.1198 140.68H100.25C101.35 140.68 102.28 141.58 102.31 142.69C102.65 154.73 102.98 166.72 103.32 178.69C103.35 179.78 102.48 180.8 101.38 180.93C75.0198 184.1 48.3598 184.11 21.9998 180.93C20.8998 180.8 20.0098 179.78 20.0098 178.69C20.0498 166.69 20.0798 154.69 20.1198 142.69L20.1098 142.68Z" fill="#3997E6"/>
<path opacity="0.2" d="M23.0101 145.65C23.0601 144.55 24.0001 143.67 25.1001 143.67H96.5001C97.6001 143.67 98.5401 144.55 98.5901 145.65C98.8001 150.6 99.0101 155.61 99.2201 160.68C99.2601 161.8 98.4301 162.4 97.3601 162.03C73.6601 153.96 47.9501 153.96 24.2501 162.03C23.1801 162.4 22.3501 161.81 22.3901 160.68C22.5901 155.61 22.8001 150.6 23.0201 145.65H23.0101Z" fill="white"/>
</g>
<defs>
<linearGradient id="paint0_linear_926_6679" x1="61.5" y1="195.539" x2="61.5" y2="135.819" gradientUnits="userSpaceOnUse">
<stop stop-color="#9758F5"/>
<stop offset="0.58" stop-color="#7740ED"/>
<stop offset="1" stop-color="#7740ED"/>
</linearGradient>
<clipPath id="clip0_926_6679">
<rect width="123" height="244" fill="white"/>
</clipPath>
</defs>
</svg>
